G04 (created by PCBNEW (2013-07-07 BZR 4022)-stable) date 11/11/2015 10:51:05 PM*
%MOIN*%
G04 Gerber Fmt 3.4, Leading zero omitted, Abs format*
%FSLAX34Y34*%
G01*
G70*
G90*
G04 APERTURE LIST*
%ADD10C,0.00590551*%
%ADD11C,0.011811*%
%ADD12C,0.01*%
%ADD13C,0.00984252*%
%ADD14C,0.015748*%
%ADD15C,0.00492126*%
%ADD16C,0.0295276*%
%ADD17C,0.02*%
%ADD18C,0.012*%
%ADD19C,0.0031*%
%ADD20C,0.005*%
%ADD21C,0.0039*%
%ADD22C,0.008*%
%ADD23C,0.00787402*%
%ADD24C,0.0047*%
%ADD25C,0.003*%
%ADD26C,0.0043*%
%ADD27C,0.0107*%
%ADD28O,0.228346X0.110236*%
%ADD29O,0.216535X0.110236*%
%ADD30R,0.055X0.055*%
%ADD31C,0.055*%
%ADD32C,0.25*%
%ADD33R,0.0295276X0.0551181*%
%ADD34C,0.0787402*%
%ADD35O,0.11811X0.15748*%
%ADD36R,0.0394X0.0315*%
%ADD37R,0.0276X0.0394*%
%ADD38R,0.035X0.055*%
%ADD39R,0.055X0.035*%
%ADD40R,0.02X0.045*%
%ADD41R,0.0315X0.0394*%
%ADD42R,0.015748X0.0787402*%
%ADD43R,0.0629921X0.0551181*%
%ADD44R,0.0748031X0.0748031*%
%ADD45O,0.0354331X0.0629921*%
%ADD46R,0.15748X0.11811*%
%ADD47R,0.06X0.06*%
%ADD48C,0.06*%
%ADD49C,0.062*%
%ADD50O,0.062X0.062*%
%ADD51C,0.032*%
%ADD52R,0.0944882X0.129921*%
%ADD53R,0.0354331X0.129921*%
%ADD54C,0.0314961*%
G04 APERTURE END LIST*
G54D10*
G54D11*
X48223Y-42260D02*
X48307Y-42289D01*
X48448Y-42289D01*
X48504Y-42260D01*
X48532Y-42232D01*
X48561Y-42176D01*
X48561Y-42120D01*
X48532Y-42064D01*
X48504Y-42035D01*
X48448Y-42007D01*
X48336Y-41979D01*
X48279Y-41951D01*
X48251Y-41923D01*
X48223Y-41867D01*
X48223Y-41810D01*
X48251Y-41754D01*
X48279Y-41726D01*
X48336Y-41698D01*
X48476Y-41698D01*
X48561Y-41726D01*
X48757Y-41698D02*
X48898Y-42289D01*
X49011Y-41867D01*
X49123Y-42289D01*
X49264Y-41698D01*
X49489Y-42289D02*
X49489Y-41698D01*
X49685Y-41698D02*
X50023Y-41698D01*
X49854Y-42289D02*
X49854Y-41698D01*
X50557Y-42232D02*
X50529Y-42260D01*
X50445Y-42289D01*
X50388Y-42289D01*
X50304Y-42260D01*
X50248Y-42204D01*
X50220Y-42148D01*
X50192Y-42035D01*
X50192Y-41951D01*
X50220Y-41839D01*
X50248Y-41782D01*
X50304Y-41726D01*
X50388Y-41698D01*
X50445Y-41698D01*
X50529Y-41726D01*
X50557Y-41754D01*
X50810Y-42289D02*
X50810Y-41698D01*
X50810Y-41979D02*
X51148Y-41979D01*
X51148Y-42289D02*
X51148Y-41698D01*
X55358Y-42510D02*
X55442Y-42539D01*
X55583Y-42539D01*
X55639Y-42510D01*
X55667Y-42482D01*
X55695Y-42426D01*
X55695Y-42370D01*
X55667Y-42314D01*
X55639Y-42285D01*
X55583Y-42257D01*
X55470Y-42229D01*
X55414Y-42201D01*
X55386Y-42173D01*
X55358Y-42117D01*
X55358Y-42060D01*
X55386Y-42004D01*
X55414Y-41976D01*
X55470Y-41948D01*
X55611Y-41948D01*
X55695Y-41976D01*
X55948Y-42539D02*
X55948Y-41948D01*
X56173Y-41948D01*
X56229Y-41976D01*
X56257Y-42004D01*
X56286Y-42060D01*
X56286Y-42145D01*
X56257Y-42201D01*
X56229Y-42229D01*
X56173Y-42257D01*
X55948Y-42257D01*
X56539Y-42229D02*
X56735Y-42229D01*
X56820Y-42539D02*
X56539Y-42539D01*
X56539Y-41948D01*
X56820Y-41948D01*
X57045Y-42370D02*
X57326Y-42370D01*
X56989Y-42539D02*
X57185Y-41948D01*
X57382Y-42539D01*
X57579Y-42539D02*
X57579Y-41948D01*
X57917Y-42539D02*
X57664Y-42201D01*
X57917Y-41948D02*
X57579Y-42285D01*
X58170Y-42229D02*
X58367Y-42229D01*
X58451Y-42539D02*
X58170Y-42539D01*
X58170Y-41948D01*
X58451Y-41948D01*
X59041Y-42539D02*
X58845Y-42257D01*
X58704Y-42539D02*
X58704Y-41948D01*
X58929Y-41948D01*
X58985Y-41976D01*
X59013Y-42004D01*
X59041Y-42060D01*
X59041Y-42145D01*
X59013Y-42201D01*
X58985Y-42229D01*
X58929Y-42257D01*
X58704Y-42257D01*
G54D12*
X56609Y-36887D02*
X56845Y-36887D01*
X56697Y-37300D02*
X56697Y-36769D01*
X56727Y-36710D01*
X56786Y-36680D01*
X56845Y-36680D01*
X57140Y-37300D02*
X57081Y-37271D01*
X57051Y-37241D01*
X57022Y-37182D01*
X57022Y-37005D01*
X57051Y-36946D01*
X57081Y-36917D01*
X57140Y-36887D01*
X57229Y-36887D01*
X57288Y-36917D01*
X57317Y-36946D01*
X57347Y-37005D01*
X57347Y-37182D01*
X57317Y-37241D01*
X57288Y-37271D01*
X57229Y-37300D01*
X57140Y-37300D01*
X57612Y-37300D02*
X57612Y-36887D01*
X57612Y-37005D02*
X57642Y-36946D01*
X57671Y-36917D01*
X57730Y-36887D01*
X57790Y-36887D01*
X58469Y-37300D02*
X58469Y-36680D01*
X58734Y-37300D02*
X58734Y-36976D01*
X58705Y-36917D01*
X58646Y-36887D01*
X58557Y-36887D01*
X58498Y-36917D01*
X58469Y-36946D01*
X59266Y-37271D02*
X59207Y-37300D01*
X59089Y-37300D01*
X59030Y-37271D01*
X59000Y-37212D01*
X59000Y-36976D01*
X59030Y-36917D01*
X59089Y-36887D01*
X59207Y-36887D01*
X59266Y-36917D01*
X59295Y-36976D01*
X59295Y-37035D01*
X59000Y-37094D01*
X59650Y-37300D02*
X59590Y-37271D01*
X59561Y-37212D01*
X59561Y-36680D01*
X59886Y-36887D02*
X59886Y-37507D01*
X59886Y-36917D02*
X59945Y-36887D01*
X60063Y-36887D01*
X60122Y-36917D01*
X60151Y-36946D01*
X60181Y-37005D01*
X60181Y-37182D01*
X60151Y-37241D01*
X60122Y-37271D01*
X60063Y-37300D01*
X59945Y-37300D01*
X59886Y-37271D01*
X60476Y-37271D02*
X60476Y-37300D01*
X60447Y-37360D01*
X60417Y-37389D01*
X61185Y-37271D02*
X61244Y-37300D01*
X61362Y-37300D01*
X61421Y-37271D01*
X61450Y-37212D01*
X61450Y-37182D01*
X61421Y-37123D01*
X61362Y-37094D01*
X61273Y-37094D01*
X61214Y-37064D01*
X61185Y-37005D01*
X61185Y-36976D01*
X61214Y-36917D01*
X61273Y-36887D01*
X61362Y-36887D01*
X61421Y-36917D01*
X61952Y-37271D02*
X61893Y-37300D01*
X61775Y-37300D01*
X61716Y-37271D01*
X61687Y-37212D01*
X61687Y-36976D01*
X61716Y-36917D01*
X61775Y-36887D01*
X61893Y-36887D01*
X61952Y-36917D01*
X61982Y-36976D01*
X61982Y-37035D01*
X61687Y-37094D01*
X62248Y-36887D02*
X62248Y-37300D01*
X62248Y-36946D02*
X62277Y-36917D01*
X62336Y-36887D01*
X62425Y-36887D01*
X62484Y-36917D01*
X62513Y-36976D01*
X62513Y-37300D01*
X63074Y-37300D02*
X63074Y-36680D01*
X63074Y-37271D02*
X63015Y-37300D01*
X62897Y-37300D01*
X62838Y-37271D01*
X62809Y-37241D01*
X62779Y-37182D01*
X62779Y-37005D01*
X62809Y-36946D01*
X62838Y-36917D01*
X62897Y-36887D01*
X63015Y-36887D01*
X63074Y-36917D01*
X64078Y-37271D02*
X64019Y-37300D01*
X63901Y-37300D01*
X63842Y-37271D01*
X63812Y-37212D01*
X63812Y-36976D01*
X63842Y-36917D01*
X63901Y-36887D01*
X64019Y-36887D01*
X64078Y-36917D01*
X64108Y-36976D01*
X64108Y-37035D01*
X63812Y-37094D01*
X64373Y-37300D02*
X64373Y-36887D01*
X64373Y-36946D02*
X64403Y-36917D01*
X64462Y-36887D01*
X64550Y-36887D01*
X64610Y-36917D01*
X64639Y-36976D01*
X64639Y-37300D01*
X64639Y-36976D02*
X64669Y-36917D01*
X64728Y-36887D01*
X64816Y-36887D01*
X64875Y-36917D01*
X64905Y-36976D01*
X64905Y-37300D01*
X65466Y-37300D02*
X65466Y-36976D01*
X65436Y-36917D01*
X65377Y-36887D01*
X65259Y-36887D01*
X65200Y-36917D01*
X65466Y-37271D02*
X65407Y-37300D01*
X65259Y-37300D01*
X65200Y-37271D01*
X65170Y-37212D01*
X65170Y-37153D01*
X65200Y-37094D01*
X65259Y-37064D01*
X65407Y-37064D01*
X65466Y-37035D01*
X65761Y-37300D02*
X65761Y-36887D01*
X65761Y-36680D02*
X65731Y-36710D01*
X65761Y-36740D01*
X65790Y-36710D01*
X65761Y-36680D01*
X65761Y-36740D01*
X66145Y-37300D02*
X66086Y-37271D01*
X66056Y-37212D01*
X66056Y-36680D01*
X66765Y-36887D02*
X67001Y-36887D01*
X66853Y-36680D02*
X66853Y-37212D01*
X66883Y-37271D01*
X66942Y-37300D01*
X67001Y-37300D01*
X67296Y-37300D02*
X67237Y-37271D01*
X67208Y-37241D01*
X67178Y-37182D01*
X67178Y-37005D01*
X67208Y-36946D01*
X67237Y-36917D01*
X67296Y-36887D01*
X67385Y-36887D01*
X67444Y-36917D01*
X67473Y-36946D01*
X67503Y-37005D01*
X67503Y-37182D01*
X67473Y-37241D01*
X67444Y-37271D01*
X67385Y-37300D01*
X67296Y-37300D01*
X56963Y-37855D02*
X56963Y-38475D01*
X56963Y-38239D02*
X56904Y-38268D01*
X56786Y-38268D01*
X56727Y-38239D01*
X56697Y-38209D01*
X56668Y-38150D01*
X56668Y-37973D01*
X56697Y-37914D01*
X56727Y-37885D01*
X56786Y-37855D01*
X56904Y-37855D01*
X56963Y-37885D01*
X57524Y-37855D02*
X57524Y-38268D01*
X57258Y-37855D02*
X57258Y-38180D01*
X57288Y-38239D01*
X57347Y-38268D01*
X57435Y-38268D01*
X57494Y-38239D01*
X57524Y-38209D01*
X58055Y-38239D02*
X57996Y-38268D01*
X57878Y-38268D01*
X57819Y-38239D01*
X57790Y-38180D01*
X57790Y-37944D01*
X57819Y-37885D01*
X57878Y-37855D01*
X57996Y-37855D01*
X58055Y-37885D01*
X58085Y-37944D01*
X58085Y-38003D01*
X57790Y-38062D01*
X58321Y-38239D02*
X58380Y-38268D01*
X58498Y-38268D01*
X58557Y-38239D01*
X58587Y-38180D01*
X58587Y-38150D01*
X58557Y-38091D01*
X58498Y-38062D01*
X58410Y-38062D01*
X58350Y-38032D01*
X58321Y-37973D01*
X58321Y-37944D01*
X58350Y-37885D01*
X58410Y-37855D01*
X58498Y-37855D01*
X58557Y-37885D01*
X58764Y-37855D02*
X59000Y-37855D01*
X58852Y-37648D02*
X58852Y-38180D01*
X58882Y-38239D01*
X58941Y-38268D01*
X59000Y-38268D01*
X59207Y-38268D02*
X59207Y-37855D01*
X59207Y-37648D02*
X59177Y-37678D01*
X59207Y-37708D01*
X59236Y-37678D01*
X59207Y-37648D01*
X59207Y-37708D01*
X59590Y-38268D02*
X59531Y-38239D01*
X59502Y-38209D01*
X59472Y-38150D01*
X59472Y-37973D01*
X59502Y-37914D01*
X59531Y-37885D01*
X59590Y-37855D01*
X59679Y-37855D01*
X59738Y-37885D01*
X59768Y-37914D01*
X59797Y-37973D01*
X59797Y-38150D01*
X59768Y-38209D01*
X59738Y-38239D01*
X59679Y-38268D01*
X59590Y-38268D01*
X60063Y-37855D02*
X60063Y-38268D01*
X60063Y-37914D02*
X60092Y-37885D01*
X60151Y-37855D01*
X60240Y-37855D01*
X60299Y-37885D01*
X60329Y-37944D01*
X60329Y-38268D01*
X60594Y-38239D02*
X60653Y-38268D01*
X60771Y-38268D01*
X60830Y-38239D01*
X60860Y-38180D01*
X60860Y-38150D01*
X60830Y-38091D01*
X60771Y-38062D01*
X60683Y-38062D01*
X60624Y-38032D01*
X60594Y-37973D01*
X60594Y-37944D01*
X60624Y-37885D01*
X60683Y-37855D01*
X60771Y-37855D01*
X60830Y-37885D01*
X61510Y-37973D02*
X61480Y-37944D01*
X61421Y-37914D01*
X61362Y-37914D01*
X61303Y-37944D01*
X61273Y-37973D01*
X61244Y-38032D01*
X61244Y-38091D01*
X61273Y-38150D01*
X61303Y-38180D01*
X61362Y-38209D01*
X61421Y-38209D01*
X61480Y-38180D01*
X61510Y-38150D01*
X61510Y-37914D02*
X61510Y-38150D01*
X61539Y-38180D01*
X61569Y-38180D01*
X61628Y-38150D01*
X61657Y-38091D01*
X61657Y-37944D01*
X61598Y-37855D01*
X61510Y-37796D01*
X61391Y-37767D01*
X61273Y-37796D01*
X61185Y-37855D01*
X61126Y-37944D01*
X61096Y-38062D01*
X61126Y-38180D01*
X61185Y-38268D01*
X61273Y-38328D01*
X61391Y-38357D01*
X61510Y-38328D01*
X61598Y-38268D01*
X62189Y-38268D02*
X62189Y-37944D01*
X62159Y-37885D01*
X62100Y-37855D01*
X61982Y-37855D01*
X61923Y-37885D01*
X62189Y-38239D02*
X62130Y-38268D01*
X61982Y-38268D01*
X61923Y-38239D01*
X61893Y-38180D01*
X61893Y-38121D01*
X61923Y-38062D01*
X61982Y-38032D01*
X62130Y-38032D01*
X62189Y-38003D01*
X62425Y-37855D02*
X62543Y-38268D01*
X62661Y-37973D01*
X62779Y-38268D01*
X62897Y-37855D01*
X63133Y-38268D02*
X63133Y-37648D01*
X63192Y-38032D02*
X63370Y-38268D01*
X63370Y-37855D02*
X63133Y-38091D01*
X63576Y-37855D02*
X63694Y-38268D01*
X63812Y-37973D01*
X63930Y-38268D01*
X64049Y-37855D01*
X64550Y-38268D02*
X64550Y-37944D01*
X64521Y-37885D01*
X64462Y-37855D01*
X64344Y-37855D01*
X64285Y-37885D01*
X64550Y-38239D02*
X64491Y-38268D01*
X64344Y-38268D01*
X64285Y-38239D01*
X64255Y-38180D01*
X64255Y-38121D01*
X64285Y-38062D01*
X64344Y-38032D01*
X64491Y-38032D01*
X64550Y-38003D01*
X64846Y-38268D02*
X64846Y-37855D01*
X64846Y-37973D02*
X64875Y-37914D01*
X64905Y-37885D01*
X64964Y-37855D01*
X65023Y-37855D01*
X65495Y-38268D02*
X65495Y-37648D01*
X65495Y-38239D02*
X65436Y-38268D01*
X65318Y-38268D01*
X65259Y-38239D01*
X65229Y-38209D01*
X65200Y-38150D01*
X65200Y-37973D01*
X65229Y-37914D01*
X65259Y-37885D01*
X65318Y-37855D01*
X65436Y-37855D01*
X65495Y-37885D01*
X66027Y-38239D02*
X65968Y-38268D01*
X65849Y-38268D01*
X65790Y-38239D01*
X65761Y-38180D01*
X65761Y-37944D01*
X65790Y-37885D01*
X65849Y-37855D01*
X65968Y-37855D01*
X66027Y-37885D01*
X66056Y-37944D01*
X66056Y-38003D01*
X65761Y-38062D01*
X66322Y-37855D02*
X66322Y-38268D01*
X66322Y-37914D02*
X66351Y-37885D01*
X66410Y-37855D01*
X66499Y-37855D01*
X66558Y-37885D01*
X66588Y-37944D01*
X66588Y-38268D01*
X67149Y-37855D02*
X67149Y-38357D01*
X67119Y-38416D01*
X67090Y-38446D01*
X67030Y-38475D01*
X66942Y-38475D01*
X66883Y-38446D01*
X67149Y-38239D02*
X67090Y-38268D01*
X66971Y-38268D01*
X66912Y-38239D01*
X66883Y-38209D01*
X66853Y-38150D01*
X66853Y-37973D01*
X66883Y-37914D01*
X66912Y-37885D01*
X66971Y-37855D01*
X67090Y-37855D01*
X67149Y-37885D01*
X67444Y-38268D02*
X67444Y-37855D01*
X67444Y-37648D02*
X67414Y-37678D01*
X67444Y-37708D01*
X67473Y-37678D01*
X67444Y-37648D01*
X67444Y-37708D01*
X67739Y-37855D02*
X67739Y-38268D01*
X67739Y-37914D02*
X67769Y-37885D01*
X67828Y-37855D01*
X67916Y-37855D01*
X67975Y-37885D01*
X68005Y-37944D01*
X68005Y-38268D01*
X68536Y-38239D02*
X68477Y-38268D01*
X68359Y-38268D01*
X68300Y-38239D01*
X68270Y-38180D01*
X68270Y-37944D01*
X68300Y-37885D01*
X68359Y-37855D01*
X68477Y-37855D01*
X68536Y-37885D01*
X68566Y-37944D01*
X68566Y-38003D01*
X68270Y-38062D01*
X69068Y-38239D02*
X69009Y-38268D01*
X68890Y-38268D01*
X68831Y-38239D01*
X68802Y-38180D01*
X68802Y-37944D01*
X68831Y-37885D01*
X68890Y-37855D01*
X69009Y-37855D01*
X69068Y-37885D01*
X69097Y-37944D01*
X69097Y-38003D01*
X68802Y-38062D01*
X69363Y-38268D02*
X69363Y-37855D01*
X69363Y-37973D02*
X69392Y-37914D01*
X69422Y-37885D01*
X69481Y-37855D01*
X69540Y-37855D01*
X69747Y-38209D02*
X69776Y-38239D01*
X69747Y-38268D01*
X69717Y-38239D01*
X69747Y-38209D01*
X69747Y-38268D01*
X70308Y-38239D02*
X70249Y-38268D01*
X70130Y-38268D01*
X70071Y-38239D01*
X70042Y-38209D01*
X70012Y-38150D01*
X70012Y-37973D01*
X70042Y-37914D01*
X70071Y-37885D01*
X70130Y-37855D01*
X70249Y-37855D01*
X70308Y-37885D01*
X70662Y-38268D02*
X70603Y-38239D01*
X70573Y-38209D01*
X70544Y-38150D01*
X70544Y-37973D01*
X70573Y-37914D01*
X70603Y-37885D01*
X70662Y-37855D01*
X70750Y-37855D01*
X70810Y-37885D01*
X70839Y-37914D01*
X70869Y-37973D01*
X70869Y-38150D01*
X70839Y-38209D01*
X70810Y-38239D01*
X70750Y-38268D01*
X70662Y-38268D01*
X71134Y-38268D02*
X71134Y-37855D01*
X71134Y-37914D02*
X71164Y-37885D01*
X71223Y-37855D01*
X71311Y-37855D01*
X71370Y-37885D01*
X71400Y-37944D01*
X71400Y-38268D01*
X71400Y-37944D02*
X71430Y-37885D01*
X71489Y-37855D01*
X71577Y-37855D01*
X71636Y-37885D01*
X71666Y-37944D01*
X71666Y-38268D01*
G54D11*
X69150Y-42420D02*
X69431Y-42420D01*
X69094Y-42589D02*
X69290Y-41998D01*
X69487Y-42589D01*
X69965Y-42589D02*
X69684Y-42589D01*
X69684Y-41998D01*
X70134Y-42420D02*
X70415Y-42420D01*
X70078Y-42589D02*
X70275Y-41998D01*
X70472Y-42589D01*
X71006Y-42589D02*
X70809Y-42307D01*
X70668Y-42589D02*
X70668Y-41998D01*
X70893Y-41998D01*
X70950Y-42026D01*
X70978Y-42054D01*
X71006Y-42110D01*
X71006Y-42195D01*
X70978Y-42251D01*
X70950Y-42279D01*
X70893Y-42307D01*
X70668Y-42307D01*
X71259Y-42589D02*
X71259Y-41998D01*
X71456Y-42420D01*
X71653Y-41998D01*
X71653Y-42589D01*
X72665Y-42589D02*
X72384Y-42589D01*
X72384Y-41998D01*
X72862Y-42589D02*
X72862Y-41998D01*
X73452Y-42026D02*
X73396Y-41998D01*
X73312Y-41998D01*
X73227Y-42026D01*
X73171Y-42082D01*
X73143Y-42139D01*
X73115Y-42251D01*
X73115Y-42335D01*
X73143Y-42448D01*
X73171Y-42504D01*
X73227Y-42560D01*
X73312Y-42589D01*
X73368Y-42589D01*
X73452Y-42560D01*
X73481Y-42532D01*
X73481Y-42335D01*
X73368Y-42335D01*
X73734Y-42589D02*
X73734Y-41998D01*
X73734Y-42279D02*
X74071Y-42279D01*
X74071Y-42589D02*
X74071Y-41998D01*
X74268Y-41998D02*
X74605Y-41998D01*
X74437Y-42589D02*
X74437Y-41998D01*
X62973Y-42639D02*
X62973Y-42048D01*
X63198Y-42048D01*
X63254Y-42076D01*
X63283Y-42104D01*
X63311Y-42160D01*
X63311Y-42245D01*
X63283Y-42301D01*
X63254Y-42329D01*
X63198Y-42357D01*
X62973Y-42357D01*
X63564Y-42639D02*
X63564Y-42048D01*
X63761Y-42470D01*
X63957Y-42048D01*
X63957Y-42639D01*
X64970Y-42639D02*
X64689Y-42639D01*
X64689Y-42048D01*
X65167Y-42639D02*
X65167Y-42048D01*
X65757Y-42076D02*
X65701Y-42048D01*
X65617Y-42048D01*
X65532Y-42076D01*
X65476Y-42132D01*
X65448Y-42189D01*
X65420Y-42301D01*
X65420Y-42385D01*
X65448Y-42498D01*
X65476Y-42554D01*
X65532Y-42610D01*
X65617Y-42639D01*
X65673Y-42639D01*
X65757Y-42610D01*
X65785Y-42582D01*
X65785Y-42385D01*
X65673Y-42385D01*
X66038Y-42639D02*
X66038Y-42048D01*
X66038Y-42329D02*
X66376Y-42329D01*
X66376Y-42639D02*
X66376Y-42048D01*
X66573Y-42048D02*
X66910Y-42048D01*
X66741Y-42639D02*
X66741Y-42048D01*
G54D13*
X30850Y-46784D02*
X30812Y-46765D01*
X30756Y-46765D01*
X30700Y-46784D01*
X30662Y-46821D01*
X30643Y-46859D01*
X30625Y-46934D01*
X30625Y-46990D01*
X30643Y-47065D01*
X30662Y-47103D01*
X30700Y-47140D01*
X30756Y-47159D01*
X30793Y-47159D01*
X30850Y-47140D01*
X30868Y-47121D01*
X30868Y-46990D01*
X30793Y-46990D01*
X31037Y-47159D02*
X31037Y-46765D01*
X31262Y-47159D01*
X31262Y-46765D01*
X31449Y-47159D02*
X31449Y-46765D01*
X31543Y-46765D01*
X31599Y-46784D01*
X31637Y-46821D01*
X31656Y-46859D01*
X31674Y-46934D01*
X31674Y-46990D01*
X31656Y-47065D01*
X31637Y-47103D01*
X31599Y-47140D01*
X31543Y-47159D01*
X31449Y-47159D01*
X32062Y-46959D02*
X32362Y-46959D01*
X32212Y-47109D02*
X32212Y-46809D01*
X32737Y-46715D02*
X32550Y-46715D01*
X32531Y-46903D01*
X32550Y-46884D01*
X32587Y-46865D01*
X32681Y-46865D01*
X32718Y-46884D01*
X32737Y-46903D01*
X32756Y-46940D01*
X32756Y-47034D01*
X32737Y-47071D01*
X32718Y-47090D01*
X32681Y-47109D01*
X32587Y-47109D01*
X32550Y-47090D01*
X32531Y-47071D01*
X32887Y-46846D02*
X32981Y-47109D01*
X33074Y-46846D01*
G54D14*
X33290Y-43150D02*
X33290Y-44900D01*
X33290Y-44900D02*
X38790Y-44900D01*
X33290Y-43150D02*
X38790Y-43150D01*
X38790Y-43150D02*
X38790Y-44900D01*
X33290Y-43550D02*
X33040Y-43550D01*
X33040Y-43550D02*
X33040Y-44500D01*
X33040Y-44500D02*
X33290Y-44500D01*
G54D15*
X61100Y-30892D02*
X61081Y-30882D01*
X61053Y-30882D01*
X61025Y-30892D01*
X61006Y-30910D01*
X60996Y-30929D01*
X60987Y-30967D01*
X60987Y-30995D01*
X60996Y-31032D01*
X61006Y-31051D01*
X61025Y-31070D01*
X61053Y-31079D01*
X61071Y-31079D01*
X61100Y-31070D01*
X61109Y-31060D01*
X61109Y-30995D01*
X61071Y-30995D01*
X61193Y-31079D02*
X61193Y-30882D01*
X61306Y-31079D01*
X61306Y-30882D01*
X61399Y-31079D02*
X61399Y-30882D01*
X61446Y-30882D01*
X61474Y-30892D01*
X61493Y-30910D01*
X61503Y-30929D01*
X61512Y-30967D01*
X61512Y-30995D01*
X61503Y-31032D01*
X61493Y-31051D01*
X61474Y-31070D01*
X61446Y-31079D01*
X61399Y-31079D01*
X63600Y-30892D02*
X63581Y-30882D01*
X63553Y-30882D01*
X63525Y-30892D01*
X63506Y-30910D01*
X63496Y-30929D01*
X63487Y-30967D01*
X63487Y-30995D01*
X63496Y-31032D01*
X63506Y-31051D01*
X63525Y-31070D01*
X63553Y-31079D01*
X63571Y-31079D01*
X63600Y-31070D01*
X63609Y-31060D01*
X63609Y-30995D01*
X63571Y-30995D01*
X63693Y-31079D02*
X63693Y-30882D01*
X63806Y-31079D01*
X63806Y-30882D01*
X63899Y-31079D02*
X63899Y-30882D01*
X63946Y-30882D01*
X63974Y-30892D01*
X63993Y-30910D01*
X64003Y-30929D01*
X64012Y-30967D01*
X64012Y-30995D01*
X64003Y-31032D01*
X63993Y-31051D01*
X63974Y-31070D01*
X63946Y-31079D01*
X63899Y-31079D01*
X62356Y-31004D02*
X62506Y-31004D01*
X62431Y-31079D02*
X62431Y-30929D01*
X62590Y-30901D02*
X62600Y-30892D01*
X62618Y-30882D01*
X62665Y-30882D01*
X62684Y-30892D01*
X62693Y-30901D01*
X62703Y-30920D01*
X62703Y-30939D01*
X62693Y-30967D01*
X62581Y-31079D01*
X62703Y-31079D01*
X62787Y-31060D02*
X62796Y-31070D01*
X62787Y-31079D01*
X62778Y-31070D01*
X62787Y-31060D01*
X62787Y-31079D01*
X62918Y-30882D02*
X62937Y-30882D01*
X62956Y-30892D01*
X62965Y-30901D01*
X62974Y-30920D01*
X62984Y-30957D01*
X62984Y-31004D01*
X62974Y-31042D01*
X62965Y-31060D01*
X62956Y-31070D01*
X62937Y-31079D01*
X62918Y-31079D01*
X62899Y-31070D01*
X62890Y-31060D01*
X62881Y-31042D01*
X62871Y-31004D01*
X62871Y-30957D01*
X62881Y-30920D01*
X62890Y-30901D01*
X62899Y-30892D01*
X62918Y-30882D01*
X63040Y-30882D02*
X63106Y-31079D01*
X63171Y-30882D01*
X59856Y-31004D02*
X60006Y-31004D01*
X59931Y-31079D02*
X59931Y-30929D01*
X60090Y-30901D02*
X60100Y-30892D01*
X60118Y-30882D01*
X60165Y-30882D01*
X60184Y-30892D01*
X60193Y-30901D01*
X60203Y-30920D01*
X60203Y-30939D01*
X60193Y-30967D01*
X60081Y-31079D01*
X60203Y-31079D01*
X60287Y-31060D02*
X60296Y-31070D01*
X60287Y-31079D01*
X60278Y-31070D01*
X60287Y-31060D01*
X60287Y-31079D01*
X60418Y-30882D02*
X60437Y-30882D01*
X60456Y-30892D01*
X60465Y-30901D01*
X60474Y-30920D01*
X60484Y-30957D01*
X60484Y-31004D01*
X60474Y-31042D01*
X60465Y-31060D01*
X60456Y-31070D01*
X60437Y-31079D01*
X60418Y-31079D01*
X60399Y-31070D01*
X60390Y-31060D01*
X60381Y-31042D01*
X60371Y-31004D01*
X60371Y-30957D01*
X60381Y-30920D01*
X60390Y-30901D01*
X60399Y-30892D01*
X60418Y-30882D01*
X60540Y-30882D02*
X60606Y-31079D01*
X60671Y-30882D01*
G54D16*
X39540Y-43997D02*
X40739Y-43997D01*
X31080Y-44057D02*
X32279Y-44057D01*
X31680Y-44657D02*
X31680Y-43457D01*
G54D11*
X56549Y-34433D02*
X56949Y-34433D01*
X56749Y-35133D02*
X56749Y-34433D01*
X57183Y-35133D02*
X57183Y-34433D01*
X57483Y-35133D02*
X57483Y-34766D01*
X57449Y-34700D01*
X57383Y-34666D01*
X57283Y-34666D01*
X57216Y-34700D01*
X57183Y-34733D01*
X58116Y-35133D02*
X58116Y-34766D01*
X58083Y-34700D01*
X58016Y-34666D01*
X57883Y-34666D01*
X57816Y-34700D01*
X58116Y-35100D02*
X58049Y-35133D01*
X57883Y-35133D01*
X57816Y-35100D01*
X57783Y-35033D01*
X57783Y-34966D01*
X57816Y-34900D01*
X57883Y-34866D01*
X58049Y-34866D01*
X58116Y-34833D01*
X58449Y-34666D02*
X58449Y-35133D01*
X58449Y-34733D02*
X58483Y-34700D01*
X58549Y-34666D01*
X58649Y-34666D01*
X58716Y-34700D01*
X58749Y-34766D01*
X58749Y-35133D01*
X59083Y-35133D02*
X59083Y-34433D01*
X59150Y-34866D02*
X59350Y-35133D01*
X59350Y-34666D02*
X59083Y-34933D01*
X60116Y-34666D02*
X60283Y-35133D01*
X60450Y-34666D02*
X60283Y-35133D01*
X60216Y-35300D01*
X60183Y-35333D01*
X60116Y-35366D01*
X60816Y-35133D02*
X60750Y-35100D01*
X60716Y-35066D01*
X60683Y-35000D01*
X60683Y-34800D01*
X60716Y-34733D01*
X60750Y-34700D01*
X60816Y-34666D01*
X60916Y-34666D01*
X60983Y-34700D01*
X61016Y-34733D01*
X61050Y-34800D01*
X61050Y-35000D01*
X61016Y-35066D01*
X60983Y-35100D01*
X60916Y-35133D01*
X60816Y-35133D01*
X61650Y-34666D02*
X61650Y-35133D01*
X61350Y-34666D02*
X61350Y-35033D01*
X61383Y-35100D01*
X61450Y-35133D01*
X61550Y-35133D01*
X61616Y-35100D01*
X61650Y-35066D01*
X62516Y-35133D02*
X62516Y-34433D01*
X62916Y-35133D02*
X62616Y-34733D01*
X62916Y-34433D02*
X62516Y-34833D01*
X63216Y-35133D02*
X63216Y-34666D01*
X63216Y-34433D02*
X63183Y-34466D01*
X63216Y-34500D01*
X63250Y-34466D01*
X63216Y-34433D01*
X63216Y-34500D01*
X63850Y-35100D02*
X63783Y-35133D01*
X63650Y-35133D01*
X63583Y-35100D01*
X63550Y-35066D01*
X63516Y-35000D01*
X63516Y-34800D01*
X63550Y-34733D01*
X63583Y-34700D01*
X63650Y-34666D01*
X63783Y-34666D01*
X63850Y-34700D01*
X64150Y-35133D02*
X64150Y-34433D01*
X64216Y-34866D02*
X64416Y-35133D01*
X64416Y-34666D02*
X64150Y-34933D01*
X64683Y-35100D02*
X64750Y-35133D01*
X64883Y-35133D01*
X64950Y-35100D01*
X64983Y-35033D01*
X64983Y-35000D01*
X64950Y-34933D01*
X64883Y-34900D01*
X64783Y-34900D01*
X64716Y-34866D01*
X64683Y-34800D01*
X64683Y-34766D01*
X64716Y-34700D01*
X64783Y-34666D01*
X64883Y-34666D01*
X64950Y-34700D01*
X65183Y-34666D02*
X65450Y-34666D01*
X65283Y-34433D02*
X65283Y-35033D01*
X65316Y-35100D01*
X65383Y-35133D01*
X65450Y-35133D01*
X65983Y-35133D02*
X65983Y-34766D01*
X65950Y-34700D01*
X65883Y-34666D01*
X65750Y-34666D01*
X65683Y-34700D01*
X65983Y-35100D02*
X65916Y-35133D01*
X65750Y-35133D01*
X65683Y-35100D01*
X65650Y-35033D01*
X65650Y-34966D01*
X65683Y-34900D01*
X65750Y-34866D01*
X65916Y-34866D01*
X65983Y-34833D01*
X66316Y-35133D02*
X66316Y-34666D01*
X66316Y-34800D02*
X66350Y-34733D01*
X66383Y-34700D01*
X66450Y-34666D01*
X66516Y-34666D01*
X66650Y-34666D02*
X66916Y-34666D01*
X66750Y-34433D02*
X66750Y-35033D01*
X66783Y-35100D01*
X66850Y-35133D01*
X66916Y-35133D01*
X67416Y-35100D02*
X67350Y-35133D01*
X67216Y-35133D01*
X67150Y-35100D01*
X67116Y-35033D01*
X67116Y-34766D01*
X67150Y-34700D01*
X67216Y-34666D01*
X67350Y-34666D01*
X67416Y-34700D01*
X67450Y-34766D01*
X67450Y-34833D01*
X67116Y-34900D01*
X67750Y-35133D02*
X67750Y-34666D01*
X67750Y-34800D02*
X67783Y-34733D01*
X67816Y-34700D01*
X67883Y-34666D01*
X67950Y-34666D01*
X68716Y-35133D02*
X68716Y-34433D01*
X68716Y-34700D02*
X68783Y-34666D01*
X68916Y-34666D01*
X68983Y-34700D01*
X69016Y-34733D01*
X69050Y-34800D01*
X69050Y-35000D01*
X69016Y-35066D01*
X68983Y-35100D01*
X68916Y-35133D01*
X68783Y-35133D01*
X68716Y-35100D01*
X69650Y-35133D02*
X69650Y-34766D01*
X69616Y-34700D01*
X69550Y-34666D01*
X69416Y-34666D01*
X69350Y-34700D01*
X69650Y-35100D02*
X69583Y-35133D01*
X69416Y-35133D01*
X69350Y-35100D01*
X69316Y-35033D01*
X69316Y-34966D01*
X69350Y-34900D01*
X69416Y-34866D01*
X69583Y-34866D01*
X69650Y-34833D01*
X70283Y-35100D02*
X70216Y-35133D01*
X70083Y-35133D01*
X70016Y-35100D01*
X69983Y-35066D01*
X69950Y-35000D01*
X69950Y-34800D01*
X69983Y-34733D01*
X70016Y-34700D01*
X70083Y-34666D01*
X70216Y-34666D01*
X70283Y-34700D01*
X70583Y-35133D02*
X70583Y-34433D01*
X70650Y-34866D02*
X70850Y-35133D01*
X70850Y-34666D02*
X70583Y-34933D01*
X71416Y-35100D02*
X71350Y-35133D01*
X71216Y-35133D01*
X71150Y-35100D01*
X71116Y-35033D01*
X71116Y-34766D01*
X71150Y-34700D01*
X71216Y-34666D01*
X71350Y-34666D01*
X71416Y-34700D01*
X71450Y-34766D01*
X71450Y-34833D01*
X71116Y-34900D01*
X71750Y-35133D02*
X71750Y-34666D01*
X71750Y-34800D02*
X71783Y-34733D01*
X71816Y-34700D01*
X71883Y-34666D01*
X71950Y-34666D01*
X72150Y-35100D02*
X72216Y-35133D01*
X72350Y-35133D01*
X72416Y-35100D01*
X72450Y-35033D01*
X72450Y-35000D01*
X72416Y-34933D01*
X72350Y-34900D01*
X72250Y-34900D01*
X72183Y-34866D01*
X72150Y-34800D01*
X72150Y-34766D01*
X72183Y-34700D01*
X72250Y-34666D01*
X72350Y-34666D01*
X72416Y-34700D01*
X72750Y-35066D02*
X72783Y-35100D01*
X72750Y-35133D01*
X72716Y-35100D01*
X72750Y-35066D01*
X72750Y-35133D01*
X72750Y-34866D02*
X72716Y-34466D01*
X72750Y-34433D01*
X72783Y-34466D01*
X72750Y-34866D01*
X72750Y-34433D01*
X64383Y-35964D02*
X64916Y-35964D01*
X65750Y-36198D02*
X65850Y-36231D01*
X66016Y-36231D01*
X66083Y-36198D01*
X66116Y-36164D01*
X66150Y-36098D01*
X66150Y-36031D01*
X66116Y-35964D01*
X66083Y-35931D01*
X66016Y-35898D01*
X65883Y-35864D01*
X65816Y-35831D01*
X65783Y-35798D01*
X65750Y-35731D01*
X65750Y-35664D01*
X65783Y-35598D01*
X65816Y-35564D01*
X65883Y-35531D01*
X66050Y-35531D01*
X66150Y-35564D01*
X66750Y-36231D02*
X66750Y-35864D01*
X66716Y-35798D01*
X66650Y-35764D01*
X66516Y-35764D01*
X66450Y-35798D01*
X66750Y-36198D02*
X66683Y-36231D01*
X66516Y-36231D01*
X66450Y-36198D01*
X66416Y-36131D01*
X66416Y-36064D01*
X66450Y-35998D01*
X66516Y-35964D01*
X66683Y-35964D01*
X66750Y-35931D01*
X67083Y-36231D02*
X67083Y-35764D01*
X67083Y-35831D02*
X67116Y-35798D01*
X67183Y-35764D01*
X67283Y-35764D01*
X67350Y-35798D01*
X67383Y-35864D01*
X67383Y-36231D01*
X67383Y-35864D02*
X67416Y-35798D01*
X67483Y-35764D01*
X67583Y-35764D01*
X67650Y-35798D01*
X67683Y-35864D01*
X67683Y-36231D01*
X29685Y-37535D02*
X29685Y-36335D01*
X30085Y-37192D01*
X30485Y-36335D01*
X30485Y-37535D01*
X31057Y-37535D02*
X31057Y-36335D01*
X31628Y-37535D02*
X31628Y-36335D01*
X32314Y-37535D01*
X32314Y-36335D01*
X32885Y-36335D02*
X32885Y-37307D01*
X32942Y-37421D01*
X33000Y-37478D01*
X33114Y-37535D01*
X33342Y-37535D01*
X33457Y-37478D01*
X33514Y-37421D01*
X33571Y-37307D01*
X33571Y-36335D01*
X33971Y-36335D02*
X34657Y-36335D01*
X34314Y-37535D02*
X34314Y-36335D01*
X35057Y-36907D02*
X35457Y-36907D01*
X35628Y-37535D02*
X35057Y-37535D01*
X35057Y-36335D01*
X35628Y-36335D01*
X36085Y-37478D02*
X36257Y-37535D01*
X36542Y-37535D01*
X36657Y-37478D01*
X36714Y-37421D01*
X36771Y-37307D01*
X36771Y-37192D01*
X36714Y-37078D01*
X36657Y-37021D01*
X36542Y-36964D01*
X36314Y-36907D01*
X36200Y-36850D01*
X36142Y-36792D01*
X36085Y-36678D01*
X36085Y-36564D01*
X36142Y-36450D01*
X36200Y-36392D01*
X36314Y-36335D01*
X36600Y-36335D01*
X36771Y-36392D01*
X62178Y-40485D02*
X62178Y-39285D01*
X62178Y-39857D02*
X62864Y-39857D01*
X62864Y-40485D02*
X62864Y-39285D01*
X63664Y-39285D02*
X63892Y-39285D01*
X64007Y-39342D01*
X64121Y-39457D01*
X64178Y-39685D01*
X64178Y-40085D01*
X64121Y-40314D01*
X64007Y-40428D01*
X63892Y-40485D01*
X63664Y-40485D01*
X63550Y-40428D01*
X63435Y-40314D01*
X63378Y-40085D01*
X63378Y-39685D01*
X63435Y-39457D01*
X63550Y-39342D01*
X63664Y-39285D01*
X64692Y-39285D02*
X64692Y-40257D01*
X64750Y-40371D01*
X64807Y-40428D01*
X64921Y-40485D01*
X65150Y-40485D01*
X65264Y-40428D01*
X65321Y-40371D01*
X65378Y-40257D01*
X65378Y-39285D01*
X66635Y-40485D02*
X66235Y-39914D01*
X65950Y-40485D02*
X65950Y-39285D01*
X66407Y-39285D01*
X66521Y-39342D01*
X66578Y-39400D01*
X66635Y-39514D01*
X66635Y-39685D01*
X66578Y-39800D01*
X66521Y-39857D01*
X66407Y-39914D01*
X65950Y-39914D01*
X67092Y-40428D02*
X67264Y-40485D01*
X67550Y-40485D01*
X67664Y-40428D01*
X67721Y-40371D01*
X67778Y-40257D01*
X67778Y-40142D01*
X67721Y-40028D01*
X67664Y-39971D01*
X67550Y-39914D01*
X67321Y-39857D01*
X67207Y-39800D01*
X67150Y-39742D01*
X67092Y-39628D01*
X67092Y-39514D01*
X67150Y-39400D01*
X67207Y-39342D01*
X67321Y-39285D01*
X67607Y-39285D01*
X67778Y-39342D01*
X23821Y-44885D02*
X23821Y-44600D01*
X23992Y-44942D02*
X23392Y-44742D01*
X23992Y-44542D01*
X23392Y-44400D02*
X23992Y-44257D01*
X23564Y-44142D01*
X23992Y-44028D01*
X23392Y-43885D01*
X23992Y-43657D02*
X23392Y-43657D01*
X23992Y-43314D02*
X23650Y-43571D01*
X23392Y-43314D02*
X23735Y-43657D01*
X23764Y-43057D02*
X23764Y-42600D01*
X23992Y-42000D02*
X23992Y-42342D01*
X23992Y-42171D02*
X23392Y-42171D01*
X23478Y-42228D01*
X23535Y-42285D01*
X23564Y-42342D01*
X23392Y-41628D02*
X23392Y-41571D01*
X23421Y-41514D01*
X23450Y-41485D01*
X23507Y-41457D01*
X23621Y-41428D01*
X23764Y-41428D01*
X23878Y-41457D01*
X23935Y-41485D01*
X23964Y-41514D01*
X23992Y-41571D01*
X23992Y-41628D01*
X23964Y-41685D01*
X23935Y-41714D01*
X23878Y-41742D01*
X23764Y-41771D01*
X23621Y-41771D01*
X23507Y-41742D01*
X23450Y-41714D01*
X23421Y-41685D01*
X23392Y-41628D01*
X23392Y-40885D02*
X23392Y-41171D01*
X23678Y-41200D01*
X23650Y-41171D01*
X23621Y-41114D01*
X23621Y-40971D01*
X23650Y-40914D01*
X23678Y-40885D01*
X23735Y-40857D01*
X23878Y-40857D01*
X23935Y-40885D01*
X23964Y-40914D01*
X23992Y-40971D01*
X23992Y-41114D01*
X23964Y-41171D01*
X23935Y-41200D01*
X23764Y-40600D02*
X23764Y-40142D01*
X23392Y-39742D02*
X23392Y-39685D01*
X23421Y-39628D01*
X23450Y-39600D01*
X23507Y-39571D01*
X23621Y-39542D01*
X23764Y-39542D01*
X23878Y-39571D01*
X23935Y-39600D01*
X23964Y-39628D01*
X23992Y-39685D01*
X23992Y-39742D01*
X23964Y-39800D01*
X23935Y-39828D01*
X23878Y-39857D01*
X23764Y-39885D01*
X23621Y-39885D01*
X23507Y-39857D01*
X23450Y-39828D01*
X23421Y-39800D01*
X23392Y-39742D01*
X23392Y-39171D02*
X23392Y-39114D01*
X23421Y-39057D01*
X23450Y-39028D01*
X23507Y-39000D01*
X23621Y-38971D01*
X23764Y-38971D01*
X23878Y-39000D01*
X23935Y-39028D01*
X23964Y-39057D01*
X23992Y-39114D01*
X23992Y-39171D01*
X23964Y-39228D01*
X23935Y-39257D01*
X23878Y-39285D01*
X23764Y-39314D01*
X23621Y-39314D01*
X23507Y-39285D01*
X23450Y-39257D01*
X23421Y-39228D01*
X23392Y-39171D01*
X23392Y-38428D02*
X23392Y-38714D01*
X23678Y-38742D01*
X23650Y-38714D01*
X23621Y-38657D01*
X23621Y-38514D01*
X23650Y-38457D01*
X23678Y-38428D01*
X23735Y-38399D01*
X23878Y-38399D01*
X23935Y-38428D01*
X23964Y-38457D01*
X23992Y-38514D01*
X23992Y-38657D01*
X23964Y-38714D01*
X23935Y-38742D01*
X23992Y-37342D02*
X23707Y-37542D01*
X23992Y-37685D02*
X23392Y-37685D01*
X23392Y-37457D01*
X23421Y-37399D01*
X23450Y-37371D01*
X23507Y-37342D01*
X23592Y-37342D01*
X23650Y-37371D01*
X23678Y-37399D01*
X23707Y-37457D01*
X23707Y-37685D01*
X23964Y-36857D02*
X23992Y-36914D01*
X23992Y-37028D01*
X23964Y-37085D01*
X23907Y-37114D01*
X23678Y-37114D01*
X23621Y-37085D01*
X23592Y-37028D01*
X23592Y-36914D01*
X23621Y-36857D01*
X23678Y-36828D01*
X23735Y-36828D01*
X23792Y-37114D01*
X23592Y-36628D02*
X23992Y-36485D01*
X23592Y-36342D01*
X23992Y-35657D02*
X23392Y-35657D01*
X23392Y-35514D01*
X23421Y-35428D01*
X23478Y-35371D01*
X23535Y-35342D01*
X23650Y-35314D01*
X23735Y-35314D01*
X23850Y-35342D01*
X23907Y-35371D01*
X23964Y-35428D01*
X23992Y-35514D01*
X23992Y-35657D01*
G54D17*
X57088Y-33898D02*
X57088Y-33382D01*
X57041Y-33289D01*
X56947Y-33242D01*
X56760Y-33242D01*
X56666Y-33289D01*
X57088Y-33851D02*
X56994Y-33898D01*
X56760Y-33898D01*
X56666Y-33851D01*
X56619Y-33757D01*
X56619Y-33664D01*
X56666Y-33570D01*
X56760Y-33523D01*
X56994Y-33523D01*
X57088Y-33476D01*
X57463Y-33242D02*
X57650Y-33898D01*
X57838Y-33429D01*
X58025Y-33898D01*
X58213Y-33242D01*
X58588Y-33898D02*
X58588Y-32914D01*
X58681Y-33523D02*
X58963Y-33898D01*
X58963Y-33242D02*
X58588Y-33617D01*
X59291Y-33242D02*
X59478Y-33898D01*
X59666Y-33429D01*
X59853Y-33898D01*
X60041Y-33242D01*
X60837Y-33898D02*
X60837Y-33382D01*
X60791Y-33289D01*
X60697Y-33242D01*
X60509Y-33242D01*
X60416Y-33289D01*
X60837Y-33851D02*
X60744Y-33898D01*
X60509Y-33898D01*
X60416Y-33851D01*
X60369Y-33757D01*
X60369Y-33664D01*
X60416Y-33570D01*
X60509Y-33523D01*
X60744Y-33523D01*
X60837Y-33476D01*
X61306Y-33898D02*
X61306Y-33242D01*
X61306Y-33429D02*
X61353Y-33335D01*
X61400Y-33289D01*
X61494Y-33242D01*
X61587Y-33242D01*
X62337Y-33898D02*
X62337Y-32914D01*
X62337Y-33851D02*
X62244Y-33898D01*
X62056Y-33898D01*
X61962Y-33851D01*
X61915Y-33804D01*
X61869Y-33710D01*
X61869Y-33429D01*
X61915Y-33335D01*
X61962Y-33289D01*
X62056Y-33242D01*
X62244Y-33242D01*
X62337Y-33289D01*
X63181Y-33851D02*
X63087Y-33898D01*
X62900Y-33898D01*
X62806Y-33851D01*
X62759Y-33757D01*
X62759Y-33382D01*
X62806Y-33289D01*
X62900Y-33242D01*
X63087Y-33242D01*
X63181Y-33289D01*
X63228Y-33382D01*
X63228Y-33476D01*
X62759Y-33570D01*
X63650Y-33242D02*
X63650Y-33898D01*
X63650Y-33335D02*
X63696Y-33289D01*
X63790Y-33242D01*
X63931Y-33242D01*
X64025Y-33289D01*
X64071Y-33382D01*
X64071Y-33898D01*
X64962Y-33242D02*
X64962Y-34038D01*
X64915Y-34132D01*
X64868Y-34179D01*
X64774Y-34226D01*
X64634Y-34226D01*
X64540Y-34179D01*
X64962Y-33851D02*
X64868Y-33898D01*
X64681Y-33898D01*
X64587Y-33851D01*
X64540Y-33804D01*
X64493Y-33710D01*
X64493Y-33429D01*
X64540Y-33335D01*
X64587Y-33289D01*
X64681Y-33242D01*
X64868Y-33242D01*
X64962Y-33289D01*
X65431Y-33898D02*
X65431Y-33242D01*
X65431Y-32914D02*
X65384Y-32961D01*
X65431Y-33007D01*
X65477Y-32961D01*
X65431Y-32914D01*
X65431Y-33007D01*
X65899Y-33242D02*
X65899Y-33898D01*
X65899Y-33335D02*
X65946Y-33289D01*
X66040Y-33242D01*
X66181Y-33242D01*
X66274Y-33289D01*
X66321Y-33382D01*
X66321Y-33898D01*
X67165Y-33851D02*
X67071Y-33898D01*
X66884Y-33898D01*
X66790Y-33851D01*
X66743Y-33757D01*
X66743Y-33382D01*
X66790Y-33289D01*
X66884Y-33242D01*
X67071Y-33242D01*
X67165Y-33289D01*
X67212Y-33382D01*
X67212Y-33476D01*
X66743Y-33570D01*
X68008Y-33851D02*
X67915Y-33898D01*
X67727Y-33898D01*
X67633Y-33851D01*
X67587Y-33757D01*
X67587Y-33382D01*
X67633Y-33289D01*
X67727Y-33242D01*
X67915Y-33242D01*
X68008Y-33289D01*
X68055Y-33382D01*
X68055Y-33476D01*
X67587Y-33570D01*
X68477Y-33898D02*
X68477Y-33242D01*
X68477Y-33429D02*
X68524Y-33335D01*
X68571Y-33289D01*
X68665Y-33242D01*
X68758Y-33242D01*
X69086Y-33804D02*
X69133Y-33851D01*
X69086Y-33898D01*
X69040Y-33851D01*
X69086Y-33804D01*
X69086Y-33898D01*
X69977Y-33851D02*
X69883Y-33898D01*
X69696Y-33898D01*
X69602Y-33851D01*
X69555Y-33804D01*
X69508Y-33710D01*
X69508Y-33429D01*
X69555Y-33335D01*
X69602Y-33289D01*
X69696Y-33242D01*
X69883Y-33242D01*
X69977Y-33289D01*
X70539Y-33898D02*
X70446Y-33851D01*
X70399Y-33804D01*
X70352Y-33710D01*
X70352Y-33429D01*
X70399Y-33335D01*
X70446Y-33289D01*
X70539Y-33242D01*
X70680Y-33242D01*
X70774Y-33289D01*
X70821Y-33335D01*
X70867Y-33429D01*
X70867Y-33710D01*
X70821Y-33804D01*
X70774Y-33851D01*
X70680Y-33898D01*
X70539Y-33898D01*
X71289Y-33898D02*
X71289Y-33242D01*
X71289Y-33335D02*
X71336Y-33289D01*
X71430Y-33242D01*
X71570Y-33242D01*
X71664Y-33289D01*
X71711Y-33382D01*
X71711Y-33898D01*
X71711Y-33382D02*
X71758Y-33289D01*
X71852Y-33242D01*
X71992Y-33242D01*
X72086Y-33289D01*
X72133Y-33382D01*
X72133Y-33898D01*
G54D10*
X46835Y-41922D02*
X44473Y-41922D01*
X46835Y-41922D02*
X46835Y-46646D01*
X46835Y-46646D02*
X44473Y-46646D01*
X29304Y-43784D02*
X29304Y-44784D01*
G54D18*
X37050Y-43350D02*
X35550Y-41850D01*
X35550Y-41850D02*
X35050Y-41850D01*
X35050Y-41850D02*
X34550Y-42350D01*
X34550Y-42350D02*
X34550Y-43350D01*
X34550Y-43350D02*
X35550Y-44350D01*
X35550Y-44350D02*
X36550Y-44350D01*
X36550Y-44350D02*
X37050Y-43850D01*
X37050Y-43850D02*
X37050Y-43350D01*
X34030Y-42550D02*
X32050Y-42550D01*
X32050Y-42550D02*
X32050Y-41550D01*
X32050Y-41550D02*
X34050Y-41550D01*
X34050Y-41550D02*
X34050Y-42550D01*
X34050Y-42300D02*
X33800Y-42550D01*
X54650Y-45150D02*
X54650Y-46150D01*
X54650Y-46150D02*
X52650Y-46150D01*
X52650Y-46150D02*
X52650Y-45150D01*
X52650Y-45150D02*
X54650Y-45150D01*
X59950Y-48100D02*
X59950Y-47100D01*
X59950Y-47100D02*
X61950Y-47100D01*
X61950Y-47100D02*
X61950Y-48100D01*
X61950Y-48100D02*
X59950Y-48100D01*
X67250Y-48000D02*
X67250Y-47000D01*
X67250Y-47000D02*
X69250Y-47000D01*
X69250Y-47000D02*
X69250Y-48000D01*
X69250Y-48000D02*
X67250Y-48000D01*
X50500Y-43200D02*
X50500Y-44200D01*
X50500Y-44200D02*
X48500Y-44200D01*
X48500Y-44200D02*
X48500Y-43200D01*
X48500Y-43200D02*
X50500Y-43200D01*
G54D19*
X29970Y-35066D02*
G75*
G03X29970Y-35066I-62J0D01*
G74*
G01*
X29569Y-34103D02*
X29969Y-34103D01*
X29569Y-35128D02*
X29969Y-35128D01*
X29969Y-34103D02*
X29969Y-35128D01*
X29569Y-35128D02*
X29569Y-34103D01*
G54D20*
X35647Y-32627D02*
X35347Y-32427D01*
X36347Y-32627D02*
X35322Y-32627D01*
X35322Y-32627D02*
X35322Y-32027D01*
X35322Y-32027D02*
X36347Y-32027D01*
X36347Y-32027D02*
X36347Y-32627D01*
G54D21*
X64900Y-43300D02*
G75*
G03X64900Y-43300I-50J0D01*
G74*
G01*
X64400Y-43300D02*
X64800Y-43300D01*
X64800Y-43300D02*
X64800Y-43900D01*
X64800Y-43900D02*
X64400Y-43900D01*
X64000Y-43900D02*
X63600Y-43900D01*
X63600Y-43900D02*
X63600Y-43300D01*
X63600Y-43300D02*
X64000Y-43300D01*
X71450Y-43200D02*
G75*
G03X71450Y-43200I-50J0D01*
G74*
G01*
X70950Y-43200D02*
X71350Y-43200D01*
X71350Y-43200D02*
X71350Y-43800D01*
X71350Y-43800D02*
X70950Y-43800D01*
X70550Y-43800D02*
X70150Y-43800D01*
X70150Y-43800D02*
X70150Y-43200D01*
X70150Y-43200D02*
X70550Y-43200D01*
X39790Y-35516D02*
G75*
G03X39790Y-35516I-50J0D01*
G74*
G01*
X39740Y-35966D02*
X39740Y-35566D01*
X39740Y-35566D02*
X40340Y-35566D01*
X40340Y-35566D02*
X40340Y-35966D01*
X40340Y-36366D02*
X40340Y-36766D01*
X40340Y-36766D02*
X39740Y-36766D01*
X39740Y-36766D02*
X39740Y-36366D01*
X38845Y-35524D02*
G75*
G03X38845Y-35524I-50J0D01*
G74*
G01*
X38795Y-35974D02*
X38795Y-35574D01*
X38795Y-35574D02*
X39395Y-35574D01*
X39395Y-35574D02*
X39395Y-35974D01*
X39395Y-36374D02*
X39395Y-36774D01*
X39395Y-36774D02*
X38795Y-36774D01*
X38795Y-36774D02*
X38795Y-36374D01*
X42250Y-36100D02*
G75*
G03X42250Y-36100I-50J0D01*
G74*
G01*
X42200Y-36550D02*
X42200Y-36150D01*
X42200Y-36150D02*
X42800Y-36150D01*
X42800Y-36150D02*
X42800Y-36550D01*
X42800Y-36950D02*
X42800Y-37350D01*
X42800Y-37350D02*
X42200Y-37350D01*
X42200Y-37350D02*
X42200Y-36950D01*
X43250Y-36100D02*
G75*
G03X43250Y-36100I-50J0D01*
G74*
G01*
X43200Y-36550D02*
X43200Y-36150D01*
X43200Y-36150D02*
X43800Y-36150D01*
X43800Y-36150D02*
X43800Y-36550D01*
X43800Y-36950D02*
X43800Y-37350D01*
X43800Y-37350D02*
X43200Y-37350D01*
X43200Y-37350D02*
X43200Y-36950D01*
X46760Y-33950D02*
G75*
G03X46760Y-33950I-50J0D01*
G74*
G01*
X46260Y-33950D02*
X46660Y-33950D01*
X46660Y-33950D02*
X46660Y-34550D01*
X46660Y-34550D02*
X46260Y-34550D01*
X45860Y-34550D02*
X45460Y-34550D01*
X45460Y-34550D02*
X45460Y-33950D01*
X45460Y-33950D02*
X45860Y-33950D01*
X46270Y-35890D02*
G75*
G03X46270Y-35890I-50J0D01*
G74*
G01*
X46670Y-35890D02*
X46270Y-35890D01*
X46270Y-35890D02*
X46270Y-35290D01*
X46270Y-35290D02*
X46670Y-35290D01*
X47070Y-35290D02*
X47470Y-35290D01*
X47470Y-35290D02*
X47470Y-35890D01*
X47470Y-35890D02*
X47070Y-35890D01*
X45420Y-33220D02*
G75*
G03X45420Y-33220I-50J0D01*
G74*
G01*
X45820Y-33220D02*
X45420Y-33220D01*
X45420Y-33220D02*
X45420Y-32620D01*
X45420Y-32620D02*
X45820Y-32620D01*
X46220Y-32620D02*
X46620Y-32620D01*
X46620Y-32620D02*
X46620Y-33220D01*
X46620Y-33220D02*
X46220Y-33220D01*
X46250Y-32283D02*
G75*
G03X46250Y-32283I-50J0D01*
G74*
G01*
X46650Y-32283D02*
X46250Y-32283D01*
X46250Y-32283D02*
X46250Y-31683D01*
X46250Y-31683D02*
X46650Y-31683D01*
X47050Y-31683D02*
X47450Y-31683D01*
X47450Y-31683D02*
X47450Y-32283D01*
X47450Y-32283D02*
X47050Y-32283D01*
X37314Y-30669D02*
G75*
G03X37314Y-30669I-50J0D01*
G74*
G01*
X36814Y-30669D02*
X37214Y-30669D01*
X37214Y-30669D02*
X37214Y-31269D01*
X37214Y-31269D02*
X36814Y-31269D01*
X36414Y-31269D02*
X36014Y-31269D01*
X36014Y-31269D02*
X36014Y-30669D01*
X36014Y-30669D02*
X36414Y-30669D01*
X35858Y-30669D02*
G75*
G03X35858Y-30669I-50J0D01*
G74*
G01*
X35358Y-30669D02*
X35758Y-30669D01*
X35758Y-30669D02*
X35758Y-31269D01*
X35758Y-31269D02*
X35358Y-31269D01*
X34958Y-31269D02*
X34558Y-31269D01*
X34558Y-31269D02*
X34558Y-30669D01*
X34558Y-30669D02*
X34958Y-30669D01*
X33569Y-31854D02*
G75*
G03X33569Y-31854I-50J0D01*
G74*
G01*
X33519Y-32304D02*
X33519Y-31904D01*
X33519Y-31904D02*
X34119Y-31904D01*
X34119Y-31904D02*
X34119Y-32304D01*
X34119Y-32704D02*
X34119Y-33104D01*
X34119Y-33104D02*
X33519Y-33104D01*
X33519Y-33104D02*
X33519Y-32704D01*
X28540Y-35680D02*
G75*
G03X28540Y-35680I-50J0D01*
G74*
G01*
X28490Y-35230D02*
X28490Y-35630D01*
X28490Y-35630D02*
X27890Y-35630D01*
X27890Y-35630D02*
X27890Y-35230D01*
X27890Y-34830D02*
X27890Y-34430D01*
X27890Y-34430D02*
X28490Y-34430D01*
X28490Y-34430D02*
X28490Y-34830D01*
X25250Y-33350D02*
G75*
G03X25250Y-33350I-50J0D01*
G74*
G01*
X25200Y-33800D02*
X25200Y-33400D01*
X25200Y-33400D02*
X25800Y-33400D01*
X25800Y-33400D02*
X25800Y-33800D01*
X25800Y-34200D02*
X25800Y-34600D01*
X25800Y-34600D02*
X25200Y-34600D01*
X25200Y-34600D02*
X25200Y-34200D01*
X27470Y-35480D02*
G75*
G03X27470Y-35480I-50J0D01*
G74*
G01*
X26970Y-35480D02*
X27370Y-35480D01*
X27370Y-35480D02*
X27370Y-36080D01*
X27370Y-36080D02*
X26970Y-36080D01*
X26570Y-36080D02*
X26170Y-36080D01*
X26170Y-36080D02*
X26170Y-35480D01*
X26170Y-35480D02*
X26570Y-35480D01*
X48370Y-32620D02*
G75*
G03X48370Y-32620I-50J0D01*
G74*
G01*
X47870Y-32620D02*
X48270Y-32620D01*
X48270Y-32620D02*
X48270Y-33220D01*
X48270Y-33220D02*
X47870Y-33220D01*
X47470Y-33220D02*
X47070Y-33220D01*
X47070Y-33220D02*
X47070Y-32620D01*
X47070Y-32620D02*
X47470Y-32620D01*
X48370Y-33910D02*
G75*
G03X48370Y-33910I-50J0D01*
G74*
G01*
X47870Y-33910D02*
X48270Y-33910D01*
X48270Y-33910D02*
X48270Y-34510D01*
X48270Y-34510D02*
X47870Y-34510D01*
X47470Y-34510D02*
X47070Y-34510D01*
X47070Y-34510D02*
X47070Y-33910D01*
X47070Y-33910D02*
X47470Y-33910D01*
X56400Y-43300D02*
G75*
G03X56400Y-43300I-50J0D01*
G74*
G01*
X56350Y-43750D02*
X56350Y-43350D01*
X56350Y-43350D02*
X56950Y-43350D01*
X56950Y-43350D02*
X56950Y-43750D01*
X56950Y-44150D02*
X56950Y-44550D01*
X56950Y-44550D02*
X56350Y-44550D01*
X56350Y-44550D02*
X56350Y-44150D01*
X36876Y-31697D02*
G75*
G03X36876Y-31697I-50J0D01*
G74*
G01*
X36826Y-32147D02*
X36826Y-31747D01*
X36826Y-31747D02*
X37426Y-31747D01*
X37426Y-31747D02*
X37426Y-32147D01*
X37426Y-32547D02*
X37426Y-32947D01*
X37426Y-32947D02*
X36826Y-32947D01*
X36826Y-32947D02*
X36826Y-32547D01*
G54D22*
X38414Y-31575D02*
X42214Y-31575D01*
X42214Y-31575D02*
X42214Y-33075D01*
X42214Y-33075D02*
X38414Y-33075D01*
X38414Y-33075D02*
X38414Y-31575D01*
X38414Y-32075D02*
X38714Y-32075D01*
X38714Y-32075D02*
X38714Y-32475D01*
X38714Y-32475D02*
X38414Y-32475D01*
G54D19*
X26239Y-34448D02*
G75*
G03X26239Y-34448I-62J0D01*
G74*
G01*
X27140Y-34110D02*
X27140Y-34510D01*
X26115Y-34110D02*
X26115Y-34510D01*
X27140Y-34510D02*
X26115Y-34510D01*
X26115Y-34110D02*
X27140Y-34110D01*
G54D21*
X34435Y-31382D02*
G75*
G03X34435Y-31382I-50J0D01*
G74*
G01*
X34385Y-31832D02*
X34385Y-31432D01*
X34385Y-31432D02*
X34985Y-31432D01*
X34985Y-31432D02*
X34985Y-31832D01*
X34985Y-32232D02*
X34985Y-32632D01*
X34985Y-32632D02*
X34385Y-32632D01*
X34385Y-32632D02*
X34385Y-32232D01*
G54D18*
X59750Y-30750D02*
X59750Y-29750D01*
X59750Y-29750D02*
X61750Y-29750D01*
X61750Y-29750D02*
X61750Y-30750D01*
X61750Y-30750D02*
X59750Y-30750D01*
X62250Y-30750D02*
X62250Y-29750D01*
X62250Y-29750D02*
X64250Y-29750D01*
X64250Y-29750D02*
X64250Y-30750D01*
X64250Y-30750D02*
X62250Y-30750D01*
G54D10*
X24965Y-46646D02*
X27327Y-46646D01*
X24965Y-46646D02*
X24965Y-41922D01*
X24965Y-41922D02*
X27327Y-41922D01*
X42496Y-44784D02*
X42496Y-43784D01*
G54D23*
X34955Y-48810D02*
X36844Y-48810D01*
G54D18*
X32900Y-47400D02*
X32900Y-48400D01*
X32900Y-48400D02*
X30900Y-48400D01*
X30900Y-48400D02*
X30900Y-47400D01*
X30900Y-47400D02*
X32900Y-47400D01*
G54D19*
X73275Y-43612D02*
G75*
G03X73275Y-43612I-62J0D01*
G74*
G01*
X72250Y-43950D02*
X72250Y-43550D01*
X73275Y-43950D02*
X73275Y-43550D01*
X72250Y-43550D02*
X73275Y-43550D01*
X73275Y-43950D02*
X72250Y-43950D01*
X66975Y-43962D02*
G75*
G03X66975Y-43962I-62J0D01*
G74*
G01*
X65950Y-44300D02*
X65950Y-43900D01*
X66975Y-44300D02*
X66975Y-43900D01*
X65950Y-43900D02*
X66975Y-43900D01*
X66975Y-44300D02*
X65950Y-44300D01*
G54D21*
X30750Y-29850D02*
G75*
G03X30750Y-29850I-50J0D01*
G74*
G01*
X30700Y-30300D02*
X30700Y-29900D01*
X30700Y-29900D02*
X31300Y-29900D01*
X31300Y-29900D02*
X31300Y-30300D01*
X31300Y-30700D02*
X31300Y-31100D01*
X31300Y-31100D02*
X30700Y-31100D01*
X30700Y-31100D02*
X30700Y-30700D01*
X23150Y-48400D02*
G75*
G03X23150Y-48400I-50J0D01*
G74*
G01*
X23550Y-48400D02*
X23150Y-48400D01*
X23150Y-48400D02*
X23150Y-47800D01*
X23150Y-47800D02*
X23550Y-47800D01*
X23950Y-47800D02*
X24350Y-47800D01*
X24350Y-47800D02*
X24350Y-48400D01*
X24350Y-48400D02*
X23950Y-48400D01*
G54D19*
X32849Y-39388D02*
G75*
G03X32849Y-39388I-62J0D01*
G74*
G01*
X33750Y-39050D02*
X33750Y-39450D01*
X32725Y-39050D02*
X32725Y-39450D01*
X33750Y-39450D02*
X32725Y-39450D01*
X32725Y-39050D02*
X33750Y-39050D01*
G54D21*
X42100Y-40400D02*
G75*
G03X42100Y-40400I-50J0D01*
G74*
G01*
X42050Y-39950D02*
X42050Y-40350D01*
X42050Y-40350D02*
X41450Y-40350D01*
X41450Y-40350D02*
X41450Y-39950D01*
X41450Y-39550D02*
X41450Y-39150D01*
X41450Y-39150D02*
X42050Y-39150D01*
X42050Y-39150D02*
X42050Y-39550D01*
G54D19*
X59175Y-44062D02*
G75*
G03X59175Y-44062I-62J0D01*
G74*
G01*
X58150Y-44400D02*
X58150Y-44000D01*
X59175Y-44400D02*
X59175Y-44000D01*
X58150Y-44000D02*
X59175Y-44000D01*
X59175Y-44400D02*
X58150Y-44400D01*
G54D18*
X52650Y-48250D02*
X52650Y-47250D01*
X52650Y-47250D02*
X54650Y-47250D01*
X54650Y-47250D02*
X54650Y-48250D01*
X54650Y-48250D02*
X52650Y-48250D01*
G54D21*
X55750Y-44600D02*
G75*
G03X55750Y-44600I-50J0D01*
G74*
G01*
X55700Y-44150D02*
X55700Y-44550D01*
X55700Y-44550D02*
X55100Y-44550D01*
X55100Y-44550D02*
X55100Y-44150D01*
X55100Y-43750D02*
X55100Y-43350D01*
X55100Y-43350D02*
X55700Y-43350D01*
X55700Y-43350D02*
X55700Y-43750D01*
G54D23*
X49850Y-33350D02*
X49850Y-39649D01*
X49850Y-39649D02*
X54574Y-39649D01*
X54574Y-39649D02*
X56149Y-38074D01*
X56149Y-38074D02*
X56149Y-33350D01*
X49850Y-33350D02*
X56149Y-33350D01*
G54D22*
X72000Y-38500D02*
X72000Y-35500D01*
X74000Y-35500D02*
X74000Y-38500D01*
X74000Y-38500D02*
X72000Y-38500D01*
X72000Y-35500D02*
X74000Y-35500D01*
G54D18*
X57250Y-29750D02*
X57250Y-30750D01*
X57250Y-30750D02*
X51250Y-30750D01*
X51250Y-30750D02*
X51250Y-29750D01*
X51250Y-29750D02*
X57250Y-29750D01*
X56250Y-29750D02*
X56250Y-30750D01*
G54D21*
X34650Y-39050D02*
G75*
G03X34650Y-39050I-50J0D01*
G74*
G01*
X35050Y-39050D02*
X34650Y-39050D01*
X34650Y-39050D02*
X34650Y-38450D01*
X34650Y-38450D02*
X35050Y-38450D01*
X35450Y-38450D02*
X35850Y-38450D01*
X35850Y-38450D02*
X35850Y-39050D01*
X35850Y-39050D02*
X35450Y-39050D01*
G54D23*
X50500Y-45150D02*
X51500Y-45150D01*
X51500Y-45150D02*
X51500Y-46650D01*
X47500Y-46650D02*
X47500Y-45150D01*
X47500Y-45150D02*
X48500Y-45150D01*
X58400Y-45200D02*
X59400Y-45200D01*
X59400Y-45200D02*
X59400Y-46700D01*
X55400Y-46700D02*
X55400Y-45200D01*
X55400Y-45200D02*
X56400Y-45200D01*
X65700Y-45100D02*
X66700Y-45100D01*
X66700Y-45100D02*
X66700Y-46600D01*
X62700Y-46600D02*
X62700Y-45100D01*
X62700Y-45100D02*
X63700Y-45100D01*
X73000Y-45000D02*
X74000Y-45000D01*
X74000Y-45000D02*
X74000Y-46500D01*
X70000Y-46500D02*
X70000Y-45000D01*
X70000Y-45000D02*
X71000Y-45000D01*
G54D10*
X47253Y-42709D02*
X47271Y-42653D01*
X47290Y-42634D01*
X47328Y-42615D01*
X47384Y-42615D01*
X47421Y-42634D01*
X47440Y-42653D01*
X47459Y-42690D01*
X47459Y-42840D01*
X47065Y-42840D01*
X47065Y-42709D01*
X47084Y-42671D01*
X47103Y-42653D01*
X47140Y-42634D01*
X47178Y-42634D01*
X47215Y-42653D01*
X47234Y-42671D01*
X47253Y-42709D01*
X47253Y-42840D01*
X47065Y-42503D02*
X47065Y-42278D01*
X47459Y-42390D02*
X47065Y-42390D01*
X47103Y-42165D02*
X47084Y-42146D01*
X47065Y-42109D01*
X47065Y-42015D01*
X47084Y-41978D01*
X47103Y-41959D01*
X47140Y-41940D01*
X47178Y-41940D01*
X47234Y-41959D01*
X47459Y-42184D01*
X47459Y-41940D01*
G54D15*
X36300Y-41932D02*
X36300Y-42092D01*
X36309Y-42110D01*
X36318Y-42120D01*
X36337Y-42129D01*
X36375Y-42129D01*
X36393Y-42120D01*
X36403Y-42110D01*
X36412Y-42092D01*
X36412Y-41932D01*
X36496Y-41951D02*
X36506Y-41942D01*
X36524Y-41932D01*
X36571Y-41932D01*
X36590Y-41942D01*
X36599Y-41951D01*
X36609Y-41970D01*
X36609Y-41989D01*
X36599Y-42017D01*
X36487Y-42129D01*
X36609Y-42129D01*
X36320Y-42479D02*
X36320Y-42282D01*
X36386Y-42423D01*
X36451Y-42282D01*
X36451Y-42479D01*
X36657Y-42460D02*
X36648Y-42470D01*
X36620Y-42479D01*
X36601Y-42479D01*
X36573Y-42470D01*
X36554Y-42451D01*
X36545Y-42432D01*
X36536Y-42395D01*
X36536Y-42367D01*
X36545Y-42329D01*
X36554Y-42310D01*
X36573Y-42292D01*
X36601Y-42282D01*
X36620Y-42282D01*
X36648Y-42292D01*
X36657Y-42301D01*
X36742Y-42479D02*
X36742Y-42282D01*
X36817Y-42282D01*
X36836Y-42292D01*
X36845Y-42301D01*
X36854Y-42320D01*
X36854Y-42348D01*
X36845Y-42367D01*
X36836Y-42376D01*
X36817Y-42385D01*
X36742Y-42385D01*
X37042Y-42479D02*
X36929Y-42479D01*
X36986Y-42479D02*
X36986Y-42282D01*
X36967Y-42310D01*
X36948Y-42329D01*
X36929Y-42339D01*
X37107Y-42282D02*
X37239Y-42282D01*
X37154Y-42479D01*
X37351Y-42282D02*
X37370Y-42282D01*
X37389Y-42292D01*
X37398Y-42301D01*
X37407Y-42320D01*
X37417Y-42357D01*
X37417Y-42404D01*
X37407Y-42442D01*
X37398Y-42460D01*
X37389Y-42470D01*
X37370Y-42479D01*
X37351Y-42479D01*
X37332Y-42470D01*
X37323Y-42460D01*
X37314Y-42442D01*
X37304Y-42404D01*
X37304Y-42357D01*
X37314Y-42320D01*
X37323Y-42301D01*
X37332Y-42292D01*
X37351Y-42282D01*
X37492Y-42301D02*
X37501Y-42292D01*
X37520Y-42282D01*
X37567Y-42282D01*
X37585Y-42292D01*
X37595Y-42301D01*
X37604Y-42320D01*
X37604Y-42339D01*
X37595Y-42367D01*
X37482Y-42479D01*
X37604Y-42479D01*
X37660Y-42282D02*
X37773Y-42282D01*
X37717Y-42479D02*
X37717Y-42282D01*
X37839Y-42404D02*
X37989Y-42404D01*
X38185Y-42479D02*
X38073Y-42479D01*
X38129Y-42479D02*
X38129Y-42282D01*
X38110Y-42310D01*
X38092Y-42329D01*
X38073Y-42339D01*
X38364Y-42282D02*
X38270Y-42282D01*
X38260Y-42376D01*
X38270Y-42367D01*
X38289Y-42357D01*
X38335Y-42357D01*
X38354Y-42367D01*
X38364Y-42376D01*
X38373Y-42395D01*
X38373Y-42442D01*
X38364Y-42460D01*
X38354Y-42470D01*
X38335Y-42479D01*
X38289Y-42479D01*
X38270Y-42470D01*
X38260Y-42460D01*
X38495Y-42282D02*
X38513Y-42282D01*
X38532Y-42292D01*
X38542Y-42301D01*
X38551Y-42320D01*
X38560Y-42357D01*
X38560Y-42404D01*
X38551Y-42442D01*
X38542Y-42460D01*
X38532Y-42470D01*
X38513Y-42479D01*
X38495Y-42479D01*
X38476Y-42470D01*
X38467Y-42460D01*
X38457Y-42442D01*
X38448Y-42404D01*
X38448Y-42357D01*
X38457Y-42320D01*
X38467Y-42301D01*
X38476Y-42292D01*
X38495Y-42282D01*
X38635Y-42301D02*
X38645Y-42292D01*
X38663Y-42282D01*
X38710Y-42282D01*
X38729Y-42292D01*
X38738Y-42301D01*
X38748Y-42320D01*
X38748Y-42339D01*
X38738Y-42367D01*
X38626Y-42479D01*
X38748Y-42479D01*
X38832Y-42376D02*
X38898Y-42376D01*
X38926Y-42479D02*
X38832Y-42479D01*
X38832Y-42282D01*
X38926Y-42282D01*
X39151Y-42273D02*
X38982Y-42526D01*
X39188Y-42282D02*
X39301Y-42282D01*
X39245Y-42479D02*
X39245Y-42282D01*
X39404Y-42282D02*
X39441Y-42282D01*
X39460Y-42292D01*
X39479Y-42310D01*
X39488Y-42348D01*
X39488Y-42414D01*
X39479Y-42451D01*
X39460Y-42470D01*
X39441Y-42479D01*
X39404Y-42479D01*
X39385Y-42470D01*
X39367Y-42451D01*
X39357Y-42414D01*
X39357Y-42348D01*
X39367Y-42310D01*
X39385Y-42292D01*
X39404Y-42282D01*
G54D10*
X38281Y-34115D02*
X38543Y-34509D01*
X38543Y-34115D02*
X38281Y-34509D01*
X38899Y-34509D02*
X38674Y-34509D01*
X38787Y-34509D02*
X38787Y-34115D01*
X38749Y-34171D01*
X38712Y-34209D01*
X38674Y-34228D01*
X33384Y-34971D02*
X33365Y-34990D01*
X33309Y-35009D01*
X33272Y-35009D01*
X33215Y-34990D01*
X33178Y-34953D01*
X33159Y-34915D01*
X33140Y-34840D01*
X33140Y-34784D01*
X33159Y-34709D01*
X33178Y-34671D01*
X33215Y-34634D01*
X33272Y-34615D01*
X33309Y-34615D01*
X33365Y-34634D01*
X33384Y-34653D01*
X33778Y-35009D02*
X33647Y-34821D01*
X33553Y-35009D02*
X33553Y-34615D01*
X33703Y-34615D01*
X33740Y-34634D01*
X33759Y-34653D01*
X33778Y-34690D01*
X33778Y-34746D01*
X33759Y-34784D01*
X33740Y-34803D01*
X33703Y-34821D01*
X33553Y-34821D01*
X34022Y-34821D02*
X34022Y-35009D01*
X33890Y-34615D02*
X34022Y-34821D01*
X34153Y-34615D01*
X34265Y-34990D02*
X34322Y-35009D01*
X34415Y-35009D01*
X34453Y-34990D01*
X34472Y-34971D01*
X34490Y-34934D01*
X34490Y-34896D01*
X34472Y-34859D01*
X34453Y-34840D01*
X34415Y-34821D01*
X34340Y-34803D01*
X34303Y-34784D01*
X34284Y-34765D01*
X34265Y-34728D01*
X34265Y-34690D01*
X34284Y-34653D01*
X34303Y-34634D01*
X34340Y-34615D01*
X34434Y-34615D01*
X34490Y-34634D01*
X34603Y-34615D02*
X34828Y-34615D01*
X34715Y-35009D02*
X34715Y-34615D01*
X34940Y-34896D02*
X35128Y-34896D01*
X34903Y-35009D02*
X35034Y-34615D01*
X35165Y-35009D01*
X35484Y-35009D02*
X35296Y-35009D01*
X35296Y-34615D01*
X35878Y-34615D02*
X36121Y-34615D01*
X35990Y-34765D01*
X36046Y-34765D01*
X36084Y-34784D01*
X36103Y-34803D01*
X36121Y-34840D01*
X36121Y-34934D01*
X36103Y-34971D01*
X36084Y-34990D01*
X36046Y-35009D01*
X35934Y-35009D01*
X35896Y-34990D01*
X35878Y-34971D01*
X36271Y-34653D02*
X36290Y-34634D01*
X36328Y-34615D01*
X36421Y-34615D01*
X36459Y-34634D01*
X36478Y-34653D01*
X36496Y-34690D01*
X36496Y-34728D01*
X36478Y-34784D01*
X36253Y-35009D01*
X36496Y-35009D01*
X36665Y-34971D02*
X36684Y-34990D01*
X36665Y-35009D01*
X36646Y-34990D01*
X36665Y-34971D01*
X36665Y-35009D01*
X36815Y-34615D02*
X37077Y-34615D01*
X36909Y-35009D01*
X37396Y-34615D02*
X37321Y-34615D01*
X37284Y-34634D01*
X37265Y-34653D01*
X37227Y-34709D01*
X37209Y-34784D01*
X37209Y-34934D01*
X37227Y-34971D01*
X37246Y-34990D01*
X37284Y-35009D01*
X37359Y-35009D01*
X37396Y-34990D01*
X37415Y-34971D01*
X37434Y-34934D01*
X37434Y-34840D01*
X37415Y-34803D01*
X37396Y-34784D01*
X37359Y-34765D01*
X37284Y-34765D01*
X37246Y-34784D01*
X37227Y-34803D01*
X37209Y-34840D01*
X37659Y-34784D02*
X37621Y-34765D01*
X37602Y-34746D01*
X37584Y-34709D01*
X37584Y-34690D01*
X37602Y-34653D01*
X37621Y-34634D01*
X37659Y-34615D01*
X37734Y-34615D01*
X37771Y-34634D01*
X37790Y-34653D01*
X37809Y-34690D01*
X37809Y-34709D01*
X37790Y-34746D01*
X37771Y-34765D01*
X37734Y-34784D01*
X37659Y-34784D01*
X37621Y-34803D01*
X37602Y-34821D01*
X37584Y-34859D01*
X37584Y-34934D01*
X37602Y-34971D01*
X37621Y-34990D01*
X37659Y-35009D01*
X37734Y-35009D01*
X37771Y-34990D01*
X37790Y-34971D01*
X37809Y-34934D01*
X37809Y-34859D01*
X37790Y-34821D01*
X37771Y-34803D01*
X37734Y-34784D01*
X37977Y-35009D02*
X37977Y-34615D01*
X38015Y-34859D02*
X38127Y-35009D01*
X38127Y-34746D02*
X37977Y-34896D01*
X38296Y-35009D02*
X38296Y-34615D01*
X38296Y-34803D02*
X38521Y-34803D01*
X38521Y-35009D02*
X38521Y-34615D01*
X38671Y-34746D02*
X38877Y-34746D01*
X38671Y-35009D01*
X38877Y-35009D01*
G54D22*
X31823Y-42116D02*
X31842Y-42135D01*
X31861Y-42192D01*
X31861Y-42230D01*
X31842Y-42288D01*
X31804Y-42326D01*
X31766Y-42345D01*
X31690Y-42364D01*
X31633Y-42364D01*
X31557Y-42345D01*
X31519Y-42326D01*
X31480Y-42288D01*
X31461Y-42230D01*
X31461Y-42192D01*
X31480Y-42135D01*
X31500Y-42116D01*
X31461Y-41983D02*
X31461Y-41716D01*
X31861Y-41888D01*
X32311Y-41261D02*
X32083Y-41261D01*
X32197Y-41261D02*
X32197Y-40861D01*
X32159Y-40919D01*
X32121Y-40957D01*
X32083Y-40976D01*
X32654Y-40995D02*
X32654Y-41261D01*
X32483Y-40995D02*
X32483Y-41204D01*
X32502Y-41242D01*
X32540Y-41261D01*
X32597Y-41261D01*
X32635Y-41242D01*
X32654Y-41223D01*
X32978Y-41052D02*
X32845Y-41052D01*
X32845Y-41261D02*
X32845Y-40861D01*
X33035Y-40861D01*
G54D12*
X52704Y-44361D02*
X52704Y-43961D01*
X52800Y-43961D01*
X52857Y-43980D01*
X52895Y-44019D01*
X52914Y-44057D01*
X52933Y-44133D01*
X52933Y-44190D01*
X52914Y-44266D01*
X52895Y-44304D01*
X52857Y-44342D01*
X52800Y-44361D01*
X52704Y-44361D01*
X53314Y-44361D02*
X53085Y-44361D01*
X53200Y-44361D02*
X53200Y-43961D01*
X53161Y-44019D01*
X53123Y-44057D01*
X53085Y-44076D01*
X52709Y-44961D02*
X52709Y-44561D01*
X52804Y-44561D01*
X52861Y-44580D01*
X52900Y-44619D01*
X52919Y-44657D01*
X52938Y-44733D01*
X52938Y-44790D01*
X52919Y-44866D01*
X52900Y-44904D01*
X52861Y-44942D01*
X52804Y-44961D01*
X52709Y-44961D01*
X53109Y-44961D02*
X53109Y-44561D01*
X53376Y-44561D02*
X53452Y-44561D01*
X53490Y-44580D01*
X53528Y-44619D01*
X53547Y-44695D01*
X53547Y-44828D01*
X53528Y-44904D01*
X53490Y-44942D01*
X53452Y-44961D01*
X53376Y-44961D01*
X53338Y-44942D01*
X53300Y-44904D01*
X53280Y-44828D01*
X53280Y-44695D01*
X53300Y-44619D01*
X53338Y-44580D01*
X53376Y-44561D01*
X53719Y-44961D02*
X53719Y-44561D01*
X53814Y-44561D01*
X53871Y-44580D01*
X53909Y-44619D01*
X53928Y-44657D01*
X53947Y-44733D01*
X53947Y-44790D01*
X53928Y-44866D01*
X53909Y-44904D01*
X53871Y-44942D01*
X53814Y-44961D01*
X53719Y-44961D01*
X54119Y-44752D02*
X54252Y-44752D01*
X54309Y-44961D02*
X54119Y-44961D01*
X54119Y-44561D01*
X54309Y-44561D01*
X60104Y-46861D02*
X60104Y-46461D01*
X60200Y-46461D01*
X60257Y-46480D01*
X60295Y-46519D01*
X60314Y-46557D01*
X60333Y-46633D01*
X60333Y-46690D01*
X60314Y-46766D01*
X60295Y-46804D01*
X60257Y-46842D01*
X60200Y-46861D01*
X60104Y-46861D01*
X60466Y-46461D02*
X60714Y-46461D01*
X60580Y-46614D01*
X60638Y-46614D01*
X60676Y-46633D01*
X60695Y-46652D01*
X60714Y-46690D01*
X60714Y-46785D01*
X60695Y-46823D01*
X60676Y-46842D01*
X60638Y-46861D01*
X60523Y-46861D01*
X60485Y-46842D01*
X60466Y-46823D01*
X61292Y-46861D02*
X61102Y-46861D01*
X61102Y-46461D01*
X61426Y-46652D02*
X61559Y-46652D01*
X61616Y-46861D02*
X61426Y-46861D01*
X61426Y-46461D01*
X61616Y-46461D01*
X61788Y-46861D02*
X61788Y-46461D01*
X61883Y-46461D01*
X61940Y-46480D01*
X61978Y-46519D01*
X61997Y-46557D01*
X62016Y-46633D01*
X62016Y-46690D01*
X61997Y-46766D01*
X61978Y-46804D01*
X61940Y-46842D01*
X61883Y-46861D01*
X61788Y-46861D01*
X67404Y-46661D02*
X67404Y-46261D01*
X67500Y-46261D01*
X67557Y-46280D01*
X67595Y-46319D01*
X67614Y-46357D01*
X67633Y-46433D01*
X67633Y-46490D01*
X67614Y-46566D01*
X67595Y-46604D01*
X67557Y-46642D01*
X67500Y-46661D01*
X67404Y-46661D01*
X67785Y-46300D02*
X67804Y-46280D01*
X67842Y-46261D01*
X67938Y-46261D01*
X67976Y-46280D01*
X67995Y-46300D01*
X68014Y-46338D01*
X68014Y-46376D01*
X67995Y-46433D01*
X67766Y-46661D01*
X68014Y-46661D01*
X68592Y-46661D02*
X68402Y-46661D01*
X68402Y-46261D01*
X68726Y-46452D02*
X68859Y-46452D01*
X68916Y-46661D02*
X68726Y-46661D01*
X68726Y-46261D01*
X68916Y-46261D01*
X69088Y-46661D02*
X69088Y-46261D01*
X69183Y-46261D01*
X69240Y-46280D01*
X69278Y-46319D01*
X69297Y-46357D01*
X69316Y-46433D01*
X69316Y-46490D01*
X69297Y-46566D01*
X69278Y-46604D01*
X69240Y-46642D01*
X69183Y-46661D01*
X69088Y-46661D01*
X48266Y-42892D02*
X48323Y-42911D01*
X48419Y-42911D01*
X48457Y-42892D01*
X48476Y-42873D01*
X48495Y-42835D01*
X48495Y-42797D01*
X48476Y-42759D01*
X48457Y-42740D01*
X48419Y-42721D01*
X48342Y-42702D01*
X48304Y-42683D01*
X48285Y-42664D01*
X48266Y-42626D01*
X48266Y-42588D01*
X48285Y-42550D01*
X48304Y-42530D01*
X48342Y-42511D01*
X48438Y-42511D01*
X48495Y-42530D01*
X48628Y-42511D02*
X48723Y-42911D01*
X48800Y-42626D01*
X48876Y-42911D01*
X48971Y-42511D01*
X49333Y-42911D02*
X49104Y-42911D01*
X49219Y-42911D02*
X49219Y-42511D01*
X49180Y-42569D01*
X49142Y-42607D01*
X49104Y-42626D01*
X49842Y-42892D02*
X49900Y-42911D01*
X49995Y-42911D01*
X50033Y-42892D01*
X50052Y-42873D01*
X50071Y-42835D01*
X50071Y-42797D01*
X50052Y-42759D01*
X50033Y-42740D01*
X49995Y-42721D01*
X49919Y-42702D01*
X49880Y-42683D01*
X49861Y-42664D01*
X49842Y-42626D01*
X49842Y-42588D01*
X49861Y-42550D01*
X49880Y-42530D01*
X49919Y-42511D01*
X50014Y-42511D01*
X50071Y-42530D01*
X50242Y-42911D02*
X50242Y-42511D01*
X50395Y-42511D01*
X50433Y-42530D01*
X50452Y-42550D01*
X50471Y-42588D01*
X50471Y-42645D01*
X50452Y-42683D01*
X50433Y-42702D01*
X50395Y-42721D01*
X50242Y-42721D01*
X50623Y-42892D02*
X50680Y-42911D01*
X50776Y-42911D01*
X50814Y-42892D01*
X50833Y-42873D01*
X50852Y-42835D01*
X50852Y-42797D01*
X50833Y-42759D01*
X50814Y-42740D01*
X50776Y-42721D01*
X50700Y-42702D01*
X50661Y-42683D01*
X50642Y-42664D01*
X50623Y-42626D01*
X50623Y-42588D01*
X50642Y-42550D01*
X50661Y-42530D01*
X50700Y-42511D01*
X50795Y-42511D01*
X50852Y-42530D01*
X50966Y-42511D02*
X51195Y-42511D01*
X51080Y-42911D02*
X51080Y-42511D01*
G54D24*
X29411Y-34030D02*
X29382Y-34015D01*
X29354Y-33987D01*
X29311Y-33944D01*
X29282Y-33930D01*
X29254Y-33930D01*
X29268Y-34001D02*
X29240Y-33987D01*
X29211Y-33958D01*
X29197Y-33901D01*
X29197Y-33801D01*
X29211Y-33744D01*
X29240Y-33715D01*
X29268Y-33701D01*
X29325Y-33701D01*
X29354Y-33715D01*
X29382Y-33744D01*
X29397Y-33801D01*
X29397Y-33901D01*
X29382Y-33958D01*
X29354Y-33987D01*
X29325Y-34001D01*
X29268Y-34001D01*
X29511Y-33730D02*
X29525Y-33715D01*
X29554Y-33701D01*
X29625Y-33701D01*
X29654Y-33715D01*
X29668Y-33730D01*
X29682Y-33758D01*
X29682Y-33787D01*
X29668Y-33830D01*
X29497Y-34001D01*
X29682Y-34001D01*
G54D21*
X30640Y-33876D02*
X30574Y-33876D01*
X30574Y-33979D02*
X30574Y-33782D01*
X30668Y-33782D01*
X30743Y-33876D02*
X30809Y-33876D01*
X30837Y-33979D02*
X30743Y-33979D01*
X30743Y-33782D01*
X30837Y-33782D01*
X30893Y-33782D02*
X31006Y-33782D01*
X30950Y-33979D02*
X30950Y-33782D01*
X31025Y-33998D02*
X31175Y-33998D01*
X31222Y-33979D02*
X31222Y-33782D01*
X31297Y-33782D01*
X31315Y-33792D01*
X31325Y-33801D01*
X31334Y-33820D01*
X31334Y-33848D01*
X31325Y-33867D01*
X31315Y-33876D01*
X31297Y-33885D01*
X31222Y-33885D01*
G54D25*
X35350Y-33182D02*
X35350Y-33342D01*
X35359Y-33360D01*
X35368Y-33370D01*
X35387Y-33379D01*
X35425Y-33379D01*
X35443Y-33370D01*
X35453Y-33360D01*
X35462Y-33342D01*
X35462Y-33182D01*
X35659Y-33379D02*
X35546Y-33379D01*
X35603Y-33379D02*
X35603Y-33182D01*
X35584Y-33210D01*
X35565Y-33229D01*
X35546Y-33239D01*
X35862Y-33379D02*
X35862Y-33182D01*
X35927Y-33323D01*
X35993Y-33182D01*
X35993Y-33379D01*
X36199Y-33360D02*
X36190Y-33370D01*
X36162Y-33379D01*
X36143Y-33379D01*
X36115Y-33370D01*
X36096Y-33351D01*
X36087Y-33332D01*
X36077Y-33295D01*
X36077Y-33267D01*
X36087Y-33229D01*
X36096Y-33210D01*
X36115Y-33192D01*
X36143Y-33182D01*
X36162Y-33182D01*
X36190Y-33192D01*
X36199Y-33201D01*
X36284Y-33379D02*
X36284Y-33182D01*
X36359Y-33182D01*
X36378Y-33192D01*
X36387Y-33201D01*
X36396Y-33220D01*
X36396Y-33248D01*
X36387Y-33267D01*
X36378Y-33276D01*
X36359Y-33285D01*
X36284Y-33285D01*
X36584Y-33379D02*
X36471Y-33379D01*
X36528Y-33379D02*
X36528Y-33182D01*
X36509Y-33210D01*
X36490Y-33229D01*
X36471Y-33239D01*
X36753Y-33182D02*
X36715Y-33182D01*
X36697Y-33192D01*
X36687Y-33201D01*
X36668Y-33229D01*
X36659Y-33267D01*
X36659Y-33342D01*
X36668Y-33360D01*
X36678Y-33370D01*
X36697Y-33379D01*
X36734Y-33379D01*
X36753Y-33370D01*
X36762Y-33360D01*
X36772Y-33342D01*
X36772Y-33295D01*
X36762Y-33276D01*
X36753Y-33267D01*
X36734Y-33257D01*
X36697Y-33257D01*
X36678Y-33267D01*
X36668Y-33276D01*
X36659Y-33295D01*
X36847Y-33201D02*
X36856Y-33192D01*
X36875Y-33182D01*
X36922Y-33182D01*
X36940Y-33192D01*
X36950Y-33201D01*
X36959Y-33220D01*
X36959Y-33239D01*
X36950Y-33267D01*
X36837Y-33379D01*
X36959Y-33379D01*
X37128Y-33248D02*
X37128Y-33379D01*
X37081Y-33173D02*
X37034Y-33314D01*
X37156Y-33314D01*
G54D26*
X64383Y-44208D02*
X64317Y-44114D01*
X64270Y-44208D02*
X64270Y-44011D01*
X64345Y-44011D01*
X64364Y-44020D01*
X64373Y-44030D01*
X64383Y-44049D01*
X64383Y-44077D01*
X64373Y-44095D01*
X64364Y-44105D01*
X64345Y-44114D01*
X64270Y-44114D01*
X64570Y-44208D02*
X64458Y-44208D01*
X64514Y-44208D02*
X64514Y-44011D01*
X64495Y-44039D01*
X64477Y-44058D01*
X64458Y-44067D01*
X64749Y-44011D02*
X64655Y-44011D01*
X64645Y-44105D01*
X64655Y-44095D01*
X64674Y-44086D01*
X64720Y-44086D01*
X64739Y-44095D01*
X64749Y-44105D01*
X64758Y-44124D01*
X64758Y-44171D01*
X64749Y-44189D01*
X64739Y-44199D01*
X64720Y-44208D01*
X64674Y-44208D01*
X64655Y-44199D01*
X64645Y-44189D01*
X63606Y-44040D02*
X63615Y-44030D01*
X63634Y-44021D01*
X63681Y-44021D01*
X63699Y-44030D01*
X63709Y-44040D01*
X63718Y-44059D01*
X63718Y-44077D01*
X63709Y-44105D01*
X63596Y-44218D01*
X63718Y-44218D01*
X63793Y-44040D02*
X63803Y-44030D01*
X63821Y-44021D01*
X63868Y-44021D01*
X63887Y-44030D01*
X63896Y-44040D01*
X63906Y-44059D01*
X63906Y-44077D01*
X63896Y-44105D01*
X63784Y-44218D01*
X63906Y-44218D01*
X64028Y-44021D02*
X64046Y-44021D01*
X64065Y-44030D01*
X64075Y-44040D01*
X64084Y-44059D01*
X64093Y-44096D01*
X64093Y-44143D01*
X64084Y-44181D01*
X64075Y-44199D01*
X64065Y-44209D01*
X64046Y-44218D01*
X64028Y-44218D01*
X64009Y-44209D01*
X64000Y-44199D01*
X63990Y-44181D01*
X63981Y-44143D01*
X63981Y-44096D01*
X63990Y-44059D01*
X64000Y-44040D01*
X64009Y-44030D01*
X64028Y-44021D01*
X70995Y-44125D02*
X70930Y-44031D01*
X70883Y-44125D02*
X70883Y-43928D01*
X70958Y-43928D01*
X70977Y-43938D01*
X70986Y-43947D01*
X70995Y-43966D01*
X70995Y-43994D01*
X70986Y-44013D01*
X70977Y-44022D01*
X70958Y-44031D01*
X70883Y-44031D01*
X71183Y-44125D02*
X71070Y-44125D01*
X71127Y-44125D02*
X71127Y-43928D01*
X71108Y-43956D01*
X71089Y-43975D01*
X71070Y-43985D01*
X71352Y-43994D02*
X71352Y-44125D01*
X71305Y-43919D02*
X71258Y-44060D01*
X71380Y-44060D01*
X70178Y-43947D02*
X70187Y-43938D01*
X70206Y-43928D01*
X70253Y-43928D01*
X70272Y-43938D01*
X70281Y-43947D01*
X70291Y-43966D01*
X70291Y-43985D01*
X70281Y-44013D01*
X70169Y-44125D01*
X70291Y-44125D01*
X70366Y-43947D02*
X70375Y-43938D01*
X70394Y-43928D01*
X70441Y-43928D01*
X70459Y-43938D01*
X70469Y-43947D01*
X70478Y-43966D01*
X70478Y-43985D01*
X70469Y-44013D01*
X70356Y-44125D01*
X70478Y-44125D01*
X70600Y-43928D02*
X70619Y-43928D01*
X70638Y-43938D01*
X70647Y-43947D01*
X70656Y-43966D01*
X70666Y-44003D01*
X70666Y-44050D01*
X70656Y-44088D01*
X70647Y-44107D01*
X70638Y-44116D01*
X70619Y-44125D01*
X70600Y-44125D01*
X70581Y-44116D01*
X70572Y-44107D01*
X70563Y-44088D01*
X70553Y-44050D01*
X70553Y-44003D01*
X70563Y-43966D01*
X70572Y-43947D01*
X70581Y-43938D01*
X70600Y-43928D01*
X40660Y-36632D02*
X40670Y-36642D01*
X40679Y-36670D01*
X40679Y-36689D01*
X40670Y-36717D01*
X40651Y-36736D01*
X40632Y-36745D01*
X40595Y-36754D01*
X40567Y-36754D01*
X40529Y-36745D01*
X40510Y-36736D01*
X40492Y-36717D01*
X40482Y-36689D01*
X40482Y-36670D01*
X40492Y-36642D01*
X40501Y-36632D01*
X40501Y-36557D02*
X40492Y-36548D01*
X40482Y-36529D01*
X40482Y-36482D01*
X40492Y-36463D01*
X40501Y-36454D01*
X40520Y-36445D01*
X40539Y-36445D01*
X40567Y-36454D01*
X40679Y-36567D01*
X40679Y-36445D01*
X40679Y-36151D02*
X40679Y-36264D01*
X40679Y-36208D02*
X40482Y-36208D01*
X40510Y-36226D01*
X40529Y-36245D01*
X40539Y-36264D01*
X40501Y-36076D02*
X40492Y-36067D01*
X40482Y-36048D01*
X40482Y-36001D01*
X40492Y-35982D01*
X40501Y-35973D01*
X40520Y-35964D01*
X40539Y-35964D01*
X40567Y-35973D01*
X40679Y-36086D01*
X40679Y-35964D01*
X40660Y-35879D02*
X40670Y-35870D01*
X40679Y-35879D01*
X40670Y-35889D01*
X40660Y-35879D01*
X40679Y-35879D01*
X40482Y-35692D02*
X40482Y-35785D01*
X40576Y-35795D01*
X40567Y-35785D01*
X40557Y-35767D01*
X40557Y-35720D01*
X40567Y-35701D01*
X40576Y-35692D01*
X40595Y-35682D01*
X40642Y-35682D01*
X40660Y-35692D01*
X40670Y-35701D01*
X40679Y-35720D01*
X40679Y-35767D01*
X40670Y-35785D01*
X40660Y-35795D01*
X40548Y-35598D02*
X40745Y-35598D01*
X40557Y-35598D02*
X40548Y-35579D01*
X40548Y-35542D01*
X40557Y-35523D01*
X40567Y-35513D01*
X40585Y-35504D01*
X40642Y-35504D01*
X40660Y-35513D01*
X40670Y-35523D01*
X40679Y-35542D01*
X40679Y-35579D01*
X40670Y-35598D01*
X40576Y-35354D02*
X40576Y-35420D01*
X40679Y-35420D02*
X40482Y-35420D01*
X40482Y-35326D01*
X38610Y-36682D02*
X38620Y-36692D01*
X38629Y-36720D01*
X38629Y-36739D01*
X38620Y-36767D01*
X38601Y-36786D01*
X38582Y-36795D01*
X38545Y-36804D01*
X38517Y-36804D01*
X38479Y-36795D01*
X38460Y-36786D01*
X38442Y-36767D01*
X38432Y-36739D01*
X38432Y-36720D01*
X38442Y-36692D01*
X38451Y-36682D01*
X38498Y-36513D02*
X38629Y-36513D01*
X38423Y-36560D02*
X38564Y-36607D01*
X38564Y-36485D01*
X38629Y-36151D02*
X38629Y-36264D01*
X38629Y-36208D02*
X38432Y-36208D01*
X38460Y-36226D01*
X38479Y-36245D01*
X38489Y-36264D01*
X38451Y-36076D02*
X38442Y-36067D01*
X38432Y-36048D01*
X38432Y-36001D01*
X38442Y-35982D01*
X38451Y-35973D01*
X38470Y-35964D01*
X38489Y-35964D01*
X38517Y-35973D01*
X38629Y-36086D01*
X38629Y-35964D01*
X38610Y-35879D02*
X38620Y-35870D01*
X38629Y-35879D01*
X38620Y-35889D01*
X38610Y-35879D01*
X38629Y-35879D01*
X38432Y-35692D02*
X38432Y-35785D01*
X38526Y-35795D01*
X38517Y-35785D01*
X38507Y-35767D01*
X38507Y-35720D01*
X38517Y-35701D01*
X38526Y-35692D01*
X38545Y-35682D01*
X38592Y-35682D01*
X38610Y-35692D01*
X38620Y-35701D01*
X38629Y-35720D01*
X38629Y-35767D01*
X38620Y-35785D01*
X38610Y-35795D01*
X38498Y-35598D02*
X38695Y-35598D01*
X38507Y-35598D02*
X38498Y-35579D01*
X38498Y-35542D01*
X38507Y-35523D01*
X38517Y-35513D01*
X38535Y-35504D01*
X38592Y-35504D01*
X38610Y-35513D01*
X38620Y-35523D01*
X38629Y-35542D01*
X38629Y-35579D01*
X38620Y-35598D01*
X38526Y-35354D02*
X38526Y-35420D01*
X38629Y-35420D02*
X38432Y-35420D01*
X38432Y-35326D01*
X42076Y-37219D02*
X41982Y-37284D01*
X42076Y-37331D02*
X41879Y-37331D01*
X41879Y-37256D01*
X41888Y-37237D01*
X41897Y-37228D01*
X41916Y-37219D01*
X41944Y-37219D01*
X41963Y-37228D01*
X41973Y-37237D01*
X41982Y-37256D01*
X41982Y-37331D01*
X41963Y-37106D02*
X41954Y-37125D01*
X41944Y-37134D01*
X41926Y-37144D01*
X41916Y-37144D01*
X41897Y-37134D01*
X41888Y-37125D01*
X41879Y-37106D01*
X41879Y-37068D01*
X41888Y-37050D01*
X41897Y-37040D01*
X41916Y-37031D01*
X41926Y-37031D01*
X41944Y-37040D01*
X41954Y-37050D01*
X41963Y-37068D01*
X41963Y-37106D01*
X41973Y-37125D01*
X41982Y-37134D01*
X42001Y-37144D01*
X42038Y-37144D01*
X42057Y-37134D01*
X42066Y-37125D01*
X42076Y-37106D01*
X42076Y-37068D01*
X42066Y-37050D01*
X42057Y-37040D01*
X42038Y-37031D01*
X42001Y-37031D01*
X41982Y-37040D01*
X41973Y-37050D01*
X41963Y-37068D01*
X41879Y-36594D02*
X41879Y-36472D01*
X41954Y-36537D01*
X41954Y-36509D01*
X41963Y-36491D01*
X41973Y-36481D01*
X41991Y-36472D01*
X42038Y-36472D01*
X42057Y-36481D01*
X42066Y-36491D01*
X42076Y-36509D01*
X42076Y-36566D01*
X42066Y-36584D01*
X42057Y-36594D01*
X41879Y-36406D02*
X41879Y-36284D01*
X41954Y-36350D01*
X41954Y-36322D01*
X41963Y-36303D01*
X41973Y-36294D01*
X41991Y-36284D01*
X42038Y-36284D01*
X42057Y-36294D01*
X42066Y-36303D01*
X42076Y-36322D01*
X42076Y-36378D01*
X42066Y-36397D01*
X42057Y-36406D01*
X42076Y-36200D02*
X41879Y-36200D01*
X42076Y-36087D02*
X41963Y-36172D01*
X41879Y-36087D02*
X41991Y-36200D01*
X43058Y-37213D02*
X42965Y-37279D01*
X43058Y-37326D02*
X42861Y-37326D01*
X42861Y-37251D01*
X42871Y-37232D01*
X42880Y-37222D01*
X42899Y-37213D01*
X42927Y-37213D01*
X42946Y-37222D01*
X42955Y-37232D01*
X42965Y-37251D01*
X42965Y-37326D01*
X42861Y-37147D02*
X42861Y-37016D01*
X43058Y-37100D01*
X42861Y-36688D02*
X42861Y-36566D01*
X42936Y-36632D01*
X42936Y-36604D01*
X42946Y-36585D01*
X42955Y-36576D01*
X42974Y-36566D01*
X43021Y-36566D01*
X43040Y-36576D01*
X43049Y-36585D01*
X43058Y-36604D01*
X43058Y-36660D01*
X43049Y-36679D01*
X43040Y-36688D01*
X42861Y-36501D02*
X42861Y-36379D01*
X42936Y-36444D01*
X42936Y-36416D01*
X42946Y-36397D01*
X42955Y-36388D01*
X42974Y-36379D01*
X43021Y-36379D01*
X43040Y-36388D01*
X43049Y-36397D01*
X43058Y-36416D01*
X43058Y-36472D01*
X43049Y-36491D01*
X43040Y-36501D01*
X43058Y-36294D02*
X42861Y-36294D01*
X43058Y-36182D02*
X42946Y-36266D01*
X42861Y-36182D02*
X42974Y-36294D01*
X45523Y-34829D02*
X45457Y-34735D01*
X45410Y-34829D02*
X45410Y-34632D01*
X45485Y-34632D01*
X45504Y-34642D01*
X45513Y-34651D01*
X45523Y-34670D01*
X45523Y-34698D01*
X45513Y-34717D01*
X45504Y-34726D01*
X45485Y-34735D01*
X45410Y-34735D01*
X45710Y-34829D02*
X45598Y-34829D01*
X45654Y-34829D02*
X45654Y-34632D01*
X45635Y-34660D01*
X45617Y-34679D01*
X45598Y-34689D01*
X45786Y-34651D02*
X45795Y-34642D01*
X45814Y-34632D01*
X45861Y-34632D01*
X45879Y-34642D01*
X45889Y-34651D01*
X45898Y-34670D01*
X45898Y-34689D01*
X45889Y-34717D01*
X45776Y-34829D01*
X45898Y-34829D01*
X46313Y-34829D02*
X46201Y-34829D01*
X46257Y-34829D02*
X46257Y-34632D01*
X46238Y-34660D01*
X46220Y-34679D01*
X46201Y-34689D01*
X46435Y-34632D02*
X46454Y-34632D01*
X46473Y-34642D01*
X46482Y-34651D01*
X46492Y-34670D01*
X46501Y-34707D01*
X46501Y-34754D01*
X46492Y-34792D01*
X46482Y-34810D01*
X46473Y-34820D01*
X46454Y-34829D01*
X46435Y-34829D01*
X46417Y-34820D01*
X46407Y-34810D01*
X46398Y-34792D01*
X46389Y-34754D01*
X46389Y-34707D01*
X46398Y-34670D01*
X46407Y-34651D01*
X46417Y-34642D01*
X46435Y-34632D01*
X46586Y-34829D02*
X46586Y-34632D01*
X46698Y-34829D02*
X46614Y-34717D01*
X46698Y-34632D02*
X46586Y-34745D01*
X46367Y-36160D02*
X46357Y-36170D01*
X46329Y-36179D01*
X46310Y-36179D01*
X46282Y-36170D01*
X46263Y-36151D01*
X46254Y-36132D01*
X46245Y-36095D01*
X46245Y-36067D01*
X46254Y-36029D01*
X46263Y-36010D01*
X46282Y-35992D01*
X46310Y-35982D01*
X46329Y-35982D01*
X46357Y-35992D01*
X46367Y-36001D01*
X46536Y-35982D02*
X46498Y-35982D01*
X46479Y-35992D01*
X46470Y-36001D01*
X46451Y-36029D01*
X46442Y-36067D01*
X46442Y-36142D01*
X46451Y-36160D01*
X46460Y-36170D01*
X46479Y-36179D01*
X46517Y-36179D01*
X46536Y-36170D01*
X46545Y-36160D01*
X46554Y-36142D01*
X46554Y-36095D01*
X46545Y-36076D01*
X46536Y-36067D01*
X46517Y-36057D01*
X46479Y-36057D01*
X46460Y-36067D01*
X46451Y-36076D01*
X46442Y-36095D01*
X46838Y-36160D02*
X46848Y-36170D01*
X46838Y-36179D01*
X46829Y-36170D01*
X46838Y-36160D01*
X46838Y-36179D01*
X46970Y-35982D02*
X46988Y-35982D01*
X47007Y-35992D01*
X47017Y-36001D01*
X47026Y-36020D01*
X47035Y-36057D01*
X47035Y-36104D01*
X47026Y-36142D01*
X47017Y-36160D01*
X47007Y-36170D01*
X46988Y-36179D01*
X46970Y-36179D01*
X46951Y-36170D01*
X46942Y-36160D01*
X46932Y-36142D01*
X46923Y-36104D01*
X46923Y-36057D01*
X46932Y-36020D01*
X46942Y-36001D01*
X46951Y-35992D01*
X46970Y-35982D01*
X47223Y-36179D02*
X47110Y-36179D01*
X47167Y-36179D02*
X47167Y-35982D01*
X47148Y-36010D01*
X47129Y-36029D01*
X47110Y-36039D01*
X47392Y-36048D02*
X47392Y-36179D01*
X47307Y-36048D02*
X47307Y-36151D01*
X47317Y-36170D01*
X47336Y-36179D01*
X47364Y-36179D01*
X47382Y-36170D01*
X47392Y-36160D01*
X47551Y-36076D02*
X47486Y-36076D01*
X47486Y-36179D02*
X47486Y-35982D01*
X47579Y-35982D01*
X45567Y-33479D02*
X45501Y-33385D01*
X45454Y-33479D02*
X45454Y-33282D01*
X45529Y-33282D01*
X45548Y-33292D01*
X45557Y-33301D01*
X45567Y-33320D01*
X45567Y-33348D01*
X45557Y-33367D01*
X45548Y-33376D01*
X45529Y-33385D01*
X45454Y-33385D01*
X45660Y-33479D02*
X45698Y-33479D01*
X45717Y-33470D01*
X45726Y-33460D01*
X45745Y-33432D01*
X45754Y-33395D01*
X45754Y-33320D01*
X45745Y-33301D01*
X45736Y-33292D01*
X45717Y-33282D01*
X45679Y-33282D01*
X45660Y-33292D01*
X45651Y-33301D01*
X45642Y-33320D01*
X45642Y-33367D01*
X45651Y-33385D01*
X45660Y-33395D01*
X45679Y-33404D01*
X45717Y-33404D01*
X45736Y-33395D01*
X45745Y-33385D01*
X45754Y-33367D01*
X46213Y-33479D02*
X46101Y-33479D01*
X46157Y-33479D02*
X46157Y-33282D01*
X46138Y-33310D01*
X46120Y-33329D01*
X46101Y-33339D01*
X46335Y-33282D02*
X46354Y-33282D01*
X46373Y-33292D01*
X46382Y-33301D01*
X46392Y-33320D01*
X46401Y-33357D01*
X46401Y-33404D01*
X46392Y-33442D01*
X46382Y-33460D01*
X46373Y-33470D01*
X46354Y-33479D01*
X46335Y-33479D01*
X46317Y-33470D01*
X46307Y-33460D01*
X46298Y-33442D01*
X46289Y-33404D01*
X46289Y-33357D01*
X46298Y-33320D01*
X46307Y-33301D01*
X46317Y-33292D01*
X46335Y-33282D01*
X46486Y-33479D02*
X46486Y-33282D01*
X46598Y-33479D02*
X46514Y-33367D01*
X46598Y-33282D02*
X46486Y-33395D01*
X46417Y-31560D02*
X46407Y-31570D01*
X46379Y-31579D01*
X46360Y-31579D01*
X46332Y-31570D01*
X46313Y-31551D01*
X46304Y-31532D01*
X46295Y-31495D01*
X46295Y-31467D01*
X46304Y-31429D01*
X46313Y-31410D01*
X46332Y-31392D01*
X46360Y-31382D01*
X46379Y-31382D01*
X46407Y-31392D01*
X46417Y-31401D01*
X46595Y-31382D02*
X46501Y-31382D01*
X46492Y-31476D01*
X46501Y-31467D01*
X46520Y-31457D01*
X46567Y-31457D01*
X46586Y-31467D01*
X46595Y-31476D01*
X46604Y-31495D01*
X46604Y-31542D01*
X46595Y-31560D01*
X46586Y-31570D01*
X46567Y-31579D01*
X46520Y-31579D01*
X46501Y-31570D01*
X46492Y-31560D01*
X46838Y-31560D02*
X46848Y-31570D01*
X46838Y-31579D01*
X46829Y-31570D01*
X46838Y-31560D01*
X46838Y-31579D01*
X46970Y-31382D02*
X46988Y-31382D01*
X47007Y-31392D01*
X47017Y-31401D01*
X47026Y-31420D01*
X47035Y-31457D01*
X47035Y-31504D01*
X47026Y-31542D01*
X47017Y-31560D01*
X47007Y-31570D01*
X46988Y-31579D01*
X46970Y-31579D01*
X46951Y-31570D01*
X46942Y-31560D01*
X46932Y-31542D01*
X46923Y-31504D01*
X46923Y-31457D01*
X46932Y-31420D01*
X46942Y-31401D01*
X46951Y-31392D01*
X46970Y-31382D01*
X47223Y-31579D02*
X47110Y-31579D01*
X47167Y-31579D02*
X47167Y-31382D01*
X47148Y-31410D01*
X47129Y-31429D01*
X47110Y-31439D01*
X47392Y-31448D02*
X47392Y-31579D01*
X47307Y-31448D02*
X47307Y-31551D01*
X47317Y-31570D01*
X47336Y-31579D01*
X47364Y-31579D01*
X47382Y-31570D01*
X47392Y-31560D01*
X47551Y-31476D02*
X47486Y-31476D01*
X47486Y-31579D02*
X47486Y-31382D01*
X47579Y-31382D01*
X36217Y-30529D02*
X36151Y-30435D01*
X36104Y-30529D02*
X36104Y-30332D01*
X36179Y-30332D01*
X36198Y-30342D01*
X36207Y-30351D01*
X36217Y-30370D01*
X36217Y-30398D01*
X36207Y-30417D01*
X36198Y-30426D01*
X36179Y-30435D01*
X36104Y-30435D01*
X36395Y-30332D02*
X36301Y-30332D01*
X36292Y-30426D01*
X36301Y-30417D01*
X36320Y-30407D01*
X36367Y-30407D01*
X36386Y-30417D01*
X36395Y-30426D01*
X36404Y-30445D01*
X36404Y-30492D01*
X36395Y-30510D01*
X36386Y-30520D01*
X36367Y-30529D01*
X36320Y-30529D01*
X36301Y-30520D01*
X36292Y-30510D01*
X36720Y-30529D02*
X36607Y-30529D01*
X36663Y-30529D02*
X36663Y-30332D01*
X36645Y-30360D01*
X36626Y-30379D01*
X36607Y-30389D01*
X36785Y-30332D02*
X36907Y-30332D01*
X36842Y-30407D01*
X36870Y-30407D01*
X36889Y-30417D01*
X36898Y-30426D01*
X36907Y-30445D01*
X36907Y-30492D01*
X36898Y-30510D01*
X36889Y-30520D01*
X36870Y-30529D01*
X36813Y-30529D01*
X36795Y-30520D01*
X36785Y-30510D01*
X37029Y-30332D02*
X37048Y-30332D01*
X37067Y-30342D01*
X37076Y-30351D01*
X37086Y-30370D01*
X37095Y-30407D01*
X37095Y-30454D01*
X37086Y-30492D01*
X37076Y-30510D01*
X37067Y-30520D01*
X37048Y-30529D01*
X37029Y-30529D01*
X37010Y-30520D01*
X37001Y-30510D01*
X36992Y-30492D01*
X36982Y-30454D01*
X36982Y-30407D01*
X36992Y-30370D01*
X37001Y-30351D01*
X37010Y-30342D01*
X37029Y-30332D01*
X37179Y-30529D02*
X37179Y-30332D01*
X37292Y-30529D02*
X37207Y-30417D01*
X37292Y-30332D02*
X37179Y-30445D01*
X34717Y-30529D02*
X34651Y-30435D01*
X34604Y-30529D02*
X34604Y-30332D01*
X34679Y-30332D01*
X34698Y-30342D01*
X34707Y-30351D01*
X34717Y-30370D01*
X34717Y-30398D01*
X34707Y-30417D01*
X34698Y-30426D01*
X34679Y-30435D01*
X34604Y-30435D01*
X34886Y-30332D02*
X34848Y-30332D01*
X34829Y-30342D01*
X34820Y-30351D01*
X34801Y-30379D01*
X34792Y-30417D01*
X34792Y-30492D01*
X34801Y-30510D01*
X34810Y-30520D01*
X34829Y-30529D01*
X34867Y-30529D01*
X34886Y-30520D01*
X34895Y-30510D01*
X34904Y-30492D01*
X34904Y-30445D01*
X34895Y-30426D01*
X34886Y-30417D01*
X34867Y-30407D01*
X34829Y-30407D01*
X34810Y-30417D01*
X34801Y-30426D01*
X34792Y-30445D01*
X35157Y-30351D02*
X35166Y-30342D01*
X35185Y-30332D01*
X35232Y-30332D01*
X35251Y-30342D01*
X35260Y-30351D01*
X35270Y-30370D01*
X35270Y-30389D01*
X35260Y-30417D01*
X35148Y-30529D01*
X35270Y-30529D01*
X35392Y-30332D02*
X35410Y-30332D01*
X35429Y-30342D01*
X35439Y-30351D01*
X35448Y-30370D01*
X35457Y-30407D01*
X35457Y-30454D01*
X35448Y-30492D01*
X35439Y-30510D01*
X35429Y-30520D01*
X35410Y-30529D01*
X35392Y-30529D01*
X35373Y-30520D01*
X35363Y-30510D01*
X35354Y-30492D01*
X35345Y-30454D01*
X35345Y-30407D01*
X35354Y-30370D01*
X35363Y-30351D01*
X35373Y-30342D01*
X35392Y-30332D01*
X35579Y-30332D02*
X35598Y-30332D01*
X35617Y-30342D01*
X35626Y-30351D01*
X35636Y-30370D01*
X35645Y-30407D01*
X35645Y-30454D01*
X35636Y-30492D01*
X35626Y-30510D01*
X35617Y-30520D01*
X35598Y-30529D01*
X35579Y-30529D01*
X35560Y-30520D01*
X35551Y-30510D01*
X35542Y-30492D01*
X35532Y-30454D01*
X35532Y-30407D01*
X35542Y-30370D01*
X35551Y-30351D01*
X35560Y-30342D01*
X35579Y-30332D01*
X35729Y-30529D02*
X35729Y-30332D01*
X35842Y-30529D02*
X35757Y-30417D01*
X35842Y-30332D02*
X35729Y-30445D01*
X33429Y-32982D02*
X33429Y-33076D01*
X33232Y-33076D01*
X33429Y-32813D02*
X33429Y-32926D01*
X33429Y-32870D02*
X33232Y-32870D01*
X33260Y-32889D01*
X33279Y-32907D01*
X33289Y-32926D01*
X33298Y-32595D02*
X33429Y-32595D01*
X33223Y-32642D02*
X33364Y-32689D01*
X33364Y-32567D01*
X33410Y-32492D02*
X33420Y-32482D01*
X33429Y-32492D01*
X33420Y-32501D01*
X33410Y-32492D01*
X33429Y-32492D01*
X33232Y-32417D02*
X33232Y-32285D01*
X33429Y-32370D01*
X33298Y-32126D02*
X33429Y-32126D01*
X33298Y-32210D02*
X33401Y-32210D01*
X33420Y-32201D01*
X33429Y-32182D01*
X33429Y-32154D01*
X33420Y-32135D01*
X33410Y-32126D01*
X33429Y-32032D02*
X33232Y-32032D01*
X33326Y-32032D02*
X33326Y-31920D01*
X33429Y-31920D02*
X33232Y-31920D01*
X28779Y-35482D02*
X28685Y-35548D01*
X28779Y-35595D02*
X28582Y-35595D01*
X28582Y-35520D01*
X28592Y-35501D01*
X28601Y-35492D01*
X28620Y-35482D01*
X28648Y-35482D01*
X28667Y-35492D01*
X28676Y-35501D01*
X28685Y-35520D01*
X28685Y-35595D01*
X28779Y-35295D02*
X28779Y-35407D01*
X28779Y-35351D02*
X28582Y-35351D01*
X28610Y-35370D01*
X28629Y-35389D01*
X28639Y-35407D01*
X28582Y-34807D02*
X28582Y-34789D01*
X28592Y-34770D01*
X28601Y-34760D01*
X28620Y-34751D01*
X28657Y-34742D01*
X28704Y-34742D01*
X28742Y-34751D01*
X28760Y-34760D01*
X28770Y-34770D01*
X28779Y-34789D01*
X28779Y-34807D01*
X28770Y-34826D01*
X28760Y-34836D01*
X28742Y-34845D01*
X28704Y-34854D01*
X28657Y-34854D01*
X28620Y-34845D01*
X28601Y-34836D01*
X28592Y-34826D01*
X28582Y-34807D01*
X28779Y-34657D02*
X28582Y-34657D01*
X28779Y-34545D02*
X28667Y-34629D01*
X28582Y-34545D02*
X28695Y-34657D01*
X25079Y-34432D02*
X24985Y-34498D01*
X25079Y-34545D02*
X24882Y-34545D01*
X24882Y-34470D01*
X24892Y-34451D01*
X24901Y-34442D01*
X24920Y-34432D01*
X24948Y-34432D01*
X24967Y-34442D01*
X24976Y-34451D01*
X24985Y-34470D01*
X24985Y-34545D01*
X24882Y-34367D02*
X24882Y-34245D01*
X24957Y-34310D01*
X24957Y-34282D01*
X24967Y-34263D01*
X24976Y-34254D01*
X24995Y-34245D01*
X25042Y-34245D01*
X25060Y-34254D01*
X25070Y-34263D01*
X25079Y-34282D01*
X25079Y-34339D01*
X25070Y-34357D01*
X25060Y-34367D01*
X25079Y-33736D02*
X25079Y-33848D01*
X25079Y-33792D02*
X24882Y-33792D01*
X24910Y-33811D01*
X24929Y-33829D01*
X24939Y-33848D01*
X24882Y-33614D02*
X24882Y-33595D01*
X24892Y-33576D01*
X24901Y-33567D01*
X24920Y-33557D01*
X24957Y-33548D01*
X25004Y-33548D01*
X25042Y-33557D01*
X25060Y-33567D01*
X25070Y-33576D01*
X25079Y-33595D01*
X25079Y-33614D01*
X25070Y-33632D01*
X25060Y-33642D01*
X25042Y-33651D01*
X25004Y-33660D01*
X24957Y-33660D01*
X24920Y-33651D01*
X24901Y-33642D01*
X24892Y-33632D01*
X24882Y-33614D01*
X25079Y-33463D02*
X24882Y-33463D01*
X25079Y-33351D02*
X24967Y-33435D01*
X24882Y-33351D02*
X24995Y-33463D01*
X26267Y-36379D02*
X26201Y-36285D01*
X26154Y-36379D02*
X26154Y-36182D01*
X26229Y-36182D01*
X26248Y-36192D01*
X26257Y-36201D01*
X26267Y-36220D01*
X26267Y-36248D01*
X26257Y-36267D01*
X26248Y-36276D01*
X26229Y-36285D01*
X26154Y-36285D01*
X26436Y-36248D02*
X26436Y-36379D01*
X26389Y-36173D02*
X26342Y-36314D01*
X26464Y-36314D01*
X26920Y-36379D02*
X26807Y-36379D01*
X26863Y-36379D02*
X26863Y-36182D01*
X26845Y-36210D01*
X26826Y-36229D01*
X26807Y-36239D01*
X27042Y-36182D02*
X27060Y-36182D01*
X27079Y-36192D01*
X27089Y-36201D01*
X27098Y-36220D01*
X27107Y-36257D01*
X27107Y-36304D01*
X27098Y-36342D01*
X27089Y-36360D01*
X27079Y-36370D01*
X27060Y-36379D01*
X27042Y-36379D01*
X27023Y-36370D01*
X27013Y-36360D01*
X27004Y-36342D01*
X26995Y-36304D01*
X26995Y-36257D01*
X27004Y-36220D01*
X27013Y-36201D01*
X27023Y-36192D01*
X27042Y-36182D01*
X27229Y-36182D02*
X27248Y-36182D01*
X27267Y-36192D01*
X27276Y-36201D01*
X27286Y-36220D01*
X27295Y-36257D01*
X27295Y-36304D01*
X27286Y-36342D01*
X27276Y-36360D01*
X27267Y-36370D01*
X27248Y-36379D01*
X27229Y-36379D01*
X27210Y-36370D01*
X27201Y-36360D01*
X27192Y-36342D01*
X27182Y-36304D01*
X27182Y-36257D01*
X27192Y-36220D01*
X27201Y-36201D01*
X27210Y-36192D01*
X27229Y-36182D01*
X27379Y-36379D02*
X27379Y-36182D01*
X27492Y-36379D02*
X27407Y-36267D01*
X27492Y-36182D02*
X27379Y-36295D01*
X47223Y-33479D02*
X47157Y-33385D01*
X47110Y-33479D02*
X47110Y-33282D01*
X47185Y-33282D01*
X47204Y-33292D01*
X47213Y-33301D01*
X47223Y-33320D01*
X47223Y-33348D01*
X47213Y-33367D01*
X47204Y-33376D01*
X47185Y-33385D01*
X47110Y-33385D01*
X47410Y-33479D02*
X47298Y-33479D01*
X47354Y-33479D02*
X47354Y-33282D01*
X47335Y-33310D01*
X47317Y-33329D01*
X47298Y-33339D01*
X47532Y-33282D02*
X47551Y-33282D01*
X47570Y-33292D01*
X47579Y-33301D01*
X47589Y-33320D01*
X47598Y-33357D01*
X47598Y-33404D01*
X47589Y-33442D01*
X47579Y-33460D01*
X47570Y-33470D01*
X47551Y-33479D01*
X47532Y-33479D01*
X47514Y-33470D01*
X47504Y-33460D01*
X47495Y-33442D01*
X47486Y-33404D01*
X47486Y-33357D01*
X47495Y-33320D01*
X47504Y-33301D01*
X47514Y-33292D01*
X47532Y-33282D01*
X47904Y-33282D02*
X47810Y-33282D01*
X47801Y-33376D01*
X47810Y-33367D01*
X47829Y-33357D01*
X47876Y-33357D01*
X47895Y-33367D01*
X47904Y-33376D01*
X47913Y-33395D01*
X47913Y-33442D01*
X47904Y-33460D01*
X47895Y-33470D01*
X47876Y-33479D01*
X47829Y-33479D01*
X47810Y-33470D01*
X47801Y-33460D01*
X48101Y-33479D02*
X47989Y-33479D01*
X48045Y-33479D02*
X48045Y-33282D01*
X48026Y-33310D01*
X48007Y-33329D01*
X47989Y-33339D01*
X48186Y-33479D02*
X48186Y-33282D01*
X48298Y-33479D02*
X48214Y-33367D01*
X48298Y-33282D02*
X48186Y-33395D01*
X47173Y-34829D02*
X47107Y-34735D01*
X47060Y-34829D02*
X47060Y-34632D01*
X47135Y-34632D01*
X47154Y-34642D01*
X47163Y-34651D01*
X47173Y-34670D01*
X47173Y-34698D01*
X47163Y-34717D01*
X47154Y-34726D01*
X47135Y-34735D01*
X47060Y-34735D01*
X47360Y-34829D02*
X47248Y-34829D01*
X47304Y-34829D02*
X47304Y-34632D01*
X47285Y-34660D01*
X47267Y-34679D01*
X47248Y-34689D01*
X47548Y-34829D02*
X47436Y-34829D01*
X47492Y-34829D02*
X47492Y-34632D01*
X47473Y-34660D01*
X47454Y-34679D01*
X47436Y-34689D01*
X47904Y-34632D02*
X47810Y-34632D01*
X47801Y-34726D01*
X47810Y-34717D01*
X47829Y-34707D01*
X47876Y-34707D01*
X47895Y-34717D01*
X47904Y-34726D01*
X47913Y-34745D01*
X47913Y-34792D01*
X47904Y-34810D01*
X47895Y-34820D01*
X47876Y-34829D01*
X47829Y-34829D01*
X47810Y-34820D01*
X47801Y-34810D01*
X48101Y-34829D02*
X47989Y-34829D01*
X48045Y-34829D02*
X48045Y-34632D01*
X48026Y-34660D01*
X48007Y-34679D01*
X47989Y-34689D01*
X48186Y-34829D02*
X48186Y-34632D01*
X48298Y-34829D02*
X48214Y-34717D01*
X48298Y-34632D02*
X48186Y-34745D01*
X57279Y-43726D02*
X57185Y-43792D01*
X57279Y-43839D02*
X57082Y-43839D01*
X57082Y-43764D01*
X57092Y-43745D01*
X57101Y-43736D01*
X57120Y-43726D01*
X57148Y-43726D01*
X57167Y-43736D01*
X57176Y-43745D01*
X57185Y-43764D01*
X57185Y-43839D01*
X57279Y-43539D02*
X57279Y-43651D01*
X57279Y-43595D02*
X57082Y-43595D01*
X57110Y-43614D01*
X57129Y-43632D01*
X57139Y-43651D01*
X57082Y-43473D02*
X57082Y-43351D01*
X57157Y-43417D01*
X57157Y-43388D01*
X57167Y-43370D01*
X57176Y-43360D01*
X57195Y-43351D01*
X57242Y-43351D01*
X57260Y-43360D01*
X57270Y-43370D01*
X57279Y-43388D01*
X57279Y-43445D01*
X57270Y-43463D01*
X57260Y-43473D01*
X57101Y-44593D02*
X57092Y-44584D01*
X57082Y-44565D01*
X57082Y-44518D01*
X57092Y-44500D01*
X57101Y-44490D01*
X57120Y-44481D01*
X57139Y-44481D01*
X57167Y-44490D01*
X57279Y-44603D01*
X57279Y-44481D01*
X57101Y-44406D02*
X57092Y-44396D01*
X57082Y-44378D01*
X57082Y-44331D01*
X57092Y-44312D01*
X57101Y-44303D01*
X57120Y-44293D01*
X57139Y-44293D01*
X57167Y-44303D01*
X57279Y-44415D01*
X57279Y-44293D01*
X57082Y-44171D02*
X57082Y-44153D01*
X57092Y-44134D01*
X57101Y-44124D01*
X57120Y-44115D01*
X57157Y-44106D01*
X57204Y-44106D01*
X57242Y-44115D01*
X57260Y-44124D01*
X57270Y-44134D01*
X57279Y-44153D01*
X57279Y-44171D01*
X57270Y-44190D01*
X57260Y-44199D01*
X57242Y-44209D01*
X57204Y-44218D01*
X57157Y-44218D01*
X57120Y-44209D01*
X57101Y-44199D01*
X57092Y-44190D01*
X57082Y-44171D01*
X37710Y-32832D02*
X37720Y-32842D01*
X37729Y-32870D01*
X37729Y-32889D01*
X37720Y-32917D01*
X37701Y-32936D01*
X37682Y-32945D01*
X37645Y-32954D01*
X37617Y-32954D01*
X37579Y-32945D01*
X37560Y-32936D01*
X37542Y-32917D01*
X37532Y-32889D01*
X37532Y-32870D01*
X37542Y-32842D01*
X37551Y-32832D01*
X37532Y-32767D02*
X37532Y-32645D01*
X37607Y-32710D01*
X37607Y-32682D01*
X37617Y-32663D01*
X37626Y-32654D01*
X37645Y-32645D01*
X37692Y-32645D01*
X37710Y-32654D01*
X37720Y-32663D01*
X37729Y-32682D01*
X37729Y-32739D01*
X37720Y-32757D01*
X37710Y-32767D01*
X37729Y-32311D02*
X37729Y-32423D01*
X37729Y-32367D02*
X37532Y-32367D01*
X37560Y-32386D01*
X37579Y-32404D01*
X37589Y-32423D01*
X37532Y-32189D02*
X37532Y-32170D01*
X37542Y-32151D01*
X37551Y-32142D01*
X37570Y-32132D01*
X37607Y-32123D01*
X37654Y-32123D01*
X37692Y-32132D01*
X37710Y-32142D01*
X37720Y-32151D01*
X37729Y-32170D01*
X37729Y-32189D01*
X37720Y-32207D01*
X37710Y-32217D01*
X37692Y-32226D01*
X37654Y-32236D01*
X37607Y-32236D01*
X37570Y-32226D01*
X37551Y-32217D01*
X37542Y-32207D01*
X37532Y-32189D01*
X37598Y-31954D02*
X37729Y-31954D01*
X37598Y-32039D02*
X37701Y-32039D01*
X37720Y-32029D01*
X37729Y-32010D01*
X37729Y-31982D01*
X37720Y-31963D01*
X37710Y-31954D01*
X37626Y-31795D02*
X37626Y-31860D01*
X37729Y-31860D02*
X37532Y-31860D01*
X37532Y-31766D01*
G54D20*
X42520Y-32101D02*
X42520Y-31701D01*
X42992Y-32063D02*
X42970Y-32082D01*
X42906Y-32101D01*
X42863Y-32101D01*
X42799Y-32082D01*
X42756Y-32044D01*
X42735Y-32006D01*
X42713Y-31930D01*
X42713Y-31873D01*
X42735Y-31797D01*
X42756Y-31759D01*
X42799Y-31720D01*
X42863Y-31701D01*
X42906Y-31701D01*
X42970Y-31720D01*
X42992Y-31740D01*
X43420Y-32101D02*
X43163Y-32101D01*
X43292Y-32101D02*
X43292Y-31701D01*
X43249Y-31759D01*
X43206Y-31797D01*
X43163Y-31816D01*
G54D24*
X27221Y-33600D02*
X27192Y-33585D01*
X27164Y-33557D01*
X27121Y-33514D01*
X27092Y-33500D01*
X27064Y-33500D01*
X27078Y-33571D02*
X27050Y-33557D01*
X27021Y-33528D01*
X27007Y-33471D01*
X27007Y-33371D01*
X27021Y-33314D01*
X27050Y-33285D01*
X27078Y-33271D01*
X27135Y-33271D01*
X27164Y-33285D01*
X27192Y-33314D01*
X27207Y-33371D01*
X27207Y-33471D01*
X27192Y-33528D01*
X27164Y-33557D01*
X27135Y-33571D01*
X27078Y-33571D01*
X27492Y-33571D02*
X27321Y-33571D01*
X27407Y-33571D02*
X27407Y-33271D01*
X27378Y-33314D01*
X27350Y-33342D01*
X27321Y-33357D01*
G54D21*
X27085Y-33796D02*
X27020Y-33796D01*
X27020Y-33899D02*
X27020Y-33702D01*
X27113Y-33702D01*
X27188Y-33796D02*
X27254Y-33796D01*
X27282Y-33899D02*
X27188Y-33899D01*
X27188Y-33702D01*
X27282Y-33702D01*
X27339Y-33702D02*
X27451Y-33702D01*
X27395Y-33899D02*
X27395Y-33702D01*
X27470Y-33918D02*
X27620Y-33918D01*
X27667Y-33899D02*
X27667Y-33702D01*
X27779Y-33899D01*
X27779Y-33702D01*
G54D26*
X34467Y-32910D02*
X34457Y-32920D01*
X34429Y-32929D01*
X34410Y-32929D01*
X34382Y-32920D01*
X34363Y-32901D01*
X34354Y-32882D01*
X34345Y-32845D01*
X34345Y-32817D01*
X34354Y-32779D01*
X34363Y-32760D01*
X34382Y-32742D01*
X34410Y-32732D01*
X34429Y-32732D01*
X34457Y-32742D01*
X34467Y-32751D01*
X34654Y-32929D02*
X34542Y-32929D01*
X34598Y-32929D02*
X34598Y-32732D01*
X34579Y-32760D01*
X34560Y-32779D01*
X34542Y-32789D01*
X34438Y-33229D02*
X34326Y-33229D01*
X34382Y-33229D02*
X34382Y-33032D01*
X34363Y-33060D01*
X34345Y-33079D01*
X34326Y-33089D01*
X34560Y-33032D02*
X34579Y-33032D01*
X34598Y-33042D01*
X34607Y-33051D01*
X34617Y-33070D01*
X34626Y-33107D01*
X34626Y-33154D01*
X34617Y-33192D01*
X34607Y-33210D01*
X34598Y-33220D01*
X34579Y-33229D01*
X34560Y-33229D01*
X34542Y-33220D01*
X34532Y-33210D01*
X34523Y-33192D01*
X34513Y-33154D01*
X34513Y-33107D01*
X34523Y-33070D01*
X34532Y-33051D01*
X34542Y-33042D01*
X34560Y-33032D01*
X34795Y-33098D02*
X34795Y-33229D01*
X34710Y-33098D02*
X34710Y-33201D01*
X34720Y-33220D01*
X34739Y-33229D01*
X34767Y-33229D01*
X34786Y-33220D01*
X34795Y-33210D01*
X34954Y-33126D02*
X34889Y-33126D01*
X34889Y-33229D02*
X34889Y-33032D01*
X34983Y-33032D01*
G54D27*
X58684Y-30525D02*
X58684Y-29844D01*
X58847Y-29844D01*
X58887Y-29877D01*
X58908Y-29909D01*
X58928Y-29974D01*
X58928Y-30071D01*
X58908Y-30136D01*
X58887Y-30168D01*
X58847Y-30201D01*
X58684Y-30201D01*
X59091Y-29909D02*
X59112Y-29877D01*
X59152Y-29844D01*
X59254Y-29844D01*
X59295Y-29877D01*
X59315Y-29909D01*
X59336Y-29974D01*
X59336Y-30039D01*
X59315Y-30136D01*
X59071Y-30525D01*
X59336Y-30525D01*
G54D18*
G54D27*
X64544Y-30555D02*
X64544Y-29874D01*
X64707Y-29874D01*
X64747Y-29907D01*
X64768Y-29939D01*
X64788Y-30004D01*
X64788Y-30101D01*
X64768Y-30166D01*
X64747Y-30198D01*
X64707Y-30231D01*
X64544Y-30231D01*
X64931Y-29874D02*
X65196Y-29874D01*
X65053Y-30134D01*
X65114Y-30134D01*
X65155Y-30166D01*
X65175Y-30198D01*
X65196Y-30263D01*
X65196Y-30425D01*
X65175Y-30490D01*
X65155Y-30523D01*
X65114Y-30555D01*
X64992Y-30555D01*
X64951Y-30523D01*
X64931Y-30490D01*
G54D18*
G54D10*
X24453Y-42709D02*
X24471Y-42653D01*
X24490Y-42634D01*
X24528Y-42615D01*
X24584Y-42615D01*
X24621Y-42634D01*
X24640Y-42653D01*
X24659Y-42690D01*
X24659Y-42840D01*
X24265Y-42840D01*
X24265Y-42709D01*
X24284Y-42671D01*
X24303Y-42653D01*
X24340Y-42634D01*
X24378Y-42634D01*
X24415Y-42653D01*
X24434Y-42671D01*
X24453Y-42709D01*
X24453Y-42840D01*
X24265Y-42503D02*
X24265Y-42278D01*
X24659Y-42390D02*
X24265Y-42390D01*
X24659Y-41940D02*
X24659Y-42165D01*
X24659Y-42053D02*
X24265Y-42053D01*
X24321Y-42090D01*
X24359Y-42128D01*
X24378Y-42165D01*
G54D22*
X38243Y-48045D02*
X38262Y-48064D01*
X38281Y-48121D01*
X38281Y-48160D01*
X38262Y-48217D01*
X38224Y-48255D01*
X38186Y-48274D01*
X38110Y-48293D01*
X38053Y-48293D01*
X37977Y-48274D01*
X37939Y-48255D01*
X37900Y-48217D01*
X37881Y-48160D01*
X37881Y-48121D01*
X37900Y-48064D01*
X37920Y-48045D01*
X37881Y-47798D02*
X37881Y-47721D01*
X37900Y-47683D01*
X37939Y-47645D01*
X38015Y-47626D01*
X38148Y-47626D01*
X38224Y-47645D01*
X38262Y-47683D01*
X38281Y-47721D01*
X38281Y-47798D01*
X38262Y-47836D01*
X38224Y-47874D01*
X38148Y-47893D01*
X38015Y-47893D01*
X37939Y-47874D01*
X37900Y-47836D01*
X37881Y-47798D01*
X38281Y-47455D02*
X37881Y-47455D01*
X38281Y-47226D01*
X37881Y-47226D01*
X37920Y-47055D02*
X37900Y-47036D01*
X37881Y-46998D01*
X37881Y-46902D01*
X37900Y-46864D01*
X37920Y-46845D01*
X37958Y-46826D01*
X37996Y-46826D01*
X38053Y-46845D01*
X38281Y-47074D01*
X38281Y-46826D01*
G54D13*
X30009Y-48059D02*
X30009Y-47665D01*
X30159Y-47665D01*
X30196Y-47684D01*
X30215Y-47703D01*
X30234Y-47740D01*
X30234Y-47796D01*
X30215Y-47834D01*
X30196Y-47853D01*
X30159Y-47871D01*
X30009Y-47871D01*
X30571Y-47796D02*
X30571Y-48059D01*
X30478Y-47646D02*
X30384Y-47928D01*
X30628Y-47928D01*
G54D24*
X73671Y-43550D02*
X73642Y-43535D01*
X73614Y-43507D01*
X73571Y-43464D01*
X73542Y-43450D01*
X73514Y-43450D01*
X73528Y-43521D02*
X73500Y-43507D01*
X73471Y-43478D01*
X73457Y-43421D01*
X73457Y-43321D01*
X73471Y-43264D01*
X73500Y-43235D01*
X73528Y-43221D01*
X73585Y-43221D01*
X73614Y-43235D01*
X73642Y-43264D01*
X73657Y-43321D01*
X73657Y-43421D01*
X73642Y-43478D01*
X73614Y-43507D01*
X73585Y-43521D01*
X73528Y-43521D01*
X73914Y-43321D02*
X73914Y-43521D01*
X73842Y-43207D02*
X73771Y-43421D01*
X73957Y-43421D01*
G54D21*
X73535Y-43776D02*
X73470Y-43776D01*
X73470Y-43879D02*
X73470Y-43682D01*
X73563Y-43682D01*
X73638Y-43776D02*
X73704Y-43776D01*
X73732Y-43879D02*
X73638Y-43879D01*
X73638Y-43682D01*
X73732Y-43682D01*
X73789Y-43682D02*
X73901Y-43682D01*
X73845Y-43879D02*
X73845Y-43682D01*
X73920Y-43898D02*
X74070Y-43898D01*
X74117Y-43879D02*
X74117Y-43682D01*
X74229Y-43879D01*
X74229Y-43682D01*
G54D24*
X67421Y-43700D02*
X67392Y-43685D01*
X67364Y-43657D01*
X67321Y-43614D01*
X67292Y-43600D01*
X67264Y-43600D01*
X67278Y-43671D02*
X67250Y-43657D01*
X67221Y-43628D01*
X67207Y-43571D01*
X67207Y-43471D01*
X67221Y-43414D01*
X67250Y-43385D01*
X67278Y-43371D01*
X67335Y-43371D01*
X67364Y-43385D01*
X67392Y-43414D01*
X67407Y-43471D01*
X67407Y-43571D01*
X67392Y-43628D01*
X67364Y-43657D01*
X67335Y-43671D01*
X67278Y-43671D01*
X67507Y-43371D02*
X67692Y-43371D01*
X67592Y-43485D01*
X67635Y-43485D01*
X67664Y-43500D01*
X67678Y-43514D01*
X67692Y-43542D01*
X67692Y-43614D01*
X67678Y-43642D01*
X67664Y-43657D01*
X67635Y-43671D01*
X67550Y-43671D01*
X67521Y-43657D01*
X67507Y-43642D01*
G54D21*
X67285Y-43926D02*
X67220Y-43926D01*
X67220Y-44029D02*
X67220Y-43832D01*
X67313Y-43832D01*
X67388Y-43926D02*
X67454Y-43926D01*
X67482Y-44029D02*
X67388Y-44029D01*
X67388Y-43832D01*
X67482Y-43832D01*
X67539Y-43832D02*
X67651Y-43832D01*
X67595Y-44029D02*
X67595Y-43832D01*
X67670Y-44048D02*
X67820Y-44048D01*
X67867Y-44029D02*
X67867Y-43832D01*
X67979Y-44029D01*
X67979Y-43832D01*
G54D26*
X31660Y-30532D02*
X31670Y-30542D01*
X31679Y-30570D01*
X31679Y-30589D01*
X31670Y-30617D01*
X31651Y-30636D01*
X31632Y-30645D01*
X31595Y-30654D01*
X31567Y-30654D01*
X31529Y-30645D01*
X31510Y-30636D01*
X31492Y-30617D01*
X31482Y-30589D01*
X31482Y-30570D01*
X31492Y-30542D01*
X31501Y-30532D01*
X31567Y-30420D02*
X31557Y-30439D01*
X31548Y-30448D01*
X31529Y-30457D01*
X31520Y-30457D01*
X31501Y-30448D01*
X31492Y-30439D01*
X31482Y-30420D01*
X31482Y-30382D01*
X31492Y-30363D01*
X31501Y-30354D01*
X31520Y-30345D01*
X31529Y-30345D01*
X31548Y-30354D01*
X31557Y-30363D01*
X31567Y-30382D01*
X31567Y-30420D01*
X31576Y-30439D01*
X31585Y-30448D01*
X31604Y-30457D01*
X31642Y-30457D01*
X31660Y-30448D01*
X31670Y-30439D01*
X31679Y-30420D01*
X31679Y-30382D01*
X31670Y-30363D01*
X31660Y-30354D01*
X31642Y-30345D01*
X31604Y-30345D01*
X31585Y-30354D01*
X31576Y-30363D01*
X31567Y-30382D01*
X30460Y-30861D02*
X30470Y-30851D01*
X30479Y-30861D01*
X30470Y-30870D01*
X30460Y-30861D01*
X30479Y-30861D01*
X30282Y-30729D02*
X30282Y-30711D01*
X30292Y-30692D01*
X30301Y-30682D01*
X30320Y-30673D01*
X30357Y-30664D01*
X30404Y-30664D01*
X30442Y-30673D01*
X30460Y-30682D01*
X30470Y-30692D01*
X30479Y-30711D01*
X30479Y-30729D01*
X30470Y-30748D01*
X30460Y-30757D01*
X30442Y-30767D01*
X30404Y-30776D01*
X30357Y-30776D01*
X30320Y-30767D01*
X30301Y-30757D01*
X30292Y-30748D01*
X30282Y-30729D01*
X30479Y-30476D02*
X30479Y-30589D01*
X30479Y-30532D02*
X30282Y-30532D01*
X30310Y-30551D01*
X30329Y-30570D01*
X30339Y-30589D01*
X30348Y-30307D02*
X30479Y-30307D01*
X30348Y-30392D02*
X30451Y-30392D01*
X30470Y-30382D01*
X30479Y-30363D01*
X30479Y-30335D01*
X30470Y-30317D01*
X30460Y-30307D01*
X30376Y-30148D02*
X30376Y-30213D01*
X30479Y-30213D02*
X30282Y-30213D01*
X30282Y-30120D01*
X23717Y-48035D02*
X23707Y-48045D01*
X23679Y-48054D01*
X23660Y-48054D01*
X23632Y-48045D01*
X23613Y-48026D01*
X23604Y-48007D01*
X23595Y-47970D01*
X23595Y-47942D01*
X23604Y-47904D01*
X23613Y-47885D01*
X23632Y-47867D01*
X23660Y-47857D01*
X23679Y-47857D01*
X23707Y-47867D01*
X23717Y-47876D01*
X23810Y-48054D02*
X23848Y-48054D01*
X23867Y-48045D01*
X23876Y-48035D01*
X23895Y-48007D01*
X23904Y-47970D01*
X23904Y-47895D01*
X23895Y-47876D01*
X23886Y-47867D01*
X23867Y-47857D01*
X23829Y-47857D01*
X23810Y-47867D01*
X23801Y-47876D01*
X23792Y-47895D01*
X23792Y-47942D01*
X23801Y-47960D01*
X23810Y-47970D01*
X23829Y-47979D01*
X23867Y-47979D01*
X23886Y-47970D01*
X23895Y-47960D01*
X23904Y-47942D01*
X23538Y-48429D02*
X23426Y-48429D01*
X23482Y-48429D02*
X23482Y-48232D01*
X23463Y-48260D01*
X23445Y-48279D01*
X23426Y-48289D01*
X23660Y-48232D02*
X23679Y-48232D01*
X23698Y-48242D01*
X23707Y-48251D01*
X23717Y-48270D01*
X23726Y-48307D01*
X23726Y-48354D01*
X23717Y-48392D01*
X23707Y-48410D01*
X23698Y-48420D01*
X23679Y-48429D01*
X23660Y-48429D01*
X23642Y-48420D01*
X23632Y-48410D01*
X23623Y-48392D01*
X23613Y-48354D01*
X23613Y-48307D01*
X23623Y-48270D01*
X23632Y-48251D01*
X23642Y-48242D01*
X23660Y-48232D01*
X23895Y-48298D02*
X23895Y-48429D01*
X23810Y-48298D02*
X23810Y-48401D01*
X23820Y-48420D01*
X23839Y-48429D01*
X23867Y-48429D01*
X23886Y-48420D01*
X23895Y-48410D01*
X24054Y-48326D02*
X23989Y-48326D01*
X23989Y-48429D02*
X23989Y-48232D01*
X24083Y-48232D01*
G54D24*
X32421Y-38621D02*
X32421Y-38864D01*
X32435Y-38892D01*
X32450Y-38907D01*
X32478Y-38921D01*
X32535Y-38921D01*
X32564Y-38907D01*
X32578Y-38892D01*
X32592Y-38864D01*
X32592Y-38621D01*
X32707Y-38621D02*
X32892Y-38621D01*
X32792Y-38735D01*
X32835Y-38735D01*
X32864Y-38750D01*
X32878Y-38764D01*
X32892Y-38792D01*
X32892Y-38864D01*
X32878Y-38892D01*
X32864Y-38907D01*
X32835Y-38921D01*
X32750Y-38921D01*
X32721Y-38907D01*
X32707Y-38892D01*
G54D21*
X31000Y-38429D02*
X31000Y-38232D01*
X31066Y-38373D01*
X31131Y-38232D01*
X31131Y-38429D01*
X31338Y-38410D02*
X31328Y-38420D01*
X31300Y-38429D01*
X31281Y-38429D01*
X31253Y-38420D01*
X31235Y-38401D01*
X31225Y-38382D01*
X31216Y-38345D01*
X31216Y-38317D01*
X31225Y-38279D01*
X31235Y-38260D01*
X31253Y-38242D01*
X31281Y-38232D01*
X31300Y-38232D01*
X31328Y-38242D01*
X31338Y-38251D01*
X31422Y-38429D02*
X31422Y-38232D01*
X31497Y-38232D01*
X31516Y-38242D01*
X31525Y-38251D01*
X31535Y-38270D01*
X31535Y-38298D01*
X31525Y-38317D01*
X31516Y-38326D01*
X31497Y-38335D01*
X31422Y-38335D01*
X31722Y-38429D02*
X31610Y-38429D01*
X31666Y-38429D02*
X31666Y-38232D01*
X31647Y-38260D01*
X31629Y-38279D01*
X31610Y-38289D01*
X31788Y-38232D02*
X31919Y-38232D01*
X31835Y-38429D01*
X32032Y-38232D02*
X32051Y-38232D01*
X32069Y-38242D01*
X32079Y-38251D01*
X32088Y-38270D01*
X32098Y-38307D01*
X32098Y-38354D01*
X32088Y-38392D01*
X32079Y-38410D01*
X32069Y-38420D01*
X32051Y-38429D01*
X32032Y-38429D01*
X32013Y-38420D01*
X32004Y-38410D01*
X31994Y-38392D01*
X31985Y-38354D01*
X31985Y-38307D01*
X31994Y-38270D01*
X32004Y-38251D01*
X32013Y-38242D01*
X32032Y-38232D01*
X32173Y-38251D02*
X32182Y-38242D01*
X32201Y-38232D01*
X32248Y-38232D01*
X32266Y-38242D01*
X32276Y-38251D01*
X32285Y-38270D01*
X32285Y-38289D01*
X32276Y-38317D01*
X32163Y-38429D01*
X32285Y-38429D01*
X32342Y-38232D02*
X32454Y-38232D01*
X32398Y-38429D02*
X32398Y-38232D01*
X32520Y-38354D02*
X32670Y-38354D01*
X32867Y-38429D02*
X32754Y-38429D01*
X32811Y-38429D02*
X32811Y-38232D01*
X32792Y-38260D01*
X32773Y-38279D01*
X32754Y-38289D01*
X33045Y-38232D02*
X32951Y-38232D01*
X32942Y-38326D01*
X32951Y-38317D01*
X32970Y-38307D01*
X33017Y-38307D01*
X33036Y-38317D01*
X33045Y-38326D01*
X33054Y-38345D01*
X33054Y-38392D01*
X33045Y-38410D01*
X33036Y-38420D01*
X33017Y-38429D01*
X32970Y-38429D01*
X32951Y-38420D01*
X32942Y-38410D01*
X33176Y-38232D02*
X33195Y-38232D01*
X33214Y-38242D01*
X33223Y-38251D01*
X33233Y-38270D01*
X33242Y-38307D01*
X33242Y-38354D01*
X33233Y-38392D01*
X33223Y-38410D01*
X33214Y-38420D01*
X33195Y-38429D01*
X33176Y-38429D01*
X33158Y-38420D01*
X33148Y-38410D01*
X33139Y-38392D01*
X33130Y-38354D01*
X33130Y-38307D01*
X33139Y-38270D01*
X33148Y-38251D01*
X33158Y-38242D01*
X33176Y-38232D01*
X33317Y-38251D02*
X33327Y-38242D01*
X33345Y-38232D01*
X33392Y-38232D01*
X33411Y-38242D01*
X33420Y-38251D01*
X33430Y-38270D01*
X33430Y-38289D01*
X33420Y-38317D01*
X33308Y-38429D01*
X33430Y-38429D01*
X33514Y-38326D02*
X33580Y-38326D01*
X33608Y-38429D02*
X33514Y-38429D01*
X33514Y-38232D01*
X33608Y-38232D01*
X33833Y-38223D02*
X33664Y-38476D01*
X34011Y-38410D02*
X34002Y-38420D01*
X33974Y-38429D01*
X33955Y-38429D01*
X33927Y-38420D01*
X33908Y-38401D01*
X33899Y-38382D01*
X33889Y-38345D01*
X33889Y-38317D01*
X33899Y-38279D01*
X33908Y-38260D01*
X33927Y-38242D01*
X33955Y-38232D01*
X33974Y-38232D01*
X34002Y-38242D01*
X34011Y-38251D01*
X34161Y-38326D02*
X34190Y-38335D01*
X34199Y-38345D01*
X34208Y-38364D01*
X34208Y-38392D01*
X34199Y-38410D01*
X34190Y-38420D01*
X34171Y-38429D01*
X34096Y-38429D01*
X34096Y-38232D01*
X34161Y-38232D01*
X34180Y-38242D01*
X34190Y-38251D01*
X34199Y-38270D01*
X34199Y-38289D01*
X34190Y-38307D01*
X34180Y-38317D01*
X34161Y-38326D01*
X34096Y-38326D01*
G54D26*
X41279Y-40226D02*
X41185Y-40292D01*
X41279Y-40339D02*
X41082Y-40339D01*
X41082Y-40264D01*
X41092Y-40245D01*
X41101Y-40236D01*
X41120Y-40226D01*
X41148Y-40226D01*
X41167Y-40236D01*
X41176Y-40245D01*
X41185Y-40264D01*
X41185Y-40339D01*
X41279Y-40039D02*
X41279Y-40151D01*
X41279Y-40095D02*
X41082Y-40095D01*
X41110Y-40114D01*
X41129Y-40132D01*
X41139Y-40151D01*
X41082Y-39870D02*
X41082Y-39907D01*
X41092Y-39926D01*
X41101Y-39935D01*
X41129Y-39954D01*
X41167Y-39963D01*
X41242Y-39963D01*
X41260Y-39954D01*
X41270Y-39945D01*
X41279Y-39926D01*
X41279Y-39888D01*
X41270Y-39870D01*
X41260Y-39860D01*
X41242Y-39851D01*
X41195Y-39851D01*
X41176Y-39860D01*
X41167Y-39870D01*
X41157Y-39888D01*
X41157Y-39926D01*
X41167Y-39945D01*
X41176Y-39954D01*
X41195Y-39963D01*
X41082Y-39557D02*
X41082Y-39539D01*
X41092Y-39520D01*
X41101Y-39510D01*
X41120Y-39501D01*
X41157Y-39492D01*
X41204Y-39492D01*
X41242Y-39501D01*
X41260Y-39510D01*
X41270Y-39520D01*
X41279Y-39539D01*
X41279Y-39557D01*
X41270Y-39576D01*
X41260Y-39586D01*
X41242Y-39595D01*
X41204Y-39604D01*
X41157Y-39604D01*
X41120Y-39595D01*
X41101Y-39586D01*
X41092Y-39576D01*
X41082Y-39557D01*
X41279Y-39407D02*
X41082Y-39407D01*
X41279Y-39295D02*
X41167Y-39379D01*
X41082Y-39295D02*
X41195Y-39407D01*
G54D24*
X59571Y-44000D02*
X59542Y-43985D01*
X59514Y-43957D01*
X59471Y-43914D01*
X59442Y-43900D01*
X59414Y-43900D01*
X59428Y-43971D02*
X59400Y-43957D01*
X59371Y-43928D01*
X59357Y-43871D01*
X59357Y-43771D01*
X59371Y-43714D01*
X59400Y-43685D01*
X59428Y-43671D01*
X59485Y-43671D01*
X59514Y-43685D01*
X59542Y-43714D01*
X59557Y-43771D01*
X59557Y-43871D01*
X59542Y-43928D01*
X59514Y-43957D01*
X59485Y-43971D01*
X59428Y-43971D01*
X59828Y-43671D02*
X59685Y-43671D01*
X59671Y-43814D01*
X59685Y-43800D01*
X59714Y-43785D01*
X59785Y-43785D01*
X59814Y-43800D01*
X59828Y-43814D01*
X59842Y-43842D01*
X59842Y-43914D01*
X59828Y-43942D01*
X59814Y-43957D01*
X59785Y-43971D01*
X59714Y-43971D01*
X59685Y-43957D01*
X59671Y-43942D01*
G54D21*
X59435Y-44226D02*
X59370Y-44226D01*
X59370Y-44329D02*
X59370Y-44132D01*
X59463Y-44132D01*
X59538Y-44226D02*
X59604Y-44226D01*
X59632Y-44329D02*
X59538Y-44329D01*
X59538Y-44132D01*
X59632Y-44132D01*
X59689Y-44132D02*
X59801Y-44132D01*
X59745Y-44329D02*
X59745Y-44132D01*
X59820Y-44348D02*
X59970Y-44348D01*
X60017Y-44329D02*
X60017Y-44132D01*
X60129Y-44329D01*
X60129Y-44132D01*
G54D12*
X52404Y-47111D02*
X52404Y-46711D01*
X52557Y-46711D01*
X52595Y-46730D01*
X52614Y-46750D01*
X52633Y-46788D01*
X52633Y-46845D01*
X52614Y-46883D01*
X52595Y-46902D01*
X52557Y-46921D01*
X52404Y-46921D01*
X52861Y-46883D02*
X52823Y-46864D01*
X52804Y-46845D01*
X52785Y-46807D01*
X52785Y-46788D01*
X52804Y-46750D01*
X52823Y-46730D01*
X52861Y-46711D01*
X52938Y-46711D01*
X52976Y-46730D01*
X52995Y-46750D01*
X53014Y-46788D01*
X53014Y-46807D01*
X52995Y-46845D01*
X52976Y-46864D01*
X52938Y-46883D01*
X52861Y-46883D01*
X52823Y-46902D01*
X52804Y-46921D01*
X52785Y-46959D01*
X52785Y-47035D01*
X52804Y-47073D01*
X52823Y-47092D01*
X52861Y-47111D01*
X52938Y-47111D01*
X52976Y-47092D01*
X52995Y-47073D01*
X53014Y-47035D01*
X53014Y-46959D01*
X52995Y-46921D01*
X52976Y-46902D01*
X52938Y-46883D01*
X53435Y-47092D02*
X53492Y-47111D01*
X53588Y-47111D01*
X53626Y-47092D01*
X53645Y-47073D01*
X53664Y-47035D01*
X53664Y-46997D01*
X53645Y-46959D01*
X53626Y-46940D01*
X53588Y-46921D01*
X53511Y-46902D01*
X53473Y-46883D01*
X53454Y-46864D01*
X53435Y-46826D01*
X53435Y-46788D01*
X53454Y-46750D01*
X53473Y-46730D01*
X53511Y-46711D01*
X53607Y-46711D01*
X53664Y-46730D01*
X53835Y-47111D02*
X53835Y-46711D01*
X53988Y-46711D01*
X54026Y-46730D01*
X54045Y-46750D01*
X54064Y-46788D01*
X54064Y-46845D01*
X54045Y-46883D01*
X54026Y-46902D01*
X53988Y-46921D01*
X53835Y-46921D01*
X54235Y-47111D02*
X54235Y-46711D01*
X54464Y-47111D02*
X54292Y-46883D01*
X54464Y-46711D02*
X54235Y-46940D01*
X54864Y-47111D02*
X54730Y-46921D01*
X54635Y-47111D02*
X54635Y-46711D01*
X54788Y-46711D01*
X54826Y-46730D01*
X54845Y-46750D01*
X54864Y-46788D01*
X54864Y-46845D01*
X54845Y-46883D01*
X54826Y-46902D01*
X54788Y-46921D01*
X54635Y-46921D01*
G54D26*
X54979Y-43995D02*
X54782Y-43995D01*
X54782Y-43948D01*
X54792Y-43920D01*
X54810Y-43901D01*
X54829Y-43892D01*
X54867Y-43882D01*
X54895Y-43882D01*
X54932Y-43892D01*
X54951Y-43901D01*
X54970Y-43920D01*
X54979Y-43948D01*
X54979Y-43995D01*
X54848Y-43713D02*
X54979Y-43713D01*
X54773Y-43760D02*
X54914Y-43807D01*
X54914Y-43685D01*
X55979Y-44339D02*
X55782Y-44339D01*
X55782Y-44292D01*
X55792Y-44264D01*
X55810Y-44245D01*
X55829Y-44236D01*
X55867Y-44226D01*
X55895Y-44226D01*
X55932Y-44236D01*
X55951Y-44245D01*
X55970Y-44264D01*
X55979Y-44292D01*
X55979Y-44339D01*
X55979Y-44142D02*
X55782Y-44142D01*
X55782Y-44010D02*
X55782Y-43973D01*
X55792Y-43954D01*
X55810Y-43935D01*
X55848Y-43926D01*
X55914Y-43926D01*
X55951Y-43935D01*
X55970Y-43954D01*
X55979Y-43973D01*
X55979Y-44010D01*
X55970Y-44029D01*
X55951Y-44048D01*
X55914Y-44057D01*
X55848Y-44057D01*
X55810Y-44048D01*
X55792Y-44029D01*
X55782Y-44010D01*
X55979Y-43842D02*
X55782Y-43842D01*
X55782Y-43795D01*
X55792Y-43767D01*
X55810Y-43748D01*
X55829Y-43738D01*
X55867Y-43729D01*
X55895Y-43729D01*
X55932Y-43738D01*
X55951Y-43748D01*
X55970Y-43767D01*
X55979Y-43795D01*
X55979Y-43842D01*
X55876Y-43645D02*
X55876Y-43579D01*
X55979Y-43551D02*
X55979Y-43645D01*
X55782Y-43645D01*
X55782Y-43551D01*
G54D10*
X50022Y-33140D02*
X50078Y-33159D01*
X50172Y-33159D01*
X50209Y-33140D01*
X50228Y-33121D01*
X50247Y-33084D01*
X50247Y-33046D01*
X50228Y-33009D01*
X50209Y-32990D01*
X50172Y-32971D01*
X50097Y-32953D01*
X50059Y-32934D01*
X50040Y-32915D01*
X50022Y-32878D01*
X50022Y-32840D01*
X50040Y-32803D01*
X50059Y-32784D01*
X50097Y-32765D01*
X50190Y-32765D01*
X50247Y-32784D01*
X50415Y-33159D02*
X50415Y-32765D01*
X50565Y-32765D01*
X50603Y-32784D01*
X50621Y-32803D01*
X50640Y-32840D01*
X50640Y-32896D01*
X50621Y-32934D01*
X50603Y-32953D01*
X50565Y-32971D01*
X50415Y-32971D01*
X50809Y-32953D02*
X50940Y-32953D01*
X50996Y-33159D02*
X50809Y-33159D01*
X50809Y-32765D01*
X50996Y-32765D01*
X51146Y-33046D02*
X51334Y-33046D01*
X51109Y-33159D02*
X51240Y-32765D01*
X51371Y-33159D01*
X51503Y-33159D02*
X51503Y-32765D01*
X51728Y-33159D02*
X51559Y-32934D01*
X51728Y-32765D02*
X51503Y-32990D01*
X51896Y-32953D02*
X52028Y-32953D01*
X52084Y-33159D02*
X51896Y-33159D01*
X51896Y-32765D01*
X52084Y-32765D01*
X52477Y-33159D02*
X52346Y-32971D01*
X52252Y-33159D02*
X52252Y-32765D01*
X52402Y-32765D01*
X52440Y-32784D01*
X52459Y-32803D01*
X52477Y-32840D01*
X52477Y-32896D01*
X52459Y-32934D01*
X52440Y-32953D01*
X52402Y-32971D01*
X52252Y-32971D01*
G54D22*
X74553Y-36805D02*
X74572Y-36824D01*
X74591Y-36881D01*
X74591Y-36920D01*
X74572Y-36977D01*
X74534Y-37015D01*
X74496Y-37034D01*
X74420Y-37053D01*
X74363Y-37053D01*
X74287Y-37034D01*
X74249Y-37015D01*
X74210Y-36977D01*
X74191Y-36920D01*
X74191Y-36881D01*
X74210Y-36824D01*
X74230Y-36805D01*
X74191Y-36558D02*
X74191Y-36481D01*
X74210Y-36443D01*
X74249Y-36405D01*
X74325Y-36386D01*
X74458Y-36386D01*
X74534Y-36405D01*
X74572Y-36443D01*
X74591Y-36481D01*
X74591Y-36558D01*
X74572Y-36596D01*
X74534Y-36634D01*
X74458Y-36653D01*
X74325Y-36653D01*
X74249Y-36634D01*
X74210Y-36596D01*
X74191Y-36558D01*
X74591Y-36215D02*
X74191Y-36215D01*
X74591Y-35986D01*
X74191Y-35986D01*
X74591Y-35586D02*
X74591Y-35815D01*
X74591Y-35700D02*
X74191Y-35700D01*
X74249Y-35739D01*
X74287Y-35777D01*
X74306Y-35815D01*
G54D27*
X56684Y-31775D02*
X56684Y-31094D01*
X56847Y-31094D01*
X56887Y-31127D01*
X56908Y-31159D01*
X56928Y-31224D01*
X56928Y-31321D01*
X56908Y-31386D01*
X56887Y-31418D01*
X56847Y-31451D01*
X56684Y-31451D01*
X57336Y-31775D02*
X57091Y-31775D01*
X57214Y-31775D02*
X57214Y-31094D01*
X57173Y-31191D01*
X57132Y-31256D01*
X57091Y-31289D01*
G54D18*
G54D26*
X34773Y-38310D02*
X34763Y-38320D01*
X34735Y-38329D01*
X34717Y-38329D01*
X34688Y-38320D01*
X34670Y-38301D01*
X34660Y-38282D01*
X34651Y-38245D01*
X34651Y-38217D01*
X34660Y-38179D01*
X34670Y-38160D01*
X34688Y-38142D01*
X34717Y-38132D01*
X34735Y-38132D01*
X34763Y-38142D01*
X34773Y-38151D01*
X34960Y-38329D02*
X34848Y-38329D01*
X34904Y-38329D02*
X34904Y-38132D01*
X34885Y-38160D01*
X34867Y-38179D01*
X34848Y-38189D01*
X35082Y-38132D02*
X35101Y-38132D01*
X35120Y-38142D01*
X35129Y-38151D01*
X35139Y-38170D01*
X35148Y-38207D01*
X35148Y-38254D01*
X35139Y-38292D01*
X35129Y-38310D01*
X35120Y-38320D01*
X35101Y-38329D01*
X35082Y-38329D01*
X35064Y-38320D01*
X35054Y-38310D01*
X35045Y-38292D01*
X35036Y-38254D01*
X35036Y-38207D01*
X35045Y-38170D01*
X35054Y-38151D01*
X35064Y-38142D01*
X35082Y-38132D01*
X35532Y-38329D02*
X35420Y-38329D01*
X35476Y-38329D02*
X35476Y-38132D01*
X35457Y-38160D01*
X35438Y-38179D01*
X35420Y-38189D01*
X35701Y-38198D02*
X35701Y-38329D01*
X35617Y-38198D02*
X35617Y-38301D01*
X35626Y-38320D01*
X35645Y-38329D01*
X35673Y-38329D01*
X35692Y-38320D01*
X35701Y-38310D01*
X35861Y-38226D02*
X35795Y-38226D01*
X35795Y-38329D02*
X35795Y-38132D01*
X35889Y-38132D01*
G54D10*
X47509Y-44909D02*
X47509Y-44515D01*
X47659Y-44515D01*
X47696Y-44534D01*
X47715Y-44553D01*
X47734Y-44590D01*
X47734Y-44646D01*
X47715Y-44684D01*
X47696Y-44703D01*
X47659Y-44721D01*
X47509Y-44721D01*
X47921Y-44909D02*
X47996Y-44909D01*
X48034Y-44890D01*
X48053Y-44871D01*
X48090Y-44815D01*
X48109Y-44740D01*
X48109Y-44590D01*
X48090Y-44553D01*
X48071Y-44534D01*
X48034Y-44515D01*
X47959Y-44515D01*
X47921Y-44534D01*
X47903Y-44553D01*
X47884Y-44590D01*
X47884Y-44684D01*
X47903Y-44721D01*
X47921Y-44740D01*
X47959Y-44759D01*
X48034Y-44759D01*
X48071Y-44740D01*
X48090Y-44721D01*
X48109Y-44684D01*
X59959Y-45790D02*
X59565Y-45790D01*
X59565Y-45640D01*
X59584Y-45603D01*
X59603Y-45584D01*
X59640Y-45565D01*
X59696Y-45565D01*
X59734Y-45584D01*
X59753Y-45603D01*
X59771Y-45640D01*
X59771Y-45790D01*
X59565Y-45434D02*
X59565Y-45171D01*
X59959Y-45340D01*
X67259Y-45690D02*
X66865Y-45690D01*
X66865Y-45540D01*
X66884Y-45503D01*
X66903Y-45484D01*
X66940Y-45465D01*
X66996Y-45465D01*
X67034Y-45484D01*
X67053Y-45503D01*
X67071Y-45540D01*
X67071Y-45690D01*
X66865Y-45109D02*
X66865Y-45296D01*
X67053Y-45315D01*
X67034Y-45296D01*
X67015Y-45259D01*
X67015Y-45165D01*
X67034Y-45128D01*
X67053Y-45109D01*
X67090Y-45090D01*
X67184Y-45090D01*
X67221Y-45109D01*
X67240Y-45128D01*
X67259Y-45165D01*
X67259Y-45259D01*
X67240Y-45296D01*
X67221Y-45315D01*
X74509Y-45590D02*
X74115Y-45590D01*
X74115Y-45440D01*
X74134Y-45403D01*
X74153Y-45384D01*
X74190Y-45365D01*
X74246Y-45365D01*
X74284Y-45384D01*
X74303Y-45403D01*
X74321Y-45440D01*
X74321Y-45590D01*
X74115Y-45028D02*
X74115Y-45103D01*
X74134Y-45140D01*
X74153Y-45159D01*
X74209Y-45196D01*
X74284Y-45215D01*
X74434Y-45215D01*
X74471Y-45196D01*
X74490Y-45178D01*
X74509Y-45140D01*
X74509Y-45065D01*
X74490Y-45028D01*
X74471Y-45009D01*
X74434Y-44990D01*
X74340Y-44990D01*
X74303Y-45009D01*
X74284Y-45028D01*
X74265Y-45065D01*
X74265Y-45140D01*
X74284Y-45178D01*
X74303Y-45196D01*
X74340Y-45215D01*
%LPC*%
G54D28*
X42604Y-44284D03*
G54D29*
X45504Y-44284D03*
G54D30*
X36550Y-43350D03*
G54D31*
X35550Y-43350D03*
X35550Y-42350D03*
G54D32*
X27950Y-39800D03*
X38186Y-39800D03*
X59950Y-39800D03*
X70186Y-39800D03*
G54D33*
X39233Y-34670D03*
X39823Y-34670D03*
G54D31*
X33550Y-42050D03*
X32550Y-42050D03*
G54D34*
X70565Y-30837D03*
X71550Y-30817D03*
X72534Y-30817D03*
G54D35*
X73951Y-31801D03*
X69148Y-31801D03*
G54D30*
X54150Y-45650D03*
G54D31*
X53150Y-45650D03*
G54D30*
X60450Y-47600D03*
G54D31*
X61450Y-47600D03*
G54D30*
X67750Y-47500D03*
G54D31*
X68750Y-47500D03*
G54D30*
X50000Y-43700D03*
G54D31*
X49000Y-43700D03*
G54D36*
X29336Y-34603D03*
X30202Y-34228D03*
X30202Y-34978D03*
G54D37*
X35472Y-31827D03*
X35847Y-31827D03*
X36222Y-31827D03*
X36222Y-32827D03*
X35847Y-32827D03*
X35472Y-32827D03*
G54D38*
X64575Y-43600D03*
X63825Y-43600D03*
X71125Y-43500D03*
X70375Y-43500D03*
G54D39*
X40040Y-35791D03*
X40040Y-36541D03*
X39095Y-35799D03*
X39095Y-36549D03*
X42500Y-36375D03*
X42500Y-37125D03*
X43500Y-36375D03*
X43500Y-37125D03*
G54D38*
X46435Y-34250D03*
X45685Y-34250D03*
X46495Y-35590D03*
X47245Y-35590D03*
X45645Y-32920D03*
X46395Y-32920D03*
X46475Y-31983D03*
X47225Y-31983D03*
X36989Y-30969D03*
X36239Y-30969D03*
X35533Y-30969D03*
X34783Y-30969D03*
G54D39*
X33819Y-32129D03*
X33819Y-32879D03*
X28190Y-35405D03*
X28190Y-34655D03*
X25500Y-33625D03*
X25500Y-34375D03*
G54D38*
X27145Y-35780D03*
X26395Y-35780D03*
X48045Y-32920D03*
X47295Y-32920D03*
X48045Y-34210D03*
X47295Y-34210D03*
G54D39*
X56650Y-43575D03*
X56650Y-44325D03*
X37126Y-31972D03*
X37126Y-32722D03*
G54D40*
X38814Y-33375D03*
X39314Y-33375D03*
X39814Y-33375D03*
X40314Y-33375D03*
X40814Y-33375D03*
X41314Y-33375D03*
X41814Y-33375D03*
X41814Y-31275D03*
X41314Y-31275D03*
X40814Y-31275D03*
X40314Y-31275D03*
X39814Y-31275D03*
X39314Y-31275D03*
X38814Y-31275D03*
G54D41*
X26640Y-33877D03*
X27015Y-34743D03*
X26265Y-34743D03*
G54D39*
X34685Y-31657D03*
X34685Y-32407D03*
G54D30*
X60250Y-30250D03*
G54D31*
X61250Y-30250D03*
G54D30*
X62750Y-30250D03*
G54D31*
X63750Y-30250D03*
G54D28*
X29196Y-44284D03*
G54D29*
X26296Y-44284D03*
G54D42*
X35900Y-47314D03*
X36155Y-47314D03*
X36411Y-47314D03*
X35644Y-47314D03*
X35407Y-47314D03*
G54D43*
X37159Y-47531D03*
X34640Y-47551D03*
G54D44*
X36372Y-48240D03*
X35427Y-48240D03*
G54D45*
X37199Y-48240D03*
X34600Y-48240D03*
G54D30*
X32400Y-47900D03*
G54D31*
X31400Y-47900D03*
G54D34*
X25073Y-30502D03*
X26057Y-30502D03*
X27042Y-30502D03*
X28026Y-30502D03*
G54D35*
X28750Y-31801D03*
X24350Y-31801D03*
G54D41*
X72750Y-44183D03*
X72375Y-43317D03*
X73125Y-43317D03*
X66450Y-44533D03*
X66075Y-43667D03*
X66825Y-43667D03*
G54D39*
X31000Y-30125D03*
X31000Y-30875D03*
G54D38*
X23375Y-48100D03*
X24125Y-48100D03*
G54D41*
X33250Y-38817D03*
X33625Y-39683D03*
X32875Y-39683D03*
G54D39*
X41750Y-40125D03*
X41750Y-39375D03*
G54D41*
X58650Y-44633D03*
X58275Y-43767D03*
X59025Y-43767D03*
G54D30*
X53150Y-47750D03*
G54D31*
X54150Y-47750D03*
G54D39*
X55400Y-44325D03*
X55400Y-43575D03*
G54D46*
X55125Y-36500D03*
X50874Y-36500D03*
G54D47*
X72500Y-36000D03*
G54D48*
X73500Y-36000D03*
X72500Y-37000D03*
X73500Y-37000D03*
X72500Y-38000D03*
X73500Y-38000D03*
G54D49*
X73500Y-39000D03*
X73500Y-35000D03*
X71500Y-37000D03*
G54D30*
X56750Y-30250D03*
G54D31*
X55750Y-30250D03*
X54750Y-30250D03*
X53750Y-30250D03*
X52750Y-30250D03*
X51750Y-30250D03*
G54D50*
X50750Y-30250D03*
X57750Y-30250D03*
X54750Y-31250D03*
G54D38*
X34875Y-38750D03*
X35625Y-38750D03*
G54D51*
X24900Y-46950D03*
X23200Y-46950D03*
X23900Y-46950D03*
G54D52*
X47826Y-47689D03*
G54D53*
X49204Y-45681D03*
X49795Y-45681D03*
G54D52*
X51173Y-47571D03*
G54D54*
X48614Y-47650D03*
X50385Y-47650D03*
G54D52*
X55726Y-47739D03*
G54D53*
X57104Y-45731D03*
X57695Y-45731D03*
G54D52*
X59073Y-47621D03*
G54D54*
X56514Y-47700D03*
X58285Y-47700D03*
G54D52*
X63026Y-47639D03*
G54D53*
X64404Y-45631D03*
X64995Y-45631D03*
G54D52*
X66373Y-47521D03*
G54D54*
X63814Y-47600D03*
X65585Y-47600D03*
G54D52*
X70326Y-47539D03*
G54D53*
X71704Y-45531D03*
X72295Y-45531D03*
G54D52*
X73673Y-47421D03*
G54D54*
X71114Y-47500D03*
X72885Y-47500D03*
M02*
