M48
;DRILL file {Pcbnew (2013-07-07 BZR 4022)-stable} date 11/11/2015 10:51:00 PM
;FORMAT={3:3/ absolute / metric / suppress leading zeros}
FMAT,2
METRIC,TZ
T1C0.500
T2C0.635
T3C0.800
T4C0.813
T5C1.000
T6C1.575
T7C1.780
T8C2.000
T9C3.500
%
G90
G05
M71
T2
X62865Y-122174
X64770Y-88646
X69850Y-86995
X76200Y-90170
X76200Y-92710
X78105Y-80010
X78232Y-93345
X81915Y-95250
X81915Y-97790
X82550Y-75565
X82550Y-80010
X82550Y-108585
X83185Y-102235
X85471Y-93853
X86741Y-78867
X87122Y-100330
X90297Y-107569
X91034Y-88341
X91059Y-85649
X92452Y-84712
X92507Y-118059
X94742Y-106934
X96774Y-106934
X98044Y-77927
X100330Y-95250
X100330Y-97790
X101702Y-94285
X105410Y-95250
X105410Y-97790
X109855Y-80645
X113665Y-97155
X114300Y-98425
X116205Y-77470
X116840Y-100330
X120015Y-93980
X121285Y-95250
X121515Y-81314
X121666Y-110998
X121793Y-90399
X123825Y-95885
X132080Y-78105
X132080Y-80645
X136525Y-79375
X138430Y-84455
X140970Y-79375
X140970Y-83185
X143510Y-100584
X146177Y-103759
X146685Y-107442
X147193Y-102616
X147701Y-109728
X147828Y-99060
X148844Y-105410
X149860Y-76200
X151892Y-105283
X153670Y-93345
X153670Y-96520
X164465Y-79375
X165354Y-84201
X167513Y-109474
X176022Y-108966
X177800Y-90805
X179070Y-108839
X182245Y-97155
X182372Y-106172
X183515Y-108585
X187071Y-105537
X188265Y-96685
T3
X123480Y-121031
X127980Y-121031
X143546Y-121158
X148046Y-121158
X162088Y-120904
X166588Y-120904
X180630Y-120650
X185130Y-120650
T4
X58928Y-119253
X60706Y-119253
X63246Y-119253
X79756Y-121666
X82296Y-121666
X82677Y-106807
X85217Y-106807
X90297Y-107569
X90297Y-110109
X92837Y-110109
X124460Y-110998
X127000Y-110998
X135001Y-115951
X135001Y-121285
X137541Y-115951
X137541Y-121285
X153035Y-76835
X153543Y-120904
X155575Y-76835
X156083Y-120904
X159385Y-76835
X161925Y-76835
X172085Y-120650
X174625Y-120650
T5
X63687Y-77477
X66187Y-77477
X68687Y-77477
X71187Y-77477
X179237Y-78327
X181737Y-78277
X184237Y-78277
T6
X128905Y-76835
X139065Y-79375
X146685Y-76835
X181610Y-93980
X186690Y-88900
X186690Y-99060
T7
X66792Y-112482
X74158Y-112482
X108216Y-112482
X115582Y-112482
T9
X70993Y-101092
X96993Y-101092
X152273Y-101092
X178273Y-101092
T1
X87886Y-122180G85X87886Y-122880
G05
X94486Y-122180G85X94486Y-122880
G05
T8
X61849Y-80027G85X61849Y-81527
G05
X73025Y-80027G85X73025Y-81527
G05
X175637Y-80027G85X175637Y-81527
G05
X187837Y-80027G85X187837Y-81527
G05
T0
M30
