G04 (created by PCBNEW (2013-07-07 BZR 4022)-stable) date 11/11/2015 10:51:05 PM*
%MOIN*%
G04 Gerber Fmt 3.4, Leading zero omitted, Abs format*
%FSLAX34Y34*%
G01*
G70*
G90*
G04 APERTURE LIST*
%ADD10C,0.00590551*%
%ADD11C,0.011811*%
%ADD12O,0.228346X0.110236*%
%ADD13O,0.216535X0.110236*%
%ADD14R,0.055X0.055*%
%ADD15C,0.055*%
%ADD16C,0.25*%
%ADD17C,0.0787402*%
%ADD18O,0.11811X0.15748*%
%ADD19O,0.0354331X0.0629921*%
%ADD20C,0.062*%
%ADD21O,0.062X0.062*%
%ADD22C,0.032*%
%ADD23C,0.0314961*%
G04 APERTURE END LIST*
G54D10*
G54D11*
X74699Y-29636D02*
X68400Y-29636D01*
X68400Y-29636D02*
X68400Y-32786D01*
X68400Y-32786D02*
X74699Y-32786D01*
X74699Y-32786D02*
X74699Y-29636D01*
X23400Y-29046D02*
X29699Y-29046D01*
X29699Y-29046D02*
X29699Y-32983D01*
X29699Y-32983D02*
X23400Y-32983D01*
X23400Y-32983D02*
X23400Y-29046D01*
G54D10*
X69199Y-30240D02*
X69143Y-30259D01*
X69049Y-30259D01*
X69012Y-30240D01*
X68993Y-30221D01*
X68974Y-30184D01*
X68974Y-30146D01*
X68993Y-30109D01*
X69012Y-30090D01*
X69049Y-30071D01*
X69124Y-30053D01*
X69162Y-30034D01*
X69181Y-30015D01*
X69199Y-29978D01*
X69199Y-29940D01*
X69181Y-29903D01*
X69162Y-29884D01*
X69124Y-29865D01*
X69031Y-29865D01*
X68974Y-29884D01*
X68600Y-30259D02*
X68825Y-30259D01*
X68712Y-30259D02*
X68712Y-29865D01*
X68750Y-29921D01*
X68787Y-29959D01*
X68825Y-29978D01*
X74399Y-33496D02*
X74437Y-33478D01*
X74474Y-33440D01*
X74530Y-33384D01*
X74568Y-33365D01*
X74605Y-33365D01*
X74587Y-33459D02*
X74624Y-33440D01*
X74662Y-33403D01*
X74680Y-33328D01*
X74680Y-33196D01*
X74662Y-33121D01*
X74624Y-33084D01*
X74587Y-33065D01*
X74512Y-33065D01*
X74474Y-33084D01*
X74437Y-33121D01*
X74418Y-33196D01*
X74418Y-33328D01*
X74437Y-33403D01*
X74474Y-33440D01*
X74512Y-33459D01*
X74587Y-33459D01*
X74249Y-33065D02*
X74249Y-33384D01*
X74230Y-33421D01*
X74212Y-33440D01*
X74174Y-33459D01*
X74099Y-33459D01*
X74062Y-33440D01*
X74043Y-33421D01*
X74024Y-33384D01*
X74024Y-33065D01*
X73855Y-33346D02*
X73668Y-33346D01*
X73893Y-33459D02*
X73762Y-33065D01*
X73630Y-33459D01*
X73499Y-33459D02*
X73499Y-33065D01*
X73406Y-33065D01*
X73349Y-33084D01*
X73312Y-33121D01*
X73293Y-33159D01*
X73274Y-33234D01*
X73274Y-33290D01*
X73293Y-33365D01*
X73312Y-33403D01*
X73349Y-33440D01*
X73406Y-33459D01*
X73499Y-33459D01*
X72881Y-33459D02*
X73012Y-33271D01*
X73106Y-33459D02*
X73106Y-33065D01*
X72956Y-33065D01*
X72918Y-33084D01*
X72899Y-33103D01*
X72881Y-33140D01*
X72881Y-33196D01*
X72899Y-33234D01*
X72918Y-33253D01*
X72956Y-33271D01*
X73106Y-33271D01*
X72731Y-33346D02*
X72543Y-33346D01*
X72768Y-33459D02*
X72637Y-33065D01*
X72506Y-33459D01*
X72431Y-33065D02*
X72206Y-33065D01*
X72318Y-33459D02*
X72318Y-33065D01*
X72074Y-33065D02*
X72074Y-33384D01*
X72056Y-33421D01*
X72037Y-33440D01*
X71999Y-33459D01*
X71924Y-33459D01*
X71887Y-33440D01*
X71868Y-33421D01*
X71849Y-33384D01*
X71849Y-33065D01*
X71437Y-33459D02*
X71568Y-33271D01*
X71662Y-33459D02*
X71662Y-33065D01*
X71512Y-33065D01*
X71475Y-33084D01*
X71456Y-33103D01*
X71437Y-33140D01*
X71437Y-33196D01*
X71456Y-33234D01*
X71475Y-33253D01*
X71512Y-33271D01*
X71662Y-33271D01*
X71268Y-33253D02*
X71137Y-33253D01*
X71081Y-33459D02*
X71268Y-33459D01*
X71268Y-33065D01*
X71081Y-33065D01*
X71006Y-33496D02*
X70706Y-33496D01*
X70612Y-33253D02*
X70481Y-33253D01*
X70425Y-33459D02*
X70612Y-33459D01*
X70612Y-33065D01*
X70425Y-33065D01*
X70256Y-33459D02*
X70256Y-33065D01*
X70031Y-33459D01*
X70031Y-33065D01*
X69618Y-33421D02*
X69637Y-33440D01*
X69693Y-33459D01*
X69731Y-33459D01*
X69787Y-33440D01*
X69825Y-33403D01*
X69843Y-33365D01*
X69862Y-33290D01*
X69862Y-33234D01*
X69843Y-33159D01*
X69825Y-33121D01*
X69787Y-33084D01*
X69731Y-33065D01*
X69693Y-33065D01*
X69637Y-33084D01*
X69618Y-33103D01*
X69375Y-33065D02*
X69300Y-33065D01*
X69262Y-33084D01*
X69225Y-33121D01*
X69206Y-33196D01*
X69206Y-33328D01*
X69225Y-33403D01*
X69262Y-33440D01*
X69300Y-33459D01*
X69375Y-33459D01*
X69412Y-33440D01*
X69450Y-33403D01*
X69469Y-33328D01*
X69469Y-33196D01*
X69450Y-33121D01*
X69412Y-33084D01*
X69375Y-33065D01*
X69037Y-33459D02*
X69037Y-33065D01*
X68944Y-33065D01*
X68887Y-33084D01*
X68850Y-33121D01*
X68831Y-33159D01*
X68812Y-33234D01*
X68812Y-33290D01*
X68831Y-33365D01*
X68850Y-33403D01*
X68887Y-33440D01*
X68944Y-33459D01*
X69037Y-33459D01*
X68419Y-33459D02*
X68550Y-33271D01*
X68644Y-33459D02*
X68644Y-33065D01*
X68494Y-33065D01*
X68456Y-33084D01*
X68437Y-33103D01*
X68419Y-33140D01*
X68419Y-33196D01*
X68437Y-33234D01*
X68456Y-33253D01*
X68494Y-33271D01*
X68644Y-33271D01*
X23830Y-33646D02*
X23961Y-33458D01*
X24055Y-33646D02*
X24055Y-33252D01*
X23905Y-33252D01*
X23867Y-33271D01*
X23848Y-33290D01*
X23830Y-33327D01*
X23830Y-33383D01*
X23848Y-33421D01*
X23867Y-33440D01*
X23905Y-33458D01*
X24055Y-33458D01*
X23680Y-33290D02*
X23661Y-33271D01*
X23623Y-33252D01*
X23530Y-33252D01*
X23492Y-33271D01*
X23473Y-33290D01*
X23455Y-33327D01*
X23455Y-33365D01*
X23473Y-33421D01*
X23698Y-33646D01*
X23455Y-33646D01*
X29709Y-33609D02*
X29934Y-33609D01*
X29821Y-33609D02*
X29821Y-33215D01*
X29859Y-33271D01*
X29896Y-33309D01*
X29934Y-33328D01*
X29465Y-33215D02*
X29428Y-33215D01*
X29390Y-33234D01*
X29371Y-33253D01*
X29353Y-33290D01*
X29334Y-33365D01*
X29334Y-33459D01*
X29353Y-33534D01*
X29371Y-33571D01*
X29390Y-33590D01*
X29428Y-33609D01*
X29465Y-33609D01*
X29503Y-33590D01*
X29521Y-33571D01*
X29540Y-33534D01*
X29559Y-33459D01*
X29559Y-33365D01*
X29540Y-33290D01*
X29521Y-33253D01*
X29503Y-33234D01*
X29465Y-33215D01*
X29090Y-33215D02*
X29053Y-33215D01*
X29015Y-33234D01*
X28996Y-33253D01*
X28978Y-33290D01*
X28959Y-33365D01*
X28959Y-33459D01*
X28978Y-33534D01*
X28996Y-33571D01*
X29015Y-33590D01*
X29053Y-33609D01*
X29090Y-33609D01*
X29128Y-33590D01*
X29146Y-33571D01*
X29165Y-33534D01*
X29184Y-33459D01*
X29184Y-33365D01*
X29165Y-33290D01*
X29146Y-33253D01*
X29128Y-33234D01*
X29090Y-33215D01*
X28790Y-33609D02*
X28790Y-33215D01*
X28565Y-33609D02*
X28734Y-33384D01*
X28565Y-33215D02*
X28790Y-33440D01*
%LPC*%
G54D12*
X42604Y-44284D03*
G54D13*
X45504Y-44284D03*
G54D14*
X36550Y-43350D03*
G54D15*
X35550Y-43350D03*
X35550Y-42350D03*
G54D16*
X27950Y-39800D03*
X38186Y-39800D03*
X59950Y-39800D03*
X70186Y-39800D03*
G54D15*
X33550Y-42050D03*
X32550Y-42050D03*
G54D17*
X70565Y-30837D03*
X71550Y-30817D03*
X72534Y-30817D03*
G54D18*
X73951Y-31801D03*
X69148Y-31801D03*
G54D14*
X54150Y-45650D03*
G54D15*
X53150Y-45650D03*
G54D14*
X60450Y-47600D03*
G54D15*
X61450Y-47600D03*
G54D14*
X67750Y-47500D03*
G54D15*
X68750Y-47500D03*
G54D14*
X50000Y-43700D03*
G54D15*
X49000Y-43700D03*
G54D14*
X60250Y-30250D03*
G54D15*
X61250Y-30250D03*
G54D14*
X62750Y-30250D03*
G54D15*
X63750Y-30250D03*
G54D12*
X29196Y-44284D03*
G54D13*
X26296Y-44284D03*
G54D19*
X37199Y-48240D03*
X34600Y-48240D03*
G54D14*
X32400Y-47900D03*
G54D15*
X31400Y-47900D03*
G54D17*
X25073Y-30502D03*
X26057Y-30502D03*
X27042Y-30502D03*
X28026Y-30502D03*
G54D18*
X28750Y-31801D03*
X24350Y-31801D03*
G54D14*
X53150Y-47750D03*
G54D15*
X54150Y-47750D03*
G54D20*
X73500Y-39000D03*
X73500Y-35000D03*
X71500Y-37000D03*
G54D21*
X50750Y-30250D03*
X57750Y-30250D03*
X54750Y-31250D03*
G54D22*
X24900Y-46950D03*
X23200Y-46950D03*
X23900Y-46950D03*
G54D23*
X48614Y-47650D03*
X50385Y-47650D03*
X56514Y-47700D03*
X58285Y-47700D03*
X63814Y-47600D03*
X65585Y-47600D03*
X71114Y-47500D03*
X72885Y-47500D03*
M02*
