G04 (created by PCBNEW (2013-07-07 BZR 4022)-stable) date 11/11/2015 10:51:05 PM*
%MOIN*%
G04 Gerber Fmt 3.4, Leading zero omitted, Abs format*
%FSLAX34Y34*%
G01*
G70*
G90*
G04 APERTURE LIST*
%ADD10C,0.00590551*%
%ADD11O,0.228346X0.110236*%
%ADD12O,0.216535X0.110236*%
%ADD13R,0.055X0.055*%
%ADD14C,0.055*%
%ADD15C,0.25*%
%ADD16R,0.0295276X0.0551181*%
%ADD17C,0.0787402*%
%ADD18O,0.11811X0.15748*%
%ADD19R,0.0394X0.0315*%
%ADD20R,0.0276X0.0394*%
%ADD21R,0.035X0.055*%
%ADD22R,0.055X0.035*%
%ADD23R,0.02X0.045*%
%ADD24R,0.0315X0.0394*%
%ADD25R,0.015748X0.0787402*%
%ADD26R,0.0629921X0.0551181*%
%ADD27R,0.0748031X0.0748031*%
%ADD28O,0.0354331X0.0629921*%
%ADD29R,0.15748X0.11811*%
%ADD30R,0.06X0.06*%
%ADD31C,0.06*%
%ADD32C,0.062*%
%ADD33O,0.062X0.062*%
%ADD34C,0.032*%
%ADD35R,0.0944882X0.129921*%
%ADD36R,0.0354331X0.129921*%
%ADD37C,0.0314961*%
G04 APERTURE END LIST*
G54D10*
G54D11*
X42604Y-44284D03*
G54D12*
X45504Y-44284D03*
G54D13*
X36550Y-43350D03*
G54D14*
X35550Y-43350D03*
X35550Y-42350D03*
G54D15*
X27950Y-39800D03*
X38186Y-39800D03*
X59950Y-39800D03*
X70186Y-39800D03*
G54D16*
X39233Y-34670D03*
X39823Y-34670D03*
G54D14*
X33550Y-42050D03*
X32550Y-42050D03*
G54D17*
X70565Y-30837D03*
X71550Y-30817D03*
X72534Y-30817D03*
G54D18*
X73951Y-31801D03*
X69148Y-31801D03*
G54D13*
X54150Y-45650D03*
G54D14*
X53150Y-45650D03*
G54D13*
X60450Y-47600D03*
G54D14*
X61450Y-47600D03*
G54D13*
X67750Y-47500D03*
G54D14*
X68750Y-47500D03*
G54D13*
X50000Y-43700D03*
G54D14*
X49000Y-43700D03*
G54D19*
X29336Y-34603D03*
X30202Y-34228D03*
X30202Y-34978D03*
G54D20*
X35472Y-31827D03*
X35847Y-31827D03*
X36222Y-31827D03*
X36222Y-32827D03*
X35847Y-32827D03*
X35472Y-32827D03*
G54D21*
X64575Y-43600D03*
X63825Y-43600D03*
X71125Y-43500D03*
X70375Y-43500D03*
G54D22*
X40040Y-35791D03*
X40040Y-36541D03*
X39095Y-35799D03*
X39095Y-36549D03*
X42500Y-36375D03*
X42500Y-37125D03*
X43500Y-36375D03*
X43500Y-37125D03*
G54D21*
X46435Y-34250D03*
X45685Y-34250D03*
X46495Y-35590D03*
X47245Y-35590D03*
X45645Y-32920D03*
X46395Y-32920D03*
X46475Y-31983D03*
X47225Y-31983D03*
X36989Y-30969D03*
X36239Y-30969D03*
X35533Y-30969D03*
X34783Y-30969D03*
G54D22*
X33819Y-32129D03*
X33819Y-32879D03*
X28190Y-35405D03*
X28190Y-34655D03*
X25500Y-33625D03*
X25500Y-34375D03*
G54D21*
X27145Y-35780D03*
X26395Y-35780D03*
X48045Y-32920D03*
X47295Y-32920D03*
X48045Y-34210D03*
X47295Y-34210D03*
G54D22*
X56650Y-43575D03*
X56650Y-44325D03*
X37126Y-31972D03*
X37126Y-32722D03*
G54D23*
X38814Y-33375D03*
X39314Y-33375D03*
X39814Y-33375D03*
X40314Y-33375D03*
X40814Y-33375D03*
X41314Y-33375D03*
X41814Y-33375D03*
X41814Y-31275D03*
X41314Y-31275D03*
X40814Y-31275D03*
X40314Y-31275D03*
X39814Y-31275D03*
X39314Y-31275D03*
X38814Y-31275D03*
G54D24*
X26640Y-33877D03*
X27015Y-34743D03*
X26265Y-34743D03*
G54D22*
X34685Y-31657D03*
X34685Y-32407D03*
G54D13*
X60250Y-30250D03*
G54D14*
X61250Y-30250D03*
G54D13*
X62750Y-30250D03*
G54D14*
X63750Y-30250D03*
G54D11*
X29196Y-44284D03*
G54D12*
X26296Y-44284D03*
G54D25*
X35900Y-47314D03*
X36155Y-47314D03*
X36411Y-47314D03*
X35644Y-47314D03*
X35407Y-47314D03*
G54D26*
X37159Y-47531D03*
X34640Y-47551D03*
G54D27*
X36372Y-48240D03*
X35427Y-48240D03*
G54D28*
X37199Y-48240D03*
X34600Y-48240D03*
G54D13*
X32400Y-47900D03*
G54D14*
X31400Y-47900D03*
G54D17*
X25073Y-30502D03*
X26057Y-30502D03*
X27042Y-30502D03*
X28026Y-30502D03*
G54D18*
X28750Y-31801D03*
X24350Y-31801D03*
G54D24*
X72750Y-44183D03*
X72375Y-43317D03*
X73125Y-43317D03*
X66450Y-44533D03*
X66075Y-43667D03*
X66825Y-43667D03*
G54D22*
X31000Y-30125D03*
X31000Y-30875D03*
G54D21*
X23375Y-48100D03*
X24125Y-48100D03*
G54D24*
X33250Y-38817D03*
X33625Y-39683D03*
X32875Y-39683D03*
G54D22*
X41750Y-40125D03*
X41750Y-39375D03*
G54D24*
X58650Y-44633D03*
X58275Y-43767D03*
X59025Y-43767D03*
G54D13*
X53150Y-47750D03*
G54D14*
X54150Y-47750D03*
G54D22*
X55400Y-44325D03*
X55400Y-43575D03*
G54D29*
X55125Y-36500D03*
X50874Y-36500D03*
G54D30*
X72500Y-36000D03*
G54D31*
X73500Y-36000D03*
X72500Y-37000D03*
X73500Y-37000D03*
X72500Y-38000D03*
X73500Y-38000D03*
G54D32*
X73500Y-39000D03*
X73500Y-35000D03*
X71500Y-37000D03*
G54D13*
X56750Y-30250D03*
G54D14*
X55750Y-30250D03*
X54750Y-30250D03*
X53750Y-30250D03*
X52750Y-30250D03*
X51750Y-30250D03*
G54D33*
X50750Y-30250D03*
X57750Y-30250D03*
X54750Y-31250D03*
G54D21*
X34875Y-38750D03*
X35625Y-38750D03*
G54D34*
X24900Y-46950D03*
X23200Y-46950D03*
X23900Y-46950D03*
G54D35*
X47826Y-47689D03*
G54D36*
X49204Y-45681D03*
X49795Y-45681D03*
G54D35*
X51173Y-47571D03*
G54D37*
X48614Y-47650D03*
X50385Y-47650D03*
G54D35*
X55726Y-47739D03*
G54D36*
X57104Y-45731D03*
X57695Y-45731D03*
G54D35*
X59073Y-47621D03*
G54D37*
X56514Y-47700D03*
X58285Y-47700D03*
G54D35*
X63026Y-47639D03*
G54D36*
X64404Y-45631D03*
X64995Y-45631D03*
G54D35*
X66373Y-47521D03*
G54D37*
X63814Y-47600D03*
X65585Y-47600D03*
G54D35*
X70326Y-47539D03*
G54D36*
X71704Y-45531D03*
X72295Y-45531D03*
G54D35*
X73673Y-47421D03*
G54D37*
X71114Y-47500D03*
X72885Y-47500D03*
M02*
