M48
;DRILL file {Pcbnew (2013-09-28 BZR 4356)-product} date 7/22/2014 6:54:36 PM
;FORMAT={-:-/ absolute / metric / decimal}
FMAT,2
METRIC,TZ
T1C0.400
T2C0.635
T3C0.813
T4C1.000
T5C2.000
T6C2.500
%
G90
G05
M71
T1
X198.15Y-201.6
X199.25Y-201.6
T2
X150.952Y-195.478
X159.309Y-196.418
X177.521Y-183.921
X186.639Y-190.652
X189.23Y-205.745
X189.332Y-201.879
X189.357Y-199.187
X190.75Y-198.25
X195.75Y-187.
X196.342Y-191.465
X200.Y-207.823
X200.482Y-219.664
X200.965Y-200.254
X204.03Y-191.17
X205.918Y-202.438
X206.045Y-199.238
X207.Y-193.
X208.2Y-187.9
X212.598Y-192.761
X228.803Y-188.722
X228.981Y-198.857
X230.937Y-192.126
X232.258Y-194.818
X254.914Y-201.168
X254.94Y-196.52
X261.62Y-212.73
X261.849Y-204.495
T3
X136.9Y-195.
X136.9Y-197.54
X174.996Y-181.934
X177.536Y-181.934
X199.58Y-181.284
X199.58Y-184.87
X202.12Y-181.284
X202.12Y-184.87
X225.422Y-181.534
X227.962Y-181.534
T4
X139.125Y-183.395
X141.625Y-183.395
X144.125Y-183.395
X146.625Y-183.395
X254.675Y-184.195
X257.175Y-184.195
X259.675Y-184.245
T6
X151.47Y-207.075
X177.47Y-207.075
X222.59Y-207.075
X248.59Y-207.075
T5
X136.775Y-187.445G85X136.775Y-185.945
G05
X148.975Y-187.445G85X148.975Y-185.945
G05
X251.075Y-187.445G85X251.075Y-185.945
G05
X263.275Y-187.445G85X263.275Y-185.945
G05
T0
M30
