G04 (created by PCBNEW (2013-09-28 BZR 4356)-product) date 7/22/2014 6:54:39 PM*
%MOIN*%
G04 Gerber Fmt 3.4, Leading zero omitted, Abs format*
%FSLAX34Y34*%
G01*
G70*
G90*
G04 APERTURE LIST*
%ADD10C,0.005906*%
%ADD11C,0.008000*%
%ADD12C,0.003100*%
%ADD13C,0.003900*%
%ADD14C,0.005000*%
%ADD15C,0.012000*%
%ADD16C,0.011811*%
%ADD17C,0.004700*%
%ADD18C,0.004300*%
%ADD19C,0.003000*%
%ADD20C,0.010700*%
G04 APERTURE END LIST*
G54D10*
G54D11*
X101580Y-80270D02*
X101580Y-77270D01*
X103580Y-77270D02*
X103580Y-80270D01*
X103580Y-80270D02*
X101580Y-80270D01*
X101580Y-77270D02*
X103580Y-77270D01*
G54D12*
X64670Y-77253D02*
G75*
G03X64670Y-77253I-62J0D01*
G74*
G01*
X64270Y-76290D02*
X64670Y-76290D01*
X64270Y-77315D02*
X64670Y-77315D01*
X64670Y-76290D02*
X64670Y-77315D01*
X64270Y-77315D02*
X64270Y-76290D01*
G54D11*
X77114Y-76275D02*
X80914Y-76275D01*
X80914Y-76275D02*
X80914Y-77775D01*
X80914Y-77775D02*
X77114Y-77775D01*
X77114Y-77775D02*
X77114Y-76275D01*
X77114Y-76775D02*
X77414Y-76775D01*
X77414Y-76775D02*
X77414Y-77175D01*
X77414Y-77175D02*
X77114Y-77175D01*
G54D13*
X75576Y-76397D02*
G75*
G03X75576Y-76397I-50J0D01*
G74*
G01*
X75526Y-76847D02*
X75526Y-76447D01*
X75526Y-76447D02*
X76126Y-76447D01*
X76126Y-76447D02*
X76126Y-76847D01*
X76126Y-77247D02*
X76126Y-77647D01*
X76126Y-77647D02*
X75526Y-77647D01*
X75526Y-77647D02*
X75526Y-77247D01*
X81727Y-73720D02*
G75*
G03X81727Y-73720I-50J0D01*
G74*
G01*
X81677Y-73270D02*
X81677Y-73670D01*
X81677Y-73670D02*
X81077Y-73670D01*
X81077Y-73670D02*
X81077Y-73270D01*
X81077Y-72870D02*
X81077Y-72470D01*
X81077Y-72470D02*
X81677Y-72470D01*
X81677Y-72470D02*
X81677Y-72870D01*
X90570Y-76610D02*
G75*
G03X90570Y-76610I-50J0D01*
G74*
G01*
X90070Y-76610D02*
X90470Y-76610D01*
X90470Y-76610D02*
X90470Y-77210D01*
X90470Y-77210D02*
X90070Y-77210D01*
X89670Y-77210D02*
X89270Y-77210D01*
X89270Y-77210D02*
X89270Y-76610D01*
X89270Y-76610D02*
X89670Y-76610D01*
X90570Y-75320D02*
G75*
G03X90570Y-75320I-50J0D01*
G74*
G01*
X90070Y-75320D02*
X90470Y-75320D01*
X90470Y-75320D02*
X90470Y-75920D01*
X90470Y-75920D02*
X90070Y-75920D01*
X89670Y-75920D02*
X89270Y-75920D01*
X89270Y-75920D02*
X89270Y-75320D01*
X89270Y-75320D02*
X89670Y-75320D01*
X65220Y-77670D02*
G75*
G03X65220Y-77670I-50J0D01*
G74*
G01*
X64720Y-77670D02*
X65120Y-77670D01*
X65120Y-77670D02*
X65120Y-78270D01*
X65120Y-78270D02*
X64720Y-78270D01*
X64320Y-78270D02*
X63920Y-78270D01*
X63920Y-78270D02*
X63920Y-77670D01*
X63920Y-77670D02*
X64320Y-77670D01*
X61660Y-76300D02*
G75*
G03X61660Y-76300I-50J0D01*
G74*
G01*
X61610Y-76750D02*
X61610Y-76350D01*
X61610Y-76350D02*
X62210Y-76350D01*
X62210Y-76350D02*
X62210Y-76750D01*
X62210Y-77150D02*
X62210Y-77550D01*
X62210Y-77550D02*
X61610Y-77550D01*
X61610Y-77550D02*
X61610Y-77150D01*
X65260Y-75260D02*
G75*
G03X65260Y-75260I-50J0D01*
G74*
G01*
X64760Y-75260D02*
X65160Y-75260D01*
X65160Y-75260D02*
X65160Y-75860D01*
X65160Y-75860D02*
X64760Y-75860D01*
X64360Y-75860D02*
X63960Y-75860D01*
X63960Y-75860D02*
X63960Y-75260D01*
X63960Y-75260D02*
X64360Y-75260D01*
X73135Y-76082D02*
G75*
G03X73135Y-76082I-50J0D01*
G74*
G01*
X73085Y-76532D02*
X73085Y-76132D01*
X73085Y-76132D02*
X73685Y-76132D01*
X73685Y-76132D02*
X73685Y-76532D01*
X73685Y-76932D02*
X73685Y-77332D01*
X73685Y-77332D02*
X73085Y-77332D01*
X73085Y-77332D02*
X73085Y-76932D01*
X72269Y-76554D02*
G75*
G03X72269Y-76554I-50J0D01*
G74*
G01*
X72219Y-77004D02*
X72219Y-76604D01*
X72219Y-76604D02*
X72819Y-76604D01*
X72819Y-76604D02*
X72819Y-77004D01*
X72819Y-77404D02*
X72819Y-77804D01*
X72819Y-77804D02*
X72219Y-77804D01*
X72219Y-77804D02*
X72219Y-77404D01*
X74558Y-75369D02*
G75*
G03X74558Y-75369I-50J0D01*
G74*
G01*
X74058Y-75369D02*
X74458Y-75369D01*
X74458Y-75369D02*
X74458Y-75969D01*
X74458Y-75969D02*
X74058Y-75969D01*
X73658Y-75969D02*
X73258Y-75969D01*
X73258Y-75969D02*
X73258Y-75369D01*
X73258Y-75369D02*
X73658Y-75369D01*
X76014Y-75369D02*
G75*
G03X76014Y-75369I-50J0D01*
G74*
G01*
X75514Y-75369D02*
X75914Y-75369D01*
X75914Y-75369D02*
X75914Y-75969D01*
X75914Y-75969D02*
X75514Y-75969D01*
X75114Y-75969D02*
X74714Y-75969D01*
X74714Y-75969D02*
X74714Y-75369D01*
X74714Y-75369D02*
X75114Y-75369D01*
X88490Y-74570D02*
G75*
G03X88490Y-74570I-50J0D01*
G74*
G01*
X88890Y-74570D02*
X88490Y-74570D01*
X88490Y-74570D02*
X88490Y-73970D01*
X88490Y-73970D02*
X88890Y-73970D01*
X89290Y-73970D02*
X89690Y-73970D01*
X89690Y-73970D02*
X89690Y-74570D01*
X89690Y-74570D02*
X89290Y-74570D01*
X87620Y-75920D02*
G75*
G03X87620Y-75920I-50J0D01*
G74*
G01*
X88020Y-75920D02*
X87620Y-75920D01*
X87620Y-75920D02*
X87620Y-75320D01*
X87620Y-75320D02*
X88020Y-75320D01*
X88420Y-75320D02*
X88820Y-75320D01*
X88820Y-75320D02*
X88820Y-75920D01*
X88820Y-75920D02*
X88420Y-75920D01*
X88470Y-78590D02*
G75*
G03X88470Y-78590I-50J0D01*
G74*
G01*
X88870Y-78590D02*
X88470Y-78590D01*
X88470Y-78590D02*
X88470Y-77990D01*
X88470Y-77990D02*
X88870Y-77990D01*
X89270Y-77990D02*
X89670Y-77990D01*
X89670Y-77990D02*
X89670Y-78590D01*
X89670Y-78590D02*
X89270Y-78590D01*
X88960Y-76650D02*
G75*
G03X88960Y-76650I-50J0D01*
G74*
G01*
X88460Y-76650D02*
X88860Y-76650D01*
X88860Y-76650D02*
X88860Y-77250D01*
X88860Y-77250D02*
X88460Y-77250D01*
X88060Y-77250D02*
X87660Y-77250D01*
X87660Y-77250D02*
X87660Y-76650D01*
X87660Y-76650D02*
X88060Y-76650D01*
X85320Y-80519D02*
G75*
G03X85320Y-80519I-50J0D01*
G74*
G01*
X85270Y-80969D02*
X85270Y-80569D01*
X85270Y-80569D02*
X85870Y-80569D01*
X85870Y-80569D02*
X85870Y-80969D01*
X85870Y-81369D02*
X85870Y-81769D01*
X85870Y-81769D02*
X85270Y-81769D01*
X85270Y-81769D02*
X85270Y-81369D01*
X60936Y-79353D02*
G75*
G03X60936Y-79353I-50J0D01*
G74*
G01*
X60436Y-79353D02*
X60836Y-79353D01*
X60836Y-79353D02*
X60836Y-79953D01*
X60836Y-79953D02*
X60436Y-79953D01*
X60036Y-79953D02*
X59636Y-79953D01*
X59636Y-79953D02*
X59636Y-79353D01*
X59636Y-79353D02*
X60036Y-79353D01*
X77545Y-80224D02*
G75*
G03X77545Y-80224I-50J0D01*
G74*
G01*
X77495Y-80674D02*
X77495Y-80274D01*
X77495Y-80274D02*
X78095Y-80274D01*
X78095Y-80274D02*
X78095Y-80674D01*
X78095Y-81074D02*
X78095Y-81474D01*
X78095Y-81474D02*
X77495Y-81474D01*
X77495Y-81474D02*
X77495Y-81074D01*
X78490Y-80216D02*
G75*
G03X78490Y-80216I-50J0D01*
G74*
G01*
X78440Y-80666D02*
X78440Y-80266D01*
X78440Y-80266D02*
X79040Y-80266D01*
X79040Y-80266D02*
X79040Y-80666D01*
X79040Y-81066D02*
X79040Y-81466D01*
X79040Y-81466D02*
X78440Y-81466D01*
X78440Y-81466D02*
X78440Y-81066D01*
X69146Y-73877D02*
G75*
G03X69146Y-73877I-50J0D01*
G74*
G01*
X69096Y-73427D02*
X69096Y-73827D01*
X69096Y-73827D02*
X68496Y-73827D01*
X68496Y-73827D02*
X68496Y-73427D01*
X68496Y-73027D02*
X68496Y-72627D01*
X68496Y-72627D02*
X69096Y-72627D01*
X69096Y-72627D02*
X69096Y-73027D01*
X89098Y-73720D02*
G75*
G03X89098Y-73720I-50J0D01*
G74*
G01*
X89048Y-73270D02*
X89048Y-73670D01*
X89048Y-73670D02*
X88448Y-73670D01*
X88448Y-73670D02*
X88448Y-73270D01*
X88448Y-72870D02*
X88448Y-72470D01*
X88448Y-72470D02*
X89048Y-72470D01*
X89048Y-72470D02*
X89048Y-72870D01*
G54D14*
X74347Y-77327D02*
X74047Y-77127D01*
X75047Y-77327D02*
X74022Y-77327D01*
X74022Y-77327D02*
X74022Y-76727D01*
X74022Y-76727D02*
X75047Y-76727D01*
X75047Y-76727D02*
X75047Y-77327D01*
G54D12*
X60760Y-77413D02*
G75*
G03X60760Y-77413I-62J0D01*
G74*
G01*
X60360Y-76450D02*
X60760Y-76450D01*
X60360Y-77475D02*
X60760Y-77475D01*
X60760Y-76450D02*
X60760Y-77475D01*
X60360Y-77475D02*
X60360Y-76450D01*
G54D15*
X53397Y-76271D02*
X54397Y-76271D01*
X54397Y-76271D02*
X54397Y-78271D01*
X54397Y-78271D02*
X53397Y-78271D01*
X53397Y-78271D02*
X53397Y-76271D01*
X68396Y-72127D02*
X68396Y-71127D01*
X68396Y-71127D02*
X70396Y-71127D01*
X70396Y-71127D02*
X70396Y-72127D01*
X70396Y-72127D02*
X68396Y-72127D01*
X88248Y-71970D02*
X88248Y-70970D01*
X88248Y-70970D02*
X90248Y-70970D01*
X90248Y-70970D02*
X90248Y-71970D01*
X90248Y-71970D02*
X88248Y-71970D01*
X80074Y-70871D02*
X80074Y-71871D01*
X80074Y-71871D02*
X78074Y-71871D01*
X78074Y-71871D02*
X78074Y-70871D01*
X78074Y-70871D02*
X80074Y-70871D01*
X78074Y-73283D02*
X78074Y-72283D01*
X78074Y-72283D02*
X80074Y-72283D01*
X80074Y-72283D02*
X80074Y-73283D01*
X80074Y-73283D02*
X78074Y-73283D01*
G54D10*
X78858Y-79370D02*
G75*
G03X78858Y-79370I-629J0D01*
G74*
G01*
X53659Y-89501D02*
X61909Y-89501D01*
X53659Y-89501D02*
X53659Y-84501D01*
X53659Y-84501D02*
X61909Y-84501D01*
X104090Y-84501D02*
X95840Y-84501D01*
X104090Y-84501D02*
X104090Y-89501D01*
X104090Y-89501D02*
X95840Y-89501D01*
X80159Y-89501D02*
X88409Y-89501D01*
X80159Y-89501D02*
X80159Y-84501D01*
X80159Y-84501D02*
X88409Y-84501D01*
X78090Y-84501D02*
X69840Y-84501D01*
X78090Y-84501D02*
X78090Y-89501D01*
X78090Y-89501D02*
X69840Y-89501D01*
G54D16*
X59399Y-70746D02*
X53100Y-70746D01*
X53100Y-70746D02*
X53100Y-74683D01*
X53100Y-74683D02*
X59399Y-74683D01*
X59399Y-74683D02*
X59399Y-70746D01*
X98100Y-71336D02*
X104399Y-71336D01*
X104399Y-71336D02*
X104399Y-74486D01*
X104399Y-74486D02*
X98100Y-74486D01*
X98100Y-74486D02*
X98100Y-71336D01*
G54D11*
X104222Y-79255D02*
X104241Y-79274D01*
X104260Y-79331D01*
X104260Y-79370D01*
X104241Y-79427D01*
X104203Y-79465D01*
X104165Y-79484D01*
X104089Y-79503D01*
X104032Y-79503D01*
X103956Y-79484D01*
X103918Y-79465D01*
X103880Y-79427D01*
X103860Y-79370D01*
X103860Y-79331D01*
X103880Y-79274D01*
X103899Y-79255D01*
X103860Y-79008D02*
X103860Y-78931D01*
X103880Y-78893D01*
X103918Y-78855D01*
X103994Y-78836D01*
X104127Y-78836D01*
X104203Y-78855D01*
X104241Y-78893D01*
X104260Y-78931D01*
X104260Y-79008D01*
X104241Y-79046D01*
X104203Y-79084D01*
X104127Y-79103D01*
X103994Y-79103D01*
X103918Y-79084D01*
X103880Y-79046D01*
X103860Y-79008D01*
X104260Y-78665D02*
X103860Y-78665D01*
X104260Y-78436D01*
X103860Y-78436D01*
X104260Y-78036D02*
X104260Y-78265D01*
X104260Y-78150D02*
X103860Y-78150D01*
X103918Y-78189D01*
X103956Y-78227D01*
X103975Y-78265D01*
G54D17*
X64402Y-76167D02*
X64373Y-76153D01*
X64345Y-76124D01*
X64302Y-76081D01*
X64273Y-76067D01*
X64245Y-76067D01*
X64259Y-76138D02*
X64231Y-76124D01*
X64202Y-76095D01*
X64188Y-76038D01*
X64188Y-75938D01*
X64202Y-75881D01*
X64231Y-75853D01*
X64259Y-75838D01*
X64316Y-75838D01*
X64345Y-75853D01*
X64373Y-75881D01*
X64388Y-75938D01*
X64388Y-76038D01*
X64373Y-76095D01*
X64345Y-76124D01*
X64316Y-76138D01*
X64259Y-76138D01*
X64673Y-76138D02*
X64502Y-76138D01*
X64588Y-76138D02*
X64588Y-75838D01*
X64559Y-75881D01*
X64531Y-75910D01*
X64502Y-75924D01*
G54D13*
X64455Y-77079D02*
X64455Y-77144D01*
X64559Y-77144D02*
X64362Y-77144D01*
X64362Y-77051D01*
X64455Y-76976D02*
X64455Y-76910D01*
X64559Y-76882D02*
X64559Y-76976D01*
X64362Y-76976D01*
X64362Y-76882D01*
X64362Y-76825D02*
X64362Y-76713D01*
X64559Y-76769D02*
X64362Y-76769D01*
X64577Y-76694D02*
X64577Y-76544D01*
X64559Y-76497D02*
X64362Y-76497D01*
X64559Y-76385D01*
X64362Y-76385D01*
G54D14*
X78575Y-76856D02*
X78575Y-76456D01*
X79047Y-76818D02*
X79025Y-76837D01*
X78961Y-76856D01*
X78918Y-76856D01*
X78854Y-76837D01*
X78811Y-76799D01*
X78789Y-76761D01*
X78768Y-76685D01*
X78768Y-76627D01*
X78789Y-76551D01*
X78811Y-76513D01*
X78854Y-76475D01*
X78918Y-76456D01*
X78961Y-76456D01*
X79025Y-76475D01*
X79047Y-76494D01*
X79475Y-76856D02*
X79218Y-76856D01*
X79347Y-76856D02*
X79347Y-76456D01*
X79304Y-76513D01*
X79261Y-76551D01*
X79218Y-76570D01*
X76957Y-77442D02*
X77148Y-77442D01*
X76919Y-77556D02*
X77053Y-77156D01*
X77186Y-77556D01*
X77262Y-77156D02*
X77491Y-77156D01*
X77376Y-77556D02*
X77376Y-77156D01*
X77567Y-77156D02*
X77795Y-77156D01*
X77681Y-77556D02*
X77681Y-77156D01*
X77929Y-77556D02*
X77929Y-77156D01*
X78119Y-77556D02*
X78119Y-77156D01*
X78348Y-77556D01*
X78348Y-77156D01*
X78614Y-77366D02*
X78614Y-77556D01*
X78481Y-77156D02*
X78614Y-77366D01*
X78748Y-77156D01*
X78938Y-77327D02*
X78900Y-77308D01*
X78881Y-77289D01*
X78862Y-77251D01*
X78862Y-77232D01*
X78881Y-77194D01*
X78900Y-77175D01*
X78938Y-77156D01*
X79014Y-77156D01*
X79053Y-77175D01*
X79072Y-77194D01*
X79091Y-77232D01*
X79091Y-77251D01*
X79072Y-77289D01*
X79053Y-77308D01*
X79014Y-77327D01*
X78938Y-77327D01*
X78900Y-77347D01*
X78881Y-77366D01*
X78862Y-77404D01*
X78862Y-77480D01*
X78881Y-77518D01*
X78900Y-77537D01*
X78938Y-77556D01*
X79014Y-77556D01*
X79053Y-77537D01*
X79072Y-77518D01*
X79091Y-77480D01*
X79091Y-77404D01*
X79072Y-77366D01*
X79053Y-77347D01*
X79014Y-77327D01*
X79434Y-77289D02*
X79434Y-77556D01*
X79338Y-77137D02*
X79243Y-77423D01*
X79491Y-77423D01*
X79624Y-77442D02*
X79814Y-77442D01*
X79586Y-77556D02*
X79719Y-77156D01*
X79853Y-77556D01*
X79986Y-77404D02*
X80291Y-77404D01*
X80462Y-77537D02*
X80519Y-77556D01*
X80614Y-77556D01*
X80653Y-77537D01*
X80672Y-77518D01*
X80691Y-77480D01*
X80691Y-77442D01*
X80672Y-77404D01*
X80653Y-77385D01*
X80614Y-77366D01*
X80538Y-77347D01*
X80500Y-77327D01*
X80481Y-77308D01*
X80462Y-77270D01*
X80462Y-77232D01*
X80481Y-77194D01*
X80500Y-77175D01*
X80538Y-77156D01*
X80634Y-77156D01*
X80691Y-77175D01*
X80843Y-77537D02*
X80900Y-77556D01*
X80995Y-77556D01*
X81034Y-77537D01*
X81053Y-77518D01*
X81072Y-77480D01*
X81072Y-77442D01*
X81053Y-77404D01*
X81034Y-77385D01*
X80995Y-77366D01*
X80919Y-77347D01*
X80881Y-77327D01*
X80862Y-77308D01*
X80843Y-77270D01*
X80843Y-77232D01*
X80862Y-77194D01*
X80881Y-77175D01*
X80919Y-77156D01*
X81014Y-77156D01*
X81072Y-77175D01*
G54D18*
X75995Y-77080D02*
X76004Y-77089D01*
X76014Y-77117D01*
X76014Y-77136D01*
X76004Y-77164D01*
X75986Y-77183D01*
X75967Y-77192D01*
X75929Y-77202D01*
X75901Y-77202D01*
X75864Y-77192D01*
X75845Y-77183D01*
X75826Y-77164D01*
X75817Y-77136D01*
X75817Y-77117D01*
X75826Y-77089D01*
X75836Y-77080D01*
X75817Y-77014D02*
X75817Y-76892D01*
X75892Y-76958D01*
X75892Y-76929D01*
X75901Y-76911D01*
X75911Y-76901D01*
X75929Y-76892D01*
X75976Y-76892D01*
X75995Y-76901D01*
X76004Y-76911D01*
X76014Y-76929D01*
X76014Y-76986D01*
X76004Y-77005D01*
X75995Y-77014D01*
X75765Y-77258D02*
X75765Y-77370D01*
X75765Y-77314D02*
X75568Y-77314D01*
X75597Y-77333D01*
X75615Y-77352D01*
X75625Y-77370D01*
X75568Y-77136D02*
X75568Y-77117D01*
X75578Y-77098D01*
X75587Y-77089D01*
X75606Y-77080D01*
X75643Y-77070D01*
X75690Y-77070D01*
X75728Y-77080D01*
X75747Y-77089D01*
X75756Y-77098D01*
X75765Y-77117D01*
X75765Y-77136D01*
X75756Y-77155D01*
X75747Y-77164D01*
X75728Y-77173D01*
X75690Y-77183D01*
X75643Y-77183D01*
X75606Y-77173D01*
X75587Y-77164D01*
X75578Y-77155D01*
X75568Y-77136D01*
X75634Y-76901D02*
X75765Y-76901D01*
X75634Y-76986D02*
X75737Y-76986D01*
X75756Y-76976D01*
X75765Y-76958D01*
X75765Y-76929D01*
X75756Y-76911D01*
X75747Y-76901D01*
X75662Y-76742D02*
X75662Y-76808D01*
X75765Y-76808D02*
X75568Y-76808D01*
X75568Y-76714D01*
X81342Y-73197D02*
X81248Y-73263D01*
X81342Y-73310D02*
X81145Y-73310D01*
X81145Y-73235D01*
X81154Y-73216D01*
X81163Y-73206D01*
X81182Y-73197D01*
X81210Y-73197D01*
X81229Y-73206D01*
X81238Y-73216D01*
X81248Y-73235D01*
X81248Y-73310D01*
X81342Y-73009D02*
X81342Y-73122D01*
X81342Y-73066D02*
X81145Y-73066D01*
X81173Y-73084D01*
X81191Y-73103D01*
X81201Y-73122D01*
X81145Y-72944D02*
X81145Y-72822D01*
X81220Y-72887D01*
X81220Y-72859D01*
X81229Y-72841D01*
X81238Y-72831D01*
X81257Y-72822D01*
X81304Y-72822D01*
X81323Y-72831D01*
X81332Y-72841D01*
X81342Y-72859D01*
X81342Y-72916D01*
X81332Y-72934D01*
X81323Y-72944D01*
X81488Y-73314D02*
X81479Y-73305D01*
X81470Y-73286D01*
X81470Y-73239D01*
X81479Y-73220D01*
X81488Y-73211D01*
X81507Y-73202D01*
X81526Y-73202D01*
X81554Y-73211D01*
X81667Y-73324D01*
X81667Y-73202D01*
X81488Y-73127D02*
X81479Y-73117D01*
X81470Y-73099D01*
X81470Y-73052D01*
X81479Y-73033D01*
X81488Y-73023D01*
X81507Y-73014D01*
X81526Y-73014D01*
X81554Y-73023D01*
X81667Y-73136D01*
X81667Y-73014D01*
X81470Y-72892D02*
X81470Y-72873D01*
X81479Y-72855D01*
X81488Y-72845D01*
X81507Y-72836D01*
X81545Y-72826D01*
X81592Y-72826D01*
X81629Y-72836D01*
X81648Y-72845D01*
X81657Y-72855D01*
X81667Y-72873D01*
X81667Y-72892D01*
X81657Y-72911D01*
X81648Y-72920D01*
X81629Y-72930D01*
X81592Y-72939D01*
X81545Y-72939D01*
X81507Y-72930D01*
X81488Y-72920D01*
X81479Y-72911D01*
X81470Y-72892D01*
X89743Y-77124D02*
X89677Y-77030D01*
X89630Y-77124D02*
X89630Y-76927D01*
X89705Y-76927D01*
X89724Y-76936D01*
X89733Y-76945D01*
X89743Y-76964D01*
X89743Y-76992D01*
X89733Y-77011D01*
X89724Y-77020D01*
X89705Y-77030D01*
X89630Y-77030D01*
X89930Y-77124D02*
X89818Y-77124D01*
X89874Y-77124D02*
X89874Y-76927D01*
X89855Y-76955D01*
X89837Y-76974D01*
X89818Y-76983D01*
X90118Y-77124D02*
X90006Y-77124D01*
X90062Y-77124D02*
X90062Y-76927D01*
X90043Y-76955D01*
X90024Y-76974D01*
X90006Y-76983D01*
X89724Y-76652D02*
X89630Y-76652D01*
X89621Y-76745D01*
X89630Y-76736D01*
X89649Y-76727D01*
X89696Y-76727D01*
X89715Y-76736D01*
X89724Y-76745D01*
X89733Y-76764D01*
X89733Y-76811D01*
X89724Y-76830D01*
X89715Y-76839D01*
X89696Y-76849D01*
X89649Y-76849D01*
X89630Y-76839D01*
X89621Y-76830D01*
X89855Y-76652D02*
X89874Y-76652D01*
X89893Y-76661D01*
X89902Y-76670D01*
X89912Y-76689D01*
X89921Y-76727D01*
X89921Y-76774D01*
X89912Y-76811D01*
X89902Y-76830D01*
X89893Y-76839D01*
X89874Y-76849D01*
X89855Y-76849D01*
X89837Y-76839D01*
X89827Y-76830D01*
X89818Y-76811D01*
X89809Y-76774D01*
X89809Y-76727D01*
X89818Y-76689D01*
X89827Y-76670D01*
X89837Y-76661D01*
X89855Y-76652D01*
X90006Y-76849D02*
X90006Y-76652D01*
X90118Y-76849D02*
X90034Y-76736D01*
X90118Y-76652D02*
X90006Y-76764D01*
X89743Y-75834D02*
X89677Y-75740D01*
X89630Y-75834D02*
X89630Y-75637D01*
X89705Y-75637D01*
X89724Y-75646D01*
X89733Y-75655D01*
X89743Y-75674D01*
X89743Y-75702D01*
X89733Y-75721D01*
X89724Y-75730D01*
X89705Y-75740D01*
X89630Y-75740D01*
X89930Y-75834D02*
X89818Y-75834D01*
X89874Y-75834D02*
X89874Y-75637D01*
X89855Y-75665D01*
X89837Y-75684D01*
X89818Y-75693D01*
X90052Y-75637D02*
X90071Y-75637D01*
X90090Y-75646D01*
X90099Y-75655D01*
X90109Y-75674D01*
X90118Y-75712D01*
X90118Y-75759D01*
X90109Y-75796D01*
X90099Y-75815D01*
X90090Y-75824D01*
X90071Y-75834D01*
X90052Y-75834D01*
X90034Y-75824D01*
X90024Y-75815D01*
X90015Y-75796D01*
X90006Y-75759D01*
X90006Y-75712D01*
X90015Y-75674D01*
X90024Y-75655D01*
X90034Y-75646D01*
X90052Y-75637D01*
X89724Y-75362D02*
X89630Y-75362D01*
X89621Y-75455D01*
X89630Y-75446D01*
X89649Y-75437D01*
X89696Y-75437D01*
X89715Y-75446D01*
X89724Y-75455D01*
X89733Y-75474D01*
X89733Y-75521D01*
X89724Y-75540D01*
X89715Y-75549D01*
X89696Y-75559D01*
X89649Y-75559D01*
X89630Y-75549D01*
X89621Y-75540D01*
X89855Y-75362D02*
X89874Y-75362D01*
X89893Y-75371D01*
X89902Y-75380D01*
X89912Y-75399D01*
X89921Y-75437D01*
X89921Y-75484D01*
X89912Y-75521D01*
X89902Y-75540D01*
X89893Y-75549D01*
X89874Y-75559D01*
X89855Y-75559D01*
X89837Y-75549D01*
X89827Y-75540D01*
X89818Y-75521D01*
X89809Y-75484D01*
X89809Y-75437D01*
X89818Y-75399D01*
X89827Y-75380D01*
X89837Y-75371D01*
X89855Y-75362D01*
X90006Y-75559D02*
X90006Y-75362D01*
X90118Y-75559D02*
X90034Y-75446D01*
X90118Y-75362D02*
X90006Y-75474D01*
X64487Y-78184D02*
X64421Y-78090D01*
X64374Y-78184D02*
X64374Y-77987D01*
X64449Y-77987D01*
X64468Y-77996D01*
X64477Y-78005D01*
X64487Y-78024D01*
X64487Y-78052D01*
X64477Y-78071D01*
X64468Y-78080D01*
X64449Y-78090D01*
X64374Y-78090D01*
X64656Y-78052D02*
X64656Y-78184D01*
X64609Y-77977D02*
X64562Y-78118D01*
X64684Y-78118D01*
X64374Y-77712D02*
X64280Y-77712D01*
X64271Y-77805D01*
X64280Y-77796D01*
X64299Y-77787D01*
X64346Y-77787D01*
X64365Y-77796D01*
X64374Y-77805D01*
X64383Y-77824D01*
X64383Y-77871D01*
X64374Y-77890D01*
X64365Y-77899D01*
X64346Y-77909D01*
X64299Y-77909D01*
X64280Y-77899D01*
X64271Y-77890D01*
X64505Y-77712D02*
X64524Y-77712D01*
X64543Y-77721D01*
X64552Y-77730D01*
X64562Y-77749D01*
X64571Y-77787D01*
X64571Y-77834D01*
X64562Y-77871D01*
X64552Y-77890D01*
X64543Y-77899D01*
X64524Y-77909D01*
X64505Y-77909D01*
X64487Y-77899D01*
X64477Y-77890D01*
X64468Y-77871D01*
X64459Y-77834D01*
X64459Y-77787D01*
X64468Y-77749D01*
X64477Y-77730D01*
X64487Y-77721D01*
X64505Y-77712D01*
X64656Y-77909D02*
X64656Y-77712D01*
X64768Y-77909D02*
X64684Y-77796D01*
X64768Y-77712D02*
X64656Y-77824D01*
X62124Y-76982D02*
X62030Y-77048D01*
X62124Y-77095D02*
X61927Y-77095D01*
X61927Y-77020D01*
X61936Y-77001D01*
X61945Y-76992D01*
X61964Y-76982D01*
X61992Y-76982D01*
X62011Y-76992D01*
X62020Y-77001D01*
X62030Y-77020D01*
X62030Y-77095D01*
X61927Y-76917D02*
X61927Y-76795D01*
X62002Y-76860D01*
X62002Y-76832D01*
X62011Y-76813D01*
X62020Y-76804D01*
X62039Y-76795D01*
X62086Y-76795D01*
X62105Y-76804D01*
X62114Y-76813D01*
X62124Y-76832D01*
X62124Y-76889D01*
X62114Y-76907D01*
X62105Y-76917D01*
X61652Y-77095D02*
X61652Y-77189D01*
X61745Y-77198D01*
X61736Y-77189D01*
X61727Y-77170D01*
X61727Y-77123D01*
X61736Y-77104D01*
X61745Y-77095D01*
X61764Y-77086D01*
X61811Y-77086D01*
X61830Y-77095D01*
X61839Y-77104D01*
X61849Y-77123D01*
X61849Y-77170D01*
X61839Y-77189D01*
X61830Y-77198D01*
X61652Y-76964D02*
X61652Y-76945D01*
X61661Y-76926D01*
X61670Y-76917D01*
X61689Y-76907D01*
X61727Y-76898D01*
X61774Y-76898D01*
X61811Y-76907D01*
X61830Y-76917D01*
X61839Y-76926D01*
X61849Y-76945D01*
X61849Y-76964D01*
X61839Y-76982D01*
X61830Y-76992D01*
X61811Y-77001D01*
X61774Y-77010D01*
X61727Y-77010D01*
X61689Y-77001D01*
X61670Y-76992D01*
X61661Y-76982D01*
X61652Y-76964D01*
X61849Y-76813D02*
X61652Y-76813D01*
X61849Y-76701D02*
X61736Y-76785D01*
X61652Y-76701D02*
X61764Y-76813D01*
X64527Y-75774D02*
X64461Y-75680D01*
X64414Y-75774D02*
X64414Y-75577D01*
X64489Y-75577D01*
X64508Y-75586D01*
X64517Y-75595D01*
X64527Y-75614D01*
X64527Y-75642D01*
X64517Y-75661D01*
X64508Y-75670D01*
X64489Y-75680D01*
X64414Y-75680D01*
X64714Y-75774D02*
X64602Y-75774D01*
X64658Y-75774D02*
X64658Y-75577D01*
X64639Y-75605D01*
X64620Y-75624D01*
X64602Y-75633D01*
X64414Y-75302D02*
X64320Y-75302D01*
X64311Y-75395D01*
X64320Y-75386D01*
X64339Y-75377D01*
X64386Y-75377D01*
X64405Y-75386D01*
X64414Y-75395D01*
X64423Y-75414D01*
X64423Y-75461D01*
X64414Y-75480D01*
X64405Y-75489D01*
X64386Y-75499D01*
X64339Y-75499D01*
X64320Y-75489D01*
X64311Y-75480D01*
X64545Y-75302D02*
X64564Y-75302D01*
X64583Y-75311D01*
X64592Y-75320D01*
X64602Y-75339D01*
X64611Y-75377D01*
X64611Y-75424D01*
X64602Y-75461D01*
X64592Y-75480D01*
X64583Y-75489D01*
X64564Y-75499D01*
X64545Y-75499D01*
X64527Y-75489D01*
X64517Y-75480D01*
X64508Y-75461D01*
X64499Y-75424D01*
X64499Y-75377D01*
X64508Y-75339D01*
X64517Y-75320D01*
X64527Y-75311D01*
X64545Y-75302D01*
X64696Y-75499D02*
X64696Y-75302D01*
X64808Y-75499D02*
X64724Y-75386D01*
X64808Y-75302D02*
X64696Y-75414D01*
X73581Y-76765D02*
X73590Y-76774D01*
X73599Y-76802D01*
X73599Y-76821D01*
X73590Y-76849D01*
X73571Y-76868D01*
X73553Y-76877D01*
X73515Y-76887D01*
X73487Y-76887D01*
X73449Y-76877D01*
X73431Y-76868D01*
X73412Y-76849D01*
X73402Y-76821D01*
X73402Y-76802D01*
X73412Y-76774D01*
X73421Y-76765D01*
X73599Y-76577D02*
X73599Y-76690D01*
X73599Y-76633D02*
X73402Y-76633D01*
X73431Y-76652D01*
X73449Y-76671D01*
X73459Y-76690D01*
X73324Y-76943D02*
X73324Y-77055D01*
X73324Y-76999D02*
X73127Y-76999D01*
X73156Y-77018D01*
X73174Y-77037D01*
X73184Y-77055D01*
X73127Y-76821D02*
X73127Y-76802D01*
X73137Y-76783D01*
X73146Y-76774D01*
X73165Y-76765D01*
X73202Y-76755D01*
X73249Y-76755D01*
X73287Y-76765D01*
X73306Y-76774D01*
X73315Y-76783D01*
X73324Y-76802D01*
X73324Y-76821D01*
X73315Y-76840D01*
X73306Y-76849D01*
X73287Y-76858D01*
X73249Y-76868D01*
X73202Y-76868D01*
X73165Y-76858D01*
X73146Y-76849D01*
X73137Y-76840D01*
X73127Y-76821D01*
X73193Y-76586D02*
X73324Y-76586D01*
X73193Y-76671D02*
X73296Y-76671D01*
X73315Y-76661D01*
X73324Y-76643D01*
X73324Y-76615D01*
X73315Y-76596D01*
X73306Y-76586D01*
X73221Y-76427D02*
X73221Y-76493D01*
X73324Y-76493D02*
X73127Y-76493D01*
X73127Y-76399D01*
X72733Y-77237D02*
X72733Y-77331D01*
X72536Y-77331D01*
X72733Y-77068D02*
X72733Y-77181D01*
X72733Y-77124D02*
X72536Y-77124D01*
X72564Y-77143D01*
X72583Y-77162D01*
X72593Y-77181D01*
X72327Y-77500D02*
X72458Y-77500D01*
X72252Y-77547D02*
X72393Y-77594D01*
X72393Y-77472D01*
X72440Y-77397D02*
X72449Y-77387D01*
X72458Y-77397D01*
X72449Y-77406D01*
X72440Y-77397D01*
X72458Y-77397D01*
X72261Y-77321D02*
X72261Y-77190D01*
X72458Y-77275D01*
X72327Y-77031D02*
X72458Y-77031D01*
X72327Y-77115D02*
X72430Y-77115D01*
X72449Y-77106D01*
X72458Y-77087D01*
X72458Y-77059D01*
X72449Y-77040D01*
X72440Y-77031D01*
X72458Y-76937D02*
X72261Y-76937D01*
X72355Y-76937D02*
X72355Y-76824D01*
X72458Y-76824D02*
X72261Y-76824D01*
X73825Y-75883D02*
X73759Y-75789D01*
X73712Y-75883D02*
X73712Y-75686D01*
X73787Y-75686D01*
X73806Y-75695D01*
X73816Y-75705D01*
X73825Y-75723D01*
X73825Y-75752D01*
X73816Y-75770D01*
X73806Y-75780D01*
X73787Y-75789D01*
X73712Y-75789D01*
X73994Y-75686D02*
X73956Y-75686D01*
X73938Y-75695D01*
X73928Y-75705D01*
X73909Y-75733D01*
X73900Y-75770D01*
X73900Y-75845D01*
X73909Y-75864D01*
X73919Y-75874D01*
X73938Y-75883D01*
X73975Y-75883D01*
X73994Y-75874D01*
X74003Y-75864D01*
X74013Y-75845D01*
X74013Y-75798D01*
X74003Y-75780D01*
X73994Y-75770D01*
X73975Y-75761D01*
X73938Y-75761D01*
X73919Y-75770D01*
X73909Y-75780D01*
X73900Y-75798D01*
X73515Y-75430D02*
X73525Y-75420D01*
X73544Y-75411D01*
X73590Y-75411D01*
X73609Y-75420D01*
X73619Y-75430D01*
X73628Y-75448D01*
X73628Y-75467D01*
X73619Y-75495D01*
X73506Y-75608D01*
X73628Y-75608D01*
X73750Y-75411D02*
X73769Y-75411D01*
X73787Y-75420D01*
X73797Y-75430D01*
X73806Y-75448D01*
X73816Y-75486D01*
X73816Y-75533D01*
X73806Y-75570D01*
X73797Y-75589D01*
X73787Y-75599D01*
X73769Y-75608D01*
X73750Y-75608D01*
X73731Y-75599D01*
X73722Y-75589D01*
X73712Y-75570D01*
X73703Y-75533D01*
X73703Y-75486D01*
X73712Y-75448D01*
X73722Y-75430D01*
X73731Y-75420D01*
X73750Y-75411D01*
X73938Y-75411D02*
X73956Y-75411D01*
X73975Y-75420D01*
X73984Y-75430D01*
X73994Y-75448D01*
X74003Y-75486D01*
X74003Y-75533D01*
X73994Y-75570D01*
X73984Y-75589D01*
X73975Y-75599D01*
X73956Y-75608D01*
X73938Y-75608D01*
X73919Y-75599D01*
X73909Y-75589D01*
X73900Y-75570D01*
X73891Y-75533D01*
X73891Y-75486D01*
X73900Y-75448D01*
X73909Y-75430D01*
X73919Y-75420D01*
X73938Y-75411D01*
X74088Y-75608D02*
X74088Y-75411D01*
X74200Y-75608D02*
X74116Y-75495D01*
X74200Y-75411D02*
X74088Y-75523D01*
X75282Y-75883D02*
X75216Y-75789D01*
X75169Y-75883D02*
X75169Y-75686D01*
X75244Y-75686D01*
X75263Y-75695D01*
X75272Y-75705D01*
X75282Y-75723D01*
X75282Y-75752D01*
X75272Y-75770D01*
X75263Y-75780D01*
X75244Y-75789D01*
X75169Y-75789D01*
X75460Y-75686D02*
X75366Y-75686D01*
X75357Y-75780D01*
X75366Y-75770D01*
X75385Y-75761D01*
X75432Y-75761D01*
X75450Y-75770D01*
X75460Y-75780D01*
X75469Y-75798D01*
X75469Y-75845D01*
X75460Y-75864D01*
X75450Y-75874D01*
X75432Y-75883D01*
X75385Y-75883D01*
X75366Y-75874D01*
X75357Y-75864D01*
X75085Y-75608D02*
X74972Y-75608D01*
X75028Y-75608D02*
X75028Y-75411D01*
X75010Y-75439D01*
X74991Y-75458D01*
X74972Y-75467D01*
X75150Y-75411D02*
X75272Y-75411D01*
X75207Y-75486D01*
X75235Y-75486D01*
X75253Y-75495D01*
X75263Y-75505D01*
X75272Y-75523D01*
X75272Y-75570D01*
X75263Y-75589D01*
X75253Y-75599D01*
X75235Y-75608D01*
X75178Y-75608D01*
X75160Y-75599D01*
X75150Y-75589D01*
X75394Y-75411D02*
X75413Y-75411D01*
X75432Y-75420D01*
X75441Y-75430D01*
X75450Y-75448D01*
X75460Y-75486D01*
X75460Y-75533D01*
X75450Y-75570D01*
X75441Y-75589D01*
X75432Y-75599D01*
X75413Y-75608D01*
X75394Y-75608D01*
X75375Y-75599D01*
X75366Y-75589D01*
X75357Y-75570D01*
X75347Y-75533D01*
X75347Y-75486D01*
X75357Y-75448D01*
X75366Y-75430D01*
X75375Y-75420D01*
X75394Y-75411D01*
X75544Y-75608D02*
X75544Y-75411D01*
X75657Y-75608D02*
X75572Y-75495D01*
X75657Y-75411D02*
X75544Y-75523D01*
X89057Y-74215D02*
X89047Y-74224D01*
X89019Y-74234D01*
X89000Y-74234D01*
X88972Y-74224D01*
X88953Y-74205D01*
X88944Y-74187D01*
X88935Y-74149D01*
X88935Y-74121D01*
X88944Y-74084D01*
X88953Y-74065D01*
X88972Y-74046D01*
X89000Y-74037D01*
X89019Y-74037D01*
X89047Y-74046D01*
X89057Y-74055D01*
X89235Y-74037D02*
X89141Y-74037D01*
X89132Y-74130D01*
X89141Y-74121D01*
X89160Y-74112D01*
X89207Y-74112D01*
X89226Y-74121D01*
X89235Y-74130D01*
X89244Y-74149D01*
X89244Y-74196D01*
X89235Y-74215D01*
X89226Y-74224D01*
X89207Y-74234D01*
X89160Y-74234D01*
X89141Y-74224D01*
X89132Y-74215D01*
X88728Y-74490D02*
X88738Y-74499D01*
X88728Y-74509D01*
X88719Y-74499D01*
X88728Y-74490D01*
X88728Y-74509D01*
X88860Y-74312D02*
X88878Y-74312D01*
X88897Y-74321D01*
X88907Y-74330D01*
X88916Y-74349D01*
X88925Y-74387D01*
X88925Y-74434D01*
X88916Y-74471D01*
X88907Y-74490D01*
X88897Y-74499D01*
X88878Y-74509D01*
X88860Y-74509D01*
X88841Y-74499D01*
X88832Y-74490D01*
X88822Y-74471D01*
X88813Y-74434D01*
X88813Y-74387D01*
X88822Y-74349D01*
X88832Y-74330D01*
X88841Y-74321D01*
X88860Y-74312D01*
X89113Y-74509D02*
X89000Y-74509D01*
X89057Y-74509D02*
X89057Y-74312D01*
X89038Y-74340D01*
X89019Y-74359D01*
X89000Y-74368D01*
X89282Y-74377D02*
X89282Y-74509D01*
X89197Y-74377D02*
X89197Y-74480D01*
X89207Y-74499D01*
X89226Y-74509D01*
X89254Y-74509D01*
X89272Y-74499D01*
X89282Y-74490D01*
X89441Y-74405D02*
X89376Y-74405D01*
X89376Y-74509D02*
X89376Y-74312D01*
X89469Y-74312D01*
X88187Y-75584D02*
X88121Y-75490D01*
X88074Y-75584D02*
X88074Y-75387D01*
X88149Y-75387D01*
X88168Y-75396D01*
X88177Y-75405D01*
X88187Y-75424D01*
X88187Y-75452D01*
X88177Y-75471D01*
X88168Y-75480D01*
X88149Y-75490D01*
X88074Y-75490D01*
X88280Y-75584D02*
X88318Y-75584D01*
X88337Y-75574D01*
X88346Y-75565D01*
X88365Y-75537D01*
X88374Y-75499D01*
X88374Y-75424D01*
X88365Y-75405D01*
X88356Y-75396D01*
X88337Y-75387D01*
X88299Y-75387D01*
X88280Y-75396D01*
X88271Y-75405D01*
X88262Y-75424D01*
X88262Y-75471D01*
X88271Y-75490D01*
X88280Y-75499D01*
X88299Y-75509D01*
X88337Y-75509D01*
X88356Y-75499D01*
X88365Y-75490D01*
X88374Y-75471D01*
X88083Y-75859D02*
X87971Y-75859D01*
X88027Y-75859D02*
X88027Y-75662D01*
X88008Y-75690D01*
X87990Y-75709D01*
X87971Y-75718D01*
X88205Y-75662D02*
X88224Y-75662D01*
X88243Y-75671D01*
X88252Y-75680D01*
X88262Y-75699D01*
X88271Y-75737D01*
X88271Y-75784D01*
X88262Y-75821D01*
X88252Y-75840D01*
X88243Y-75849D01*
X88224Y-75859D01*
X88205Y-75859D01*
X88187Y-75849D01*
X88177Y-75840D01*
X88168Y-75821D01*
X88159Y-75784D01*
X88159Y-75737D01*
X88168Y-75699D01*
X88177Y-75680D01*
X88187Y-75671D01*
X88205Y-75662D01*
X88356Y-75859D02*
X88356Y-75662D01*
X88468Y-75859D02*
X88384Y-75746D01*
X88468Y-75662D02*
X88356Y-75774D01*
X89037Y-78235D02*
X89027Y-78244D01*
X88999Y-78254D01*
X88980Y-78254D01*
X88952Y-78244D01*
X88933Y-78225D01*
X88924Y-78207D01*
X88915Y-78169D01*
X88915Y-78141D01*
X88924Y-78104D01*
X88933Y-78085D01*
X88952Y-78066D01*
X88980Y-78057D01*
X88999Y-78057D01*
X89027Y-78066D01*
X89037Y-78075D01*
X89206Y-78057D02*
X89168Y-78057D01*
X89149Y-78066D01*
X89140Y-78075D01*
X89121Y-78104D01*
X89112Y-78141D01*
X89112Y-78216D01*
X89121Y-78235D01*
X89130Y-78244D01*
X89149Y-78254D01*
X89187Y-78254D01*
X89206Y-78244D01*
X89215Y-78235D01*
X89224Y-78216D01*
X89224Y-78169D01*
X89215Y-78150D01*
X89206Y-78141D01*
X89187Y-78132D01*
X89149Y-78132D01*
X89130Y-78141D01*
X89121Y-78150D01*
X89112Y-78169D01*
X88708Y-78510D02*
X88718Y-78519D01*
X88708Y-78529D01*
X88699Y-78519D01*
X88708Y-78510D01*
X88708Y-78529D01*
X88840Y-78332D02*
X88858Y-78332D01*
X88877Y-78341D01*
X88887Y-78350D01*
X88896Y-78369D01*
X88905Y-78407D01*
X88905Y-78454D01*
X88896Y-78491D01*
X88887Y-78510D01*
X88877Y-78519D01*
X88858Y-78529D01*
X88840Y-78529D01*
X88821Y-78519D01*
X88812Y-78510D01*
X88802Y-78491D01*
X88793Y-78454D01*
X88793Y-78407D01*
X88802Y-78369D01*
X88812Y-78350D01*
X88821Y-78341D01*
X88840Y-78332D01*
X89093Y-78529D02*
X88980Y-78529D01*
X89037Y-78529D02*
X89037Y-78332D01*
X89018Y-78360D01*
X88999Y-78379D01*
X88980Y-78388D01*
X89262Y-78397D02*
X89262Y-78529D01*
X89177Y-78397D02*
X89177Y-78500D01*
X89187Y-78519D01*
X89206Y-78529D01*
X89234Y-78529D01*
X89252Y-78519D01*
X89262Y-78510D01*
X89421Y-78425D02*
X89356Y-78425D01*
X89356Y-78529D02*
X89356Y-78332D01*
X89449Y-78332D01*
X88133Y-77164D02*
X88067Y-77070D01*
X88020Y-77164D02*
X88020Y-76967D01*
X88095Y-76967D01*
X88114Y-76976D01*
X88123Y-76985D01*
X88133Y-77004D01*
X88133Y-77032D01*
X88123Y-77051D01*
X88114Y-77060D01*
X88095Y-77070D01*
X88020Y-77070D01*
X88320Y-77164D02*
X88208Y-77164D01*
X88264Y-77164D02*
X88264Y-76967D01*
X88245Y-76995D01*
X88227Y-77014D01*
X88208Y-77023D01*
X88396Y-76985D02*
X88405Y-76976D01*
X88424Y-76967D01*
X88471Y-76967D01*
X88489Y-76976D01*
X88499Y-76985D01*
X88508Y-77004D01*
X88508Y-77023D01*
X88499Y-77051D01*
X88386Y-77164D01*
X88508Y-77164D01*
X88123Y-76889D02*
X88011Y-76889D01*
X88067Y-76889D02*
X88067Y-76692D01*
X88048Y-76720D01*
X88030Y-76739D01*
X88011Y-76748D01*
X88245Y-76692D02*
X88264Y-76692D01*
X88283Y-76701D01*
X88292Y-76710D01*
X88302Y-76729D01*
X88311Y-76767D01*
X88311Y-76814D01*
X88302Y-76851D01*
X88292Y-76870D01*
X88283Y-76879D01*
X88264Y-76889D01*
X88245Y-76889D01*
X88227Y-76879D01*
X88217Y-76870D01*
X88208Y-76851D01*
X88199Y-76814D01*
X88199Y-76767D01*
X88208Y-76729D01*
X88217Y-76710D01*
X88227Y-76701D01*
X88245Y-76692D01*
X88396Y-76889D02*
X88396Y-76692D01*
X88508Y-76889D02*
X88424Y-76776D01*
X88508Y-76692D02*
X88396Y-76804D01*
X85784Y-81202D02*
X85691Y-81267D01*
X85784Y-81314D02*
X85587Y-81314D01*
X85587Y-81239D01*
X85597Y-81220D01*
X85606Y-81211D01*
X85625Y-81202D01*
X85653Y-81202D01*
X85672Y-81211D01*
X85681Y-81220D01*
X85691Y-81239D01*
X85691Y-81314D01*
X85587Y-81136D02*
X85587Y-81005D01*
X85784Y-81089D01*
X85312Y-81427D02*
X85312Y-81305D01*
X85388Y-81370D01*
X85388Y-81342D01*
X85397Y-81324D01*
X85406Y-81314D01*
X85425Y-81305D01*
X85472Y-81305D01*
X85491Y-81314D01*
X85500Y-81324D01*
X85509Y-81342D01*
X85509Y-81399D01*
X85500Y-81417D01*
X85491Y-81427D01*
X85312Y-81136D02*
X85312Y-81173D01*
X85322Y-81192D01*
X85331Y-81202D01*
X85359Y-81220D01*
X85397Y-81230D01*
X85472Y-81230D01*
X85491Y-81220D01*
X85500Y-81211D01*
X85509Y-81192D01*
X85509Y-81155D01*
X85500Y-81136D01*
X85491Y-81127D01*
X85472Y-81117D01*
X85425Y-81117D01*
X85406Y-81127D01*
X85397Y-81136D01*
X85388Y-81155D01*
X85388Y-81192D01*
X85397Y-81211D01*
X85406Y-81220D01*
X85425Y-81230D01*
X85509Y-81033D02*
X85312Y-81033D01*
X85509Y-80920D02*
X85397Y-81005D01*
X85312Y-80920D02*
X85425Y-81033D01*
X60203Y-79867D02*
X60137Y-79773D01*
X60090Y-79867D02*
X60090Y-79670D01*
X60165Y-79670D01*
X60184Y-79680D01*
X60194Y-79689D01*
X60203Y-79708D01*
X60203Y-79736D01*
X60194Y-79755D01*
X60184Y-79764D01*
X60165Y-79773D01*
X60090Y-79773D01*
X60315Y-79755D02*
X60297Y-79745D01*
X60287Y-79736D01*
X60278Y-79717D01*
X60278Y-79708D01*
X60287Y-79689D01*
X60297Y-79680D01*
X60315Y-79670D01*
X60353Y-79670D01*
X60372Y-79680D01*
X60381Y-79689D01*
X60391Y-79708D01*
X60391Y-79717D01*
X60381Y-79736D01*
X60372Y-79745D01*
X60353Y-79755D01*
X60315Y-79755D01*
X60297Y-79764D01*
X60287Y-79773D01*
X60278Y-79792D01*
X60278Y-79830D01*
X60287Y-79848D01*
X60297Y-79858D01*
X60315Y-79867D01*
X60353Y-79867D01*
X60372Y-79858D01*
X60381Y-79848D01*
X60391Y-79830D01*
X60391Y-79792D01*
X60381Y-79773D01*
X60372Y-79764D01*
X60353Y-79755D01*
X59978Y-79395D02*
X60100Y-79395D01*
X60034Y-79470D01*
X60062Y-79470D01*
X60081Y-79480D01*
X60090Y-79489D01*
X60100Y-79508D01*
X60100Y-79555D01*
X60090Y-79573D01*
X60081Y-79583D01*
X60062Y-79592D01*
X60006Y-79592D01*
X59987Y-79583D01*
X59978Y-79573D01*
X60269Y-79395D02*
X60231Y-79395D01*
X60212Y-79405D01*
X60203Y-79414D01*
X60184Y-79442D01*
X60175Y-79480D01*
X60175Y-79555D01*
X60184Y-79573D01*
X60194Y-79583D01*
X60212Y-79592D01*
X60250Y-79592D01*
X60269Y-79583D01*
X60278Y-79573D01*
X60287Y-79555D01*
X60287Y-79508D01*
X60278Y-79489D01*
X60269Y-79480D01*
X60250Y-79470D01*
X60212Y-79470D01*
X60194Y-79480D01*
X60184Y-79489D01*
X60175Y-79508D01*
X60372Y-79592D02*
X60372Y-79395D01*
X60484Y-79592D02*
X60400Y-79480D01*
X60484Y-79395D02*
X60372Y-79508D01*
X78165Y-80906D02*
X78175Y-80916D01*
X78184Y-80944D01*
X78184Y-80963D01*
X78175Y-80991D01*
X78156Y-81010D01*
X78137Y-81019D01*
X78099Y-81028D01*
X78071Y-81028D01*
X78034Y-81019D01*
X78015Y-81010D01*
X77996Y-80991D01*
X77987Y-80963D01*
X77987Y-80944D01*
X77996Y-80916D01*
X78006Y-80906D01*
X78053Y-80737D02*
X78184Y-80737D01*
X77978Y-80784D02*
X78118Y-80831D01*
X78118Y-80709D01*
X77384Y-81225D02*
X77384Y-81338D01*
X77384Y-81282D02*
X77187Y-81282D01*
X77215Y-81300D01*
X77234Y-81319D01*
X77243Y-81338D01*
X77206Y-81150D02*
X77196Y-81141D01*
X77187Y-81122D01*
X77187Y-81075D01*
X77196Y-81056D01*
X77206Y-81047D01*
X77224Y-81038D01*
X77243Y-81038D01*
X77271Y-81047D01*
X77384Y-81160D01*
X77384Y-81038D01*
X77365Y-80953D02*
X77375Y-80944D01*
X77384Y-80953D01*
X77375Y-80963D01*
X77365Y-80953D01*
X77384Y-80953D01*
X77187Y-80766D02*
X77187Y-80859D01*
X77281Y-80869D01*
X77271Y-80859D01*
X77262Y-80841D01*
X77262Y-80794D01*
X77271Y-80775D01*
X77281Y-80766D01*
X77299Y-80756D01*
X77346Y-80756D01*
X77365Y-80766D01*
X77375Y-80775D01*
X77384Y-80794D01*
X77384Y-80841D01*
X77375Y-80859D01*
X77365Y-80869D01*
X77253Y-80672D02*
X77450Y-80672D01*
X77262Y-80672D02*
X77253Y-80653D01*
X77253Y-80616D01*
X77262Y-80597D01*
X77271Y-80587D01*
X77290Y-80578D01*
X77346Y-80578D01*
X77365Y-80587D01*
X77375Y-80597D01*
X77384Y-80616D01*
X77384Y-80653D01*
X77375Y-80672D01*
X77281Y-80428D02*
X77281Y-80494D01*
X77384Y-80494D02*
X77187Y-80494D01*
X77187Y-80400D01*
X79310Y-81398D02*
X79319Y-81408D01*
X79329Y-81436D01*
X79329Y-81455D01*
X79319Y-81483D01*
X79301Y-81502D01*
X79282Y-81511D01*
X79244Y-81520D01*
X79216Y-81520D01*
X79179Y-81511D01*
X79160Y-81502D01*
X79141Y-81483D01*
X79132Y-81455D01*
X79132Y-81436D01*
X79141Y-81408D01*
X79151Y-81398D01*
X79151Y-81323D02*
X79141Y-81314D01*
X79132Y-81295D01*
X79132Y-81248D01*
X79141Y-81230D01*
X79151Y-81220D01*
X79169Y-81211D01*
X79188Y-81211D01*
X79216Y-81220D01*
X79329Y-81333D01*
X79329Y-81211D01*
X79329Y-80717D02*
X79329Y-80830D01*
X79329Y-80774D02*
X79132Y-80774D01*
X79160Y-80792D01*
X79179Y-80811D01*
X79188Y-80830D01*
X79151Y-80642D02*
X79141Y-80633D01*
X79132Y-80614D01*
X79132Y-80567D01*
X79141Y-80549D01*
X79151Y-80539D01*
X79169Y-80530D01*
X79188Y-80530D01*
X79216Y-80539D01*
X79329Y-80652D01*
X79329Y-80530D01*
X79310Y-80445D02*
X79319Y-80436D01*
X79329Y-80445D01*
X79319Y-80455D01*
X79310Y-80445D01*
X79329Y-80445D01*
X79132Y-80258D02*
X79132Y-80352D01*
X79226Y-80361D01*
X79216Y-80352D01*
X79207Y-80333D01*
X79207Y-80286D01*
X79216Y-80267D01*
X79226Y-80258D01*
X79244Y-80248D01*
X79291Y-80248D01*
X79310Y-80258D01*
X79319Y-80267D01*
X79329Y-80286D01*
X79329Y-80333D01*
X79319Y-80352D01*
X79310Y-80361D01*
X79197Y-80164D02*
X79394Y-80164D01*
X79207Y-80164D02*
X79197Y-80145D01*
X79197Y-80108D01*
X79207Y-80089D01*
X79216Y-80080D01*
X79235Y-80070D01*
X79291Y-80070D01*
X79310Y-80080D01*
X79319Y-80089D01*
X79329Y-80108D01*
X79329Y-80145D01*
X79319Y-80164D01*
X79226Y-79920D02*
X79226Y-79986D01*
X79329Y-79986D02*
X79132Y-79986D01*
X79132Y-79892D01*
X68760Y-73354D02*
X68666Y-73419D01*
X68760Y-73466D02*
X68563Y-73466D01*
X68563Y-73391D01*
X68572Y-73372D01*
X68581Y-73363D01*
X68600Y-73354D01*
X68628Y-73354D01*
X68647Y-73363D01*
X68656Y-73372D01*
X68666Y-73391D01*
X68666Y-73466D01*
X68760Y-73166D02*
X68760Y-73279D01*
X68760Y-73222D02*
X68563Y-73222D01*
X68591Y-73241D01*
X68610Y-73260D01*
X68619Y-73279D01*
X68628Y-72997D02*
X68760Y-72997D01*
X68553Y-73044D02*
X68694Y-73091D01*
X68694Y-72969D01*
X68856Y-73471D02*
X68847Y-73462D01*
X68838Y-73443D01*
X68838Y-73396D01*
X68847Y-73377D01*
X68856Y-73368D01*
X68875Y-73358D01*
X68894Y-73358D01*
X68922Y-73368D01*
X69035Y-73480D01*
X69035Y-73358D01*
X68856Y-73283D02*
X68847Y-73274D01*
X68838Y-73255D01*
X68838Y-73208D01*
X68847Y-73190D01*
X68856Y-73180D01*
X68875Y-73171D01*
X68894Y-73171D01*
X68922Y-73180D01*
X69035Y-73293D01*
X69035Y-73171D01*
X68838Y-73049D02*
X68838Y-73030D01*
X68847Y-73011D01*
X68856Y-73002D01*
X68875Y-72993D01*
X68913Y-72983D01*
X68960Y-72983D01*
X68997Y-72993D01*
X69016Y-73002D01*
X69025Y-73011D01*
X69035Y-73030D01*
X69035Y-73049D01*
X69025Y-73068D01*
X69016Y-73077D01*
X68997Y-73086D01*
X68960Y-73096D01*
X68913Y-73096D01*
X68875Y-73086D01*
X68856Y-73077D01*
X68847Y-73068D01*
X68838Y-73049D01*
X88712Y-73196D02*
X88619Y-73262D01*
X88712Y-73309D02*
X88515Y-73309D01*
X88515Y-73234D01*
X88525Y-73215D01*
X88534Y-73206D01*
X88553Y-73196D01*
X88581Y-73196D01*
X88600Y-73206D01*
X88609Y-73215D01*
X88619Y-73234D01*
X88619Y-73309D01*
X88712Y-73009D02*
X88712Y-73121D01*
X88712Y-73065D02*
X88515Y-73065D01*
X88544Y-73084D01*
X88562Y-73102D01*
X88572Y-73121D01*
X88515Y-72830D02*
X88515Y-72924D01*
X88609Y-72934D01*
X88600Y-72924D01*
X88590Y-72905D01*
X88590Y-72859D01*
X88600Y-72840D01*
X88609Y-72830D01*
X88628Y-72821D01*
X88675Y-72821D01*
X88694Y-72830D01*
X88703Y-72840D01*
X88712Y-72859D01*
X88712Y-72905D01*
X88703Y-72924D01*
X88694Y-72934D01*
X88809Y-73313D02*
X88800Y-73304D01*
X88790Y-73285D01*
X88790Y-73238D01*
X88800Y-73220D01*
X88809Y-73210D01*
X88828Y-73201D01*
X88847Y-73201D01*
X88875Y-73210D01*
X88987Y-73323D01*
X88987Y-73201D01*
X88809Y-73126D02*
X88800Y-73116D01*
X88790Y-73098D01*
X88790Y-73051D01*
X88800Y-73032D01*
X88809Y-73023D01*
X88828Y-73013D01*
X88847Y-73013D01*
X88875Y-73023D01*
X88987Y-73135D01*
X88987Y-73013D01*
X88790Y-72891D02*
X88790Y-72873D01*
X88800Y-72854D01*
X88809Y-72844D01*
X88828Y-72835D01*
X88865Y-72826D01*
X88912Y-72826D01*
X88950Y-72835D01*
X88969Y-72844D01*
X88978Y-72854D01*
X88987Y-72873D01*
X88987Y-72891D01*
X88978Y-72910D01*
X88969Y-72919D01*
X88950Y-72929D01*
X88912Y-72938D01*
X88865Y-72938D01*
X88828Y-72929D01*
X88809Y-72919D01*
X88800Y-72910D01*
X88790Y-72891D01*
G54D19*
X75169Y-77256D02*
X75412Y-77256D01*
X75441Y-77241D01*
X75455Y-77227D01*
X75469Y-77198D01*
X75469Y-77141D01*
X75455Y-77113D01*
X75441Y-77098D01*
X75412Y-77084D01*
X75169Y-77084D01*
X75469Y-76784D02*
X75469Y-76956D01*
X75469Y-76870D02*
X75169Y-76870D01*
X75212Y-76898D01*
X75241Y-76927D01*
X75255Y-76956D01*
X73934Y-77116D02*
X73934Y-76919D01*
X74000Y-77060D01*
X74065Y-76919D01*
X74065Y-77116D01*
X74272Y-77097D02*
X74262Y-77107D01*
X74234Y-77116D01*
X74215Y-77116D01*
X74187Y-77107D01*
X74168Y-77088D01*
X74159Y-77069D01*
X74150Y-77032D01*
X74150Y-77004D01*
X74159Y-76966D01*
X74168Y-76947D01*
X74187Y-76929D01*
X74215Y-76919D01*
X74234Y-76919D01*
X74262Y-76929D01*
X74272Y-76938D01*
X74356Y-77116D02*
X74356Y-76919D01*
X74431Y-76919D01*
X74450Y-76929D01*
X74459Y-76938D01*
X74469Y-76957D01*
X74469Y-76985D01*
X74459Y-77004D01*
X74450Y-77013D01*
X74431Y-77022D01*
X74356Y-77022D01*
X74656Y-77116D02*
X74544Y-77116D01*
X74600Y-77116D02*
X74600Y-76919D01*
X74581Y-76947D01*
X74562Y-76966D01*
X74544Y-76975D01*
X74825Y-76919D02*
X74788Y-76919D01*
X74769Y-76929D01*
X74759Y-76938D01*
X74741Y-76966D01*
X74731Y-77004D01*
X74731Y-77079D01*
X74741Y-77097D01*
X74750Y-77107D01*
X74769Y-77116D01*
X74806Y-77116D01*
X74825Y-77107D01*
X74834Y-77097D01*
X74844Y-77079D01*
X74844Y-77032D01*
X74834Y-77013D01*
X74825Y-77004D01*
X74806Y-76994D01*
X74769Y-76994D01*
X74750Y-77004D01*
X74741Y-77013D01*
X74731Y-77032D01*
X74919Y-76938D02*
X74928Y-76929D01*
X74947Y-76919D01*
X74994Y-76919D01*
X75013Y-76929D01*
X75022Y-76938D01*
X75031Y-76957D01*
X75031Y-76975D01*
X75022Y-77004D01*
X74909Y-77116D01*
X75031Y-77116D01*
X75200Y-76985D02*
X75200Y-77116D01*
X75153Y-76910D02*
X75106Y-77051D01*
X75228Y-77051D01*
G54D17*
X60492Y-76327D02*
X60463Y-76313D01*
X60435Y-76284D01*
X60392Y-76241D01*
X60363Y-76227D01*
X60335Y-76227D01*
X60349Y-76298D02*
X60321Y-76284D01*
X60292Y-76255D01*
X60278Y-76198D01*
X60278Y-76098D01*
X60292Y-76041D01*
X60321Y-76013D01*
X60349Y-75998D01*
X60406Y-75998D01*
X60435Y-76013D01*
X60463Y-76041D01*
X60478Y-76098D01*
X60478Y-76198D01*
X60463Y-76255D01*
X60435Y-76284D01*
X60406Y-76298D01*
X60349Y-76298D01*
X60592Y-76027D02*
X60606Y-76013D01*
X60635Y-75998D01*
X60706Y-75998D01*
X60735Y-76013D01*
X60749Y-76027D01*
X60763Y-76055D01*
X60763Y-76084D01*
X60749Y-76127D01*
X60578Y-76298D01*
X60763Y-76298D01*
G54D13*
X60545Y-77259D02*
X60545Y-77325D01*
X60649Y-77325D02*
X60452Y-77325D01*
X60452Y-77231D01*
X60545Y-77156D02*
X60545Y-77090D01*
X60649Y-77062D02*
X60649Y-77156D01*
X60452Y-77156D01*
X60452Y-77062D01*
X60452Y-77006D02*
X60452Y-76893D01*
X60649Y-76950D02*
X60452Y-76950D01*
X60667Y-76874D02*
X60667Y-76724D01*
X60649Y-76677D02*
X60452Y-76677D01*
X60452Y-76602D01*
X60461Y-76584D01*
X60470Y-76574D01*
X60489Y-76565D01*
X60517Y-76565D01*
X60536Y-76574D01*
X60545Y-76584D01*
X60555Y-76602D01*
X60555Y-76677D01*
G54D20*
X55173Y-79842D02*
X55205Y-79781D01*
X55205Y-79679D01*
X55173Y-79638D01*
X55140Y-79618D01*
X55075Y-79597D01*
X55011Y-79597D01*
X54946Y-79618D01*
X54913Y-79638D01*
X54881Y-79679D01*
X54848Y-79760D01*
X54816Y-79801D01*
X54784Y-79821D01*
X54719Y-79842D01*
X54654Y-79842D01*
X54589Y-79821D01*
X54557Y-79801D01*
X54524Y-79760D01*
X54524Y-79658D01*
X54557Y-79597D01*
X54524Y-79455D02*
X55205Y-79353D01*
X54719Y-79271D01*
X55205Y-79190D01*
X54524Y-79088D01*
X55205Y-78700D02*
X55205Y-78945D01*
X55205Y-78823D02*
X54524Y-78823D01*
X54621Y-78864D01*
X54686Y-78904D01*
X54719Y-78945D01*
G54D15*
G54D20*
X70734Y-71908D02*
X70734Y-71227D01*
X70836Y-71227D01*
X70897Y-71259D01*
X70937Y-71324D01*
X70958Y-71389D01*
X70978Y-71518D01*
X70978Y-71616D01*
X70958Y-71745D01*
X70937Y-71810D01*
X70897Y-71875D01*
X70836Y-71908D01*
X70734Y-71908D01*
X71141Y-71291D02*
X71162Y-71259D01*
X71202Y-71227D01*
X71304Y-71227D01*
X71345Y-71259D01*
X71365Y-71291D01*
X71386Y-71356D01*
X71386Y-71421D01*
X71365Y-71518D01*
X71121Y-71908D01*
X71386Y-71908D01*
G54D15*
G54D20*
X90584Y-71808D02*
X90584Y-71127D01*
X90686Y-71127D01*
X90747Y-71159D01*
X90787Y-71224D01*
X90808Y-71289D01*
X90828Y-71418D01*
X90828Y-71516D01*
X90808Y-71645D01*
X90787Y-71710D01*
X90747Y-71775D01*
X90686Y-71808D01*
X90584Y-71808D01*
X90971Y-71127D02*
X91236Y-71127D01*
X91093Y-71386D01*
X91154Y-71386D01*
X91195Y-71418D01*
X91215Y-71451D01*
X91236Y-71516D01*
X91236Y-71678D01*
X91215Y-71743D01*
X91195Y-71775D01*
X91154Y-71808D01*
X91032Y-71808D01*
X90991Y-71775D01*
X90971Y-71743D01*
G54D15*
G54D20*
X76609Y-71675D02*
X76671Y-71708D01*
X76772Y-71708D01*
X76813Y-71675D01*
X76834Y-71643D01*
X76854Y-71578D01*
X76854Y-71513D01*
X76834Y-71448D01*
X76813Y-71416D01*
X76772Y-71383D01*
X76691Y-71351D01*
X76650Y-71318D01*
X76630Y-71286D01*
X76609Y-71221D01*
X76609Y-71156D01*
X76630Y-71091D01*
X76650Y-71059D01*
X76691Y-71027D01*
X76793Y-71027D01*
X76854Y-71059D01*
X77037Y-71708D02*
X77037Y-71027D01*
X77200Y-71027D01*
X77241Y-71059D01*
X77262Y-71091D01*
X77282Y-71156D01*
X77282Y-71254D01*
X77262Y-71318D01*
X77241Y-71351D01*
X77200Y-71383D01*
X77037Y-71383D01*
X77690Y-71708D02*
X77445Y-71708D01*
X77567Y-71708D02*
X77567Y-71027D01*
X77527Y-71124D01*
X77486Y-71189D01*
X77445Y-71221D01*
G54D15*
G54D20*
X77758Y-74191D02*
X77758Y-73510D01*
X77860Y-73510D01*
X77921Y-73542D01*
X77962Y-73607D01*
X77983Y-73672D01*
X78003Y-73802D01*
X78003Y-73899D01*
X77983Y-74029D01*
X77962Y-74094D01*
X77921Y-74159D01*
X77860Y-74191D01*
X77758Y-74191D01*
X78411Y-74191D02*
X78166Y-74191D01*
X78288Y-74191D02*
X78288Y-73510D01*
X78248Y-73607D01*
X78207Y-73672D01*
X78166Y-73705D01*
G54D15*
G54D10*
X77309Y-78854D02*
X77572Y-79248D01*
X77572Y-78854D02*
X77309Y-79248D01*
X77928Y-79248D02*
X77703Y-79248D01*
X77815Y-79248D02*
X77815Y-78854D01*
X77778Y-78910D01*
X77740Y-78948D01*
X77703Y-78966D01*
X73813Y-79810D02*
X73794Y-79829D01*
X73738Y-79848D01*
X73700Y-79848D01*
X73644Y-79829D01*
X73606Y-79791D01*
X73588Y-79754D01*
X73569Y-79679D01*
X73569Y-79623D01*
X73588Y-79548D01*
X73606Y-79510D01*
X73644Y-79473D01*
X73700Y-79454D01*
X73738Y-79454D01*
X73794Y-79473D01*
X73813Y-79491D01*
X74206Y-79848D02*
X74075Y-79660D01*
X73981Y-79848D02*
X73981Y-79454D01*
X74131Y-79454D01*
X74169Y-79473D01*
X74188Y-79491D01*
X74206Y-79529D01*
X74206Y-79585D01*
X74188Y-79623D01*
X74169Y-79641D01*
X74131Y-79660D01*
X73981Y-79660D01*
X74450Y-79660D02*
X74450Y-79848D01*
X74319Y-79454D02*
X74450Y-79660D01*
X74581Y-79454D01*
X74694Y-79829D02*
X74750Y-79848D01*
X74844Y-79848D01*
X74881Y-79829D01*
X74900Y-79810D01*
X74919Y-79773D01*
X74919Y-79735D01*
X74900Y-79698D01*
X74881Y-79679D01*
X74844Y-79660D01*
X74769Y-79641D01*
X74731Y-79623D01*
X74712Y-79604D01*
X74694Y-79566D01*
X74694Y-79529D01*
X74712Y-79491D01*
X74731Y-79473D01*
X74769Y-79454D01*
X74862Y-79454D01*
X74919Y-79473D01*
X75031Y-79454D02*
X75256Y-79454D01*
X75144Y-79848D02*
X75144Y-79454D01*
X75369Y-79735D02*
X75556Y-79735D01*
X75331Y-79848D02*
X75462Y-79454D01*
X75594Y-79848D01*
X75912Y-79848D02*
X75725Y-79848D01*
X75725Y-79454D01*
X76306Y-79454D02*
X76550Y-79454D01*
X76418Y-79604D01*
X76475Y-79604D01*
X76512Y-79623D01*
X76531Y-79641D01*
X76550Y-79679D01*
X76550Y-79773D01*
X76531Y-79810D01*
X76512Y-79829D01*
X76475Y-79848D01*
X76362Y-79848D01*
X76325Y-79829D01*
X76306Y-79810D01*
X76700Y-79491D02*
X76718Y-79473D01*
X76756Y-79454D01*
X76850Y-79454D01*
X76887Y-79473D01*
X76906Y-79491D01*
X76925Y-79529D01*
X76925Y-79566D01*
X76906Y-79623D01*
X76681Y-79848D01*
X76925Y-79848D01*
X77093Y-79810D02*
X77112Y-79829D01*
X77093Y-79848D01*
X77075Y-79829D01*
X77093Y-79810D01*
X77093Y-79848D01*
X77243Y-79454D02*
X77506Y-79454D01*
X77337Y-79848D01*
X77825Y-79454D02*
X77750Y-79454D01*
X77712Y-79473D01*
X77693Y-79491D01*
X77656Y-79548D01*
X77637Y-79623D01*
X77637Y-79773D01*
X77656Y-79810D01*
X77675Y-79829D01*
X77712Y-79848D01*
X77787Y-79848D01*
X77825Y-79829D01*
X77843Y-79810D01*
X77862Y-79773D01*
X77862Y-79679D01*
X77843Y-79641D01*
X77825Y-79623D01*
X77787Y-79604D01*
X77712Y-79604D01*
X77675Y-79623D01*
X77656Y-79641D01*
X77637Y-79679D01*
X78087Y-79623D02*
X78050Y-79604D01*
X78031Y-79585D01*
X78012Y-79548D01*
X78012Y-79529D01*
X78031Y-79491D01*
X78050Y-79473D01*
X78087Y-79454D01*
X78162Y-79454D01*
X78200Y-79473D01*
X78218Y-79491D01*
X78237Y-79529D01*
X78237Y-79548D01*
X78218Y-79585D01*
X78200Y-79604D01*
X78162Y-79623D01*
X78087Y-79623D01*
X78050Y-79641D01*
X78031Y-79660D01*
X78012Y-79698D01*
X78012Y-79773D01*
X78031Y-79810D01*
X78050Y-79829D01*
X78087Y-79848D01*
X78162Y-79848D01*
X78200Y-79829D01*
X78218Y-79810D01*
X78237Y-79773D01*
X78237Y-79698D01*
X78218Y-79660D01*
X78200Y-79641D01*
X78162Y-79623D01*
X78406Y-79848D02*
X78406Y-79454D01*
X78443Y-79698D02*
X78556Y-79848D01*
X78556Y-79585D02*
X78406Y-79735D01*
X78724Y-79848D02*
X78724Y-79454D01*
X78724Y-79641D02*
X78949Y-79641D01*
X78949Y-79848D02*
X78949Y-79454D01*
X79099Y-79585D02*
X79306Y-79585D01*
X79099Y-79848D01*
X79306Y-79848D01*
X90226Y-81723D02*
X90226Y-81329D01*
X90320Y-81329D01*
X90376Y-81348D01*
X90414Y-81385D01*
X90432Y-81423D01*
X90451Y-81498D01*
X90451Y-81554D01*
X90432Y-81629D01*
X90414Y-81667D01*
X90376Y-81704D01*
X90320Y-81723D01*
X90226Y-81723D01*
X90601Y-81704D02*
X90657Y-81723D01*
X90751Y-81723D01*
X90789Y-81704D01*
X90807Y-81685D01*
X90826Y-81648D01*
X90826Y-81610D01*
X90807Y-81573D01*
X90789Y-81554D01*
X90751Y-81535D01*
X90676Y-81517D01*
X90639Y-81498D01*
X90620Y-81479D01*
X90601Y-81442D01*
X90601Y-81404D01*
X90620Y-81367D01*
X90639Y-81348D01*
X90676Y-81329D01*
X90770Y-81329D01*
X90826Y-81348D01*
X91201Y-81723D02*
X90976Y-81723D01*
X91089Y-81723D02*
X91089Y-81329D01*
X91051Y-81385D01*
X91014Y-81423D01*
X90976Y-81442D01*
X62226Y-81723D02*
X62226Y-81329D01*
X62320Y-81329D01*
X62376Y-81348D01*
X62414Y-81385D01*
X62432Y-81423D01*
X62451Y-81498D01*
X62451Y-81554D01*
X62432Y-81629D01*
X62414Y-81667D01*
X62376Y-81704D01*
X62320Y-81723D01*
X62226Y-81723D01*
X62601Y-81704D02*
X62657Y-81723D01*
X62751Y-81723D01*
X62789Y-81704D01*
X62807Y-81685D01*
X62826Y-81648D01*
X62826Y-81610D01*
X62807Y-81573D01*
X62789Y-81554D01*
X62751Y-81535D01*
X62676Y-81517D01*
X62639Y-81498D01*
X62620Y-81479D01*
X62601Y-81442D01*
X62601Y-81404D01*
X62620Y-81367D01*
X62639Y-81348D01*
X62676Y-81329D01*
X62770Y-81329D01*
X62826Y-81348D01*
X62976Y-81367D02*
X62995Y-81348D01*
X63032Y-81329D01*
X63126Y-81329D01*
X63164Y-81348D01*
X63182Y-81367D01*
X63201Y-81404D01*
X63201Y-81442D01*
X63182Y-81498D01*
X62957Y-81723D01*
X63201Y-81723D01*
X61440Y-88723D02*
X61496Y-88742D01*
X61515Y-88761D01*
X61534Y-88798D01*
X61534Y-88855D01*
X61515Y-88892D01*
X61496Y-88911D01*
X61459Y-88930D01*
X61309Y-88930D01*
X61309Y-88536D01*
X61440Y-88536D01*
X61478Y-88555D01*
X61496Y-88573D01*
X61515Y-88611D01*
X61515Y-88648D01*
X61496Y-88686D01*
X61478Y-88705D01*
X61440Y-88723D01*
X61309Y-88723D01*
X61646Y-88536D02*
X61871Y-88536D01*
X61759Y-88930D02*
X61759Y-88536D01*
X62209Y-88930D02*
X61984Y-88930D01*
X62096Y-88930D02*
X62096Y-88536D01*
X62059Y-88592D01*
X62021Y-88630D01*
X61984Y-88648D01*
X56218Y-88723D02*
X56275Y-88742D01*
X56293Y-88761D01*
X56312Y-88798D01*
X56312Y-88855D01*
X56293Y-88892D01*
X56275Y-88911D01*
X56237Y-88930D01*
X56087Y-88930D01*
X56087Y-88536D01*
X56218Y-88536D01*
X56256Y-88555D01*
X56275Y-88573D01*
X56293Y-88611D01*
X56293Y-88648D01*
X56275Y-88686D01*
X56256Y-88705D01*
X56218Y-88723D01*
X56087Y-88723D01*
X56462Y-88817D02*
X56650Y-88817D01*
X56425Y-88930D02*
X56556Y-88536D01*
X56687Y-88930D01*
X56762Y-88536D02*
X56987Y-88536D01*
X56875Y-88930D02*
X56875Y-88536D01*
X57062Y-88536D02*
X57287Y-88536D01*
X57175Y-88930D02*
X57175Y-88536D01*
X57418Y-88723D02*
X57550Y-88723D01*
X57606Y-88930D02*
X57418Y-88930D01*
X57418Y-88536D01*
X57606Y-88536D01*
X58000Y-88930D02*
X57868Y-88742D01*
X57775Y-88930D02*
X57775Y-88536D01*
X57925Y-88536D01*
X57962Y-88555D01*
X57981Y-88573D01*
X58000Y-88611D01*
X58000Y-88667D01*
X57981Y-88705D01*
X57962Y-88723D01*
X57925Y-88742D01*
X57775Y-88742D01*
X58243Y-88742D02*
X58243Y-88930D01*
X58112Y-88536D02*
X58243Y-88742D01*
X58374Y-88536D01*
X58412Y-88967D02*
X58712Y-88967D01*
X59031Y-88892D02*
X59012Y-88911D01*
X58956Y-88930D01*
X58918Y-88930D01*
X58862Y-88911D01*
X58824Y-88873D01*
X58806Y-88836D01*
X58787Y-88761D01*
X58787Y-88705D01*
X58806Y-88630D01*
X58824Y-88592D01*
X58862Y-88555D01*
X58918Y-88536D01*
X58956Y-88536D01*
X59012Y-88555D01*
X59031Y-88573D01*
X59387Y-88930D02*
X59199Y-88930D01*
X59199Y-88536D01*
X59518Y-88930D02*
X59518Y-88536D01*
X59706Y-88930D02*
X59706Y-88536D01*
X59856Y-88536D01*
X59893Y-88555D01*
X59912Y-88573D01*
X59931Y-88611D01*
X59931Y-88667D01*
X59912Y-88705D01*
X59893Y-88723D01*
X59856Y-88742D01*
X59706Y-88742D01*
X95690Y-85223D02*
X95746Y-85242D01*
X95765Y-85261D01*
X95784Y-85298D01*
X95784Y-85355D01*
X95765Y-85392D01*
X95746Y-85411D01*
X95709Y-85430D01*
X95559Y-85430D01*
X95559Y-85036D01*
X95690Y-85036D01*
X95728Y-85055D01*
X95746Y-85073D01*
X95765Y-85111D01*
X95765Y-85148D01*
X95746Y-85186D01*
X95728Y-85205D01*
X95690Y-85223D01*
X95559Y-85223D01*
X95896Y-85036D02*
X96121Y-85036D01*
X96009Y-85430D02*
X96009Y-85036D01*
X96421Y-85167D02*
X96421Y-85430D01*
X96328Y-85017D02*
X96234Y-85298D01*
X96478Y-85298D01*
X97968Y-85223D02*
X98025Y-85242D01*
X98043Y-85261D01*
X98062Y-85298D01*
X98062Y-85355D01*
X98043Y-85392D01*
X98025Y-85411D01*
X97987Y-85430D01*
X97837Y-85430D01*
X97837Y-85036D01*
X97968Y-85036D01*
X98006Y-85055D01*
X98025Y-85073D01*
X98043Y-85111D01*
X98043Y-85148D01*
X98025Y-85186D01*
X98006Y-85205D01*
X97968Y-85223D01*
X97837Y-85223D01*
X98212Y-85317D02*
X98400Y-85317D01*
X98175Y-85430D02*
X98306Y-85036D01*
X98437Y-85430D01*
X98512Y-85036D02*
X98737Y-85036D01*
X98625Y-85430D02*
X98625Y-85036D01*
X98812Y-85036D02*
X99037Y-85036D01*
X98925Y-85430D02*
X98925Y-85036D01*
X99168Y-85223D02*
X99300Y-85223D01*
X99356Y-85430D02*
X99168Y-85430D01*
X99168Y-85036D01*
X99356Y-85036D01*
X99750Y-85430D02*
X99618Y-85242D01*
X99525Y-85430D02*
X99525Y-85036D01*
X99675Y-85036D01*
X99712Y-85055D01*
X99731Y-85073D01*
X99750Y-85111D01*
X99750Y-85167D01*
X99731Y-85205D01*
X99712Y-85223D01*
X99675Y-85242D01*
X99525Y-85242D01*
X99993Y-85242D02*
X99993Y-85430D01*
X99862Y-85036D02*
X99993Y-85242D01*
X100124Y-85036D01*
X100162Y-85467D02*
X100462Y-85467D01*
X100781Y-85392D02*
X100762Y-85411D01*
X100706Y-85430D01*
X100668Y-85430D01*
X100612Y-85411D01*
X100574Y-85373D01*
X100556Y-85336D01*
X100537Y-85261D01*
X100537Y-85205D01*
X100556Y-85130D01*
X100574Y-85092D01*
X100612Y-85055D01*
X100668Y-85036D01*
X100706Y-85036D01*
X100762Y-85055D01*
X100781Y-85073D01*
X101137Y-85430D02*
X100949Y-85430D01*
X100949Y-85036D01*
X101268Y-85430D02*
X101268Y-85036D01*
X101456Y-85430D02*
X101456Y-85036D01*
X101606Y-85036D01*
X101643Y-85055D01*
X101662Y-85073D01*
X101681Y-85111D01*
X101681Y-85167D01*
X101662Y-85205D01*
X101643Y-85223D01*
X101606Y-85242D01*
X101456Y-85242D01*
X87940Y-88723D02*
X87996Y-88742D01*
X88015Y-88761D01*
X88034Y-88798D01*
X88034Y-88855D01*
X88015Y-88892D01*
X87996Y-88911D01*
X87959Y-88930D01*
X87809Y-88930D01*
X87809Y-88536D01*
X87940Y-88536D01*
X87978Y-88555D01*
X87996Y-88573D01*
X88015Y-88611D01*
X88015Y-88648D01*
X87996Y-88686D01*
X87978Y-88705D01*
X87940Y-88723D01*
X87809Y-88723D01*
X88146Y-88536D02*
X88371Y-88536D01*
X88259Y-88930D02*
X88259Y-88536D01*
X88465Y-88536D02*
X88709Y-88536D01*
X88578Y-88686D01*
X88634Y-88686D01*
X88671Y-88705D01*
X88690Y-88723D01*
X88709Y-88761D01*
X88709Y-88855D01*
X88690Y-88892D01*
X88671Y-88911D01*
X88634Y-88930D01*
X88521Y-88930D01*
X88484Y-88911D01*
X88465Y-88892D01*
X82718Y-88723D02*
X82775Y-88742D01*
X82793Y-88761D01*
X82812Y-88798D01*
X82812Y-88855D01*
X82793Y-88892D01*
X82775Y-88911D01*
X82737Y-88930D01*
X82587Y-88930D01*
X82587Y-88536D01*
X82718Y-88536D01*
X82756Y-88555D01*
X82775Y-88573D01*
X82793Y-88611D01*
X82793Y-88648D01*
X82775Y-88686D01*
X82756Y-88705D01*
X82718Y-88723D01*
X82587Y-88723D01*
X82962Y-88817D02*
X83150Y-88817D01*
X82925Y-88930D02*
X83056Y-88536D01*
X83187Y-88930D01*
X83262Y-88536D02*
X83487Y-88536D01*
X83375Y-88930D02*
X83375Y-88536D01*
X83562Y-88536D02*
X83787Y-88536D01*
X83675Y-88930D02*
X83675Y-88536D01*
X83918Y-88723D02*
X84050Y-88723D01*
X84106Y-88930D02*
X83918Y-88930D01*
X83918Y-88536D01*
X84106Y-88536D01*
X84500Y-88930D02*
X84368Y-88742D01*
X84275Y-88930D02*
X84275Y-88536D01*
X84425Y-88536D01*
X84462Y-88555D01*
X84481Y-88573D01*
X84500Y-88611D01*
X84500Y-88667D01*
X84481Y-88705D01*
X84462Y-88723D01*
X84425Y-88742D01*
X84275Y-88742D01*
X84743Y-88742D02*
X84743Y-88930D01*
X84612Y-88536D02*
X84743Y-88742D01*
X84874Y-88536D01*
X84912Y-88967D02*
X85212Y-88967D01*
X85531Y-88892D02*
X85512Y-88911D01*
X85456Y-88930D01*
X85418Y-88930D01*
X85362Y-88911D01*
X85324Y-88873D01*
X85306Y-88836D01*
X85287Y-88761D01*
X85287Y-88705D01*
X85306Y-88630D01*
X85324Y-88592D01*
X85362Y-88555D01*
X85418Y-88536D01*
X85456Y-88536D01*
X85512Y-88555D01*
X85531Y-88573D01*
X85887Y-88930D02*
X85699Y-88930D01*
X85699Y-88536D01*
X86018Y-88930D02*
X86018Y-88536D01*
X86206Y-88930D02*
X86206Y-88536D01*
X86356Y-88536D01*
X86393Y-88555D01*
X86412Y-88573D01*
X86431Y-88611D01*
X86431Y-88667D01*
X86412Y-88705D01*
X86393Y-88723D01*
X86356Y-88742D01*
X86206Y-88742D01*
X69690Y-85223D02*
X69746Y-85242D01*
X69765Y-85261D01*
X69784Y-85298D01*
X69784Y-85355D01*
X69765Y-85392D01*
X69746Y-85411D01*
X69709Y-85430D01*
X69559Y-85430D01*
X69559Y-85036D01*
X69690Y-85036D01*
X69728Y-85055D01*
X69746Y-85073D01*
X69765Y-85111D01*
X69765Y-85148D01*
X69746Y-85186D01*
X69728Y-85205D01*
X69690Y-85223D01*
X69559Y-85223D01*
X69896Y-85036D02*
X70121Y-85036D01*
X70009Y-85430D02*
X70009Y-85036D01*
X70234Y-85073D02*
X70253Y-85055D01*
X70290Y-85036D01*
X70384Y-85036D01*
X70421Y-85055D01*
X70440Y-85073D01*
X70459Y-85111D01*
X70459Y-85148D01*
X70440Y-85205D01*
X70215Y-85430D01*
X70459Y-85430D01*
X71968Y-85223D02*
X72025Y-85242D01*
X72043Y-85261D01*
X72062Y-85298D01*
X72062Y-85355D01*
X72043Y-85392D01*
X72025Y-85411D01*
X71987Y-85430D01*
X71837Y-85430D01*
X71837Y-85036D01*
X71968Y-85036D01*
X72006Y-85055D01*
X72025Y-85073D01*
X72043Y-85111D01*
X72043Y-85148D01*
X72025Y-85186D01*
X72006Y-85205D01*
X71968Y-85223D01*
X71837Y-85223D01*
X72212Y-85317D02*
X72400Y-85317D01*
X72175Y-85430D02*
X72306Y-85036D01*
X72437Y-85430D01*
X72512Y-85036D02*
X72737Y-85036D01*
X72625Y-85430D02*
X72625Y-85036D01*
X72812Y-85036D02*
X73037Y-85036D01*
X72925Y-85430D02*
X72925Y-85036D01*
X73168Y-85223D02*
X73300Y-85223D01*
X73356Y-85430D02*
X73168Y-85430D01*
X73168Y-85036D01*
X73356Y-85036D01*
X73750Y-85430D02*
X73618Y-85242D01*
X73525Y-85430D02*
X73525Y-85036D01*
X73675Y-85036D01*
X73712Y-85055D01*
X73731Y-85073D01*
X73750Y-85111D01*
X73750Y-85167D01*
X73731Y-85205D01*
X73712Y-85223D01*
X73675Y-85242D01*
X73525Y-85242D01*
X73993Y-85242D02*
X73993Y-85430D01*
X73862Y-85036D02*
X73993Y-85242D01*
X74124Y-85036D01*
X74162Y-85467D02*
X74462Y-85467D01*
X74781Y-85392D02*
X74762Y-85411D01*
X74706Y-85430D01*
X74668Y-85430D01*
X74612Y-85411D01*
X74574Y-85373D01*
X74556Y-85336D01*
X74537Y-85261D01*
X74537Y-85205D01*
X74556Y-85130D01*
X74574Y-85092D01*
X74612Y-85055D01*
X74668Y-85036D01*
X74706Y-85036D01*
X74762Y-85055D01*
X74781Y-85073D01*
X75137Y-85430D02*
X74949Y-85430D01*
X74949Y-85036D01*
X75268Y-85430D02*
X75268Y-85036D01*
X75456Y-85430D02*
X75456Y-85036D01*
X75606Y-85036D01*
X75643Y-85055D01*
X75662Y-85073D01*
X75681Y-85111D01*
X75681Y-85167D01*
X75662Y-85205D01*
X75643Y-85223D01*
X75606Y-85242D01*
X75456Y-85242D01*
X59924Y-73876D02*
X59793Y-73689D01*
X59699Y-73876D02*
X59699Y-73483D01*
X59849Y-73483D01*
X59887Y-73501D01*
X59905Y-73520D01*
X59924Y-73558D01*
X59924Y-73614D01*
X59905Y-73651D01*
X59887Y-73670D01*
X59849Y-73689D01*
X59699Y-73689D01*
X60074Y-73520D02*
X60093Y-73501D01*
X60130Y-73483D01*
X60224Y-73483D01*
X60261Y-73501D01*
X60280Y-73520D01*
X60299Y-73558D01*
X60299Y-73595D01*
X60280Y-73651D01*
X60055Y-73876D01*
X60299Y-73876D01*
X52022Y-73483D02*
X51834Y-73483D01*
X51816Y-73670D01*
X51834Y-73651D01*
X51872Y-73633D01*
X51966Y-73633D01*
X52003Y-73651D01*
X52022Y-73670D01*
X52041Y-73708D01*
X52041Y-73801D01*
X52022Y-73839D01*
X52003Y-73858D01*
X51966Y-73876D01*
X51872Y-73876D01*
X51834Y-73858D01*
X51816Y-73839D01*
X52284Y-73483D02*
X52322Y-73483D01*
X52359Y-73501D01*
X52378Y-73520D01*
X52397Y-73558D01*
X52416Y-73633D01*
X52416Y-73726D01*
X52397Y-73801D01*
X52378Y-73839D01*
X52359Y-73858D01*
X52322Y-73876D01*
X52284Y-73876D01*
X52247Y-73858D01*
X52228Y-73839D01*
X52209Y-73801D01*
X52191Y-73726D01*
X52191Y-73633D01*
X52209Y-73558D01*
X52228Y-73520D01*
X52247Y-73501D01*
X52284Y-73483D01*
X52584Y-73876D02*
X52584Y-73483D01*
X52809Y-73876D02*
X52641Y-73651D01*
X52809Y-73483D02*
X52584Y-73708D01*
X103450Y-75078D02*
X103506Y-75097D01*
X103600Y-75097D01*
X103637Y-75078D01*
X103656Y-75059D01*
X103675Y-75022D01*
X103675Y-74984D01*
X103656Y-74947D01*
X103637Y-74928D01*
X103600Y-74909D01*
X103525Y-74891D01*
X103487Y-74872D01*
X103468Y-74853D01*
X103450Y-74816D01*
X103450Y-74778D01*
X103468Y-74741D01*
X103487Y-74722D01*
X103525Y-74703D01*
X103618Y-74703D01*
X103675Y-74722D01*
X104049Y-75097D02*
X103824Y-75097D01*
X103937Y-75097D02*
X103937Y-74703D01*
X103899Y-74759D01*
X103862Y-74797D01*
X103824Y-74816D01*
X95741Y-75174D02*
X95704Y-75155D01*
X95666Y-75118D01*
X95610Y-75061D01*
X95573Y-75043D01*
X95535Y-75043D01*
X95554Y-75136D02*
X95516Y-75118D01*
X95479Y-75080D01*
X95460Y-75005D01*
X95460Y-74874D01*
X95479Y-74799D01*
X95516Y-74761D01*
X95554Y-74743D01*
X95629Y-74743D01*
X95666Y-74761D01*
X95704Y-74799D01*
X95723Y-74874D01*
X95723Y-75005D01*
X95704Y-75080D01*
X95666Y-75118D01*
X95629Y-75136D01*
X95554Y-75136D01*
X95891Y-74743D02*
X95891Y-75061D01*
X95910Y-75099D01*
X95929Y-75118D01*
X95966Y-75136D01*
X96041Y-75136D01*
X96079Y-75118D01*
X96098Y-75099D01*
X96116Y-75061D01*
X96116Y-74743D01*
X96285Y-75024D02*
X96473Y-75024D01*
X96248Y-75136D02*
X96379Y-74743D01*
X96510Y-75136D01*
X96641Y-75136D02*
X96641Y-74743D01*
X96735Y-74743D01*
X96791Y-74761D01*
X96829Y-74799D01*
X96848Y-74836D01*
X96866Y-74911D01*
X96866Y-74968D01*
X96848Y-75043D01*
X96829Y-75080D01*
X96791Y-75118D01*
X96735Y-75136D01*
X96641Y-75136D01*
X97260Y-75136D02*
X97129Y-74949D01*
X97035Y-75136D02*
X97035Y-74743D01*
X97185Y-74743D01*
X97223Y-74761D01*
X97241Y-74780D01*
X97260Y-74818D01*
X97260Y-74874D01*
X97241Y-74911D01*
X97223Y-74930D01*
X97185Y-74949D01*
X97035Y-74949D01*
X97410Y-75024D02*
X97597Y-75024D01*
X97372Y-75136D02*
X97504Y-74743D01*
X97635Y-75136D01*
X97710Y-74743D02*
X97935Y-74743D01*
X97822Y-75136D02*
X97822Y-74743D01*
X98066Y-74743D02*
X98066Y-75061D01*
X98085Y-75099D01*
X98104Y-75118D01*
X98141Y-75136D01*
X98216Y-75136D01*
X98254Y-75118D01*
X98272Y-75099D01*
X98291Y-75061D01*
X98291Y-74743D01*
X98704Y-75136D02*
X98572Y-74949D01*
X98479Y-75136D02*
X98479Y-74743D01*
X98629Y-74743D01*
X98666Y-74761D01*
X98685Y-74780D01*
X98704Y-74818D01*
X98704Y-74874D01*
X98685Y-74911D01*
X98666Y-74930D01*
X98629Y-74949D01*
X98479Y-74949D01*
X98872Y-74930D02*
X99004Y-74930D01*
X99060Y-75136D02*
X98872Y-75136D01*
X98872Y-74743D01*
X99060Y-74743D01*
X99135Y-75174D02*
X99435Y-75174D01*
X99528Y-74930D02*
X99660Y-74930D01*
X99716Y-75136D02*
X99528Y-75136D01*
X99528Y-74743D01*
X99716Y-74743D01*
X99885Y-75136D02*
X99885Y-74743D01*
X100110Y-75136D01*
X100110Y-74743D01*
X100522Y-75099D02*
X100503Y-75118D01*
X100447Y-75136D01*
X100410Y-75136D01*
X100353Y-75118D01*
X100316Y-75080D01*
X100297Y-75043D01*
X100278Y-74968D01*
X100278Y-74911D01*
X100297Y-74836D01*
X100316Y-74799D01*
X100353Y-74761D01*
X100410Y-74743D01*
X100447Y-74743D01*
X100503Y-74761D01*
X100522Y-74780D01*
X100766Y-74743D02*
X100841Y-74743D01*
X100878Y-74761D01*
X100916Y-74799D01*
X100935Y-74874D01*
X100935Y-75005D01*
X100916Y-75080D01*
X100878Y-75118D01*
X100841Y-75136D01*
X100766Y-75136D01*
X100728Y-75118D01*
X100691Y-75080D01*
X100672Y-75005D01*
X100672Y-74874D01*
X100691Y-74799D01*
X100728Y-74761D01*
X100766Y-74743D01*
X101103Y-75136D02*
X101103Y-74743D01*
X101197Y-74743D01*
X101253Y-74761D01*
X101291Y-74799D01*
X101309Y-74836D01*
X101328Y-74911D01*
X101328Y-74968D01*
X101309Y-75043D01*
X101291Y-75080D01*
X101253Y-75118D01*
X101197Y-75136D01*
X101103Y-75136D01*
X101497Y-74930D02*
X101628Y-74930D01*
X101684Y-75136D02*
X101497Y-75136D01*
X101497Y-74743D01*
X101684Y-74743D01*
X102078Y-75136D02*
X101947Y-74949D01*
X101853Y-75136D02*
X101853Y-74743D01*
X102003Y-74743D01*
X102041Y-74761D01*
X102059Y-74780D01*
X102078Y-74818D01*
X102078Y-74874D01*
X102059Y-74911D01*
X102041Y-74930D01*
X102003Y-74949D01*
X101853Y-74949D01*
M02*
