G04 (created by PCBNEW (2013-09-28 BZR 4356)-product) date 7/22/2014 6:54:39 PM*
%MOIN*%
G04 Gerber Fmt 3.4, Leading zero omitted, Abs format*
%FSLAX34Y34*%
G01*
G70*
G90*
G04 APERTURE LIST*
%ADD10C,0.005906*%
%ADD11R,0.060000X0.060000*%
%ADD12C,0.060000*%
%ADD13R,0.039400X0.031500*%
%ADD14R,0.020000X0.045000*%
%ADD15R,0.055000X0.035000*%
%ADD16R,0.035000X0.055000*%
%ADD17R,0.027600X0.039400*%
%ADD18R,0.155906X0.200000*%
%ADD19R,0.155906X0.092126*%
G04 APERTURE END LIST*
G54D10*
G54D11*
X102080Y-77770D03*
G54D12*
X103080Y-77770D03*
X102080Y-78770D03*
X103080Y-78770D03*
X102080Y-79770D03*
X103080Y-79770D03*
G54D13*
X64037Y-76790D03*
X64903Y-76415D03*
X64903Y-77165D03*
G54D14*
X77514Y-78075D03*
X78014Y-78075D03*
X78514Y-78075D03*
X79014Y-78075D03*
X79514Y-78075D03*
X80014Y-78075D03*
X80514Y-78075D03*
X80514Y-75975D03*
X80014Y-75975D03*
X79514Y-75975D03*
X79014Y-75975D03*
X78514Y-75975D03*
X78014Y-75975D03*
X77514Y-75975D03*
G54D15*
X75826Y-76672D03*
X75826Y-77422D03*
X81377Y-73445D03*
X81377Y-72695D03*
G54D16*
X90245Y-76910D03*
X89495Y-76910D03*
X90245Y-75620D03*
X89495Y-75620D03*
X64895Y-77970D03*
X64145Y-77970D03*
G54D15*
X61910Y-76575D03*
X61910Y-77325D03*
G54D16*
X64935Y-75560D03*
X64185Y-75560D03*
G54D15*
X73385Y-76357D03*
X73385Y-77107D03*
X72519Y-76829D03*
X72519Y-77579D03*
G54D16*
X74233Y-75669D03*
X73483Y-75669D03*
X75689Y-75669D03*
X74939Y-75669D03*
X88715Y-74270D03*
X89465Y-74270D03*
X87845Y-75620D03*
X88595Y-75620D03*
X88695Y-78290D03*
X89445Y-78290D03*
X88635Y-76950D03*
X87885Y-76950D03*
G54D15*
X85570Y-80794D03*
X85570Y-81544D03*
G54D16*
X60611Y-79653D03*
X59861Y-79653D03*
G54D15*
X77795Y-80499D03*
X77795Y-81249D03*
X78740Y-80491D03*
X78740Y-81241D03*
X68796Y-73602D03*
X68796Y-72852D03*
X88748Y-73445D03*
X88748Y-72695D03*
G54D17*
X74172Y-76527D03*
X74547Y-76527D03*
X74922Y-76527D03*
X74922Y-77527D03*
X74547Y-77527D03*
X74172Y-77527D03*
G54D13*
X60127Y-76950D03*
X60993Y-76575D03*
X60993Y-77325D03*
G54D18*
X60588Y-87001D03*
G54D19*
X54750Y-87001D03*
G54D18*
X97161Y-87001D03*
G54D19*
X103000Y-87001D03*
G54D18*
X87088Y-87001D03*
G54D19*
X81250Y-87001D03*
G54D18*
X71161Y-87001D03*
G54D19*
X77000Y-87001D03*
M02*
