G04 (created by PCBNEW (2013-07-07 BZR 4022)-stable) date 3/21/2015 2:07:51 PM*
%MOIN*%
G04 Gerber Fmt 3.4, Leading zero omitted, Abs format*
%FSLAX34Y34*%
G01*
G70*
G90*
G04 APERTURE LIST*
%ADD10C,0.00590551*%
%ADD11R,0.055X0.055*%
%ADD12C,0.055*%
%ADD13C,0.11811*%
%ADD14C,0.16*%
%ADD15C,0.035*%
%ADD16C,0.01*%
G04 APERTURE END LIST*
G54D10*
G54D11*
X82500Y-55500D03*
G54D12*
X83500Y-55500D03*
G54D11*
X86000Y-55500D03*
G54D12*
X87000Y-55500D03*
G54D11*
X78000Y-55500D03*
G54D12*
X79000Y-55500D03*
G54D13*
X76400Y-57500D03*
X73400Y-57500D03*
X89600Y-57500D03*
X92600Y-57500D03*
G54D14*
X71200Y-57500D03*
X94800Y-57500D03*
G54D15*
X90900Y-59250D03*
X90950Y-55900D03*
X79300Y-57000D03*
X78950Y-58750D03*
X74800Y-59400D03*
X74900Y-55550D03*
X86200Y-56650D03*
X85750Y-58250D03*
X85750Y-59150D03*
X82000Y-57000D03*
X81650Y-57650D03*
X84250Y-59200D03*
G54D16*
X82700Y-57650D02*
X81650Y-57650D01*
X84250Y-59200D02*
X82700Y-57650D01*
G54D10*
G36*
X96035Y-60000D02*
X95850Y-60000D01*
X95850Y-57292D01*
X95690Y-56906D01*
X95395Y-56610D01*
X95009Y-56450D01*
X94592Y-56449D01*
X94206Y-56609D01*
X93910Y-56904D01*
X93750Y-57290D01*
X93749Y-57707D01*
X93909Y-58094D01*
X94204Y-58389D01*
X94590Y-58549D01*
X95007Y-58550D01*
X95394Y-58390D01*
X95689Y-58095D01*
X95849Y-57709D01*
X95850Y-57292D01*
X95850Y-60000D01*
X93443Y-60000D01*
X93443Y-57651D01*
X93437Y-57316D01*
X93321Y-57037D01*
X93196Y-56974D01*
X93125Y-57045D01*
X93125Y-56903D01*
X93062Y-56778D01*
X92751Y-56656D01*
X92416Y-56662D01*
X92137Y-56778D01*
X92074Y-56903D01*
X92600Y-57429D01*
X93125Y-56903D01*
X93125Y-57045D01*
X92670Y-57500D01*
X93196Y-58025D01*
X93321Y-57962D01*
X93443Y-57651D01*
X93443Y-60000D01*
X93125Y-60000D01*
X93125Y-58096D01*
X92600Y-57570D01*
X92529Y-57641D01*
X92529Y-57500D01*
X92003Y-56974D01*
X91878Y-57037D01*
X91756Y-57348D01*
X91762Y-57683D01*
X91878Y-57962D01*
X92003Y-58025D01*
X92529Y-57500D01*
X92529Y-57641D01*
X92074Y-58096D01*
X92137Y-58221D01*
X92448Y-58343D01*
X92783Y-58337D01*
X93062Y-58221D01*
X93125Y-58096D01*
X93125Y-60000D01*
X91375Y-60000D01*
X91375Y-55815D01*
X91310Y-55659D01*
X91191Y-55539D01*
X91034Y-55475D01*
X90865Y-55474D01*
X90709Y-55539D01*
X90589Y-55658D01*
X90525Y-55815D01*
X90524Y-55984D01*
X90589Y-56140D01*
X90708Y-56260D01*
X90865Y-56324D01*
X91034Y-56325D01*
X91190Y-56260D01*
X91310Y-56141D01*
X91374Y-55984D01*
X91375Y-55815D01*
X91375Y-60000D01*
X91325Y-60000D01*
X91325Y-59165D01*
X91260Y-59009D01*
X91141Y-58889D01*
X90984Y-58825D01*
X90815Y-58824D01*
X90659Y-58889D01*
X90539Y-59008D01*
X90475Y-59165D01*
X90474Y-59334D01*
X90539Y-59490D01*
X90658Y-59610D01*
X90815Y-59674D01*
X90984Y-59675D01*
X91140Y-59610D01*
X91260Y-59491D01*
X91324Y-59334D01*
X91325Y-59165D01*
X91325Y-60000D01*
X90443Y-60000D01*
X90443Y-57651D01*
X90437Y-57316D01*
X90321Y-57037D01*
X90196Y-56974D01*
X90125Y-57045D01*
X90125Y-56903D01*
X90062Y-56778D01*
X89751Y-56656D01*
X89416Y-56662D01*
X89137Y-56778D01*
X89074Y-56903D01*
X89600Y-57429D01*
X90125Y-56903D01*
X90125Y-57045D01*
X89670Y-57500D01*
X90196Y-58025D01*
X90321Y-57962D01*
X90443Y-57651D01*
X90443Y-60000D01*
X90125Y-60000D01*
X90125Y-58096D01*
X89600Y-57570D01*
X89529Y-57641D01*
X89529Y-57500D01*
X89003Y-56974D01*
X88878Y-57037D01*
X88756Y-57348D01*
X88762Y-57683D01*
X88878Y-57962D01*
X89003Y-58025D01*
X89529Y-57500D01*
X89529Y-57641D01*
X89074Y-58096D01*
X89137Y-58221D01*
X89448Y-58343D01*
X89783Y-58337D01*
X90062Y-58221D01*
X90125Y-58096D01*
X90125Y-60000D01*
X84675Y-60000D01*
X84675Y-59115D01*
X84610Y-58959D01*
X84491Y-58839D01*
X84334Y-58775D01*
X84249Y-58774D01*
X84029Y-58555D01*
X84029Y-55575D01*
X84018Y-55367D01*
X83960Y-55227D01*
X83867Y-55202D01*
X83570Y-55500D01*
X83867Y-55797D01*
X83960Y-55772D01*
X84029Y-55575D01*
X84029Y-58555D01*
X83797Y-58322D01*
X83797Y-55867D01*
X83500Y-55570D01*
X83202Y-55867D01*
X83227Y-55960D01*
X83424Y-56029D01*
X83632Y-56018D01*
X83772Y-55960D01*
X83797Y-55867D01*
X83797Y-58322D01*
X82912Y-57437D01*
X82814Y-57372D01*
X82700Y-57350D01*
X81951Y-57350D01*
X81891Y-57289D01*
X81734Y-57225D01*
X81565Y-57224D01*
X81409Y-57289D01*
X81289Y-57408D01*
X81225Y-57565D01*
X81224Y-57734D01*
X81289Y-57890D01*
X81408Y-58010D01*
X81565Y-58074D01*
X81734Y-58075D01*
X81890Y-58010D01*
X81951Y-57950D01*
X82575Y-57950D01*
X83825Y-59199D01*
X83824Y-59284D01*
X83889Y-59440D01*
X84008Y-59560D01*
X84165Y-59624D01*
X84334Y-59625D01*
X84490Y-59560D01*
X84610Y-59441D01*
X84674Y-59284D01*
X84675Y-59115D01*
X84675Y-60000D01*
X79725Y-60000D01*
X79725Y-56915D01*
X79660Y-56759D01*
X79541Y-56639D01*
X79384Y-56575D01*
X79215Y-56574D01*
X79059Y-56639D01*
X78939Y-56758D01*
X78875Y-56915D01*
X78874Y-57084D01*
X78939Y-57240D01*
X79058Y-57360D01*
X79215Y-57424D01*
X79384Y-57425D01*
X79540Y-57360D01*
X79660Y-57241D01*
X79724Y-57084D01*
X79725Y-56915D01*
X79725Y-60000D01*
X79375Y-60000D01*
X79375Y-58665D01*
X79310Y-58509D01*
X79191Y-58389D01*
X79034Y-58325D01*
X78865Y-58324D01*
X78709Y-58389D01*
X78589Y-58508D01*
X78525Y-58665D01*
X78524Y-58834D01*
X78589Y-58990D01*
X78708Y-59110D01*
X78865Y-59174D01*
X79034Y-59175D01*
X79190Y-59110D01*
X79310Y-58991D01*
X79374Y-58834D01*
X79375Y-58665D01*
X79375Y-60000D01*
X77240Y-60000D01*
X77240Y-57333D01*
X77113Y-57024D01*
X76876Y-56787D01*
X76567Y-56659D01*
X76233Y-56659D01*
X75924Y-56787D01*
X75687Y-57023D01*
X75559Y-57332D01*
X75559Y-57666D01*
X75687Y-57975D01*
X75923Y-58212D01*
X76232Y-58340D01*
X76566Y-58340D01*
X76875Y-58213D01*
X77112Y-57976D01*
X77240Y-57667D01*
X77240Y-57333D01*
X77240Y-60000D01*
X75325Y-60000D01*
X75325Y-55465D01*
X75260Y-55309D01*
X75141Y-55189D01*
X74984Y-55125D01*
X74815Y-55124D01*
X74659Y-55189D01*
X74539Y-55308D01*
X74475Y-55465D01*
X74474Y-55634D01*
X74539Y-55790D01*
X74658Y-55910D01*
X74815Y-55974D01*
X74984Y-55975D01*
X75140Y-55910D01*
X75260Y-55791D01*
X75324Y-55634D01*
X75325Y-55465D01*
X75325Y-60000D01*
X75225Y-60000D01*
X75225Y-59315D01*
X75160Y-59159D01*
X75041Y-59039D01*
X74884Y-58975D01*
X74715Y-58974D01*
X74559Y-59039D01*
X74439Y-59158D01*
X74375Y-59315D01*
X74374Y-59484D01*
X74439Y-59640D01*
X74558Y-59760D01*
X74715Y-59824D01*
X74884Y-59825D01*
X75040Y-59760D01*
X75160Y-59641D01*
X75224Y-59484D01*
X75225Y-59315D01*
X75225Y-60000D01*
X74240Y-60000D01*
X74240Y-57333D01*
X74113Y-57024D01*
X73876Y-56787D01*
X73567Y-56659D01*
X73233Y-56659D01*
X72924Y-56787D01*
X72687Y-57023D01*
X72559Y-57332D01*
X72559Y-57666D01*
X72687Y-57975D01*
X72923Y-58212D01*
X73232Y-58340D01*
X73566Y-58340D01*
X73875Y-58213D01*
X74112Y-57976D01*
X74240Y-57667D01*
X74240Y-57333D01*
X74240Y-60000D01*
X72250Y-60000D01*
X72250Y-57292D01*
X72090Y-56906D01*
X71795Y-56610D01*
X71409Y-56450D01*
X70992Y-56449D01*
X70606Y-56609D01*
X70310Y-56904D01*
X70150Y-57290D01*
X70149Y-57707D01*
X70309Y-58094D01*
X70604Y-58389D01*
X70990Y-58549D01*
X71407Y-58550D01*
X71794Y-58390D01*
X72089Y-58095D01*
X72249Y-57709D01*
X72250Y-57292D01*
X72250Y-60000D01*
X69964Y-60000D01*
X69964Y-54996D01*
X77624Y-54996D01*
X77583Y-55012D01*
X77513Y-55083D01*
X77475Y-55175D01*
X77474Y-55274D01*
X77474Y-55824D01*
X77512Y-55916D01*
X77583Y-55986D01*
X77675Y-56024D01*
X77774Y-56025D01*
X78324Y-56025D01*
X78416Y-55987D01*
X78486Y-55916D01*
X78524Y-55824D01*
X78525Y-55725D01*
X78525Y-55725D01*
X78554Y-55797D01*
X78702Y-55944D01*
X78895Y-56024D01*
X79103Y-56025D01*
X79297Y-55945D01*
X79444Y-55797D01*
X79524Y-55604D01*
X79525Y-55396D01*
X79445Y-55203D01*
X79297Y-55055D01*
X79155Y-54996D01*
X82124Y-54996D01*
X82083Y-55012D01*
X82013Y-55083D01*
X81975Y-55175D01*
X81974Y-55274D01*
X81974Y-55824D01*
X82012Y-55916D01*
X82083Y-55986D01*
X82175Y-56024D01*
X82274Y-56025D01*
X82824Y-56025D01*
X82916Y-55987D01*
X82986Y-55916D01*
X83024Y-55824D01*
X83025Y-55737D01*
X83039Y-55772D01*
X83132Y-55797D01*
X83429Y-55500D01*
X83132Y-55202D01*
X83039Y-55227D01*
X83025Y-55268D01*
X83025Y-55175D01*
X82987Y-55083D01*
X82916Y-55013D01*
X82875Y-54996D01*
X83331Y-54996D01*
X83227Y-55039D01*
X83202Y-55132D01*
X83500Y-55429D01*
X83797Y-55132D01*
X83772Y-55039D01*
X83649Y-54996D01*
X85624Y-54996D01*
X85583Y-55012D01*
X85513Y-55083D01*
X85475Y-55175D01*
X85474Y-55274D01*
X85474Y-55824D01*
X85512Y-55916D01*
X85583Y-55986D01*
X85675Y-56024D01*
X85774Y-56025D01*
X86324Y-56025D01*
X86416Y-55987D01*
X86486Y-55916D01*
X86524Y-55824D01*
X86525Y-55725D01*
X86525Y-55725D01*
X86554Y-55797D01*
X86702Y-55944D01*
X86895Y-56024D01*
X87103Y-56025D01*
X87297Y-55945D01*
X87444Y-55797D01*
X87524Y-55604D01*
X87525Y-55396D01*
X87445Y-55203D01*
X87297Y-55055D01*
X87155Y-54996D01*
X96035Y-54996D01*
X96035Y-60000D01*
X96035Y-60000D01*
G37*
G54D16*
X96035Y-60000D02*
X95850Y-60000D01*
X95850Y-57292D01*
X95690Y-56906D01*
X95395Y-56610D01*
X95009Y-56450D01*
X94592Y-56449D01*
X94206Y-56609D01*
X93910Y-56904D01*
X93750Y-57290D01*
X93749Y-57707D01*
X93909Y-58094D01*
X94204Y-58389D01*
X94590Y-58549D01*
X95007Y-58550D01*
X95394Y-58390D01*
X95689Y-58095D01*
X95849Y-57709D01*
X95850Y-57292D01*
X95850Y-60000D01*
X93443Y-60000D01*
X93443Y-57651D01*
X93437Y-57316D01*
X93321Y-57037D01*
X93196Y-56974D01*
X93125Y-57045D01*
X93125Y-56903D01*
X93062Y-56778D01*
X92751Y-56656D01*
X92416Y-56662D01*
X92137Y-56778D01*
X92074Y-56903D01*
X92600Y-57429D01*
X93125Y-56903D01*
X93125Y-57045D01*
X92670Y-57500D01*
X93196Y-58025D01*
X93321Y-57962D01*
X93443Y-57651D01*
X93443Y-60000D01*
X93125Y-60000D01*
X93125Y-58096D01*
X92600Y-57570D01*
X92529Y-57641D01*
X92529Y-57500D01*
X92003Y-56974D01*
X91878Y-57037D01*
X91756Y-57348D01*
X91762Y-57683D01*
X91878Y-57962D01*
X92003Y-58025D01*
X92529Y-57500D01*
X92529Y-57641D01*
X92074Y-58096D01*
X92137Y-58221D01*
X92448Y-58343D01*
X92783Y-58337D01*
X93062Y-58221D01*
X93125Y-58096D01*
X93125Y-60000D01*
X91375Y-60000D01*
X91375Y-55815D01*
X91310Y-55659D01*
X91191Y-55539D01*
X91034Y-55475D01*
X90865Y-55474D01*
X90709Y-55539D01*
X90589Y-55658D01*
X90525Y-55815D01*
X90524Y-55984D01*
X90589Y-56140D01*
X90708Y-56260D01*
X90865Y-56324D01*
X91034Y-56325D01*
X91190Y-56260D01*
X91310Y-56141D01*
X91374Y-55984D01*
X91375Y-55815D01*
X91375Y-60000D01*
X91325Y-60000D01*
X91325Y-59165D01*
X91260Y-59009D01*
X91141Y-58889D01*
X90984Y-58825D01*
X90815Y-58824D01*
X90659Y-58889D01*
X90539Y-59008D01*
X90475Y-59165D01*
X90474Y-59334D01*
X90539Y-59490D01*
X90658Y-59610D01*
X90815Y-59674D01*
X90984Y-59675D01*
X91140Y-59610D01*
X91260Y-59491D01*
X91324Y-59334D01*
X91325Y-59165D01*
X91325Y-60000D01*
X90443Y-60000D01*
X90443Y-57651D01*
X90437Y-57316D01*
X90321Y-57037D01*
X90196Y-56974D01*
X90125Y-57045D01*
X90125Y-56903D01*
X90062Y-56778D01*
X89751Y-56656D01*
X89416Y-56662D01*
X89137Y-56778D01*
X89074Y-56903D01*
X89600Y-57429D01*
X90125Y-56903D01*
X90125Y-57045D01*
X89670Y-57500D01*
X90196Y-58025D01*
X90321Y-57962D01*
X90443Y-57651D01*
X90443Y-60000D01*
X90125Y-60000D01*
X90125Y-58096D01*
X89600Y-57570D01*
X89529Y-57641D01*
X89529Y-57500D01*
X89003Y-56974D01*
X88878Y-57037D01*
X88756Y-57348D01*
X88762Y-57683D01*
X88878Y-57962D01*
X89003Y-58025D01*
X89529Y-57500D01*
X89529Y-57641D01*
X89074Y-58096D01*
X89137Y-58221D01*
X89448Y-58343D01*
X89783Y-58337D01*
X90062Y-58221D01*
X90125Y-58096D01*
X90125Y-60000D01*
X84675Y-60000D01*
X84675Y-59115D01*
X84610Y-58959D01*
X84491Y-58839D01*
X84334Y-58775D01*
X84249Y-58774D01*
X84029Y-58555D01*
X84029Y-55575D01*
X84018Y-55367D01*
X83960Y-55227D01*
X83867Y-55202D01*
X83570Y-55500D01*
X83867Y-55797D01*
X83960Y-55772D01*
X84029Y-55575D01*
X84029Y-58555D01*
X83797Y-58322D01*
X83797Y-55867D01*
X83500Y-55570D01*
X83202Y-55867D01*
X83227Y-55960D01*
X83424Y-56029D01*
X83632Y-56018D01*
X83772Y-55960D01*
X83797Y-55867D01*
X83797Y-58322D01*
X82912Y-57437D01*
X82814Y-57372D01*
X82700Y-57350D01*
X81951Y-57350D01*
X81891Y-57289D01*
X81734Y-57225D01*
X81565Y-57224D01*
X81409Y-57289D01*
X81289Y-57408D01*
X81225Y-57565D01*
X81224Y-57734D01*
X81289Y-57890D01*
X81408Y-58010D01*
X81565Y-58074D01*
X81734Y-58075D01*
X81890Y-58010D01*
X81951Y-57950D01*
X82575Y-57950D01*
X83825Y-59199D01*
X83824Y-59284D01*
X83889Y-59440D01*
X84008Y-59560D01*
X84165Y-59624D01*
X84334Y-59625D01*
X84490Y-59560D01*
X84610Y-59441D01*
X84674Y-59284D01*
X84675Y-59115D01*
X84675Y-60000D01*
X79725Y-60000D01*
X79725Y-56915D01*
X79660Y-56759D01*
X79541Y-56639D01*
X79384Y-56575D01*
X79215Y-56574D01*
X79059Y-56639D01*
X78939Y-56758D01*
X78875Y-56915D01*
X78874Y-57084D01*
X78939Y-57240D01*
X79058Y-57360D01*
X79215Y-57424D01*
X79384Y-57425D01*
X79540Y-57360D01*
X79660Y-57241D01*
X79724Y-57084D01*
X79725Y-56915D01*
X79725Y-60000D01*
X79375Y-60000D01*
X79375Y-58665D01*
X79310Y-58509D01*
X79191Y-58389D01*
X79034Y-58325D01*
X78865Y-58324D01*
X78709Y-58389D01*
X78589Y-58508D01*
X78525Y-58665D01*
X78524Y-58834D01*
X78589Y-58990D01*
X78708Y-59110D01*
X78865Y-59174D01*
X79034Y-59175D01*
X79190Y-59110D01*
X79310Y-58991D01*
X79374Y-58834D01*
X79375Y-58665D01*
X79375Y-60000D01*
X77240Y-60000D01*
X77240Y-57333D01*
X77113Y-57024D01*
X76876Y-56787D01*
X76567Y-56659D01*
X76233Y-56659D01*
X75924Y-56787D01*
X75687Y-57023D01*
X75559Y-57332D01*
X75559Y-57666D01*
X75687Y-57975D01*
X75923Y-58212D01*
X76232Y-58340D01*
X76566Y-58340D01*
X76875Y-58213D01*
X77112Y-57976D01*
X77240Y-57667D01*
X77240Y-57333D01*
X77240Y-60000D01*
X75325Y-60000D01*
X75325Y-55465D01*
X75260Y-55309D01*
X75141Y-55189D01*
X74984Y-55125D01*
X74815Y-55124D01*
X74659Y-55189D01*
X74539Y-55308D01*
X74475Y-55465D01*
X74474Y-55634D01*
X74539Y-55790D01*
X74658Y-55910D01*
X74815Y-55974D01*
X74984Y-55975D01*
X75140Y-55910D01*
X75260Y-55791D01*
X75324Y-55634D01*
X75325Y-55465D01*
X75325Y-60000D01*
X75225Y-60000D01*
X75225Y-59315D01*
X75160Y-59159D01*
X75041Y-59039D01*
X74884Y-58975D01*
X74715Y-58974D01*
X74559Y-59039D01*
X74439Y-59158D01*
X74375Y-59315D01*
X74374Y-59484D01*
X74439Y-59640D01*
X74558Y-59760D01*
X74715Y-59824D01*
X74884Y-59825D01*
X75040Y-59760D01*
X75160Y-59641D01*
X75224Y-59484D01*
X75225Y-59315D01*
X75225Y-60000D01*
X74240Y-60000D01*
X74240Y-57333D01*
X74113Y-57024D01*
X73876Y-56787D01*
X73567Y-56659D01*
X73233Y-56659D01*
X72924Y-56787D01*
X72687Y-57023D01*
X72559Y-57332D01*
X72559Y-57666D01*
X72687Y-57975D01*
X72923Y-58212D01*
X73232Y-58340D01*
X73566Y-58340D01*
X73875Y-58213D01*
X74112Y-57976D01*
X74240Y-57667D01*
X74240Y-57333D01*
X74240Y-60000D01*
X72250Y-60000D01*
X72250Y-57292D01*
X72090Y-56906D01*
X71795Y-56610D01*
X71409Y-56450D01*
X70992Y-56449D01*
X70606Y-56609D01*
X70310Y-56904D01*
X70150Y-57290D01*
X70149Y-57707D01*
X70309Y-58094D01*
X70604Y-58389D01*
X70990Y-58549D01*
X71407Y-58550D01*
X71794Y-58390D01*
X72089Y-58095D01*
X72249Y-57709D01*
X72250Y-57292D01*
X72250Y-60000D01*
X69964Y-60000D01*
X69964Y-54996D01*
X77624Y-54996D01*
X77583Y-55012D01*
X77513Y-55083D01*
X77475Y-55175D01*
X77474Y-55274D01*
X77474Y-55824D01*
X77512Y-55916D01*
X77583Y-55986D01*
X77675Y-56024D01*
X77774Y-56025D01*
X78324Y-56025D01*
X78416Y-55987D01*
X78486Y-55916D01*
X78524Y-55824D01*
X78525Y-55725D01*
X78525Y-55725D01*
X78554Y-55797D01*
X78702Y-55944D01*
X78895Y-56024D01*
X79103Y-56025D01*
X79297Y-55945D01*
X79444Y-55797D01*
X79524Y-55604D01*
X79525Y-55396D01*
X79445Y-55203D01*
X79297Y-55055D01*
X79155Y-54996D01*
X82124Y-54996D01*
X82083Y-55012D01*
X82013Y-55083D01*
X81975Y-55175D01*
X81974Y-55274D01*
X81974Y-55824D01*
X82012Y-55916D01*
X82083Y-55986D01*
X82175Y-56024D01*
X82274Y-56025D01*
X82824Y-56025D01*
X82916Y-55987D01*
X82986Y-55916D01*
X83024Y-55824D01*
X83025Y-55737D01*
X83039Y-55772D01*
X83132Y-55797D01*
X83429Y-55500D01*
X83132Y-55202D01*
X83039Y-55227D01*
X83025Y-55268D01*
X83025Y-55175D01*
X82987Y-55083D01*
X82916Y-55013D01*
X82875Y-54996D01*
X83331Y-54996D01*
X83227Y-55039D01*
X83202Y-55132D01*
X83500Y-55429D01*
X83797Y-55132D01*
X83772Y-55039D01*
X83649Y-54996D01*
X85624Y-54996D01*
X85583Y-55012D01*
X85513Y-55083D01*
X85475Y-55175D01*
X85474Y-55274D01*
X85474Y-55824D01*
X85512Y-55916D01*
X85583Y-55986D01*
X85675Y-56024D01*
X85774Y-56025D01*
X86324Y-56025D01*
X86416Y-55987D01*
X86486Y-55916D01*
X86524Y-55824D01*
X86525Y-55725D01*
X86525Y-55725D01*
X86554Y-55797D01*
X86702Y-55944D01*
X86895Y-56024D01*
X87103Y-56025D01*
X87297Y-55945D01*
X87444Y-55797D01*
X87524Y-55604D01*
X87525Y-55396D01*
X87445Y-55203D01*
X87297Y-55055D01*
X87155Y-54996D01*
X96035Y-54996D01*
X96035Y-60000D01*
M02*
