M48
;DRILL file {Pcbnew (2013-07-07 BZR 4022)-stable} date 3/21/2015 2:24:51 PM
;FORMAT={2:4/ absolute / inch / keep zeros}
FMAT,2
INCH,TZ
T1C0.025
T2C0.032
T3C0.067
T4C0.129
%
G90
G05
M72
T1
X074800Y-059400
X074900Y-055550
X078950Y-058750
X079300Y-057000
X081650Y-057650
X082000Y-057000
X084250Y-059200
X085750Y-058250
X085750Y-059150
X086200Y-056650
X090900Y-059250
X090950Y-055900
T2
X078000Y-055500
X079000Y-055500
X082500Y-055500
X083500Y-055500
X086000Y-055500
X087000Y-055500
T3
X073400Y-057500
X076400Y-057500
X089600Y-057500
X092600Y-057500
T4
X071200Y-057500
X094800Y-057500
T0
M30
