G04 (created by PCBNEW (2013-07-07 BZR 4022)-stable) date 3/21/2015 2:07:51 PM*
%MOIN*%
G04 Gerber Fmt 3.4, Leading zero omitted, Abs format*
%FSLAX34Y34*%
G01*
G70*
G90*
G04 APERTURE LIST*
%ADD10C,0.00590551*%
%ADD11C,0.0075*%
%ADD12C,0.005*%
%ADD13C,0.0039*%
%ADD14C,0.012*%
%ADD15C,0.015*%
%ADD16C,0.003*%
%ADD17C,0.0043*%
%ADD18C,0.0107*%
G04 APERTURE END LIST*
G54D10*
G54D11*
X70092Y-55221D02*
X70150Y-55421D01*
X70207Y-55278D01*
X70264Y-55421D01*
X70321Y-55221D01*
X70407Y-55221D02*
X70464Y-55421D01*
X70521Y-55278D01*
X70578Y-55421D01*
X70635Y-55221D01*
X70721Y-55221D02*
X70778Y-55421D01*
X70835Y-55278D01*
X70892Y-55421D01*
X70950Y-55221D01*
X71064Y-55392D02*
X71078Y-55407D01*
X71064Y-55421D01*
X71050Y-55407D01*
X71064Y-55392D01*
X71064Y-55421D01*
X71335Y-55421D02*
X71335Y-55264D01*
X71321Y-55235D01*
X71292Y-55221D01*
X71235Y-55221D01*
X71207Y-55235D01*
X71335Y-55407D02*
X71307Y-55421D01*
X71235Y-55421D01*
X71207Y-55407D01*
X71192Y-55378D01*
X71192Y-55350D01*
X71207Y-55321D01*
X71235Y-55307D01*
X71307Y-55307D01*
X71335Y-55292D01*
X71450Y-55221D02*
X71507Y-55421D01*
X71564Y-55278D01*
X71621Y-55421D01*
X71678Y-55221D01*
X71792Y-55421D02*
X71792Y-55121D01*
X71821Y-55307D02*
X71907Y-55421D01*
X71907Y-55221D02*
X71792Y-55335D01*
X72007Y-55221D02*
X72064Y-55421D01*
X72121Y-55278D01*
X72178Y-55421D01*
X72235Y-55221D01*
X72478Y-55421D02*
X72478Y-55264D01*
X72464Y-55235D01*
X72435Y-55221D01*
X72378Y-55221D01*
X72350Y-55235D01*
X72478Y-55407D02*
X72450Y-55421D01*
X72378Y-55421D01*
X72350Y-55407D01*
X72335Y-55378D01*
X72335Y-55350D01*
X72350Y-55321D01*
X72378Y-55307D01*
X72450Y-55307D01*
X72478Y-55292D01*
X72621Y-55421D02*
X72621Y-55221D01*
X72621Y-55278D02*
X72635Y-55250D01*
X72650Y-55235D01*
X72678Y-55221D01*
X72707Y-55221D01*
X72935Y-55421D02*
X72935Y-55121D01*
X72935Y-55407D02*
X72907Y-55421D01*
X72850Y-55421D01*
X72821Y-55407D01*
X72807Y-55392D01*
X72792Y-55364D01*
X72792Y-55278D01*
X72807Y-55250D01*
X72821Y-55235D01*
X72850Y-55221D01*
X72907Y-55221D01*
X72935Y-55235D01*
X73192Y-55407D02*
X73164Y-55421D01*
X73107Y-55421D01*
X73078Y-55407D01*
X73064Y-55378D01*
X73064Y-55264D01*
X73078Y-55235D01*
X73107Y-55221D01*
X73164Y-55221D01*
X73192Y-55235D01*
X73207Y-55264D01*
X73207Y-55292D01*
X73064Y-55321D01*
X73335Y-55221D02*
X73335Y-55421D01*
X73335Y-55250D02*
X73350Y-55235D01*
X73378Y-55221D01*
X73421Y-55221D01*
X73450Y-55235D01*
X73464Y-55264D01*
X73464Y-55421D01*
X73735Y-55221D02*
X73735Y-55464D01*
X73721Y-55492D01*
X73707Y-55507D01*
X73678Y-55521D01*
X73635Y-55521D01*
X73607Y-55507D01*
X73735Y-55407D02*
X73707Y-55421D01*
X73650Y-55421D01*
X73621Y-55407D01*
X73607Y-55392D01*
X73592Y-55364D01*
X73592Y-55278D01*
X73607Y-55250D01*
X73621Y-55235D01*
X73650Y-55221D01*
X73707Y-55221D01*
X73735Y-55235D01*
X73878Y-55421D02*
X73878Y-55221D01*
X73878Y-55121D02*
X73864Y-55135D01*
X73878Y-55150D01*
X73892Y-55135D01*
X73878Y-55121D01*
X73878Y-55150D01*
X74021Y-55221D02*
X74021Y-55421D01*
X74021Y-55250D02*
X74035Y-55235D01*
X74064Y-55221D01*
X74107Y-55221D01*
X74135Y-55235D01*
X74150Y-55264D01*
X74150Y-55421D01*
X74407Y-55407D02*
X74378Y-55421D01*
X74321Y-55421D01*
X74292Y-55407D01*
X74278Y-55378D01*
X74278Y-55264D01*
X74292Y-55235D01*
X74321Y-55221D01*
X74378Y-55221D01*
X74407Y-55235D01*
X74421Y-55264D01*
X74421Y-55292D01*
X74278Y-55321D01*
X74664Y-55407D02*
X74635Y-55421D01*
X74578Y-55421D01*
X74550Y-55407D01*
X74535Y-55378D01*
X74535Y-55264D01*
X74550Y-55235D01*
X74578Y-55221D01*
X74635Y-55221D01*
X74664Y-55235D01*
X74678Y-55264D01*
X74678Y-55292D01*
X74535Y-55321D01*
X74807Y-55421D02*
X74807Y-55221D01*
X74807Y-55278D02*
X74821Y-55250D01*
X74835Y-55235D01*
X74864Y-55221D01*
X74892Y-55221D01*
X74992Y-55392D02*
X75007Y-55407D01*
X74992Y-55421D01*
X74978Y-55407D01*
X74992Y-55392D01*
X74992Y-55421D01*
X75264Y-55407D02*
X75235Y-55421D01*
X75178Y-55421D01*
X75150Y-55407D01*
X75135Y-55392D01*
X75121Y-55364D01*
X75121Y-55278D01*
X75135Y-55250D01*
X75150Y-55235D01*
X75178Y-55221D01*
X75235Y-55221D01*
X75264Y-55235D01*
X75435Y-55421D02*
X75407Y-55407D01*
X75392Y-55392D01*
X75378Y-55364D01*
X75378Y-55278D01*
X75392Y-55250D01*
X75407Y-55235D01*
X75435Y-55221D01*
X75478Y-55221D01*
X75507Y-55235D01*
X75521Y-55250D01*
X75535Y-55278D01*
X75535Y-55364D01*
X75521Y-55392D01*
X75507Y-55407D01*
X75478Y-55421D01*
X75435Y-55421D01*
X75664Y-55421D02*
X75664Y-55221D01*
X75664Y-55250D02*
X75678Y-55235D01*
X75707Y-55221D01*
X75750Y-55221D01*
X75778Y-55235D01*
X75792Y-55264D01*
X75792Y-55421D01*
X75792Y-55264D02*
X75807Y-55235D01*
X75835Y-55221D01*
X75878Y-55221D01*
X75907Y-55235D01*
X75921Y-55264D01*
X75921Y-55421D01*
X70171Y-59321D02*
X70171Y-59021D01*
X70271Y-59235D01*
X70371Y-59021D01*
X70371Y-59321D01*
X70514Y-59164D02*
X70614Y-59164D01*
X70657Y-59321D02*
X70514Y-59321D01*
X70514Y-59021D01*
X70657Y-59021D01*
X70742Y-59021D02*
X70914Y-59021D01*
X70828Y-59321D02*
X70828Y-59021D01*
X71014Y-59164D02*
X71114Y-59164D01*
X71157Y-59321D02*
X71014Y-59321D01*
X71014Y-59021D01*
X71157Y-59021D01*
X71457Y-59321D02*
X71357Y-59178D01*
X71285Y-59321D02*
X71285Y-59021D01*
X71400Y-59021D01*
X71428Y-59035D01*
X71442Y-59050D01*
X71457Y-59078D01*
X71457Y-59121D01*
X71442Y-59150D01*
X71428Y-59164D01*
X71400Y-59178D01*
X71285Y-59178D01*
X71771Y-59021D02*
X71942Y-59021D01*
X71857Y-59321D02*
X71857Y-59021D01*
X72042Y-59164D02*
X72142Y-59164D01*
X72185Y-59321D02*
X72042Y-59321D01*
X72042Y-59021D01*
X72185Y-59021D01*
X72300Y-59307D02*
X72342Y-59321D01*
X72414Y-59321D01*
X72442Y-59307D01*
X72457Y-59292D01*
X72471Y-59264D01*
X72471Y-59235D01*
X72457Y-59207D01*
X72442Y-59192D01*
X72414Y-59178D01*
X72357Y-59164D01*
X72328Y-59150D01*
X72314Y-59135D01*
X72300Y-59107D01*
X72300Y-59078D01*
X72314Y-59050D01*
X72328Y-59035D01*
X72357Y-59021D01*
X72428Y-59021D01*
X72471Y-59035D01*
X72557Y-59021D02*
X72728Y-59021D01*
X72642Y-59321D02*
X72642Y-59021D01*
X73228Y-59321D02*
X73128Y-59178D01*
X73057Y-59321D02*
X73057Y-59021D01*
X73171Y-59021D01*
X73199Y-59035D01*
X73214Y-59050D01*
X73228Y-59078D01*
X73228Y-59121D01*
X73214Y-59150D01*
X73199Y-59164D01*
X73171Y-59178D01*
X73057Y-59178D01*
X73357Y-59321D02*
X73357Y-59021D01*
X73657Y-59035D02*
X73628Y-59021D01*
X73585Y-59021D01*
X73542Y-59035D01*
X73514Y-59064D01*
X73499Y-59092D01*
X73485Y-59150D01*
X73485Y-59192D01*
X73499Y-59250D01*
X73514Y-59278D01*
X73542Y-59307D01*
X73585Y-59321D01*
X73614Y-59321D01*
X73657Y-59307D01*
X73671Y-59292D01*
X73671Y-59192D01*
X73614Y-59192D01*
X70342Y-59816D02*
X70242Y-59673D01*
X70171Y-59816D02*
X70171Y-59516D01*
X70285Y-59516D01*
X70314Y-59530D01*
X70328Y-59545D01*
X70342Y-59573D01*
X70342Y-59616D01*
X70328Y-59645D01*
X70314Y-59659D01*
X70285Y-59673D01*
X70171Y-59673D01*
X70471Y-59659D02*
X70571Y-59659D01*
X70614Y-59816D02*
X70471Y-59816D01*
X70471Y-59516D01*
X70614Y-59516D01*
X70700Y-59516D02*
X70800Y-59816D01*
X70900Y-59516D01*
X71214Y-59730D02*
X71357Y-59730D01*
X71185Y-59816D02*
X71285Y-59516D01*
X71385Y-59816D01*
G54D12*
X83300Y-59000D02*
X83000Y-58800D01*
X84000Y-59000D02*
X82975Y-59000D01*
X82975Y-59000D02*
X82975Y-58400D01*
X82975Y-58400D02*
X84000Y-58400D01*
X84000Y-58400D02*
X84000Y-59000D01*
G54D13*
X85200Y-56850D02*
G75*
G03X85200Y-56850I-50J0D01*
G74*
G01*
X84700Y-56850D02*
X85100Y-56850D01*
X85100Y-56850D02*
X85100Y-57450D01*
X85100Y-57450D02*
X84700Y-57450D01*
X84300Y-57450D02*
X83900Y-57450D01*
X83900Y-57450D02*
X83900Y-56850D01*
X83900Y-56850D02*
X84300Y-56850D01*
X83600Y-56850D02*
G75*
G03X83600Y-56850I-50J0D01*
G74*
G01*
X83100Y-56850D02*
X83500Y-56850D01*
X83500Y-56850D02*
X83500Y-57450D01*
X83500Y-57450D02*
X83100Y-57450D01*
X82700Y-57450D02*
X82300Y-57450D01*
X82300Y-57450D02*
X82300Y-56850D01*
X82300Y-56850D02*
X82700Y-56850D01*
X84600Y-58150D02*
G75*
G03X84600Y-58150I-50J0D01*
G74*
G01*
X84550Y-58600D02*
X84550Y-58200D01*
X84550Y-58200D02*
X85150Y-58200D01*
X85150Y-58200D02*
X85150Y-58600D01*
X85150Y-59000D02*
X85150Y-59400D01*
X85150Y-59400D02*
X84550Y-59400D01*
X84550Y-59400D02*
X84550Y-59000D01*
X81050Y-58150D02*
G75*
G03X81050Y-58150I-50J0D01*
G74*
G01*
X81000Y-58600D02*
X81000Y-58200D01*
X81000Y-58200D02*
X81600Y-58200D01*
X81600Y-58200D02*
X81600Y-58600D01*
X81600Y-59000D02*
X81600Y-59400D01*
X81600Y-59400D02*
X81000Y-59400D01*
X81000Y-59400D02*
X81000Y-59000D01*
X82000Y-57900D02*
G75*
G03X82000Y-57900I-50J0D01*
G74*
G01*
X81950Y-58350D02*
X81950Y-57950D01*
X81950Y-57950D02*
X82550Y-57950D01*
X82550Y-57950D02*
X82550Y-58350D01*
X82550Y-58750D02*
X82550Y-59150D01*
X82550Y-59150D02*
X81950Y-59150D01*
X81950Y-59150D02*
X81950Y-58750D01*
X79900Y-55800D02*
G75*
G03X79900Y-55800I-50J0D01*
G74*
G01*
X80300Y-55800D02*
X79900Y-55800D01*
X79900Y-55800D02*
X79900Y-55200D01*
X79900Y-55200D02*
X80300Y-55200D01*
X80700Y-55200D02*
X81100Y-55200D01*
X81100Y-55200D02*
X81100Y-55800D01*
X81100Y-55800D02*
X80700Y-55800D01*
G54D14*
X82000Y-56000D02*
X82000Y-55000D01*
X82000Y-55000D02*
X84000Y-55000D01*
X84000Y-55000D02*
X84000Y-56000D01*
X84000Y-56000D02*
X82000Y-56000D01*
X85500Y-56000D02*
X85500Y-55000D01*
X85500Y-55000D02*
X87500Y-55000D01*
X87500Y-55000D02*
X87500Y-56000D01*
X87500Y-56000D02*
X85500Y-56000D01*
X77500Y-56000D02*
X77500Y-55000D01*
X77500Y-55000D02*
X79500Y-55000D01*
X79500Y-55000D02*
X79500Y-56000D01*
X79500Y-56000D02*
X77500Y-56000D01*
G54D13*
X87300Y-56900D02*
G75*
G03X87300Y-56900I-50J0D01*
G74*
G01*
X86800Y-56900D02*
X87200Y-56900D01*
X87200Y-56900D02*
X87200Y-57500D01*
X87200Y-57500D02*
X86800Y-57500D01*
X86400Y-57500D02*
X86000Y-57500D01*
X86000Y-57500D02*
X86000Y-56900D01*
X86000Y-56900D02*
X86400Y-56900D01*
X87300Y-57950D02*
G75*
G03X87300Y-57950I-50J0D01*
G74*
G01*
X86800Y-57950D02*
X87200Y-57950D01*
X87200Y-57950D02*
X87200Y-58550D01*
X87200Y-58550D02*
X86800Y-58550D01*
X86400Y-58550D02*
X86000Y-58550D01*
X86000Y-58550D02*
X86000Y-57950D01*
X86000Y-57950D02*
X86400Y-57950D01*
X87289Y-58859D02*
G75*
G03X87289Y-58859I-50J0D01*
G74*
G01*
X86789Y-58859D02*
X87189Y-58859D01*
X87189Y-58859D02*
X87189Y-59459D01*
X87189Y-59459D02*
X86789Y-59459D01*
X86389Y-59459D02*
X85989Y-59459D01*
X85989Y-59459D02*
X85989Y-58859D01*
X85989Y-58859D02*
X86389Y-58859D01*
G54D15*
X72100Y-57500D02*
G75*
G03X72100Y-57500I-900J0D01*
G74*
G01*
X95700Y-57500D02*
G75*
G03X95700Y-57500I-900J0D01*
G74*
G01*
G54D16*
X82887Y-58779D02*
X82887Y-58582D01*
X82952Y-58723D01*
X83018Y-58582D01*
X83018Y-58779D01*
X83224Y-58760D02*
X83215Y-58770D01*
X83187Y-58779D01*
X83168Y-58779D01*
X83140Y-58770D01*
X83121Y-58751D01*
X83112Y-58732D01*
X83102Y-58695D01*
X83102Y-58667D01*
X83112Y-58629D01*
X83121Y-58610D01*
X83140Y-58592D01*
X83168Y-58582D01*
X83187Y-58582D01*
X83215Y-58592D01*
X83224Y-58601D01*
X83309Y-58779D02*
X83309Y-58582D01*
X83384Y-58582D01*
X83403Y-58592D01*
X83412Y-58601D01*
X83421Y-58620D01*
X83421Y-58648D01*
X83412Y-58667D01*
X83403Y-58676D01*
X83384Y-58685D01*
X83309Y-58685D01*
X83609Y-58779D02*
X83496Y-58779D01*
X83553Y-58779D02*
X83553Y-58582D01*
X83534Y-58610D01*
X83515Y-58629D01*
X83496Y-58639D01*
X83778Y-58582D02*
X83740Y-58582D01*
X83722Y-58592D01*
X83712Y-58601D01*
X83693Y-58629D01*
X83684Y-58667D01*
X83684Y-58742D01*
X83693Y-58760D01*
X83703Y-58770D01*
X83722Y-58779D01*
X83759Y-58779D01*
X83778Y-58770D01*
X83787Y-58760D01*
X83797Y-58742D01*
X83797Y-58695D01*
X83787Y-58676D01*
X83778Y-58667D01*
X83759Y-58657D01*
X83722Y-58657D01*
X83703Y-58667D01*
X83693Y-58676D01*
X83684Y-58695D01*
X83872Y-58601D02*
X83881Y-58592D01*
X83900Y-58582D01*
X83947Y-58582D01*
X83965Y-58592D01*
X83975Y-58601D01*
X83984Y-58620D01*
X83984Y-58639D01*
X83975Y-58667D01*
X83862Y-58779D01*
X83984Y-58779D01*
X84153Y-58648D02*
X84153Y-58779D01*
X84106Y-58573D02*
X84059Y-58714D01*
X84181Y-58714D01*
G54D17*
X84067Y-56729D02*
X84001Y-56635D01*
X83954Y-56729D02*
X83954Y-56532D01*
X84029Y-56532D01*
X84048Y-56542D01*
X84057Y-56551D01*
X84067Y-56570D01*
X84067Y-56598D01*
X84057Y-56617D01*
X84048Y-56626D01*
X84029Y-56635D01*
X83954Y-56635D01*
X84142Y-56551D02*
X84151Y-56542D01*
X84170Y-56532D01*
X84217Y-56532D01*
X84236Y-56542D01*
X84245Y-56551D01*
X84254Y-56570D01*
X84254Y-56589D01*
X84245Y-56617D01*
X84132Y-56729D01*
X84254Y-56729D01*
X84570Y-56729D02*
X84457Y-56729D01*
X84513Y-56729D02*
X84513Y-56532D01*
X84495Y-56560D01*
X84476Y-56579D01*
X84457Y-56589D01*
X84635Y-56532D02*
X84757Y-56532D01*
X84692Y-56607D01*
X84720Y-56607D01*
X84739Y-56617D01*
X84748Y-56626D01*
X84757Y-56645D01*
X84757Y-56692D01*
X84748Y-56710D01*
X84739Y-56720D01*
X84720Y-56729D01*
X84663Y-56729D01*
X84645Y-56720D01*
X84635Y-56710D01*
X84879Y-56532D02*
X84898Y-56532D01*
X84917Y-56542D01*
X84926Y-56551D01*
X84936Y-56570D01*
X84945Y-56607D01*
X84945Y-56654D01*
X84936Y-56692D01*
X84926Y-56710D01*
X84917Y-56720D01*
X84898Y-56729D01*
X84879Y-56729D01*
X84860Y-56720D01*
X84851Y-56710D01*
X84842Y-56692D01*
X84832Y-56654D01*
X84832Y-56607D01*
X84842Y-56570D01*
X84851Y-56551D01*
X84860Y-56542D01*
X84879Y-56532D01*
X85029Y-56729D02*
X85029Y-56532D01*
X85142Y-56729D02*
X85057Y-56617D01*
X85142Y-56532D02*
X85029Y-56645D01*
X82467Y-56729D02*
X82401Y-56635D01*
X82354Y-56729D02*
X82354Y-56532D01*
X82429Y-56532D01*
X82448Y-56542D01*
X82457Y-56551D01*
X82467Y-56570D01*
X82467Y-56598D01*
X82457Y-56617D01*
X82448Y-56626D01*
X82429Y-56635D01*
X82354Y-56635D01*
X82532Y-56532D02*
X82654Y-56532D01*
X82589Y-56607D01*
X82617Y-56607D01*
X82636Y-56617D01*
X82645Y-56626D01*
X82654Y-56645D01*
X82654Y-56692D01*
X82645Y-56710D01*
X82636Y-56720D01*
X82617Y-56729D01*
X82560Y-56729D01*
X82542Y-56720D01*
X82532Y-56710D01*
X82807Y-56551D02*
X82816Y-56542D01*
X82835Y-56532D01*
X82882Y-56532D01*
X82901Y-56542D01*
X82910Y-56551D01*
X82920Y-56570D01*
X82920Y-56589D01*
X82910Y-56617D01*
X82798Y-56729D01*
X82920Y-56729D01*
X83042Y-56532D02*
X83060Y-56532D01*
X83079Y-56542D01*
X83089Y-56551D01*
X83098Y-56570D01*
X83107Y-56607D01*
X83107Y-56654D01*
X83098Y-56692D01*
X83089Y-56710D01*
X83079Y-56720D01*
X83060Y-56729D01*
X83042Y-56729D01*
X83023Y-56720D01*
X83013Y-56710D01*
X83004Y-56692D01*
X82995Y-56654D01*
X82995Y-56607D01*
X83004Y-56570D01*
X83013Y-56551D01*
X83023Y-56542D01*
X83042Y-56532D01*
X83229Y-56532D02*
X83248Y-56532D01*
X83267Y-56542D01*
X83276Y-56551D01*
X83286Y-56570D01*
X83295Y-56607D01*
X83295Y-56654D01*
X83286Y-56692D01*
X83276Y-56710D01*
X83267Y-56720D01*
X83248Y-56729D01*
X83229Y-56729D01*
X83210Y-56720D01*
X83201Y-56710D01*
X83192Y-56692D01*
X83182Y-56654D01*
X83182Y-56607D01*
X83192Y-56570D01*
X83201Y-56551D01*
X83210Y-56542D01*
X83229Y-56532D01*
X83379Y-56729D02*
X83379Y-56532D01*
X83492Y-56729D02*
X83407Y-56617D01*
X83492Y-56532D02*
X83379Y-56645D01*
X85460Y-59232D02*
X85470Y-59242D01*
X85479Y-59270D01*
X85479Y-59289D01*
X85470Y-59317D01*
X85451Y-59336D01*
X85432Y-59345D01*
X85395Y-59354D01*
X85367Y-59354D01*
X85329Y-59345D01*
X85310Y-59336D01*
X85292Y-59317D01*
X85282Y-59289D01*
X85282Y-59270D01*
X85292Y-59242D01*
X85301Y-59232D01*
X85301Y-59157D02*
X85292Y-59148D01*
X85282Y-59129D01*
X85282Y-59082D01*
X85292Y-59063D01*
X85301Y-59054D01*
X85320Y-59045D01*
X85339Y-59045D01*
X85367Y-59054D01*
X85479Y-59167D01*
X85479Y-59045D01*
X85479Y-58761D02*
X85479Y-58873D01*
X85479Y-58817D02*
X85282Y-58817D01*
X85310Y-58836D01*
X85329Y-58854D01*
X85339Y-58873D01*
X85282Y-58639D02*
X85282Y-58620D01*
X85292Y-58601D01*
X85301Y-58592D01*
X85320Y-58582D01*
X85357Y-58573D01*
X85404Y-58573D01*
X85442Y-58582D01*
X85460Y-58592D01*
X85470Y-58601D01*
X85479Y-58620D01*
X85479Y-58639D01*
X85470Y-58657D01*
X85460Y-58667D01*
X85442Y-58676D01*
X85404Y-58686D01*
X85357Y-58686D01*
X85320Y-58676D01*
X85301Y-58667D01*
X85292Y-58657D01*
X85282Y-58639D01*
X85348Y-58404D02*
X85479Y-58404D01*
X85348Y-58489D02*
X85451Y-58489D01*
X85470Y-58479D01*
X85479Y-58460D01*
X85479Y-58432D01*
X85470Y-58413D01*
X85460Y-58404D01*
X85376Y-58245D02*
X85376Y-58310D01*
X85479Y-58310D02*
X85282Y-58310D01*
X85282Y-58216D01*
X80829Y-59232D02*
X80829Y-59326D01*
X80632Y-59326D01*
X80829Y-59063D02*
X80829Y-59176D01*
X80829Y-59120D02*
X80632Y-59120D01*
X80660Y-59139D01*
X80679Y-59157D01*
X80689Y-59176D01*
X80698Y-58895D02*
X80829Y-58895D01*
X80623Y-58942D02*
X80764Y-58989D01*
X80764Y-58867D01*
X80810Y-58792D02*
X80820Y-58782D01*
X80829Y-58792D01*
X80820Y-58801D01*
X80810Y-58792D01*
X80829Y-58792D01*
X80632Y-58717D02*
X80632Y-58585D01*
X80829Y-58670D01*
X80698Y-58426D02*
X80829Y-58426D01*
X80698Y-58510D02*
X80801Y-58510D01*
X80820Y-58501D01*
X80829Y-58482D01*
X80829Y-58454D01*
X80820Y-58435D01*
X80810Y-58426D01*
X80829Y-58332D02*
X80632Y-58332D01*
X80726Y-58332D02*
X80726Y-58220D01*
X80829Y-58220D02*
X80632Y-58220D01*
X81867Y-59410D02*
X81857Y-59420D01*
X81829Y-59429D01*
X81810Y-59429D01*
X81782Y-59420D01*
X81763Y-59401D01*
X81754Y-59382D01*
X81745Y-59345D01*
X81745Y-59317D01*
X81754Y-59279D01*
X81763Y-59260D01*
X81782Y-59242D01*
X81810Y-59232D01*
X81829Y-59232D01*
X81857Y-59242D01*
X81867Y-59251D01*
X82054Y-59429D02*
X81942Y-59429D01*
X81998Y-59429D02*
X81998Y-59232D01*
X81979Y-59260D01*
X81960Y-59279D01*
X81942Y-59289D01*
X82338Y-59429D02*
X82226Y-59429D01*
X82282Y-59429D02*
X82282Y-59232D01*
X82263Y-59260D01*
X82245Y-59279D01*
X82226Y-59289D01*
X82460Y-59232D02*
X82479Y-59232D01*
X82498Y-59242D01*
X82507Y-59251D01*
X82517Y-59270D01*
X82526Y-59307D01*
X82526Y-59354D01*
X82517Y-59392D01*
X82507Y-59410D01*
X82498Y-59420D01*
X82479Y-59429D01*
X82460Y-59429D01*
X82442Y-59420D01*
X82432Y-59410D01*
X82423Y-59392D01*
X82413Y-59354D01*
X82413Y-59307D01*
X82423Y-59270D01*
X82432Y-59251D01*
X82442Y-59242D01*
X82460Y-59232D01*
X82695Y-59298D02*
X82695Y-59429D01*
X82610Y-59298D02*
X82610Y-59401D01*
X82620Y-59420D01*
X82639Y-59429D01*
X82667Y-59429D01*
X82686Y-59420D01*
X82695Y-59410D01*
X82854Y-59326D02*
X82789Y-59326D01*
X82789Y-59429D02*
X82789Y-59232D01*
X82883Y-59232D01*
X80067Y-56129D02*
X80001Y-56035D01*
X79954Y-56129D02*
X79954Y-55932D01*
X80029Y-55932D01*
X80048Y-55942D01*
X80057Y-55951D01*
X80067Y-55970D01*
X80067Y-55998D01*
X80057Y-56017D01*
X80048Y-56026D01*
X80029Y-56035D01*
X79954Y-56035D01*
X80254Y-56129D02*
X80142Y-56129D01*
X80198Y-56129D02*
X80198Y-55932D01*
X80179Y-55960D01*
X80160Y-55979D01*
X80142Y-55989D01*
X80656Y-55951D02*
X80665Y-55942D01*
X80684Y-55932D01*
X80731Y-55932D01*
X80749Y-55942D01*
X80759Y-55951D01*
X80768Y-55970D01*
X80768Y-55989D01*
X80759Y-56017D01*
X80646Y-56129D01*
X80768Y-56129D01*
X80843Y-55951D02*
X80853Y-55942D01*
X80871Y-55932D01*
X80918Y-55932D01*
X80937Y-55942D01*
X80946Y-55951D01*
X80956Y-55970D01*
X80956Y-55989D01*
X80946Y-56017D01*
X80834Y-56129D01*
X80956Y-56129D01*
X81078Y-55932D02*
X81097Y-55932D01*
X81115Y-55942D01*
X81125Y-55951D01*
X81134Y-55970D01*
X81143Y-56007D01*
X81143Y-56054D01*
X81134Y-56092D01*
X81125Y-56110D01*
X81115Y-56120D01*
X81097Y-56129D01*
X81078Y-56129D01*
X81059Y-56120D01*
X81050Y-56110D01*
X81040Y-56092D01*
X81031Y-56054D01*
X81031Y-56007D01*
X81040Y-55970D01*
X81050Y-55951D01*
X81059Y-55942D01*
X81078Y-55932D01*
G54D18*
X84184Y-55825D02*
X84184Y-55144D01*
X84286Y-55144D01*
X84347Y-55177D01*
X84387Y-55241D01*
X84408Y-55306D01*
X84428Y-55436D01*
X84428Y-55533D01*
X84408Y-55663D01*
X84387Y-55728D01*
X84347Y-55793D01*
X84286Y-55825D01*
X84184Y-55825D01*
X84836Y-55825D02*
X84591Y-55825D01*
X84714Y-55825D02*
X84714Y-55144D01*
X84673Y-55241D01*
X84632Y-55306D01*
X84591Y-55339D01*
G54D14*
G54D18*
X87784Y-55825D02*
X87784Y-55144D01*
X87947Y-55144D01*
X87987Y-55177D01*
X88008Y-55209D01*
X88028Y-55274D01*
X88028Y-55371D01*
X88008Y-55436D01*
X87987Y-55468D01*
X87947Y-55501D01*
X87784Y-55501D01*
X88436Y-55825D02*
X88191Y-55825D01*
X88314Y-55825D02*
X88314Y-55144D01*
X88273Y-55241D01*
X88232Y-55306D01*
X88191Y-55339D01*
G54D14*
G54D18*
X76179Y-55793D02*
X76240Y-55825D01*
X76342Y-55825D01*
X76383Y-55793D01*
X76403Y-55760D01*
X76423Y-55695D01*
X76423Y-55631D01*
X76403Y-55566D01*
X76383Y-55533D01*
X76342Y-55501D01*
X76260Y-55468D01*
X76220Y-55436D01*
X76199Y-55404D01*
X76179Y-55339D01*
X76179Y-55274D01*
X76199Y-55209D01*
X76220Y-55177D01*
X76260Y-55144D01*
X76362Y-55144D01*
X76423Y-55177D01*
X76566Y-55144D02*
X76668Y-55825D01*
X76750Y-55339D01*
X76831Y-55825D01*
X76933Y-55144D01*
X77320Y-55825D02*
X77076Y-55825D01*
X77198Y-55825D02*
X77198Y-55144D01*
X77157Y-55241D01*
X77116Y-55306D01*
X77076Y-55339D01*
G54D17*
X87517Y-57129D02*
X87451Y-57035D01*
X87404Y-57129D02*
X87404Y-56932D01*
X87479Y-56932D01*
X87498Y-56942D01*
X87507Y-56951D01*
X87517Y-56970D01*
X87517Y-56998D01*
X87507Y-57017D01*
X87498Y-57026D01*
X87479Y-57035D01*
X87404Y-57035D01*
X87686Y-56998D02*
X87686Y-57129D01*
X87639Y-56923D02*
X87592Y-57064D01*
X87714Y-57064D01*
X87392Y-57232D02*
X87513Y-57232D01*
X87448Y-57307D01*
X87476Y-57307D01*
X87495Y-57317D01*
X87504Y-57326D01*
X87513Y-57345D01*
X87513Y-57392D01*
X87504Y-57410D01*
X87495Y-57420D01*
X87476Y-57429D01*
X87420Y-57429D01*
X87401Y-57420D01*
X87392Y-57410D01*
X87682Y-57232D02*
X87645Y-57232D01*
X87626Y-57242D01*
X87617Y-57251D01*
X87598Y-57279D01*
X87589Y-57317D01*
X87589Y-57392D01*
X87598Y-57410D01*
X87607Y-57420D01*
X87626Y-57429D01*
X87664Y-57429D01*
X87682Y-57420D01*
X87692Y-57410D01*
X87701Y-57392D01*
X87701Y-57345D01*
X87692Y-57326D01*
X87682Y-57317D01*
X87664Y-57307D01*
X87626Y-57307D01*
X87607Y-57317D01*
X87598Y-57326D01*
X87589Y-57345D01*
X87786Y-57429D02*
X87786Y-57232D01*
X87898Y-57429D02*
X87814Y-57317D01*
X87898Y-57232D02*
X87786Y-57345D01*
X87517Y-58179D02*
X87451Y-58085D01*
X87404Y-58179D02*
X87404Y-57982D01*
X87479Y-57982D01*
X87498Y-57992D01*
X87507Y-58001D01*
X87517Y-58020D01*
X87517Y-58048D01*
X87507Y-58067D01*
X87498Y-58076D01*
X87479Y-58085D01*
X87404Y-58085D01*
X87695Y-57982D02*
X87601Y-57982D01*
X87592Y-58076D01*
X87601Y-58067D01*
X87620Y-58057D01*
X87667Y-58057D01*
X87686Y-58067D01*
X87695Y-58076D01*
X87704Y-58095D01*
X87704Y-58142D01*
X87695Y-58160D01*
X87686Y-58170D01*
X87667Y-58179D01*
X87620Y-58179D01*
X87601Y-58170D01*
X87592Y-58160D01*
X87517Y-59079D02*
X87451Y-58985D01*
X87404Y-59079D02*
X87404Y-58882D01*
X87479Y-58882D01*
X87498Y-58892D01*
X87507Y-58901D01*
X87517Y-58920D01*
X87517Y-58948D01*
X87507Y-58967D01*
X87498Y-58976D01*
X87479Y-58985D01*
X87404Y-58985D01*
X87686Y-58882D02*
X87648Y-58882D01*
X87629Y-58892D01*
X87620Y-58901D01*
X87601Y-58929D01*
X87592Y-58967D01*
X87592Y-59042D01*
X87601Y-59060D01*
X87610Y-59070D01*
X87629Y-59079D01*
X87667Y-59079D01*
X87686Y-59070D01*
X87695Y-59060D01*
X87704Y-59042D01*
X87704Y-58995D01*
X87695Y-58976D01*
X87686Y-58967D01*
X87667Y-58957D01*
X87629Y-58957D01*
X87610Y-58967D01*
X87601Y-58976D01*
X87592Y-58995D01*
M02*
