<?xml version="1.0" encoding="UTF-8" standalone="no"?>
<svg
   xmlns:dc="http://purl.org/dc/elements/1.1/"
   xmlns:cc="http://creativecommons.org/ns#"
   xmlns:rdf="http://www.w3.org/1999/02/22-rdf-syntax-ns#"
   xmlns:svg="http://www.w3.org/2000/svg"
   xmlns="http://www.w3.org/2000/svg"
   xmlns:xlink="http://www.w3.org/1999/xlink"
   xmlns:sodipodi="http://sodipodi.sourceforge.net/DTD/sodipodi-0.dtd"
   xmlns:inkscape="http://www.inkscape.org/namespaces/inkscape"
   width="744.094488189"
   height="1052.36220472"
   id="svg2985"
   version="1.1"
   inkscape:version="0.48.4 r9939"
   sodipodi:docname="REFERENCE box outlines.DXF">
  <metadata
     id="metadata3438">
    <rdf:RDF>
      <cc:Work
         rdf:about="">
        <dc:format>image/svg+xml</dc:format>
        <dc:type
           rdf:resource="http://purl.org/dc/dcmitype/StillImage" />
        <dc:title></dc:title>
      </cc:Work>
    </rdf:RDF>
  </metadata>
  <sodipodi:namedview
     pagecolor="#ffffff"
     bordercolor="#666666"
     borderopacity="1"
     objecttolerance="10"
     gridtolerance="10"
     guidetolerance="10"
     inkscape:pageopacity="0"
     inkscape:pageshadow="2"
     inkscape:window-width="1366"
     inkscape:window-height="706"
     id="namedview3436"
     showgrid="false"
     inkscape:zoom="0.46466892"
     inkscape:cx="372.04724"
     inkscape:cy="526.18109"
     inkscape:window-x="-8"
     inkscape:window-y="-8"
     inkscape:window-maximized="1"
     inkscape:current-layer="g3208" />
  <desc
     id="desc2987">C:\Users\sfeller\Dropbox\Clock\Mechanical\Artwork\REFERENCE box outlines.DXF - scale = 25.400000</desc>
  <defs
     id="defs2989">
    <marker
       refY="0.0"
       refX="0.0"
       style="overflow:visible"
       id="DistanceX"
       orient="auto">
      <path
         style="stroke:#000000; stroke-width:0.5"
         d="M 3,-3 L -3,3 M 0,-5 L  0,5"
         id="path2992" />
    </marker>
    <pattern
       height="8"
       width="8"
       patternUnits="userSpaceOnUse"
       y="0"
       x="0"
       id="Hatch">
      <path
         linecap="square"
         stroke="#000000"
         stroke-width="0.25"
         d="M8 4 l-4,4"
         id="path2995" />
      <path
         linecap="square"
         stroke="#000000"
         stroke-width="0.25"
         d="M6 2 l-4,4"
         id="path2997" />
      <path
         linecap="square"
         stroke="#000000"
         stroke-width="0.25"
         d="M4 0 l-4,4"
         id="path2999" />
    </pattern>
    <symbol
       id="*MODEL_SPACE" />
    <symbol
       id="*PAPER_SPACE" />
    <symbol
       id="*PAPER_SPACE0" />
    <symbol
       id="SW_CENTERMARKSYMBOL_0">
      <path
         style="stroke:#000000;fill:none;stroke-linecap: round"
         d="M 0.000000,1052.362205 0.000000,1061.362205"
         id="path3005" />
      <path
         style="stroke:#000000;fill:none;stroke-linecap: round"
         d="M 0.000000,1052.362205 9.000000,1052.362205"
         id="path3007" />
      <path
         style="stroke:#000000;fill:none;stroke-linecap: round"
         d="M 0.000000,1052.362205 0.000000,1043.362205"
         id="path3009" />
      <path
         style="stroke:#000000;fill:none;stroke-linecap: round"
         d="M 0.000000,1052.362205 -9.000000,1052.362205"
         id="path3011" />
      <path
         style="stroke:#000000;fill:none;stroke-linecap: round"
         d="M 0.000000,1070.362205 0.000000,1083.862205"
         id="path3013" />
      <path
         style="stroke:#000000;fill:none;stroke-linecap: round"
         d="M 18.000000,1052.362205 31.500000,1052.362205"
         id="path3015" />
      <path
         style="stroke:#000000;fill:none;stroke-linecap: round"
         d="M 0.000000,1034.362205 0.000000,1020.862205"
         id="path3017" />
      <path
         style="stroke:#000000;fill:none;stroke-linecap: round"
         d="M -18.000000,1052.362205 -31.500000,1052.362205"
         id="path3019" />
    </symbol>
    <symbol
       id="SW_CENTERMARKSYMBOL_1">
      <path
         style="stroke:#000000;fill:none;stroke-linecap: round"
         d="M 0.000000,1052.362205 0.000000,1061.362205"
         id="path3022" />
      <path
         style="stroke:#000000;fill:none;stroke-linecap: round"
         d="M 0.000000,1052.362205 9.000000,1052.362205"
         id="path3024" />
      <path
         style="stroke:#000000;fill:none;stroke-linecap: round"
         d="M 0.000000,1052.362205 0.000000,1043.362205"
         id="path3026" />
      <path
         style="stroke:#000000;fill:none;stroke-linecap: round"
         d="M 0.000000,1052.362205 -9.000000,1052.362205"
         id="path3028" />
      <path
         style="stroke:#000000;fill:none;stroke-linecap: round"
         d="M 0.000000,1070.362205 0.000000,1083.862205"
         id="path3030" />
      <path
         style="stroke:#000000;fill:none;stroke-linecap: round"
         d="M 18.000000,1052.362205 31.500000,1052.362205"
         id="path3032" />
      <path
         style="stroke:#000000;fill:none;stroke-linecap: round"
         d="M 0.000000,1034.362205 0.000000,1020.862205"
         id="path3034" />
      <path
         style="stroke:#000000;fill:none;stroke-linecap: round"
         d="M -18.000000,1052.362205 -31.500000,1052.362205"
         id="path3036" />
    </symbol>
    <symbol
       id="SW_CENTERMARKSYMBOL_2">
      <path
         style="stroke:#000000;fill:none;stroke-linecap: round"
         d="M 0.000000,1052.362205 0.000000,1061.362205"
         id="path3039" />
      <path
         style="stroke:#000000;fill:none;stroke-linecap: round"
         d="M 0.000000,1052.362205 9.000000,1052.362205"
         id="path3041" />
      <path
         style="stroke:#000000;fill:none;stroke-linecap: round"
         d="M 0.000000,1052.362205 0.000000,1043.362205"
         id="path3043" />
      <path
         style="stroke:#000000;fill:none;stroke-linecap: round"
         d="M 0.000000,1052.362205 -9.000000,1052.362205"
         id="path3045" />
      <path
         style="stroke:#000000;fill:none;stroke-linecap: round"
         d="M 0.000000,1070.362205 0.000000,1129.570866"
         id="path3047" />
      <path
         style="stroke:#000000;fill:none;stroke-linecap: round"
         d="M 18.000000,1052.362205 77.208661,1052.362205"
         id="path3049" />
      <path
         style="stroke:#000000;fill:none;stroke-linecap: round"
         d="M 0.000000,1034.362205 0.000000,975.153543"
         id="path3051" />
      <path
         style="stroke:#000000;fill:none;stroke-linecap: round"
         d="M -18.000000,1052.362205 -77.208661,1052.362205"
         id="path3053" />
    </symbol>
    <symbol
       id="SW_CENTERMARKSYMBOL_3">
      <path
         style="stroke:#000000;fill:none;stroke-linecap: round"
         d="M 0.000000,1052.362205 0.000000,1061.362205"
         id="path3056" />
      <path
         style="stroke:#000000;fill:none;stroke-linecap: round"
         d="M 0.000000,1052.362205 9.000000,1052.362205"
         id="path3058" />
      <path
         style="stroke:#000000;fill:none;stroke-linecap: round"
         d="M 0.000000,1052.362205 0.000000,1043.362205"
         id="path3060" />
      <path
         style="stroke:#000000;fill:none;stroke-linecap: round"
         d="M 0.000000,1052.362205 -9.000000,1052.362205"
         id="path3062" />
      <path
         style="stroke:#000000;fill:none;stroke-linecap: round"
         d="M 0.000000,1061.362205 0.000000,1065.791339"
         id="path3064" />
      <path
         style="stroke:#000000;fill:none;stroke-linecap: round"
         d="M 9.000000,1052.362205 13.429134,1052.362205"
         id="path3066" />
      <path
         style="stroke:#000000;fill:none;stroke-linecap: round"
         d="M 0.000000,1043.362205 0.000000,1038.933071"
         id="path3068" />
      <path
         style="stroke:#000000;fill:none;stroke-linecap: round"
         d="M -9.000000,1052.362205 -13.429134,1052.362205"
         id="path3070" />
    </symbol>
    <symbol
       id="SW_CENTERMARKSYMBOL_4">
      <path
         style="stroke:#000000;fill:none;stroke-linecap: round"
         d="M 0.000000,1052.362205 0.000000,1061.362205"
         id="path3073" />
      <path
         style="stroke:#000000;fill:none;stroke-linecap: round"
         d="M 0.000000,1052.362205 9.000000,1052.362205"
         id="path3075" />
      <path
         style="stroke:#000000;fill:none;stroke-linecap: round"
         d="M 0.000000,1052.362205 0.000000,1043.362205"
         id="path3077" />
      <path
         style="stroke:#000000;fill:none;stroke-linecap: round"
         d="M 0.000000,1052.362205 -9.000000,1052.362205"
         id="path3079" />
      <path
         style="stroke:#000000;fill:none;stroke-linecap: round"
         d="M 0.000000,1061.362205 0.000000,1065.791339"
         id="path3081" />
      <path
         style="stroke:#000000;fill:none;stroke-linecap: round"
         d="M 9.000000,1052.362205 13.429134,1052.362205"
         id="path3083" />
      <path
         style="stroke:#000000;fill:none;stroke-linecap: round"
         d="M 0.000000,1043.362205 0.000000,1038.933071"
         id="path3085" />
      <path
         style="stroke:#000000;fill:none;stroke-linecap: round"
         d="M -9.000000,1052.362205 -13.429134,1052.362205"
         id="path3087" />
    </symbol>
    <symbol
       id="SW_CENTERMARKSYMBOL_5">
      <path
         style="stroke:#000000;fill:none;stroke-linecap: round"
         d="M 0.000000,1052.362205 0.000000,1061.362205"
         id="path3090" />
      <path
         style="stroke:#000000;fill:none;stroke-linecap: round"
         d="M 0.000000,1052.362205 9.000000,1052.362205"
         id="path3092" />
      <path
         style="stroke:#000000;fill:none;stroke-linecap: round"
         d="M 0.000000,1052.362205 0.000000,1043.362205"
         id="path3094" />
      <path
         style="stroke:#000000;fill:none;stroke-linecap: round"
         d="M 0.000000,1052.362205 -9.000000,1052.362205"
         id="path3096" />
      <path
         style="stroke:#000000;fill:none;stroke-linecap: round"
         d="M 0.000000,1061.362205 0.000000,1065.791339"
         id="path3098" />
      <path
         style="stroke:#000000;fill:none;stroke-linecap: round"
         d="M 9.000000,1052.362205 13.429134,1052.362205"
         id="path3100" />
      <path
         style="stroke:#000000;fill:none;stroke-linecap: round"
         d="M 0.000000,1043.362205 0.000000,1038.933071"
         id="path3102" />
      <path
         style="stroke:#000000;fill:none;stroke-linecap: round"
         d="M -9.000000,1052.362205 -13.429134,1052.362205"
         id="path3104" />
    </symbol>
    <symbol
       id="SW_CENTERMARKSYMBOL_6">
      <path
         style="stroke:#000000;fill:none;stroke-linecap: round"
         d="M 0.000000,1052.362205 0.000000,1061.362205"
         id="path3107" />
      <path
         style="stroke:#000000;fill:none;stroke-linecap: round"
         d="M 0.000000,1052.362205 9.000000,1052.362205"
         id="path3109" />
      <path
         style="stroke:#000000;fill:none;stroke-linecap: round"
         d="M 0.000000,1052.362205 0.000000,1043.362205"
         id="path3111" />
      <path
         style="stroke:#000000;fill:none;stroke-linecap: round"
         d="M 0.000000,1052.362205 -9.000000,1052.362205"
         id="path3113" />
      <path
         style="stroke:#000000;fill:none;stroke-linecap: round"
         d="M 0.000000,1061.362205 0.000000,1065.791339"
         id="path3115" />
      <path
         style="stroke:#000000;fill:none;stroke-linecap: round"
         d="M 9.000000,1052.362205 13.429134,1052.362205"
         id="path3117" />
      <path
         style="stroke:#000000;fill:none;stroke-linecap: round"
         d="M 0.000000,1043.362205 0.000000,1038.933071"
         id="path3119" />
      <path
         style="stroke:#000000;fill:none;stroke-linecap: round"
         d="M -9.000000,1052.362205 -13.429134,1052.362205"
         id="path3121" />
    </symbol>
    <symbol
       id="SW_CENTERMARKSYMBOL_7">
      <path
         style="stroke:#000000;fill:none;stroke-linecap: round"
         d="M 0.000000,1052.362205 0.000000,1061.362205"
         id="path3124" />
      <path
         style="stroke:#000000;fill:none;stroke-linecap: round"
         d="M 0.000000,1052.362205 9.000000,1052.362205"
         id="path3126" />
      <path
         style="stroke:#000000;fill:none;stroke-linecap: round"
         d="M 0.000000,1052.362205 0.000000,1043.362205"
         id="path3128" />
      <path
         style="stroke:#000000;fill:none;stroke-linecap: round"
         d="M 0.000000,1052.362205 -9.000000,1052.362205"
         id="path3130" />
      <path
         style="stroke:#000000;fill:none;stroke-linecap: round"
         d="M 0.000000,1061.362205 0.000000,1065.791339"
         id="path3132" />
      <path
         style="stroke:#000000;fill:none;stroke-linecap: round"
         d="M 9.000000,1052.362205 13.429134,1052.362205"
         id="path3134" />
      <path
         style="stroke:#000000;fill:none;stroke-linecap: round"
         d="M 0.000000,1043.362205 0.000000,1038.933071"
         id="path3136" />
      <path
         style="stroke:#000000;fill:none;stroke-linecap: round"
         d="M -9.000000,1052.362205 -13.429134,1052.362205"
         id="path3138" />
    </symbol>
    <symbol
       id="SW_CENTERMARKSYMBOL_8">
      <path
         style="stroke:#000000;fill:none;stroke-linecap: round"
         d="M 0.000000,1052.362205 0.000000,1061.362205"
         id="path3141" />
      <path
         style="stroke:#000000;fill:none;stroke-linecap: round"
         d="M 0.000000,1052.362205 9.000000,1052.362205"
         id="path3143" />
      <path
         style="stroke:#000000;fill:none;stroke-linecap: round"
         d="M 0.000000,1052.362205 0.000000,1043.362205"
         id="path3145" />
      <path
         style="stroke:#000000;fill:none;stroke-linecap: round"
         d="M 0.000000,1052.362205 -9.000000,1052.362205"
         id="path3147" />
      <path
         style="stroke:#000000;fill:none;stroke-linecap: round"
         d="M 0.000000,1061.362205 0.000000,1065.791339"
         id="path3149" />
      <path
         style="stroke:#000000;fill:none;stroke-linecap: round"
         d="M 9.000000,1052.362205 13.429134,1052.362205"
         id="path3151" />
      <path
         style="stroke:#000000;fill:none;stroke-linecap: round"
         d="M 0.000000,1043.362205 0.000000,1038.933071"
         id="path3153" />
      <path
         style="stroke:#000000;fill:none;stroke-linecap: round"
         d="M -9.000000,1052.362205 -13.429134,1052.362205"
         id="path3155" />
    </symbol>
    <symbol
       id="SW_CENTERMARKSYMBOL_9">
      <path
         style="stroke:#000000;fill:none;stroke-linecap: round"
         d="M 0.000000,1052.362205 0.000000,1061.362205"
         id="path3158" />
      <path
         style="stroke:#000000;fill:none;stroke-linecap: round"
         d="M 0.000000,1052.362205 9.000000,1052.362205"
         id="path3160" />
      <path
         style="stroke:#000000;fill:none;stroke-linecap: round"
         d="M 0.000000,1052.362205 0.000000,1043.362205"
         id="path3162" />
      <path
         style="stroke:#000000;fill:none;stroke-linecap: round"
         d="M 0.000000,1052.362205 -9.000000,1052.362205"
         id="path3164" />
      <path
         style="stroke:#000000;fill:none;stroke-linecap: round"
         d="M 0.000000,1061.362205 0.000000,1065.791339"
         id="path3166" />
      <path
         style="stroke:#000000;fill:none;stroke-linecap: round"
         d="M 9.000000,1052.362205 13.429134,1052.362205"
         id="path3168" />
      <path
         style="stroke:#000000;fill:none;stroke-linecap: round"
         d="M 0.000000,1043.362205 0.000000,1038.933071"
         id="path3170" />
      <path
         style="stroke:#000000;fill:none;stroke-linecap: round"
         d="M -9.000000,1052.362205 -13.429134,1052.362205"
         id="path3172" />
    </symbol>
    <symbol
       id="SW_CENTERMARKSYMBOL_10">
      <path
         style="stroke:#000000;fill:none;stroke-linecap: round"
         d="M 0.000000,1052.362205 0.000000,1061.362205"
         id="path3175" />
      <path
         style="stroke:#000000;fill:none;stroke-linecap: round"
         d="M 0.000000,1052.362205 9.000000,1052.362205"
         id="path3177" />
      <path
         style="stroke:#000000;fill:none;stroke-linecap: round"
         d="M 0.000000,1052.362205 0.000000,1043.362205"
         id="path3179" />
      <path
         style="stroke:#000000;fill:none;stroke-linecap: round"
         d="M 0.000000,1052.362205 -9.000000,1052.362205"
         id="path3181" />
      <path
         style="stroke:#000000;fill:none;stroke-linecap: round"
         d="M 0.000000,1061.362205 0.000000,1065.791339"
         id="path3183" />
      <path
         style="stroke:#000000;fill:none;stroke-linecap: round"
         d="M 9.000000,1052.362205 13.429134,1052.362205"
         id="path3185" />
      <path
         style="stroke:#000000;fill:none;stroke-linecap: round"
         d="M 0.000000,1043.362205 0.000000,1038.933071"
         id="path3187" />
      <path
         style="stroke:#000000;fill:none;stroke-linecap: round"
         d="M -9.000000,1052.362205 -13.429134,1052.362205"
         id="path3189" />
    </symbol>
    <symbol
       id="SW_CENTERMARKSYMBOL_11">
      <path
         style="stroke:#000000;fill:none;stroke-linecap: round"
         d="M 0.000000,1052.362205 0.000000,1061.362205"
         id="path3192" />
      <path
         style="stroke:#000000;fill:none;stroke-linecap: round"
         d="M 0.000000,1052.362205 9.000000,1052.362205"
         id="path3194" />
      <path
         style="stroke:#000000;fill:none;stroke-linecap: round"
         d="M 0.000000,1052.362205 0.000000,1043.362205"
         id="path3196" />
      <path
         style="stroke:#000000;fill:none;stroke-linecap: round"
         d="M 0.000000,1052.362205 -9.000000,1052.362205"
         id="path3198" />
      <path
         style="stroke:#000000;fill:none;stroke-linecap: round"
         d="M 0.000000,1070.362205 0.000000,1129.570866"
         id="path3200" />
      <path
         style="stroke:#000000;fill:none;stroke-linecap: round"
         d="M 18.000000,1052.362205 77.208661,1052.362205"
         id="path3202" />
      <path
         style="stroke:#000000;fill:none;stroke-linecap: round"
         d="M 0.000000,1034.362205 0.000000,975.153543"
         id="path3204" />
      <path
         style="stroke:#000000;fill:none;stroke-linecap: round"
         d="M -18.000000,1052.362205 -77.208661,1052.362205"
         id="path3206" />
    </symbol>
  </defs>
  <g
     inkscape:label="0"
     inkscape:groupmode="layer"
     id="g3208">
    <g
       id="g7814">
      <g
         transform="translate(-197.99043,-73.170377)"
         id="g3440">
        <path
           inkscape:connector-curvature="0"
           style="fill:none;stroke:#000000;stroke-linecap:round"
           d="m 798.60606,381.92434 -540.00001,0"
           id="path3210" />
        <path
           inkscape:connector-curvature="0"
           style="fill:none;stroke:#000000;stroke-linecap:round"
           d="m 258.60605,219.99634 0,161.928"
           id="path3212" />
        <path
           inkscape:connector-curvature="0"
           style="fill:none;stroke:#000000;stroke-linecap:round"
           d="m 261.30605,217.29634 a 2.7,2.7 0 0 0 -2.7,2.7"
           id="path3214" />
        <path
           inkscape:connector-curvature="0"
           style="fill:none;stroke:#000000;stroke-linecap:round"
           d="m 795.90605,217.29633 -534.6,0"
           id="path3216" />
        <path
           inkscape:connector-curvature="0"
           style="fill:none;stroke:#000000;stroke-linecap:round"
           d="m 798.60605,219.99634 a 2.7,2.7 0 0 0 -2.7,-2.7"
           id="path3218" />
        <path
           inkscape:connector-curvature="0"
           style="fill:none;stroke:#000000;stroke-linecap:round"
           d="m 798.60606,381.92434 0,-161.928"
           id="path3220" />
        <path
           inkscape:connector-curvature="0"
           style="fill:none;stroke:#000000;stroke-linecap:round"
           d="m 348.60605,322.80185 a 22.5,22.5 0 1 0 -45,0 22.5,22.5 0 1 0 45,0 z"
           id="path3222" />
        <path
           inkscape:connector-curvature="0"
           style="fill:none;stroke:#000000;stroke-linecap:round"
           d="m 753.60605,322.80185 a 22.5,22.5 0 1 0 -45,0 22.5,22.5 0 1 0 45,0 z"
           id="path3224" />
        <path
           inkscape:connector-curvature="0"
           style="fill:none;stroke:#000000;stroke-linecap:round"
           d="m 258.60605,387.39634 0,-5.472"
           id="path3226" />
        <path
           inkscape:connector-curvature="0"
           style="fill:none;stroke:#000000;stroke-linecap:round"
           d="m 798.60606,381.92434 0,5.472"
           id="path3228" />
        <path
           inkscape:connector-curvature="0"
           style="fill:none;stroke:#000000;stroke-linecap:round"
           d="m 798.60606,387.39634 -540.00001,0"
           id="path3230" />
        <path
           inkscape:connector-curvature="0"
           style="fill:none;stroke:#000000;stroke-linecap:round"
           d="m 253.20604,382.82434 0,4.572"
           id="path3232" />
        <path
           inkscape:connector-curvature="0"
           style="fill:none;stroke:#000000;stroke-linecap:round"
           d="m 247.73405,381.92434 a 5.472,5.472 0 0 0 5.472,5.472"
           id="path3234" />
        <path
           inkscape:connector-curvature="0"
           style="fill:none;stroke:#000000;stroke-linecap:round"
           d="m 252.30605,381.92434 -4.572,0"
           id="path3236" />
        <path
           inkscape:connector-curvature="0"
           style="fill:none;stroke:#000000;stroke-linecap:round"
           d="m 252.30605,381.92434 a 0.9,0.9 0 0 0 0.9,0.9"
           id="path3238" />
        <path
           inkscape:connector-curvature="0"
           style="fill:none;stroke:#000000;stroke-linecap:round"
           d="m 809.47806,354.90634 -4.57201,0"
           id="path3240" />
        <path
           inkscape:connector-curvature="0"
           style="fill:none;stroke:#000000;stroke-linecap:round"
           d="m 804.90605,352.20634 4.57201,0"
           id="path3242" />
        <path
           inkscape:connector-curvature="0"
           style="fill:none;stroke:#000000;stroke-linecap:round"
           d="m 809.47806,352.20634 0,2.7"
           id="path3244" />
        <path
           inkscape:connector-curvature="0"
           style="fill:none;stroke:#000000;stroke-linecap:round"
           d="m 804.90605,354.90634 0,-2.7"
           id="path3246" />
        <path
           inkscape:connector-curvature="0"
           style="fill:none;stroke:#000000;stroke-linecap:round"
           d="m 804.90605,381.92434 4.57201,0"
           id="path3248" />
        <path
           inkscape:connector-curvature="0"
           style="fill:none;stroke:#000000;stroke-linecap:round"
           d="m 809.47806,354.90634 0,27.018"
           id="path3250" />
        <path
           inkscape:connector-curvature="0"
           style="fill:none;stroke:#000000;stroke-linecap:round"
           d="m 804.90605,354.90634 0,27.018"
           id="path3252" />
        <path
           inkscape:connector-curvature="0"
           style="fill:none;stroke:#000000;stroke-linecap:round"
           d="m 253.20604,382.82434 5.40001,0"
           id="path3254" />
        <path
           inkscape:connector-curvature="0"
           style="fill:none;stroke:#000000;stroke-linecap:round"
           d="m 253.20604,387.39634 5.40001,0"
           id="path3256" />
        <path
           inkscape:connector-curvature="0"
           style="fill:none;stroke:#000000;stroke-linecap:round"
           d="m 804.00606,382.82434 0,4.572"
           id="path3258" />
        <path
           inkscape:connector-curvature="0"
           style="fill:none;stroke:#000000;stroke-linecap:round"
           d="m 804.00605,382.82434 a 0.9,0.9 0 0 0 0.9,-0.9"
           id="path3260" />
        <path
           inkscape:connector-curvature="0"
           style="fill:none;stroke:#000000;stroke-linecap:round"
           d="m 804.00605,387.39634 a 5.472,5.472 0 0 0 5.472,-5.472"
           id="path3262" />
        <path
           inkscape:connector-curvature="0"
           style="fill:none;stroke:#000000;stroke-linecap:round"
           d="m 804.00606,382.82434 -5.4,0"
           id="path3264" />
        <path
           inkscape:connector-curvature="0"
           style="fill:none;stroke:#000000;stroke-linecap:round"
           d="m 804.00606,387.39634 -5.4,0"
           id="path3266" />
        <path
           inkscape:connector-curvature="0"
           style="fill:none;stroke:#000000;stroke-linecap:round"
           d="m 252.30605,354.90634 -4.572,0"
           id="path3268" />
        <path
           inkscape:connector-curvature="0"
           style="fill:none;stroke:#000000;stroke-linecap:round"
           d="m 252.30605,381.92434 0,-27.018"
           id="path3270" />
        <path
           inkscape:connector-curvature="0"
           style="fill:none;stroke:#000000;stroke-linecap:round"
           d="m 247.73405,381.92434 0,-27.018"
           id="path3272" />
        <path
           inkscape:connector-curvature="0"
           style="fill:none;stroke:#000000;stroke-linecap:round"
           d="m 247.73405,352.20634 4.572,0"
           id="path3274" />
        <path
           inkscape:connector-curvature="0"
           style="fill:none;stroke:#000000;stroke-linecap:round"
           d="m 252.30605,352.20634 0,2.7"
           id="path3276" />
        <path
           inkscape:connector-curvature="0"
           style="fill:none;stroke:#000000;stroke-linecap:round"
           d="m 247.73405,354.90634 0,-2.7"
           id="path3278" />
        <use
           height="1052.3622"
           width="744.09448"
           y="-729.56036"
           x="326.10605"
           xlink:href="#SW_CENTERMARKSYMBOL_0"
           id="use3280" />
        <use
           height="1052.3622"
           width="744.09448"
           y="-729.56036"
           x="731.10608"
           xlink:href="#SW_CENTERMARKSYMBOL_1"
           id="use3282" />
      </g>
    </g>
    <g
       id="g3479"
       transform="translate(-204.44664,-32.281049)">
      <path
         id="path3284"
         d="m 276.60061,514.13335 0,4.572"
         style="fill:none;stroke:#000000;stroke-linecap:round"
         inkscape:connector-curvature="0" />
      <path
         id="path3286"
         d="m 276.60061,518.70535 -2.70001,0"
         style="fill:none;stroke:#000000;stroke-linecap:round"
         inkscape:connector-curvature="0" />
      <path
         id="path3288"
         d="m 273.9006,518.70535 0,-4.572"
         style="fill:none;stroke:#000000;stroke-linecap:round"
         inkscape:connector-curvature="0" />
      <path
         id="path3290"
         d="m 273.9006,514.13335 2.70001,0"
         style="fill:none;stroke:#000000;stroke-linecap:round"
         inkscape:connector-curvature="0" />
      <path
         id="path3292"
         d="m 813.90061,514.13335 0,4.572"
         style="fill:none;stroke:#000000;stroke-linecap:round"
         inkscape:connector-curvature="0" />
      <path
         id="path3294"
         d="m 813.90061,518.70535 -2.7,0"
         style="fill:none;stroke:#000000;stroke-linecap:round"
         inkscape:connector-curvature="0" />
      <path
         id="path3296"
         d="m 811.20061,518.70535 0,-4.572"
         style="fill:none;stroke:#000000;stroke-linecap:round"
         inkscape:connector-curvature="0" />
      <path
         id="path3298"
         d="m 811.20061,514.13335 2.7,0"
         style="fill:none;stroke:#000000;stroke-linecap:round"
         inkscape:connector-curvature="0" />
      <path
         id="path3300"
         d="m 276.60061,514.13335 534.6,0"
         style="fill:none;stroke:#000000;stroke-linecap:round"
         inkscape:connector-curvature="0" />
      <path
         id="path3302"
         d="m 276.60061,518.70535 534.6,0"
         style="fill:none;stroke:#000000;stroke-linecap:round"
         inkscape:connector-curvature="0" />
      <path
         id="path3304"
         d="m 276.60061,824.56134 0,4.57201"
         style="fill:none;stroke:#000000;stroke-linecap:round"
         inkscape:connector-curvature="0" />
      <path
         id="path3306"
         d="m 811.20061,829.13335 0,-4.57201"
         style="fill:none;stroke:#000000;stroke-linecap:round"
         inkscape:connector-curvature="0" />
      <path
         id="path3308"
         d="m 811.20061,829.13335 -534.6,0"
         style="fill:none;stroke:#000000;stroke-linecap:round"
         inkscape:connector-curvature="0" />
      <path
         id="path3310"
         d="m 811.20061,824.56134 -534.6,0"
         style="fill:none;stroke:#000000;stroke-linecap:round"
         inkscape:connector-curvature="0" />
      <path
         id="path3312"
         d="m 813.90061,824.56134 0,4.57201"
         style="fill:none;stroke:#000000;stroke-linecap:round"
         inkscape:connector-curvature="0" />
      <path
         id="path3314"
         d="m 813.90061,829.13335 -2.7,0"
         style="fill:none;stroke:#000000;stroke-linecap:round"
         inkscape:connector-curvature="0" />
      <path
         id="path3316"
         d="m 811.20061,824.56134 2.7,0"
         style="fill:none;stroke:#000000;stroke-linecap:round"
         inkscape:connector-curvature="0" />
      <path
         id="path3318"
         d="m 273.9006,829.13335 0,-4.57201"
         style="fill:none;stroke:#000000;stroke-linecap:round"
         inkscape:connector-curvature="0" />
      <path
         id="path3320"
         d="m 276.60061,829.13335 -2.70001,0"
         style="fill:none;stroke:#000000;stroke-linecap:round"
         inkscape:connector-curvature="0" />
      <path
         id="path3322"
         d="m 273.9006,824.56134 2.70001,0"
         style="fill:none;stroke:#000000;stroke-linecap:round"
         inkscape:connector-curvature="0" />
      <path
         id="path3324"
         d="m 263.0286,820.96135 4.57201,0"
         style="fill:none;stroke:#000000;stroke-linecap:round"
         inkscape:connector-curvature="0" />
      <path
         id="path3326"
         d="m 267.60061,820.96135 0,2.7"
         style="fill:none;stroke:#000000;stroke-linecap:round"
         inkscape:connector-curvature="0" />
      <path
         id="path3328"
         d="m 267.60061,823.66135 -4.57201,0"
         style="fill:none;stroke:#000000;stroke-linecap:round"
         inkscape:connector-curvature="0" />
      <path
         id="path3330"
         d="m 263.0286,823.66135 0,-2.7"
         style="fill:none;stroke:#000000;stroke-linecap:round"
         inkscape:connector-curvature="0" />
      <path
         id="path3332"
         d="m 263.0286,519.60535 4.57201,0"
         style="fill:none;stroke:#000000;stroke-linecap:round"
         inkscape:connector-curvature="0" />
      <path
         id="path3334"
         d="m 267.60061,519.60535 0,2.7"
         style="fill:none;stroke:#000000;stroke-linecap:round"
         inkscape:connector-curvature="0" />
      <path
         id="path3336"
         d="m 267.60061,522.30535 -4.57201,0"
         style="fill:none;stroke:#000000;stroke-linecap:round"
         inkscape:connector-curvature="0" />
      <path
         id="path3338"
         d="m 263.0286,522.30535 0,-2.7"
         style="fill:none;stroke:#000000;stroke-linecap:round"
         inkscape:connector-curvature="0" />
      <path
         id="path3340"
         d="m 824.77261,823.66135 -4.572,0"
         style="fill:none;stroke:#000000;stroke-linecap:round"
         inkscape:connector-curvature="0" />
      <path
         id="path3342"
         d="m 820.20061,823.66135 0,-2.7"
         style="fill:none;stroke:#000000;stroke-linecap:round"
         inkscape:connector-curvature="0" />
      <path
         id="path3344"
         d="m 820.20061,820.96135 4.572,0"
         style="fill:none;stroke:#000000;stroke-linecap:round"
         inkscape:connector-curvature="0" />
      <path
         id="path3346"
         d="m 824.77261,820.96135 0,2.7"
         style="fill:none;stroke:#000000;stroke-linecap:round"
         inkscape:connector-curvature="0" />
      <path
         id="path3348"
         d="m 267.60061,820.96135 0,-298.656"
         style="fill:none;stroke:#000000;stroke-linecap:round"
         inkscape:connector-curvature="0" />
      <path
         id="path3350"
         d="m 263.0286,820.96135 0,-298.656"
         style="fill:none;stroke:#000000;stroke-linecap:round"
         inkscape:connector-curvature="0" />
      <path
         id="path3352"
         d="m 824.77261,522.30535 -4.572,0"
         style="fill:none;stroke:#000000;stroke-linecap:round"
         inkscape:connector-curvature="0" />
      <path
         id="path3354"
         d="m 824.77261,522.30535 0,298.656"
         style="fill:none;stroke:#000000;stroke-linecap:round"
         inkscape:connector-curvature="0" />
      <path
         id="path3356"
         d="m 820.20061,522.30535 0,298.656"
         style="fill:none;stroke:#000000;stroke-linecap:round"
         inkscape:connector-curvature="0" />
      <path
         id="path3358"
         d="m 820.20061,522.30535 0,-2.7"
         style="fill:none;stroke:#000000;stroke-linecap:round"
         inkscape:connector-curvature="0" />
      <path
         id="path3360"
         d="m 820.20061,519.60535 4.572,0"
         style="fill:none;stroke:#000000;stroke-linecap:round"
         inkscape:connector-curvature="0" />
      <path
         id="path3362"
         d="m 824.77261,519.60535 0,2.7"
         style="fill:none;stroke:#000000;stroke-linecap:round"
         inkscape:connector-curvature="0" />
      <path
         id="path3364"
         d="m 268.5006,823.66135 0,-304.056"
         style="fill:none;stroke:#000000;stroke-linecap:round"
         inkscape:connector-curvature="0" />
      <path
         id="path3366"
         d="m 268.5006,519.60535 -0.89999,0"
         style="fill:none;stroke:#000000;stroke-linecap:round"
         inkscape:connector-curvature="0" />
      <path
         id="path3368"
         d="m 267.60061,823.66135 0.89999,0"
         style="fill:none;stroke:#000000;stroke-linecap:round"
         inkscape:connector-curvature="0" />
      <path
         id="path3370"
         d="m 273.9006,519.60535 540.00001,0"
         style="fill:none;stroke:#000000;stroke-linecap:round"
         inkscape:connector-curvature="0" />
      <path
         id="path3372"
         d="m 273.9006,518.70535 0,0.9"
         style="fill:none;stroke:#000000;stroke-linecap:round"
         inkscape:connector-curvature="0" />
      <path
         id="path3374"
         d="m 813.90061,519.60535 0,-0.9"
         style="fill:none;stroke:#000000;stroke-linecap:round"
         inkscape:connector-curvature="0" />
      <path
         id="path3376"
         d="m 819.30062,519.60535 0,304.056"
         style="fill:none;stroke:#000000;stroke-linecap:round"
         inkscape:connector-curvature="0" />
      <path
         id="path3378"
         d="m 820.20061,519.60535 -0.89999,0"
         style="fill:none;stroke:#000000;stroke-linecap:round"
         inkscape:connector-curvature="0" />
      <path
         id="path3380"
         d="m 819.30062,823.66135 0.89999,0"
         style="fill:none;stroke:#000000;stroke-linecap:round"
         inkscape:connector-curvature="0" />
      <path
         id="path3382"
         d="m 273.9006,823.66135 0,0.89999"
         style="fill:none;stroke:#000000;stroke-linecap:round"
         inkscape:connector-curvature="0" />
      <path
         id="path3384"
         d="m 813.90061,823.66135 -540.00001,0"
         style="fill:none;stroke:#000000;stroke-linecap:round"
         inkscape:connector-curvature="0" />
      <path
         id="path3386"
         d="m 813.90061,824.56134 0,-0.89999"
         style="fill:none;stroke:#000000;stroke-linecap:round"
         inkscape:connector-curvature="0" />
      <path
         id="path3388"
         d="m 268.5006,823.66135 5.4,0"
         style="fill:none;stroke:#000000;stroke-linecap:round"
         inkscape:connector-curvature="0" />
      <path
         id="path3390"
         d="m 268.5006,519.60535 5.4,0"
         style="fill:none;stroke:#000000;stroke-linecap:round"
         inkscape:connector-curvature="0" />
      <path
         id="path3392"
         d="m 819.30062,519.60535 -5.40001,0"
         style="fill:none;stroke:#000000;stroke-linecap:round"
         inkscape:connector-curvature="0" />
      <path
         id="path3394"
         d="m 819.30062,823.66135 -5.40001,0"
         style="fill:none;stroke:#000000;stroke-linecap:round"
         inkscape:connector-curvature="0" />
      <path
         id="path3396"
         d="m 468.10927,622.13335 a 68.208661,68.208661 0 1 0 -136.41732,0 68.208661,68.208661 0 1 0 136.41732,0 z"
         style="fill:none;stroke:#000000;stroke-linecap:round"
         inkscape:connector-curvature="0" />
      <path
         id="path3398"
         d="m 459.251,565.44044 a 4.429134,4.429134 0 1 0 -8.85827,0 4.429134,4.429134 0 1 0 8.85827,0 z"
         style="fill:none;stroke:#000000;stroke-linecap:round"
         inkscape:connector-curvature="0" />
      <path
         id="path3400"
         d="m 349.40848,565.44044 a 4.429134,4.429134 0 1 0 -8.85827,0 4.429134,4.429134 0 1 0 8.85827,0 z"
         style="fill:none;stroke:#000000;stroke-linecap:round"
         inkscape:connector-curvature="0" />
      <path
         id="path3402"
         d="m 349.40848,678.82626 a 4.429134,4.429134 0 1 0 -8.85827,0 4.429134,4.429134 0 1 0 8.85827,0 z"
         style="fill:none;stroke:#000000;stroke-linecap:round"
         inkscape:connector-curvature="0" />
      <path
         id="path3404"
         d="m 459.251,678.82626 a 4.429134,4.429134 0 1 0 -8.85827,0 4.429134,4.429134 0 1 0 8.85827,0 z"
         style="fill:none;stroke:#000000;stroke-linecap:round"
         inkscape:connector-curvature="0" />
      <path
         id="path3406"
         d="m 637.40848,678.82626 a 4.429134,4.429134 0 1 0 -8.85827,0 4.429134,4.429134 0 1 0 8.85827,0 z"
         style="fill:none;stroke:#000000;stroke-linecap:round"
         inkscape:connector-curvature="0" />
      <path
         id="path3408"
         d="m 747.251,678.82626 a 4.429134,4.429134 0 1 0 -8.85827,0 4.429134,4.429134 0 1 0 8.85827,0 z"
         style="fill:none;stroke:#000000;stroke-linecap:round"
         inkscape:connector-curvature="0" />
      <path
         id="path3410"
         d="m 747.251,565.44044 a 4.429134,4.429134 0 1 0 -8.85827,0 4.429134,4.429134 0 1 0 8.85827,0 z"
         style="fill:none;stroke:#000000;stroke-linecap:round"
         inkscape:connector-curvature="0" />
      <path
         id="path3412"
         d="m 637.40848,565.44044 a 4.429134,4.429134 0 1 0 -8.85827,0 4.429134,4.429134 0 1 0 8.85827,0 z"
         style="fill:none;stroke:#000000;stroke-linecap:round"
         inkscape:connector-curvature="0" />
      <path
         id="path3414"
         d="m 756.10927,622.13335 a 68.208662,68.208662 0 1 0 -136.41732,0 68.208662,68.208662 0 1 0 136.41732,0 z"
         style="fill:none;stroke:#000000;stroke-linecap:round"
         inkscape:connector-curvature="0" />
      <use
         id="use3416"
         xlink:href="#SW_CENTERMARKSYMBOL_2"
         x="399.9006"
         y="-430.22885"
         width="744.09448"
         height="1052.3622" />
      <use
         id="use3418"
         xlink:href="#SW_CENTERMARKSYMBOL_3"
         x="454.82187"
         y="-486.92178"
         width="744.09448"
         height="1052.3622" />
      <use
         id="use3420"
         xlink:href="#SW_CENTERMARKSYMBOL_4"
         x="344.97934"
         y="-486.92178"
         width="744.09448"
         height="1052.3622" />
      <use
         id="use3422"
         xlink:href="#SW_CENTERMARKSYMBOL_5"
         x="344.97934"
         y="-373.53595"
         width="744.09448"
         height="1052.3622" />
      <use
         id="use3424"
         xlink:href="#SW_CENTERMARKSYMBOL_6"
         x="454.82187"
         y="-373.53595"
         width="744.09448"
         height="1052.3622" />
      <use
         id="use3426"
         xlink:href="#SW_CENTERMARKSYMBOL_7"
         x="632.97937"
         y="-373.53595"
         width="744.09448"
         height="1052.3622" />
      <use
         id="use3428"
         xlink:href="#SW_CENTERMARKSYMBOL_8"
         x="742.82184"
         y="-373.53595"
         width="744.09448"
         height="1052.3622" />
      <use
         id="use3430"
         xlink:href="#SW_CENTERMARKSYMBOL_9"
         x="742.82184"
         y="-486.92178"
         width="744.09448"
         height="1052.3622" />
      <use
         id="use3432"
         xlink:href="#SW_CENTERMARKSYMBOL_10"
         x="632.97937"
         y="-486.92178"
         width="744.09448"
         height="1052.3622" />
      <use
         id="use3434"
         xlink:href="#SW_CENTERMARKSYMBOL_11"
         x="687.90063"
         y="-430.22885"
         width="744.09448"
         height="1052.3622" />
    </g>
  </g>
</svg>
