G04 (created by PCBNEW (2013-07-07 BZR 4022)-stable) date 9/13/2015 6:12:30 PM*
%MOIN*%
G04 Gerber Fmt 3.4, Leading zero omitted, Abs format*
%FSLAX34Y34*%
G01*
G70*
G90*
G04 APERTURE LIST*
%ADD10C,0.00590551*%
%ADD11C,0.0031*%
%ADD12C,0.0039*%
%ADD13C,0.012*%
%ADD14C,0.0125*%
%ADD15C,0.011811*%
%ADD16C,0.0047*%
%ADD17C,0.0043*%
%ADD18C,0.0107*%
%ADD19C,0.0075*%
G04 APERTURE END LIST*
G54D10*
G54D11*
X72599Y-57138D02*
G75*
G03X72599Y-57138I-62J0D01*
G74*
G01*
X73500Y-56800D02*
X73500Y-57200D01*
X72475Y-56800D02*
X72475Y-57200D01*
X73500Y-57200D02*
X72475Y-57200D01*
X72475Y-56800D02*
X73500Y-56800D01*
X72924Y-59037D02*
G75*
G03X72924Y-59037I-62J0D01*
G74*
G01*
X73200Y-60000D02*
X72800Y-60000D01*
X73200Y-58975D02*
X72800Y-58975D01*
X72800Y-60000D02*
X72800Y-58975D01*
X73200Y-58975D02*
X73200Y-60000D01*
G54D12*
X70750Y-56350D02*
G75*
G03X70750Y-56350I-50J0D01*
G74*
G01*
X70700Y-56800D02*
X70700Y-56400D01*
X70700Y-56400D02*
X71300Y-56400D01*
X71300Y-56400D02*
X71300Y-56800D01*
X71300Y-57200D02*
X71300Y-57600D01*
X71300Y-57600D02*
X70700Y-57600D01*
X70700Y-57600D02*
X70700Y-57200D01*
X74250Y-55850D02*
G75*
G03X74250Y-55850I-50J0D01*
G74*
G01*
X74200Y-56300D02*
X74200Y-55900D01*
X74200Y-55900D02*
X74800Y-55900D01*
X74800Y-55900D02*
X74800Y-56300D01*
X74800Y-56700D02*
X74800Y-57100D01*
X74800Y-57100D02*
X74200Y-57100D01*
X74200Y-57100D02*
X74200Y-56700D01*
X74250Y-58850D02*
G75*
G03X74250Y-58850I-50J0D01*
G74*
G01*
X74200Y-59300D02*
X74200Y-58900D01*
X74200Y-58900D02*
X74800Y-58900D01*
X74800Y-58900D02*
X74800Y-59300D01*
X74800Y-59700D02*
X74800Y-60100D01*
X74800Y-60100D02*
X74200Y-60100D01*
X74200Y-60100D02*
X74200Y-59700D01*
G54D13*
X71500Y-60000D02*
X70500Y-60000D01*
X70500Y-60000D02*
X70500Y-58000D01*
X70500Y-58000D02*
X71500Y-58000D01*
X71500Y-58000D02*
X71500Y-60000D01*
X71500Y-55500D02*
X71500Y-54500D01*
X71500Y-54500D02*
X73500Y-54500D01*
X73500Y-54500D02*
X73500Y-55500D01*
X73500Y-55500D02*
X71500Y-55500D01*
G54D14*
X74250Y-55000D02*
X75250Y-55000D01*
X74250Y-54000D02*
X75250Y-54000D01*
G54D13*
X74250Y-55000D02*
X74250Y-54000D01*
X75250Y-54000D02*
X75250Y-55000D01*
G54D14*
X75500Y-55000D02*
X76500Y-55000D01*
X75500Y-54000D02*
X76500Y-54000D01*
G54D13*
X75500Y-55000D02*
X75500Y-54000D01*
X76500Y-54000D02*
X76500Y-55000D01*
G54D14*
X76750Y-55000D02*
X77750Y-55000D01*
X76750Y-54000D02*
X77750Y-54000D01*
G54D13*
X76750Y-55000D02*
X76750Y-54000D01*
X77750Y-54000D02*
X77750Y-55000D01*
G54D15*
X79355Y-61649D02*
X79355Y-55350D01*
X79355Y-55350D02*
X75418Y-55350D01*
X75418Y-55350D02*
X75418Y-61649D01*
X75418Y-61649D02*
X79355Y-61649D01*
G54D16*
X72471Y-56150D02*
X72442Y-56135D01*
X72414Y-56107D01*
X72371Y-56064D01*
X72342Y-56050D01*
X72314Y-56050D01*
X72328Y-56121D02*
X72300Y-56107D01*
X72271Y-56078D01*
X72257Y-56021D01*
X72257Y-55921D01*
X72271Y-55864D01*
X72300Y-55835D01*
X72328Y-55821D01*
X72385Y-55821D01*
X72414Y-55835D01*
X72442Y-55864D01*
X72457Y-55921D01*
X72457Y-56021D01*
X72442Y-56078D01*
X72414Y-56107D01*
X72385Y-56121D01*
X72328Y-56121D01*
X72742Y-56121D02*
X72571Y-56121D01*
X72657Y-56121D02*
X72657Y-55821D01*
X72628Y-55864D01*
X72600Y-55892D01*
X72571Y-55907D01*
G54D12*
X72563Y-57079D02*
X72563Y-56882D01*
X72629Y-57023D01*
X72695Y-56882D01*
X72695Y-57079D01*
X72826Y-56882D02*
X72863Y-56882D01*
X72882Y-56892D01*
X72901Y-56910D01*
X72910Y-56948D01*
X72910Y-57014D01*
X72901Y-57051D01*
X72882Y-57070D01*
X72863Y-57079D01*
X72826Y-57079D01*
X72807Y-57070D01*
X72788Y-57051D01*
X72779Y-57014D01*
X72779Y-56948D01*
X72788Y-56910D01*
X72807Y-56892D01*
X72826Y-56882D01*
X72985Y-57070D02*
X73014Y-57079D01*
X73060Y-57079D01*
X73079Y-57070D01*
X73089Y-57060D01*
X73098Y-57042D01*
X73098Y-57023D01*
X73089Y-57004D01*
X73079Y-56995D01*
X73060Y-56985D01*
X73023Y-56976D01*
X73004Y-56967D01*
X72995Y-56957D01*
X72985Y-56939D01*
X72985Y-56920D01*
X72995Y-56901D01*
X73004Y-56892D01*
X73023Y-56882D01*
X73070Y-56882D01*
X73098Y-56892D01*
X73136Y-57098D02*
X73286Y-57098D01*
X73333Y-57079D02*
X73333Y-56882D01*
X73408Y-56882D01*
X73426Y-56892D01*
X73436Y-56901D01*
X73445Y-56920D01*
X73445Y-56948D01*
X73436Y-56967D01*
X73426Y-56976D01*
X73408Y-56985D01*
X73333Y-56985D01*
G54D16*
X73010Y-60437D02*
X72981Y-60422D01*
X72953Y-60394D01*
X72910Y-60351D01*
X72881Y-60337D01*
X72853Y-60337D01*
X72867Y-60408D02*
X72839Y-60394D01*
X72810Y-60365D01*
X72796Y-60308D01*
X72796Y-60208D01*
X72810Y-60151D01*
X72839Y-60122D01*
X72867Y-60108D01*
X72924Y-60108D01*
X72953Y-60122D01*
X72981Y-60151D01*
X72996Y-60208D01*
X72996Y-60308D01*
X72981Y-60365D01*
X72953Y-60394D01*
X72924Y-60408D01*
X72867Y-60408D01*
X73110Y-60137D02*
X73124Y-60122D01*
X73153Y-60108D01*
X73224Y-60108D01*
X73253Y-60122D01*
X73267Y-60137D01*
X73281Y-60165D01*
X73281Y-60194D01*
X73267Y-60237D01*
X73096Y-60408D01*
X73281Y-60408D01*
G54D12*
X73079Y-59965D02*
X72882Y-59965D01*
X73023Y-59900D01*
X72882Y-59834D01*
X73079Y-59834D01*
X72882Y-59703D02*
X72882Y-59665D01*
X72892Y-59646D01*
X72910Y-59628D01*
X72948Y-59618D01*
X73014Y-59618D01*
X73051Y-59628D01*
X73070Y-59646D01*
X73079Y-59665D01*
X73079Y-59703D01*
X73070Y-59722D01*
X73051Y-59740D01*
X73014Y-59750D01*
X72948Y-59750D01*
X72910Y-59740D01*
X72892Y-59722D01*
X72882Y-59703D01*
X73070Y-59543D02*
X73079Y-59515D01*
X73079Y-59468D01*
X73070Y-59449D01*
X73060Y-59440D01*
X73042Y-59431D01*
X73023Y-59431D01*
X73004Y-59440D01*
X72995Y-59449D01*
X72985Y-59468D01*
X72976Y-59506D01*
X72967Y-59524D01*
X72957Y-59534D01*
X72939Y-59543D01*
X72920Y-59543D01*
X72901Y-59534D01*
X72892Y-59524D01*
X72882Y-59506D01*
X72882Y-59459D01*
X72892Y-59431D01*
X73098Y-59393D02*
X73098Y-59243D01*
X73079Y-59196D02*
X72882Y-59196D01*
X73079Y-59084D01*
X72882Y-59084D01*
G54D17*
X71579Y-57432D02*
X71485Y-57498D01*
X71579Y-57545D02*
X71382Y-57545D01*
X71382Y-57470D01*
X71392Y-57451D01*
X71401Y-57442D01*
X71420Y-57432D01*
X71448Y-57432D01*
X71467Y-57442D01*
X71476Y-57451D01*
X71485Y-57470D01*
X71485Y-57545D01*
X71579Y-57245D02*
X71579Y-57357D01*
X71579Y-57301D02*
X71382Y-57301D01*
X71410Y-57320D01*
X71429Y-57339D01*
X71439Y-57357D01*
X71579Y-56539D02*
X71485Y-56604D01*
X71579Y-56651D02*
X71382Y-56651D01*
X71382Y-56576D01*
X71392Y-56557D01*
X71401Y-56548D01*
X71420Y-56539D01*
X71448Y-56539D01*
X71467Y-56548D01*
X71476Y-56557D01*
X71485Y-56576D01*
X71485Y-56651D01*
X75079Y-56132D02*
X74985Y-56198D01*
X75079Y-56245D02*
X74882Y-56245D01*
X74882Y-56170D01*
X74892Y-56151D01*
X74901Y-56142D01*
X74920Y-56132D01*
X74948Y-56132D01*
X74967Y-56142D01*
X74976Y-56151D01*
X74985Y-56170D01*
X74985Y-56245D01*
X74901Y-56057D02*
X74892Y-56048D01*
X74882Y-56029D01*
X74882Y-55982D01*
X74892Y-55963D01*
X74901Y-55954D01*
X74920Y-55945D01*
X74939Y-55945D01*
X74967Y-55954D01*
X75079Y-56067D01*
X75079Y-55945D01*
X75079Y-56839D02*
X74985Y-56904D01*
X75079Y-56951D02*
X74882Y-56951D01*
X74882Y-56876D01*
X74892Y-56857D01*
X74901Y-56848D01*
X74920Y-56839D01*
X74948Y-56839D01*
X74967Y-56848D01*
X74976Y-56857D01*
X74985Y-56876D01*
X74985Y-56951D01*
X75079Y-59932D02*
X74985Y-59998D01*
X75079Y-60045D02*
X74882Y-60045D01*
X74882Y-59970D01*
X74892Y-59951D01*
X74901Y-59942D01*
X74920Y-59932D01*
X74948Y-59932D01*
X74967Y-59942D01*
X74976Y-59951D01*
X74985Y-59970D01*
X74985Y-60045D01*
X74882Y-59867D02*
X74882Y-59745D01*
X74957Y-59810D01*
X74957Y-59782D01*
X74967Y-59763D01*
X74976Y-59754D01*
X74995Y-59745D01*
X75042Y-59745D01*
X75060Y-59754D01*
X75070Y-59763D01*
X75079Y-59782D01*
X75079Y-59839D01*
X75070Y-59857D01*
X75060Y-59867D01*
X75079Y-59139D02*
X74985Y-59204D01*
X75079Y-59251D02*
X74882Y-59251D01*
X74882Y-59176D01*
X74892Y-59157D01*
X74901Y-59148D01*
X74920Y-59139D01*
X74948Y-59139D01*
X74967Y-59148D01*
X74976Y-59157D01*
X74985Y-59176D01*
X74985Y-59251D01*
G54D18*
X71243Y-61570D02*
X71275Y-61509D01*
X71275Y-61407D01*
X71243Y-61366D01*
X71210Y-61346D01*
X71145Y-61326D01*
X71081Y-61326D01*
X71016Y-61346D01*
X70983Y-61366D01*
X70951Y-61407D01*
X70918Y-61489D01*
X70886Y-61529D01*
X70854Y-61550D01*
X70789Y-61570D01*
X70724Y-61570D01*
X70659Y-61550D01*
X70627Y-61529D01*
X70594Y-61489D01*
X70594Y-61387D01*
X70627Y-61326D01*
X70594Y-61183D02*
X71275Y-61081D01*
X70789Y-61000D01*
X71275Y-60918D01*
X70594Y-60816D01*
X71275Y-60429D02*
X71275Y-60673D01*
X71275Y-60551D02*
X70594Y-60551D01*
X70691Y-60592D01*
X70756Y-60633D01*
X70789Y-60673D01*
G54D13*
G54D18*
X70684Y-55275D02*
X70684Y-54594D01*
X70847Y-54594D01*
X70887Y-54627D01*
X70908Y-54659D01*
X70928Y-54724D01*
X70928Y-54821D01*
X70908Y-54886D01*
X70887Y-54918D01*
X70847Y-54951D01*
X70684Y-54951D01*
X71336Y-55275D02*
X71091Y-55275D01*
X71214Y-55275D02*
X71214Y-54594D01*
X71173Y-54691D01*
X71132Y-54756D01*
X71091Y-54789D01*
G54D13*
G54D19*
X74578Y-55421D02*
X74578Y-55121D01*
X74692Y-55121D01*
X74721Y-55135D01*
X74735Y-55150D01*
X74750Y-55178D01*
X74750Y-55221D01*
X74735Y-55250D01*
X74721Y-55264D01*
X74692Y-55278D01*
X74578Y-55278D01*
X74864Y-55150D02*
X74878Y-55135D01*
X74907Y-55121D01*
X74978Y-55121D01*
X75007Y-55135D01*
X75021Y-55150D01*
X75035Y-55178D01*
X75035Y-55207D01*
X75021Y-55250D01*
X74850Y-55421D01*
X75035Y-55421D01*
X75778Y-55421D02*
X75778Y-55121D01*
X75892Y-55121D01*
X75921Y-55135D01*
X75935Y-55150D01*
X75950Y-55178D01*
X75950Y-55221D01*
X75935Y-55250D01*
X75921Y-55264D01*
X75892Y-55278D01*
X75778Y-55278D01*
X76207Y-55221D02*
X76207Y-55421D01*
X76135Y-55107D02*
X76064Y-55321D01*
X76250Y-55321D01*
X77078Y-55421D02*
X77078Y-55121D01*
X77192Y-55121D01*
X77221Y-55135D01*
X77235Y-55150D01*
X77250Y-55178D01*
X77250Y-55221D01*
X77235Y-55250D01*
X77221Y-55264D01*
X77192Y-55278D01*
X77078Y-55278D01*
X77350Y-55121D02*
X77535Y-55121D01*
X77435Y-55235D01*
X77478Y-55235D01*
X77507Y-55250D01*
X77521Y-55264D01*
X77535Y-55292D01*
X77535Y-55364D01*
X77521Y-55392D01*
X77507Y-55407D01*
X77478Y-55421D01*
X77392Y-55421D01*
X77364Y-55407D01*
X77350Y-55392D01*
G54D10*
X75074Y-61519D02*
X74886Y-61651D01*
X75074Y-61744D02*
X74680Y-61744D01*
X74680Y-61594D01*
X74699Y-61557D01*
X74718Y-61538D01*
X74755Y-61519D01*
X74811Y-61519D01*
X74849Y-61538D01*
X74868Y-61557D01*
X74886Y-61594D01*
X74886Y-61744D01*
X74680Y-61407D02*
X75074Y-61276D01*
X74680Y-61144D01*
X75074Y-60807D02*
X75074Y-61032D01*
X75074Y-60919D02*
X74680Y-60919D01*
X74736Y-60957D01*
X74774Y-60994D01*
X74793Y-61032D01*
X75959Y-57959D02*
X75565Y-57959D01*
X75565Y-57809D01*
X75584Y-57771D01*
X75603Y-57753D01*
X75640Y-57734D01*
X75696Y-57734D01*
X75734Y-57753D01*
X75753Y-57771D01*
X75771Y-57809D01*
X75771Y-57959D01*
X75565Y-57490D02*
X75565Y-57415D01*
X75584Y-57378D01*
X75621Y-57340D01*
X75696Y-57321D01*
X75828Y-57321D01*
X75903Y-57340D01*
X75940Y-57378D01*
X75959Y-57415D01*
X75959Y-57490D01*
X75940Y-57528D01*
X75903Y-57565D01*
X75828Y-57584D01*
X75696Y-57584D01*
X75621Y-57565D01*
X75584Y-57528D01*
X75565Y-57490D01*
X75565Y-57209D02*
X75565Y-56984D01*
X75959Y-57096D02*
X75565Y-57096D01*
M02*
