M48
;DRILL file {Pcbnew (2013-07-07 BZR 4022)-stable} date 9/13/2015 6:12:40 PM
;FORMAT={3:3/ absolute / metric / suppress leading zeros}
FMAT,2
METRIC,TZ
T1C0.635
T2C0.813
T3C1.000
T4C2.000
%
G90
G05
M71
T1
X180848Y-137668
X182880Y-154940
X183388Y-143256
X186436Y-147320
X187960Y-154940
X199644Y-154178
X200406Y-137922
T2
X180340Y-148590
X180340Y-151130
X182880Y-139700
X185420Y-139700
X189865Y-138430
X193040Y-138430
X196215Y-138430
T3
X197864Y-144840
X197864Y-147340
X197864Y-149840
X197864Y-152340
T4
X193814Y-143002G85X195314Y-143002
G05
X193814Y-154178G85X195314Y-154178
G05
T0
M30
