G04 (created by PCBNEW (2013-07-07 BZR 4022)-stable) date 9/13/2015 6:12:30 PM*
%MOIN*%
G04 Gerber Fmt 3.4, Leading zero omitted, Abs format*
%FSLAX34Y34*%
G01*
G70*
G90*
G04 APERTURE LIST*
%ADD10C,0.00590551*%
%ADD11R,0.0315X0.0394*%
%ADD12R,0.0394X0.0315*%
%ADD13R,0.055X0.035*%
%ADD14R,0.055X0.055*%
%ADD15C,0.055*%
%ADD16C,0.0787402*%
%ADD17O,0.15748X0.11811*%
%ADD18C,0.035*%
%ADD19C,0.01*%
G04 APERTURE END LIST*
G54D10*
G54D11*
X73000Y-56567D03*
X73375Y-57433D03*
X72625Y-57433D03*
G54D12*
X73433Y-59500D03*
X72567Y-59875D03*
X72567Y-59125D03*
G54D13*
X71000Y-56625D03*
X71000Y-57375D03*
X74500Y-56125D03*
X74500Y-56875D03*
X74500Y-59125D03*
X74500Y-59875D03*
G54D14*
X71000Y-59500D03*
G54D15*
X71000Y-58500D03*
G54D14*
X72000Y-55000D03*
G54D15*
X73000Y-55000D03*
G54D14*
X74750Y-54500D03*
X76000Y-54500D03*
X77250Y-54500D03*
G54D16*
X77899Y-59976D03*
X77899Y-58992D03*
X77899Y-58007D03*
X77899Y-57023D03*
G54D17*
X76600Y-56300D03*
X76600Y-60700D03*
G54D18*
X74000Y-61000D03*
X72000Y-61000D03*
X71200Y-54200D03*
X78900Y-54300D03*
X78600Y-60700D03*
X72200Y-56400D03*
X73400Y-58000D03*
G54D19*
X72625Y-57433D02*
X72625Y-59067D01*
X72625Y-59067D02*
X72567Y-59125D01*
X71000Y-57375D02*
X72567Y-57375D01*
X72567Y-57375D02*
X72625Y-57433D01*
X71000Y-57375D02*
X71000Y-58500D01*
X77899Y-58992D02*
X77907Y-58992D01*
X76000Y-54900D02*
X76000Y-54500D01*
X76400Y-55300D02*
X76000Y-54900D01*
X77700Y-55300D02*
X76400Y-55300D01*
X78600Y-56200D02*
X77700Y-55300D01*
X78600Y-58300D02*
X78600Y-56200D01*
X77907Y-58992D02*
X78600Y-58300D01*
X77250Y-54500D02*
X77800Y-54500D01*
X79100Y-58775D02*
X77899Y-59976D01*
X79100Y-55800D02*
X79100Y-58775D01*
X77800Y-54500D02*
X79100Y-55800D01*
X74500Y-59125D02*
X76325Y-59125D01*
X77676Y-59976D02*
X77899Y-59976D01*
X77300Y-59600D02*
X77676Y-59976D01*
X76800Y-59600D02*
X77300Y-59600D01*
X76325Y-59125D02*
X76800Y-59600D01*
X73433Y-59500D02*
X74125Y-59500D01*
X74125Y-59500D02*
X74500Y-59125D01*
X74500Y-56875D02*
X74575Y-56875D01*
X75707Y-58007D02*
X77899Y-58007D01*
X74575Y-56875D02*
X75707Y-58007D01*
X73000Y-56567D02*
X73567Y-56567D01*
X73875Y-56875D02*
X74500Y-56875D01*
X73567Y-56567D02*
X73875Y-56875D01*
X74500Y-56875D02*
X74875Y-56875D01*
X75250Y-55000D02*
X74750Y-54500D01*
X75250Y-56500D02*
X75250Y-55000D01*
X74875Y-56875D02*
X75250Y-56500D01*
X73375Y-57433D02*
X73375Y-57975D01*
X72000Y-56200D02*
X72000Y-55625D01*
X72200Y-56400D02*
X72000Y-56200D01*
X73375Y-57975D02*
X73400Y-58000D01*
X72000Y-55000D02*
X72250Y-55000D01*
X74125Y-55750D02*
X74500Y-56125D01*
X73000Y-55750D02*
X74125Y-55750D01*
X72250Y-55000D02*
X73000Y-55750D01*
X72000Y-55000D02*
X72000Y-55625D01*
X72000Y-55625D02*
X71000Y-56625D01*
G54D10*
G36*
X79450Y-61700D02*
X75025Y-61700D01*
X75025Y-60099D01*
X75025Y-59987D01*
X74962Y-59925D01*
X74550Y-59925D01*
X74550Y-60237D01*
X74612Y-60300D01*
X74725Y-60300D01*
X74824Y-60299D01*
X74916Y-60261D01*
X74987Y-60191D01*
X75025Y-60099D01*
X75025Y-61700D01*
X74450Y-61700D01*
X74450Y-60237D01*
X74450Y-59925D01*
X74037Y-59925D01*
X73975Y-59987D01*
X73974Y-60099D01*
X74012Y-60191D01*
X74083Y-60261D01*
X74175Y-60299D01*
X74274Y-60300D01*
X74387Y-60300D01*
X74450Y-60237D01*
X74450Y-61700D01*
X73014Y-61700D01*
X73014Y-60082D01*
X73014Y-59987D01*
X72951Y-59925D01*
X72617Y-59925D01*
X72617Y-60220D01*
X72679Y-60282D01*
X72714Y-60282D01*
X72813Y-60282D01*
X72905Y-60244D01*
X72976Y-60173D01*
X73014Y-60082D01*
X73014Y-61700D01*
X72517Y-61700D01*
X72517Y-60220D01*
X72517Y-59925D01*
X72182Y-59925D01*
X72120Y-59987D01*
X72119Y-60082D01*
X72157Y-60173D01*
X72228Y-60244D01*
X72320Y-60282D01*
X72419Y-60282D01*
X72454Y-60282D01*
X72517Y-60220D01*
X72517Y-61700D01*
X71525Y-61700D01*
X71525Y-59824D01*
X71525Y-59612D01*
X71462Y-59550D01*
X71050Y-59550D01*
X71050Y-59962D01*
X71112Y-60025D01*
X71225Y-60025D01*
X71324Y-60024D01*
X71416Y-59986D01*
X71487Y-59916D01*
X71525Y-59824D01*
X71525Y-61700D01*
X70550Y-61700D01*
X70550Y-59953D01*
X70583Y-59986D01*
X70675Y-60024D01*
X70774Y-60025D01*
X70887Y-60025D01*
X70950Y-59962D01*
X70950Y-59550D01*
X70942Y-59550D01*
X70942Y-59450D01*
X70950Y-59450D01*
X70950Y-59442D01*
X71050Y-59442D01*
X71050Y-59450D01*
X71462Y-59450D01*
X71525Y-59387D01*
X71525Y-59175D01*
X71487Y-59083D01*
X71416Y-59013D01*
X71324Y-58975D01*
X71225Y-58974D01*
X71225Y-58974D01*
X71297Y-58945D01*
X71444Y-58797D01*
X71524Y-58604D01*
X71525Y-58396D01*
X71445Y-58203D01*
X71300Y-58057D01*
X71300Y-57800D01*
X71324Y-57800D01*
X71416Y-57762D01*
X71486Y-57691D01*
X71493Y-57675D01*
X72217Y-57675D01*
X72217Y-57679D01*
X72255Y-57771D01*
X72325Y-57841D01*
X72325Y-58717D01*
X72320Y-58717D01*
X72228Y-58755D01*
X72158Y-58825D01*
X72120Y-58917D01*
X72119Y-59017D01*
X72119Y-59332D01*
X72157Y-59423D01*
X72228Y-59494D01*
X72241Y-59500D01*
X72228Y-59505D01*
X72157Y-59576D01*
X72119Y-59667D01*
X72120Y-59762D01*
X72182Y-59825D01*
X72517Y-59825D01*
X72517Y-59817D01*
X72617Y-59817D01*
X72617Y-59825D01*
X72951Y-59825D01*
X73010Y-59766D01*
X73023Y-59798D01*
X73094Y-59869D01*
X73186Y-59907D01*
X73285Y-59907D01*
X73679Y-59907D01*
X73771Y-59869D01*
X73841Y-59800D01*
X74012Y-59800D01*
X74037Y-59825D01*
X74450Y-59825D01*
X74450Y-59817D01*
X74550Y-59817D01*
X74550Y-59825D01*
X74962Y-59825D01*
X75025Y-59762D01*
X75025Y-59650D01*
X74987Y-59558D01*
X74928Y-59499D01*
X74986Y-59441D01*
X74993Y-59425D01*
X76200Y-59425D01*
X76587Y-59812D01*
X76587Y-59812D01*
X76658Y-59859D01*
X76382Y-59859D01*
X76061Y-59923D01*
X75788Y-60105D01*
X75606Y-60378D01*
X75542Y-60700D01*
X75606Y-61021D01*
X75788Y-61294D01*
X76061Y-61476D01*
X76382Y-61540D01*
X76817Y-61540D01*
X77138Y-61476D01*
X77411Y-61294D01*
X77593Y-61021D01*
X77657Y-60700D01*
X77630Y-60561D01*
X77770Y-60619D01*
X78026Y-60620D01*
X78263Y-60522D01*
X78444Y-60341D01*
X78542Y-60104D01*
X78543Y-59848D01*
X78516Y-59783D01*
X79312Y-58987D01*
X79312Y-58987D01*
X79377Y-58890D01*
X79399Y-58775D01*
X79400Y-58775D01*
X79400Y-55800D01*
X79377Y-55685D01*
X79312Y-55587D01*
X78012Y-54287D01*
X77914Y-54222D01*
X77800Y-54200D01*
X77775Y-54200D01*
X77775Y-54175D01*
X77737Y-54083D01*
X77666Y-54013D01*
X77574Y-53975D01*
X77475Y-53974D01*
X76925Y-53974D01*
X76833Y-54012D01*
X76763Y-54083D01*
X76725Y-54175D01*
X76724Y-54274D01*
X76724Y-54824D01*
X76762Y-54916D01*
X76833Y-54986D01*
X76864Y-55000D01*
X76524Y-55000D01*
X76463Y-54939D01*
X76486Y-54916D01*
X76524Y-54824D01*
X76525Y-54725D01*
X76525Y-54175D01*
X76487Y-54083D01*
X76416Y-54013D01*
X76324Y-53975D01*
X76225Y-53974D01*
X75675Y-53974D01*
X75583Y-54012D01*
X75513Y-54083D01*
X75475Y-54175D01*
X75474Y-54274D01*
X75474Y-54807D01*
X75462Y-54787D01*
X75462Y-54787D01*
X75275Y-54600D01*
X75275Y-54175D01*
X75237Y-54083D01*
X75166Y-54013D01*
X75074Y-53975D01*
X74975Y-53974D01*
X74425Y-53974D01*
X74333Y-54012D01*
X74263Y-54083D01*
X74225Y-54175D01*
X74224Y-54274D01*
X74224Y-54824D01*
X74262Y-54916D01*
X74333Y-54986D01*
X74425Y-55024D01*
X74524Y-55025D01*
X74850Y-55025D01*
X74950Y-55124D01*
X74950Y-55771D01*
X74916Y-55738D01*
X74824Y-55700D01*
X74725Y-55699D01*
X74499Y-55699D01*
X74337Y-55537D01*
X74239Y-55472D01*
X74125Y-55450D01*
X73529Y-55450D01*
X73529Y-55075D01*
X73518Y-54867D01*
X73460Y-54727D01*
X73367Y-54702D01*
X73297Y-54773D01*
X73297Y-54632D01*
X73272Y-54539D01*
X73075Y-54470D01*
X72867Y-54481D01*
X72727Y-54539D01*
X72702Y-54632D01*
X73000Y-54929D01*
X73297Y-54632D01*
X73297Y-54773D01*
X73070Y-55000D01*
X73367Y-55297D01*
X73460Y-55272D01*
X73529Y-55075D01*
X73529Y-55450D01*
X73275Y-55450D01*
X73297Y-55367D01*
X73000Y-55070D01*
X72994Y-55076D01*
X72923Y-55005D01*
X72929Y-55000D01*
X72632Y-54702D01*
X72539Y-54727D01*
X72525Y-54768D01*
X72525Y-54675D01*
X72487Y-54583D01*
X72416Y-54513D01*
X72324Y-54475D01*
X72225Y-54474D01*
X71675Y-54474D01*
X71583Y-54512D01*
X71513Y-54583D01*
X71475Y-54675D01*
X71474Y-54774D01*
X71474Y-55324D01*
X71512Y-55416D01*
X71583Y-55486D01*
X71675Y-55524D01*
X71675Y-55524D01*
X71000Y-56199D01*
X70675Y-56199D01*
X70583Y-56237D01*
X70550Y-56271D01*
X70550Y-53800D01*
X79450Y-53800D01*
X79450Y-61700D01*
X79450Y-61700D01*
G37*
G54D19*
X79450Y-61700D02*
X75025Y-61700D01*
X75025Y-60099D01*
X75025Y-59987D01*
X74962Y-59925D01*
X74550Y-59925D01*
X74550Y-60237D01*
X74612Y-60300D01*
X74725Y-60300D01*
X74824Y-60299D01*
X74916Y-60261D01*
X74987Y-60191D01*
X75025Y-60099D01*
X75025Y-61700D01*
X74450Y-61700D01*
X74450Y-60237D01*
X74450Y-59925D01*
X74037Y-59925D01*
X73975Y-59987D01*
X73974Y-60099D01*
X74012Y-60191D01*
X74083Y-60261D01*
X74175Y-60299D01*
X74274Y-60300D01*
X74387Y-60300D01*
X74450Y-60237D01*
X74450Y-61700D01*
X73014Y-61700D01*
X73014Y-60082D01*
X73014Y-59987D01*
X72951Y-59925D01*
X72617Y-59925D01*
X72617Y-60220D01*
X72679Y-60282D01*
X72714Y-60282D01*
X72813Y-60282D01*
X72905Y-60244D01*
X72976Y-60173D01*
X73014Y-60082D01*
X73014Y-61700D01*
X72517Y-61700D01*
X72517Y-60220D01*
X72517Y-59925D01*
X72182Y-59925D01*
X72120Y-59987D01*
X72119Y-60082D01*
X72157Y-60173D01*
X72228Y-60244D01*
X72320Y-60282D01*
X72419Y-60282D01*
X72454Y-60282D01*
X72517Y-60220D01*
X72517Y-61700D01*
X71525Y-61700D01*
X71525Y-59824D01*
X71525Y-59612D01*
X71462Y-59550D01*
X71050Y-59550D01*
X71050Y-59962D01*
X71112Y-60025D01*
X71225Y-60025D01*
X71324Y-60024D01*
X71416Y-59986D01*
X71487Y-59916D01*
X71525Y-59824D01*
X71525Y-61700D01*
X70550Y-61700D01*
X70550Y-59953D01*
X70583Y-59986D01*
X70675Y-60024D01*
X70774Y-60025D01*
X70887Y-60025D01*
X70950Y-59962D01*
X70950Y-59550D01*
X70942Y-59550D01*
X70942Y-59450D01*
X70950Y-59450D01*
X70950Y-59442D01*
X71050Y-59442D01*
X71050Y-59450D01*
X71462Y-59450D01*
X71525Y-59387D01*
X71525Y-59175D01*
X71487Y-59083D01*
X71416Y-59013D01*
X71324Y-58975D01*
X71225Y-58974D01*
X71225Y-58974D01*
X71297Y-58945D01*
X71444Y-58797D01*
X71524Y-58604D01*
X71525Y-58396D01*
X71445Y-58203D01*
X71300Y-58057D01*
X71300Y-57800D01*
X71324Y-57800D01*
X71416Y-57762D01*
X71486Y-57691D01*
X71493Y-57675D01*
X72217Y-57675D01*
X72217Y-57679D01*
X72255Y-57771D01*
X72325Y-57841D01*
X72325Y-58717D01*
X72320Y-58717D01*
X72228Y-58755D01*
X72158Y-58825D01*
X72120Y-58917D01*
X72119Y-59017D01*
X72119Y-59332D01*
X72157Y-59423D01*
X72228Y-59494D01*
X72241Y-59500D01*
X72228Y-59505D01*
X72157Y-59576D01*
X72119Y-59667D01*
X72120Y-59762D01*
X72182Y-59825D01*
X72517Y-59825D01*
X72517Y-59817D01*
X72617Y-59817D01*
X72617Y-59825D01*
X72951Y-59825D01*
X73010Y-59766D01*
X73023Y-59798D01*
X73094Y-59869D01*
X73186Y-59907D01*
X73285Y-59907D01*
X73679Y-59907D01*
X73771Y-59869D01*
X73841Y-59800D01*
X74012Y-59800D01*
X74037Y-59825D01*
X74450Y-59825D01*
X74450Y-59817D01*
X74550Y-59817D01*
X74550Y-59825D01*
X74962Y-59825D01*
X75025Y-59762D01*
X75025Y-59650D01*
X74987Y-59558D01*
X74928Y-59499D01*
X74986Y-59441D01*
X74993Y-59425D01*
X76200Y-59425D01*
X76587Y-59812D01*
X76587Y-59812D01*
X76658Y-59859D01*
X76382Y-59859D01*
X76061Y-59923D01*
X75788Y-60105D01*
X75606Y-60378D01*
X75542Y-60700D01*
X75606Y-61021D01*
X75788Y-61294D01*
X76061Y-61476D01*
X76382Y-61540D01*
X76817Y-61540D01*
X77138Y-61476D01*
X77411Y-61294D01*
X77593Y-61021D01*
X77657Y-60700D01*
X77630Y-60561D01*
X77770Y-60619D01*
X78026Y-60620D01*
X78263Y-60522D01*
X78444Y-60341D01*
X78542Y-60104D01*
X78543Y-59848D01*
X78516Y-59783D01*
X79312Y-58987D01*
X79312Y-58987D01*
X79377Y-58890D01*
X79399Y-58775D01*
X79400Y-58775D01*
X79400Y-55800D01*
X79377Y-55685D01*
X79312Y-55587D01*
X78012Y-54287D01*
X77914Y-54222D01*
X77800Y-54200D01*
X77775Y-54200D01*
X77775Y-54175D01*
X77737Y-54083D01*
X77666Y-54013D01*
X77574Y-53975D01*
X77475Y-53974D01*
X76925Y-53974D01*
X76833Y-54012D01*
X76763Y-54083D01*
X76725Y-54175D01*
X76724Y-54274D01*
X76724Y-54824D01*
X76762Y-54916D01*
X76833Y-54986D01*
X76864Y-55000D01*
X76524Y-55000D01*
X76463Y-54939D01*
X76486Y-54916D01*
X76524Y-54824D01*
X76525Y-54725D01*
X76525Y-54175D01*
X76487Y-54083D01*
X76416Y-54013D01*
X76324Y-53975D01*
X76225Y-53974D01*
X75675Y-53974D01*
X75583Y-54012D01*
X75513Y-54083D01*
X75475Y-54175D01*
X75474Y-54274D01*
X75474Y-54807D01*
X75462Y-54787D01*
X75462Y-54787D01*
X75275Y-54600D01*
X75275Y-54175D01*
X75237Y-54083D01*
X75166Y-54013D01*
X75074Y-53975D01*
X74975Y-53974D01*
X74425Y-53974D01*
X74333Y-54012D01*
X74263Y-54083D01*
X74225Y-54175D01*
X74224Y-54274D01*
X74224Y-54824D01*
X74262Y-54916D01*
X74333Y-54986D01*
X74425Y-55024D01*
X74524Y-55025D01*
X74850Y-55025D01*
X74950Y-55124D01*
X74950Y-55771D01*
X74916Y-55738D01*
X74824Y-55700D01*
X74725Y-55699D01*
X74499Y-55699D01*
X74337Y-55537D01*
X74239Y-55472D01*
X74125Y-55450D01*
X73529Y-55450D01*
X73529Y-55075D01*
X73518Y-54867D01*
X73460Y-54727D01*
X73367Y-54702D01*
X73297Y-54773D01*
X73297Y-54632D01*
X73272Y-54539D01*
X73075Y-54470D01*
X72867Y-54481D01*
X72727Y-54539D01*
X72702Y-54632D01*
X73000Y-54929D01*
X73297Y-54632D01*
X73297Y-54773D01*
X73070Y-55000D01*
X73367Y-55297D01*
X73460Y-55272D01*
X73529Y-55075D01*
X73529Y-55450D01*
X73275Y-55450D01*
X73297Y-55367D01*
X73000Y-55070D01*
X72994Y-55076D01*
X72923Y-55005D01*
X72929Y-55000D01*
X72632Y-54702D01*
X72539Y-54727D01*
X72525Y-54768D01*
X72525Y-54675D01*
X72487Y-54583D01*
X72416Y-54513D01*
X72324Y-54475D01*
X72225Y-54474D01*
X71675Y-54474D01*
X71583Y-54512D01*
X71513Y-54583D01*
X71475Y-54675D01*
X71474Y-54774D01*
X71474Y-55324D01*
X71512Y-55416D01*
X71583Y-55486D01*
X71675Y-55524D01*
X71675Y-55524D01*
X71000Y-56199D01*
X70675Y-56199D01*
X70583Y-56237D01*
X70550Y-56271D01*
X70550Y-53800D01*
X79450Y-53800D01*
X79450Y-61700D01*
M02*
