<?xml version="1.0" encoding="utf-8"?>
<!-- Generator: Adobe Illustrator 19.1.0, SVG Export Plug-In . SVG Version: 6.00 Build 0)  -->
<svg version="1.1" id="Layer_1" xmlns="http://www.w3.org/2000/svg" xmlns:xlink="http://www.w3.org/1999/xlink" x="0px" y="0px"
	 viewBox="0 0 612 200" style="enable-background:new 0 0 612 200;" xml:space="preserve">
<g>
	<g>
		<path style="fill:#FFFFFF;" d="M79.0756,92.1305V71.1361h70.2894c0.7175,3.7003,1.1369,8.1029,1.1369,12.8718
			c0,15.7448-4.3101,35.2391-18.1815,49.1105c-13.4967,14.0587-30.7416,21.5565-53.6108,21.5565
			c-42.3621,0-77.9773-34.4897-77.9773-76.8533c0-42.3621,35.6152-76.8533,77.9773-76.8533
			c23.4312,0,40.1141,9.1852,52.6727,21.1818l-14.8081,14.8081c-8.9978-8.4344-21.1818-14.9954-37.8646-14.9954
			C47.7805,21.9627,23.6,46.8926,23.6,77.8215s24.1806,55.8603,55.1095,55.8603c20.0578,0,31.491-8.0611,38.8013-15.3715
			c5.9566-5.9551,9.8801-14.4988,11.4024-26.1797L79.0756,92.1305z"/>
		<path style="fill:#FFFFFF;" d="M257.6127,105.1897c0,28.4921-22.3058,49.4852-49.6725,49.4852
			c-27.3681,0-49.6739-20.993-49.6739-49.4852c0-28.6795,22.3058-49.4866,49.6739-49.4866
			C235.3069,55.7031,257.6127,76.5102,257.6127,105.1897z M235.8689,105.1897c0-17.8083-12.9333-29.9923-27.9287-29.9923
			c-14.9968,0-27.9301,12.184-27.9301,29.9923c0,17.6195,12.9333,29.9908,27.9301,29.9908
			C222.9356,135.1805,235.8689,122.8092,235.8689,105.1897z"/>
		<path style="fill:#FFFFFF;" d="M365.9755,105.1897c0,28.4921-22.3058,49.4852-49.6725,49.4852
			c-27.3681,0-49.6739-20.993-49.6739-49.4852c0-28.6795,22.3058-49.4866,49.6739-49.4866
			C343.6697,55.7031,365.9755,76.5102,365.9755,105.1897z M344.2318,105.1897c0-17.8083-12.9333-29.9923-27.9287-29.9923
			c-14.9969,0-27.9301,12.184-27.9301,29.9923c0,17.6195,12.9333,29.9908,27.9301,29.9908
			C331.2985,135.1805,344.2318,122.8092,344.2318,105.1897z"/>
		<path style="fill:#FFFFFF;" d="M469.8409,58.7019v88.8499c0,36.5533-21.5565,51.5487-47.0498,51.5487
			c-23.9932,0-38.4266-16.1209-43.8622-29.2415l18.9323-7.8738c3.3735,8.0612,11.6205,17.621,24.9299,17.621
			c16.3082,0,26.43-10.1233,26.43-29.0542v-7.123h-0.7493c-4.8736,5.9976-14.2461,11.2458-26.0554,11.2458
			c-24.744,0-47.4245-21.5565-47.4245-49.2978c0-27.9301,22.6805-49.6739,47.4245-49.6739c11.8093,0,21.1818,5.2483,26.0554,11.0599
			h0.7493v-8.0611H469.8409z M450.7212,105.377c0-17.4336-11.6219-30.1796-26.43-30.1796c-14.9969,0-27.5555,12.746-27.5555,30.1796
			c0,17.2449,12.5586,29.8035,27.5555,29.8035C439.0993,135.1805,450.7212,122.6219,450.7212,105.377z"/>
		<path style="fill:#FFFFFF;" d="M506.6695,6.7041V151.676h-21.7438V6.7041H506.6695z"/>
		<path style="fill:#FFFFFF;" d="M590.6358,121.4964l16.8702,11.2473c-5.437,8.0597-18.5577,21.9311-41.2396,21.9311
			c-28.116,0-49.1105-21.7438-49.1105-49.4852c0-29.4303,21.1818-49.4866,46.6737-49.4866
			c25.6807,0,38.2393,20.4324,42.3635,31.4909l2.2495,5.6229l-66.1695,27.3681c5.0624,9.9345,12.9348,14.9954,23.9932,14.9954
			C577.3264,135.1805,585.0114,129.7449,590.6358,121.4964z M538.7124,103.6896l44.2369-18.3703
			c-2.4368-6.1849-9.7471-10.4965-18.3688-10.4965C553.5205,74.8227,538.1504,84.5699,538.7124,103.6896z"/>
	</g>
	<rect y="0.8467" style="fill:none;" width="612.1036" height="199.1533"/>
</g>
</svg>
