<?xml version="1.0" encoding="utf-8"?>
<!-- Generator: Adobe Illustrator 19.1.0, SVG Export Plug-In . SVG Version: 6.00 Build 0)  -->
<svg version="1.1" id="Layer_1" xmlns="http://www.w3.org/2000/svg" xmlns:xlink="http://www.w3.org/1999/xlink" x="0px" y="0px"
	 viewBox="0 0 612 200" style="enable-background:new 0 0 612 200;" xml:space="preserve">
<g>
	<g>
		<path style="fill:#557EBF;" d="M79.0755,92.1306V71.1362h70.2894c0.7175,3.7003,1.1369,8.1029,1.1369,12.8718
			c0,15.7448-4.3101,35.2391-18.1815,49.1105c-13.4967,14.0587-30.7416,21.5564-53.6108,21.5564
			c-42.3621,0-77.9772-34.4897-77.9772-76.8532c0-42.3621,35.6152-76.8532,77.9772-76.8532
			c23.4312,0,40.1141,9.1851,52.6727,21.1818L116.574,36.9582c-8.9978-8.4344-21.1818-14.9954-37.8646-14.9954
			C47.7805,21.9628,23.6,46.8927,23.6,77.8216s24.1806,55.8602,55.1095,55.8602c20.0577,0,31.4909-8.0611,38.8013-15.3715
			c5.9565-5.9551,9.8801-14.4988,11.4024-26.1797L79.0755,92.1306z"/>
		<path style="fill:#EA4535;" d="M257.6125,105.1898c0,28.4921-22.3058,49.4851-49.6725,49.4851
			c-27.3681,0-49.6739-20.993-49.6739-49.4851c0-28.6795,22.3058-49.4865,49.6739-49.4865
			C235.3067,55.7032,257.6125,76.5103,257.6125,105.1898z M235.8687,105.1898c0-17.8083-12.9333-29.9922-27.9287-29.9922
			c-14.9968,0-27.9301,12.1839-27.9301,29.9922c0,17.6195,12.9333,29.9908,27.9301,29.9908
			C222.9354,135.1806,235.8687,122.8093,235.8687,105.1898z"/>
		<path style="fill:#F9BC15;" d="M365.9752,105.1898c0,28.4921-22.3058,49.4851-49.6725,49.4851
			c-27.3681,0-49.6739-20.993-49.6739-49.4851c0-28.6795,22.3058-49.4865,49.6739-49.4865
			C343.6695,55.7032,365.9752,76.5103,365.9752,105.1898z M344.2315,105.1898c0-17.8083-12.9333-29.9922-27.9287-29.9922
			c-14.9968,0-27.9301,12.1839-27.9301,29.9922c0,17.6195,12.9333,29.9908,27.9301,29.9908
			C331.2982,135.1806,344.2315,122.8093,344.2315,105.1898z"/>
		<path style="fill:#557EBF;" d="M469.8405,58.702v88.8498c0,36.5533-21.5564,51.5487-47.0497,51.5487
			c-23.9932,0-38.4266-16.1208-43.8622-29.2415l18.9323-7.8738c3.3735,8.0611,11.6205,17.621,24.9299,17.621
			c16.3082,0,26.43-10.1232,26.43-29.0541v-7.123h-0.7493c-4.8736,5.9976-14.2461,11.2458-26.0553,11.2458
			c-24.744,0-47.4244-21.5564-47.4244-49.2978c0-27.9301,22.6805-49.6739,47.4244-49.6739c11.8093,0,21.1818,5.2482,26.0553,11.0599
			h0.7493V58.702H469.8405z M450.7209,105.3771c0-17.4336-11.6219-30.1796-26.43-30.1796
			c-14.9969,0-27.5555,12.7459-27.5555,30.1796c0,17.2449,12.5586,29.8035,27.5555,29.8035
			C439.0989,135.1806,450.7209,122.6219,450.7209,105.3771z"/>
		<path style="fill:#36A852;" d="M506.669,6.7043v144.9718h-21.7437V6.7043H506.669z"/>
		<path style="fill:#EA4535;" d="M590.6353,121.4965l16.8702,11.2473c-5.437,8.0597-18.5576,21.9311-41.2395,21.9311
			c-28.116,0-49.1105-21.7438-49.1105-49.4851c0-29.4302,21.1818-49.4865,46.6736-49.4865
			c25.6807,0,38.2393,20.4324,42.3635,31.4909l2.2495,5.6229l-66.1694,27.3681c5.0623,9.9345,12.9347,14.9954,23.9932,14.9954
			C577.3259,135.1806,585.0109,129.745,590.6353,121.4965z M538.712,103.6896l44.2369-18.3703
			c-2.4368-6.1849-9.7472-10.4965-18.3689-10.4965C553.52,74.8228,538.15,84.57,538.712,103.6896z"/>
	</g>
	<rect x="0" y="0.8468" style="fill:none;" width="612.1031" height="199.1532"/>
</g>
</svg>
