G04 (created by PCBNEW (2013-07-07 BZR 4022)-stable) date 4/19/2015 11:38:55 PM*
%MOIN*%
G04 Gerber Fmt 3.4, Leading zero omitted, Abs format*
%FSLAX34Y34*%
G01*
G70*
G90*
G04 APERTURE LIST*
%ADD10C,0.00590551*%
%ADD11R,0.055X0.055*%
%ADD12C,0.055*%
%ADD13O,0.228346X0.110236*%
%ADD14O,0.216535X0.110236*%
%ADD15C,0.19685*%
%ADD16R,0.0295276X0.0551181*%
%ADD17R,0.0197X0.0906*%
%ADD18R,0.0787X0.0984*%
%ADD19C,0.0354*%
%ADD20C,0.0787402*%
%ADD21O,0.11811X0.15748*%
%ADD22R,0.0394X0.0315*%
%ADD23R,0.0276X0.0394*%
%ADD24R,0.055X0.035*%
%ADD25R,0.035X0.055*%
%ADD26R,0.02X0.045*%
%ADD27R,0.0315X0.0394*%
%ADD28R,0.06X0.06*%
%ADD29C,0.06*%
G04 APERTURE END LIST*
G54D10*
G54D11*
X66250Y-85050D03*
G54D12*
X65250Y-85050D03*
X65250Y-84050D03*
G54D13*
X98503Y-85984D03*
G54D14*
X101503Y-85984D03*
G54D11*
X89850Y-89350D03*
G54D12*
X90850Y-89350D03*
X91850Y-89350D03*
X92850Y-89350D03*
X93850Y-89350D03*
X94850Y-89350D03*
G54D15*
X57650Y-81500D03*
X67886Y-81500D03*
X89650Y-81500D03*
X99886Y-81500D03*
G54D16*
X77933Y-79370D03*
X78523Y-79370D03*
G54D12*
X63250Y-83750D03*
X62250Y-83750D03*
G54D17*
X64960Y-87421D03*
X65275Y-87421D03*
X65590Y-87421D03*
X65905Y-87421D03*
X66220Y-87421D03*
G54D18*
X63838Y-87460D03*
X63838Y-89625D03*
X67342Y-87460D03*
X67342Y-89625D03*
G54D19*
X64724Y-88444D03*
X66456Y-88444D03*
G54D20*
X100265Y-72537D03*
X101250Y-72517D03*
X102234Y-72517D03*
G54D21*
X103651Y-73501D03*
X98848Y-73501D03*
G54D20*
X54773Y-72202D03*
X55757Y-72202D03*
X56742Y-72202D03*
X57726Y-72202D03*
G54D21*
X58651Y-73501D03*
X53848Y-73501D03*
G54D11*
X78574Y-72783D03*
G54D12*
X79574Y-72783D03*
G54D11*
X79574Y-71371D03*
G54D12*
X78574Y-71371D03*
G54D11*
X88748Y-71470D03*
G54D12*
X89748Y-71470D03*
G54D11*
X68896Y-71627D03*
G54D12*
X69896Y-71627D03*
G54D11*
X53897Y-76771D03*
G54D12*
X53897Y-77771D03*
G54D22*
X59036Y-76303D03*
X59902Y-75928D03*
X59902Y-76678D03*
G54D23*
X74172Y-76527D03*
X74547Y-76527D03*
X74922Y-76527D03*
X74922Y-77527D03*
X74547Y-77527D03*
X74172Y-77527D03*
G54D24*
X88748Y-73445D03*
X88748Y-72695D03*
X68796Y-73602D03*
X68796Y-72852D03*
X78740Y-80491D03*
X78740Y-81241D03*
X77795Y-80499D03*
X77795Y-81249D03*
G54D25*
X60611Y-79653D03*
X59861Y-79653D03*
G54D24*
X85570Y-80794D03*
X85570Y-81544D03*
G54D25*
X88635Y-76950D03*
X87885Y-76950D03*
X88695Y-78290D03*
X89445Y-78290D03*
X87845Y-75620D03*
X88595Y-75620D03*
X88675Y-74683D03*
X89425Y-74683D03*
X75689Y-75669D03*
X74939Y-75669D03*
X74233Y-75669D03*
X73483Y-75669D03*
G54D24*
X72519Y-76829D03*
X72519Y-77579D03*
X57890Y-77105D03*
X57890Y-76355D03*
X60819Y-75928D03*
X60819Y-76678D03*
G54D25*
X56845Y-77480D03*
X56095Y-77480D03*
X90245Y-75620D03*
X89495Y-75620D03*
X90245Y-76910D03*
X89495Y-76910D03*
G54D24*
X81377Y-73445D03*
X81377Y-72695D03*
X75826Y-76672D03*
X75826Y-77422D03*
G54D26*
X77514Y-78075D03*
X78014Y-78075D03*
X78514Y-78075D03*
X79014Y-78075D03*
X79514Y-78075D03*
X80014Y-78075D03*
X80514Y-78075D03*
X80514Y-75975D03*
X80014Y-75975D03*
X79514Y-75975D03*
X79014Y-75975D03*
X78514Y-75975D03*
X78014Y-75975D03*
X77514Y-75975D03*
G54D27*
X56340Y-75577D03*
X56715Y-76443D03*
X55965Y-76443D03*
G54D28*
X102080Y-77770D03*
G54D29*
X103080Y-77770D03*
X102080Y-78770D03*
X103080Y-78770D03*
X102080Y-79770D03*
X103080Y-79770D03*
G54D24*
X73385Y-76357D03*
X73385Y-77107D03*
G54D13*
X58996Y-85984D03*
G54D14*
X55996Y-85984D03*
G54D13*
X85295Y-85984D03*
G54D14*
X82295Y-85984D03*
G54D13*
X72204Y-85984D03*
G54D14*
X75204Y-85984D03*
G54D11*
X97000Y-89350D03*
G54D12*
X98000Y-89350D03*
G54D11*
X99600Y-89350D03*
G54D12*
X100600Y-89350D03*
M02*
