G04 (created by PCBNEW (2013-07-07 BZR 4022)-stable) date 4/19/2015 11:38:55 PM*
%MOIN*%
G04 Gerber Fmt 3.4, Leading zero omitted, Abs format*
%FSLAX34Y34*%
G01*
G70*
G90*
G04 APERTURE LIST*
%ADD10C,0.00590551*%
%ADD11C,0.011811*%
%ADD12R,0.055X0.055*%
%ADD13C,0.055*%
%ADD14O,0.228346X0.110236*%
%ADD15O,0.216535X0.110236*%
%ADD16C,0.19685*%
%ADD17C,0.0354*%
%ADD18C,0.0787402*%
%ADD19O,0.11811X0.15748*%
G04 APERTURE END LIST*
G54D10*
G54D11*
X104399Y-71336D02*
X98100Y-71336D01*
X98100Y-71336D02*
X98100Y-74486D01*
X98100Y-74486D02*
X104399Y-74486D01*
X104399Y-74486D02*
X104399Y-71336D01*
X53100Y-70746D02*
X59399Y-70746D01*
X59399Y-70746D02*
X59399Y-74683D01*
X59399Y-74683D02*
X53100Y-74683D01*
X53100Y-74683D02*
X53100Y-70746D01*
G54D10*
X98899Y-71940D02*
X98843Y-71959D01*
X98749Y-71959D01*
X98712Y-71940D01*
X98693Y-71921D01*
X98674Y-71884D01*
X98674Y-71846D01*
X98693Y-71809D01*
X98712Y-71790D01*
X98749Y-71771D01*
X98824Y-71753D01*
X98862Y-71734D01*
X98881Y-71715D01*
X98899Y-71678D01*
X98899Y-71640D01*
X98881Y-71603D01*
X98862Y-71584D01*
X98824Y-71565D01*
X98731Y-71565D01*
X98674Y-71584D01*
X98300Y-71959D02*
X98525Y-71959D01*
X98412Y-71959D02*
X98412Y-71565D01*
X98450Y-71621D01*
X98487Y-71659D01*
X98525Y-71678D01*
X104277Y-75196D02*
X104315Y-75178D01*
X104352Y-75140D01*
X104408Y-75084D01*
X104446Y-75065D01*
X104483Y-75065D01*
X104465Y-75159D02*
X104502Y-75140D01*
X104540Y-75103D01*
X104558Y-75028D01*
X104558Y-74896D01*
X104540Y-74821D01*
X104502Y-74784D01*
X104465Y-74765D01*
X104390Y-74765D01*
X104352Y-74784D01*
X104315Y-74821D01*
X104296Y-74896D01*
X104296Y-75028D01*
X104315Y-75103D01*
X104352Y-75140D01*
X104390Y-75159D01*
X104465Y-75159D01*
X104127Y-74765D02*
X104127Y-75084D01*
X104109Y-75121D01*
X104090Y-75140D01*
X104052Y-75159D01*
X103977Y-75159D01*
X103940Y-75140D01*
X103921Y-75121D01*
X103902Y-75084D01*
X103902Y-74765D01*
X103734Y-75046D02*
X103546Y-75046D01*
X103771Y-75159D02*
X103640Y-74765D01*
X103509Y-75159D01*
X103377Y-75159D02*
X103377Y-74765D01*
X103284Y-74765D01*
X103227Y-74784D01*
X103190Y-74821D01*
X103171Y-74859D01*
X103152Y-74934D01*
X103152Y-74990D01*
X103171Y-75065D01*
X103190Y-75103D01*
X103227Y-75140D01*
X103284Y-75159D01*
X103377Y-75159D01*
X102759Y-75159D02*
X102890Y-74971D01*
X102984Y-75159D02*
X102984Y-74765D01*
X102834Y-74765D01*
X102796Y-74784D01*
X102777Y-74803D01*
X102759Y-74840D01*
X102759Y-74896D01*
X102777Y-74934D01*
X102796Y-74953D01*
X102834Y-74971D01*
X102984Y-74971D01*
X102609Y-75046D02*
X102421Y-75046D01*
X102646Y-75159D02*
X102515Y-74765D01*
X102384Y-75159D01*
X102309Y-74765D02*
X102084Y-74765D01*
X102196Y-75159D02*
X102196Y-74765D01*
X101953Y-74765D02*
X101953Y-75084D01*
X101934Y-75121D01*
X101915Y-75140D01*
X101878Y-75159D01*
X101803Y-75159D01*
X101765Y-75140D01*
X101746Y-75121D01*
X101728Y-75084D01*
X101728Y-74765D01*
X101315Y-75159D02*
X101446Y-74971D01*
X101540Y-75159D02*
X101540Y-74765D01*
X101390Y-74765D01*
X101353Y-74784D01*
X101334Y-74803D01*
X101315Y-74840D01*
X101315Y-74896D01*
X101334Y-74934D01*
X101353Y-74953D01*
X101390Y-74971D01*
X101540Y-74971D01*
X101146Y-74953D02*
X101015Y-74953D01*
X100959Y-75159D02*
X101146Y-75159D01*
X101146Y-74765D01*
X100959Y-74765D01*
X100884Y-75196D02*
X100584Y-75196D01*
X100490Y-74953D02*
X100359Y-74953D01*
X100303Y-75159D02*
X100490Y-75159D01*
X100490Y-74765D01*
X100303Y-74765D01*
X100134Y-75159D02*
X100134Y-74765D01*
X99909Y-75159D01*
X99909Y-74765D01*
X99497Y-75121D02*
X99515Y-75140D01*
X99572Y-75159D01*
X99609Y-75159D01*
X99665Y-75140D01*
X99703Y-75103D01*
X99722Y-75065D01*
X99740Y-74990D01*
X99740Y-74934D01*
X99722Y-74859D01*
X99703Y-74821D01*
X99665Y-74784D01*
X99609Y-74765D01*
X99572Y-74765D01*
X99515Y-74784D01*
X99497Y-74803D01*
X99253Y-74765D02*
X99178Y-74765D01*
X99140Y-74784D01*
X99103Y-74821D01*
X99084Y-74896D01*
X99084Y-75028D01*
X99103Y-75103D01*
X99140Y-75140D01*
X99178Y-75159D01*
X99253Y-75159D01*
X99290Y-75140D01*
X99328Y-75103D01*
X99347Y-75028D01*
X99347Y-74896D01*
X99328Y-74821D01*
X99290Y-74784D01*
X99253Y-74765D01*
X98915Y-75159D02*
X98915Y-74765D01*
X98822Y-74765D01*
X98765Y-74784D01*
X98728Y-74821D01*
X98709Y-74859D01*
X98690Y-74934D01*
X98690Y-74990D01*
X98709Y-75065D01*
X98728Y-75103D01*
X98765Y-75140D01*
X98822Y-75159D01*
X98915Y-75159D01*
X98522Y-74953D02*
X98390Y-74953D01*
X98334Y-75159D02*
X98522Y-75159D01*
X98522Y-74765D01*
X98334Y-74765D01*
X97941Y-75159D02*
X98072Y-74971D01*
X98166Y-75159D02*
X98166Y-74765D01*
X98016Y-74765D01*
X97978Y-74784D01*
X97959Y-74803D01*
X97941Y-74840D01*
X97941Y-74896D01*
X97959Y-74934D01*
X97978Y-74953D01*
X98016Y-74971D01*
X98166Y-74971D01*
X53530Y-75346D02*
X53661Y-75158D01*
X53755Y-75346D02*
X53755Y-74952D01*
X53605Y-74952D01*
X53567Y-74971D01*
X53548Y-74990D01*
X53530Y-75027D01*
X53530Y-75083D01*
X53548Y-75121D01*
X53567Y-75140D01*
X53605Y-75158D01*
X53755Y-75158D01*
X53380Y-74990D02*
X53361Y-74971D01*
X53323Y-74952D01*
X53230Y-74952D01*
X53192Y-74971D01*
X53173Y-74990D01*
X53155Y-75027D01*
X53155Y-75065D01*
X53173Y-75121D01*
X53398Y-75346D01*
X53155Y-75346D01*
X59409Y-75309D02*
X59634Y-75309D01*
X59521Y-75309D02*
X59521Y-74915D01*
X59559Y-74971D01*
X59596Y-75009D01*
X59634Y-75028D01*
X59165Y-74915D02*
X59128Y-74915D01*
X59090Y-74934D01*
X59071Y-74953D01*
X59053Y-74990D01*
X59034Y-75065D01*
X59034Y-75159D01*
X59053Y-75234D01*
X59071Y-75271D01*
X59090Y-75290D01*
X59128Y-75309D01*
X59165Y-75309D01*
X59203Y-75290D01*
X59221Y-75271D01*
X59240Y-75234D01*
X59259Y-75159D01*
X59259Y-75065D01*
X59240Y-74990D01*
X59221Y-74953D01*
X59203Y-74934D01*
X59165Y-74915D01*
X58790Y-74915D02*
X58753Y-74915D01*
X58715Y-74934D01*
X58696Y-74953D01*
X58678Y-74990D01*
X58659Y-75065D01*
X58659Y-75159D01*
X58678Y-75234D01*
X58696Y-75271D01*
X58715Y-75290D01*
X58753Y-75309D01*
X58790Y-75309D01*
X58828Y-75290D01*
X58846Y-75271D01*
X58865Y-75234D01*
X58884Y-75159D01*
X58884Y-75065D01*
X58865Y-74990D01*
X58846Y-74953D01*
X58828Y-74934D01*
X58790Y-74915D01*
X58490Y-75309D02*
X58490Y-74915D01*
X58265Y-75309D02*
X58434Y-75084D01*
X58265Y-74915D02*
X58490Y-75140D01*
%LPC*%
G54D12*
X66250Y-85050D03*
G54D13*
X65250Y-85050D03*
X65250Y-84050D03*
G54D14*
X98503Y-85984D03*
G54D15*
X101503Y-85984D03*
G54D16*
X57650Y-81500D03*
X67886Y-81500D03*
X89650Y-81500D03*
X99886Y-81500D03*
G54D13*
X63250Y-83750D03*
X62250Y-83750D03*
G54D17*
X64724Y-88444D03*
X66456Y-88444D03*
G54D18*
X100265Y-72537D03*
X101250Y-72517D03*
X102234Y-72517D03*
G54D19*
X103651Y-73501D03*
X98848Y-73501D03*
G54D18*
X54773Y-72202D03*
X55757Y-72202D03*
X56742Y-72202D03*
X57726Y-72202D03*
G54D19*
X58651Y-73501D03*
X53848Y-73501D03*
G54D12*
X78574Y-72783D03*
G54D13*
X79574Y-72783D03*
G54D12*
X79574Y-71371D03*
G54D13*
X78574Y-71371D03*
G54D12*
X88748Y-71470D03*
G54D13*
X89748Y-71470D03*
G54D12*
X68896Y-71627D03*
G54D13*
X69896Y-71627D03*
G54D12*
X53897Y-76771D03*
G54D13*
X53897Y-77771D03*
G54D14*
X58996Y-85984D03*
G54D15*
X55996Y-85984D03*
G54D14*
X85295Y-85984D03*
G54D15*
X82295Y-85984D03*
G54D14*
X72204Y-85984D03*
G54D15*
X75204Y-85984D03*
G54D12*
X97000Y-89350D03*
G54D13*
X98000Y-89350D03*
G54D12*
X99600Y-89350D03*
G54D13*
X100600Y-89350D03*
M02*
