M48
;DRILL file {Pcbnew (2013-07-07 BZR 4022)-stable} date 4/19/2015 11:29:48 PM
;FORMAT={3:3/ absolute / metric / suppress leading zeros}
FMAT,2
METRIC,TZ
T1C0.635
T2C0.813
T3C1.000
T4C1.780
T5C2.000
T6C3.500
%
G90
G05
M71
T1
X148971Y-192659
X149327Y-196190
X150774Y-197409
X154940Y-196088
X165735Y-213487
X168148Y-219964
X177013Y-196825
X177089Y-204826
X177521Y-183921
X186639Y-190652
X189332Y-201879
X189357Y-199187
X190750Y-198250
X196342Y-191465
X200000Y-207823
X200990Y-189281
X201041Y-200076
X203276Y-191516
X204394Y-200203
X205969Y-190906
X206045Y-188087
X206045Y-199238
X212598Y-192761
X216383Y-210693
X221717Y-210337
X228703Y-189772
X228981Y-198857
X230937Y-192126
X232258Y-194818
X247777Y-204851
X247904Y-202438
X254914Y-201168
X254940Y-196520
X261849Y-204495
T2
X136900Y-195000
X136900Y-197540
X158115Y-212725
X160655Y-212725
X165735Y-213487
X165735Y-216027
X168275Y-216027
X174996Y-181934
X177536Y-181934
X199580Y-181284
X199580Y-184870
X202120Y-181284
X202120Y-184870
X225422Y-181534
X227962Y-181534
X246380Y-226949
X248920Y-226949
X252984Y-226949
X255524Y-226949
T3
X139125Y-183395
X141625Y-183395
X144125Y-183395
X146625Y-183395
X254675Y-184245
X257175Y-184195
X259675Y-184195
T4
X142230Y-218400
X149850Y-218400
X183400Y-218400
X191020Y-218400
X209030Y-218400
X216650Y-218400
X250200Y-218400
X257820Y-218400
T6
X146431Y-207010
X172431Y-207010
X227711Y-207010
X253711Y-207010
T5
X136775Y-185945G85X136775Y-187445
G05
X148975Y-185945G85X148975Y-187445
G05
X251075Y-185945G85X251075Y-187445
G05
X263275Y-185945G85X263275Y-187445
G05
T0
M30
