G04 (created by PCBNEW (2013-07-07 BZR 4022)-stable) date 4/19/2015 11:38:55 PM*
%MOIN*%
G04 Gerber Fmt 3.4, Leading zero omitted, Abs format*
%FSLAX34Y34*%
G01*
G70*
G90*
G04 APERTURE LIST*
%ADD10C,0.00590551*%
%ADD11C,0.015748*%
%ADD12C,0.00492126*%
%ADD13C,0.0295276*%
%ADD14C,0.011811*%
%ADD15C,0.02*%
%ADD16C,0.012*%
%ADD17C,0.015*%
%ADD18C,0.0031*%
%ADD19C,0.005*%
%ADD20C,0.0039*%
%ADD21C,0.008*%
%ADD22C,0.0107*%
%ADD23C,0.01*%
%ADD24C,0.0047*%
%ADD25C,0.003*%
%ADD26C,0.0043*%
%ADD27R,0.055X0.055*%
%ADD28C,0.055*%
%ADD29O,0.228346X0.110236*%
%ADD30O,0.216535X0.110236*%
%ADD31C,0.19685*%
%ADD32R,0.0295276X0.0551181*%
%ADD33R,0.0197X0.0906*%
%ADD34R,0.0787X0.0984*%
%ADD35C,0.0354*%
%ADD36C,0.0787402*%
%ADD37O,0.11811X0.15748*%
%ADD38R,0.0394X0.0315*%
%ADD39R,0.0276X0.0394*%
%ADD40R,0.055X0.035*%
%ADD41R,0.035X0.055*%
%ADD42R,0.02X0.045*%
%ADD43R,0.0315X0.0394*%
%ADD44R,0.06X0.06*%
%ADD45C,0.06*%
G04 APERTURE END LIST*
G54D10*
G54D11*
X62990Y-84850D02*
X62990Y-86600D01*
X62990Y-86600D02*
X68490Y-86600D01*
X62990Y-84850D02*
X68490Y-84850D01*
X68490Y-84850D02*
X68490Y-86600D01*
X62990Y-85250D02*
X62740Y-85250D01*
X62740Y-85250D02*
X62740Y-86200D01*
X62740Y-86200D02*
X62990Y-86200D01*
X89000Y-86450D02*
X89250Y-86450D01*
X89000Y-85500D02*
X89000Y-86450D01*
X89250Y-85500D02*
X89000Y-85500D01*
X94750Y-85100D02*
X94750Y-86850D01*
X89250Y-85100D02*
X94750Y-85100D01*
X89250Y-86850D02*
X94750Y-86850D01*
X89250Y-85100D02*
X89250Y-86850D01*
G54D12*
X98050Y-88542D02*
X98031Y-88532D01*
X98003Y-88532D01*
X97975Y-88542D01*
X97956Y-88560D01*
X97946Y-88579D01*
X97937Y-88617D01*
X97937Y-88645D01*
X97946Y-88682D01*
X97956Y-88701D01*
X97975Y-88720D01*
X98003Y-88729D01*
X98021Y-88729D01*
X98050Y-88720D01*
X98059Y-88710D01*
X98059Y-88645D01*
X98021Y-88645D01*
X98143Y-88729D02*
X98143Y-88532D01*
X98256Y-88729D01*
X98256Y-88532D01*
X98349Y-88729D02*
X98349Y-88532D01*
X98396Y-88532D01*
X98424Y-88542D01*
X98443Y-88560D01*
X98453Y-88579D01*
X98462Y-88617D01*
X98462Y-88645D01*
X98453Y-88682D01*
X98443Y-88701D01*
X98424Y-88720D01*
X98396Y-88729D01*
X98349Y-88729D01*
X100650Y-88542D02*
X100631Y-88532D01*
X100603Y-88532D01*
X100575Y-88542D01*
X100556Y-88560D01*
X100546Y-88579D01*
X100537Y-88617D01*
X100537Y-88645D01*
X100546Y-88682D01*
X100556Y-88701D01*
X100575Y-88720D01*
X100603Y-88729D01*
X100621Y-88729D01*
X100650Y-88720D01*
X100659Y-88710D01*
X100659Y-88645D01*
X100621Y-88645D01*
X100743Y-88729D02*
X100743Y-88532D01*
X100856Y-88729D01*
X100856Y-88532D01*
X100949Y-88729D02*
X100949Y-88532D01*
X100996Y-88532D01*
X101024Y-88542D01*
X101043Y-88560D01*
X101053Y-88579D01*
X101062Y-88617D01*
X101062Y-88645D01*
X101053Y-88682D01*
X101043Y-88701D01*
X101024Y-88720D01*
X100996Y-88729D01*
X100949Y-88729D01*
X99106Y-88654D02*
X99256Y-88654D01*
X99181Y-88729D02*
X99181Y-88579D01*
X99340Y-88551D02*
X99350Y-88542D01*
X99368Y-88532D01*
X99415Y-88532D01*
X99434Y-88542D01*
X99443Y-88551D01*
X99453Y-88570D01*
X99453Y-88589D01*
X99443Y-88617D01*
X99331Y-88729D01*
X99453Y-88729D01*
X99537Y-88710D02*
X99546Y-88720D01*
X99537Y-88729D01*
X99528Y-88720D01*
X99537Y-88710D01*
X99537Y-88729D01*
X99668Y-88532D02*
X99687Y-88532D01*
X99706Y-88542D01*
X99715Y-88551D01*
X99724Y-88570D01*
X99734Y-88607D01*
X99734Y-88654D01*
X99724Y-88692D01*
X99715Y-88710D01*
X99706Y-88720D01*
X99687Y-88729D01*
X99668Y-88729D01*
X99649Y-88720D01*
X99640Y-88710D01*
X99631Y-88692D01*
X99621Y-88654D01*
X99621Y-88607D01*
X99631Y-88570D01*
X99640Y-88551D01*
X99649Y-88542D01*
X99668Y-88532D01*
X99790Y-88532D02*
X99856Y-88729D01*
X99921Y-88532D01*
X96456Y-88654D02*
X96606Y-88654D01*
X96531Y-88729D02*
X96531Y-88579D01*
X96690Y-88551D02*
X96700Y-88542D01*
X96718Y-88532D01*
X96765Y-88532D01*
X96784Y-88542D01*
X96793Y-88551D01*
X96803Y-88570D01*
X96803Y-88589D01*
X96793Y-88617D01*
X96681Y-88729D01*
X96803Y-88729D01*
X96887Y-88710D02*
X96896Y-88720D01*
X96887Y-88729D01*
X96878Y-88720D01*
X96887Y-88710D01*
X96887Y-88729D01*
X97018Y-88532D02*
X97037Y-88532D01*
X97056Y-88542D01*
X97065Y-88551D01*
X97074Y-88570D01*
X97084Y-88607D01*
X97084Y-88654D01*
X97074Y-88692D01*
X97065Y-88710D01*
X97056Y-88720D01*
X97037Y-88729D01*
X97018Y-88729D01*
X96999Y-88720D01*
X96990Y-88710D01*
X96981Y-88692D01*
X96971Y-88654D01*
X96971Y-88607D01*
X96981Y-88570D01*
X96990Y-88551D01*
X96999Y-88542D01*
X97018Y-88532D01*
X97140Y-88532D02*
X97206Y-88729D01*
X97271Y-88532D01*
G54D13*
X68970Y-85728D02*
X69869Y-85728D01*
X61270Y-85728D02*
X62169Y-85728D01*
X61720Y-86178D02*
X61720Y-85278D01*
X95450Y-85978D02*
X96349Y-85978D01*
X87400Y-85928D02*
X88299Y-85928D01*
X87850Y-86378D02*
X87850Y-85478D01*
G54D14*
X84764Y-82942D02*
X85107Y-82942D01*
X84935Y-83542D02*
X84935Y-82942D01*
X85307Y-83542D02*
X85307Y-82942D01*
X85564Y-83542D02*
X85564Y-83228D01*
X85535Y-83171D01*
X85478Y-83142D01*
X85392Y-83142D01*
X85335Y-83171D01*
X85307Y-83200D01*
X86107Y-83542D02*
X86107Y-83228D01*
X86078Y-83171D01*
X86021Y-83142D01*
X85907Y-83142D01*
X85850Y-83171D01*
X86107Y-83514D02*
X86050Y-83542D01*
X85907Y-83542D01*
X85850Y-83514D01*
X85821Y-83457D01*
X85821Y-83400D01*
X85850Y-83342D01*
X85907Y-83314D01*
X86050Y-83314D01*
X86107Y-83285D01*
X86392Y-83142D02*
X86392Y-83542D01*
X86392Y-83200D02*
X86421Y-83171D01*
X86478Y-83142D01*
X86564Y-83142D01*
X86621Y-83171D01*
X86650Y-83228D01*
X86650Y-83542D01*
X86935Y-83542D02*
X86935Y-82942D01*
X86992Y-83314D02*
X87164Y-83542D01*
X87164Y-83142D02*
X86935Y-83371D01*
X87821Y-83142D02*
X87964Y-83542D01*
X88107Y-83142D02*
X87964Y-83542D01*
X87907Y-83685D01*
X87878Y-83714D01*
X87821Y-83742D01*
X88421Y-83542D02*
X88364Y-83514D01*
X88335Y-83485D01*
X88307Y-83428D01*
X88307Y-83257D01*
X88335Y-83200D01*
X88364Y-83171D01*
X88421Y-83142D01*
X88507Y-83142D01*
X88564Y-83171D01*
X88592Y-83200D01*
X88621Y-83257D01*
X88621Y-83428D01*
X88592Y-83485D01*
X88564Y-83514D01*
X88507Y-83542D01*
X88421Y-83542D01*
X89135Y-83142D02*
X89135Y-83542D01*
X88878Y-83142D02*
X88878Y-83457D01*
X88907Y-83514D01*
X88964Y-83542D01*
X89050Y-83542D01*
X89107Y-83514D01*
X89135Y-83485D01*
X89878Y-83542D02*
X89878Y-82942D01*
X90221Y-83542D02*
X89964Y-83200D01*
X90221Y-82942D02*
X89878Y-83285D01*
X90478Y-83542D02*
X90478Y-83142D01*
X90478Y-82942D02*
X90450Y-82971D01*
X90478Y-83000D01*
X90507Y-82971D01*
X90478Y-82942D01*
X90478Y-83000D01*
X91021Y-83514D02*
X90964Y-83542D01*
X90849Y-83542D01*
X90792Y-83514D01*
X90764Y-83485D01*
X90735Y-83428D01*
X90735Y-83257D01*
X90764Y-83200D01*
X90792Y-83171D01*
X90849Y-83142D01*
X90964Y-83142D01*
X91021Y-83171D01*
X91278Y-83542D02*
X91278Y-82942D01*
X91335Y-83314D02*
X91507Y-83542D01*
X91507Y-83142D02*
X91278Y-83371D01*
X91735Y-83514D02*
X91792Y-83542D01*
X91907Y-83542D01*
X91964Y-83514D01*
X91992Y-83457D01*
X91992Y-83428D01*
X91964Y-83371D01*
X91907Y-83342D01*
X91821Y-83342D01*
X91764Y-83314D01*
X91735Y-83257D01*
X91735Y-83228D01*
X91764Y-83171D01*
X91821Y-83142D01*
X91907Y-83142D01*
X91964Y-83171D01*
X92164Y-83142D02*
X92392Y-83142D01*
X92249Y-82942D02*
X92249Y-83457D01*
X92278Y-83514D01*
X92335Y-83542D01*
X92392Y-83542D01*
X92849Y-83542D02*
X92849Y-83228D01*
X92821Y-83171D01*
X92764Y-83142D01*
X92649Y-83142D01*
X92592Y-83171D01*
X92849Y-83514D02*
X92792Y-83542D01*
X92649Y-83542D01*
X92592Y-83514D01*
X92564Y-83457D01*
X92564Y-83400D01*
X92592Y-83342D01*
X92649Y-83314D01*
X92792Y-83314D01*
X92849Y-83285D01*
X93135Y-83542D02*
X93135Y-83142D01*
X93135Y-83257D02*
X93164Y-83200D01*
X93192Y-83171D01*
X93249Y-83142D01*
X93307Y-83142D01*
X93421Y-83142D02*
X93649Y-83142D01*
X93507Y-82942D02*
X93507Y-83457D01*
X93535Y-83514D01*
X93592Y-83542D01*
X93649Y-83542D01*
X94078Y-83514D02*
X94021Y-83542D01*
X93907Y-83542D01*
X93849Y-83514D01*
X93821Y-83457D01*
X93821Y-83228D01*
X93849Y-83171D01*
X93907Y-83142D01*
X94021Y-83142D01*
X94078Y-83171D01*
X94107Y-83228D01*
X94107Y-83285D01*
X93821Y-83342D01*
X94364Y-83542D02*
X94364Y-83142D01*
X94364Y-83257D02*
X94392Y-83200D01*
X94421Y-83171D01*
X94478Y-83142D01*
X94535Y-83142D01*
X95192Y-83542D02*
X95192Y-82942D01*
X95192Y-83171D02*
X95250Y-83142D01*
X95364Y-83142D01*
X95421Y-83171D01*
X95450Y-83200D01*
X95478Y-83257D01*
X95478Y-83428D01*
X95450Y-83485D01*
X95421Y-83514D01*
X95364Y-83542D01*
X95250Y-83542D01*
X95192Y-83514D01*
X95992Y-83542D02*
X95992Y-83228D01*
X95964Y-83171D01*
X95907Y-83142D01*
X95792Y-83142D01*
X95735Y-83171D01*
X95992Y-83514D02*
X95935Y-83542D01*
X95792Y-83542D01*
X95735Y-83514D01*
X95707Y-83457D01*
X95707Y-83400D01*
X95735Y-83342D01*
X95792Y-83314D01*
X95935Y-83314D01*
X95992Y-83285D01*
X96535Y-83514D02*
X96478Y-83542D01*
X96364Y-83542D01*
X96307Y-83514D01*
X96278Y-83485D01*
X96250Y-83428D01*
X96250Y-83257D01*
X96278Y-83200D01*
X96307Y-83171D01*
X96364Y-83142D01*
X96478Y-83142D01*
X96535Y-83171D01*
X96792Y-83542D02*
X96792Y-82942D01*
X96850Y-83314D02*
X97021Y-83542D01*
X97021Y-83142D02*
X96792Y-83371D01*
X97507Y-83514D02*
X97450Y-83542D01*
X97335Y-83542D01*
X97278Y-83514D01*
X97250Y-83457D01*
X97250Y-83228D01*
X97278Y-83171D01*
X97335Y-83142D01*
X97450Y-83142D01*
X97507Y-83171D01*
X97535Y-83228D01*
X97535Y-83285D01*
X97250Y-83342D01*
X97792Y-83542D02*
X97792Y-83142D01*
X97792Y-83257D02*
X97821Y-83200D01*
X97850Y-83171D01*
X97907Y-83142D01*
X97964Y-83142D01*
X98135Y-83514D02*
X98192Y-83542D01*
X98307Y-83542D01*
X98364Y-83514D01*
X98392Y-83457D01*
X98392Y-83428D01*
X98364Y-83371D01*
X98307Y-83342D01*
X98221Y-83342D01*
X98164Y-83314D01*
X98135Y-83257D01*
X98135Y-83228D01*
X98164Y-83171D01*
X98221Y-83142D01*
X98307Y-83142D01*
X98364Y-83171D01*
X98650Y-83485D02*
X98678Y-83514D01*
X98650Y-83542D01*
X98621Y-83514D01*
X98650Y-83485D01*
X98650Y-83542D01*
X98650Y-83314D02*
X98621Y-82971D01*
X98650Y-82942D01*
X98678Y-82971D01*
X98650Y-83314D01*
X98650Y-82942D01*
X91478Y-84272D02*
X91935Y-84272D01*
X92650Y-84472D02*
X92735Y-84500D01*
X92878Y-84500D01*
X92935Y-84472D01*
X92964Y-84443D01*
X92992Y-84386D01*
X92992Y-84329D01*
X92964Y-84272D01*
X92935Y-84243D01*
X92878Y-84215D01*
X92764Y-84186D01*
X92707Y-84158D01*
X92678Y-84129D01*
X92650Y-84072D01*
X92650Y-84015D01*
X92678Y-83958D01*
X92707Y-83929D01*
X92764Y-83900D01*
X92907Y-83900D01*
X92992Y-83929D01*
X93507Y-84500D02*
X93507Y-84186D01*
X93478Y-84129D01*
X93421Y-84100D01*
X93307Y-84100D01*
X93250Y-84129D01*
X93507Y-84472D02*
X93450Y-84500D01*
X93307Y-84500D01*
X93250Y-84472D01*
X93221Y-84415D01*
X93221Y-84358D01*
X93250Y-84300D01*
X93307Y-84272D01*
X93450Y-84272D01*
X93507Y-84243D01*
X93792Y-84500D02*
X93792Y-84100D01*
X93792Y-84158D02*
X93821Y-84129D01*
X93878Y-84100D01*
X93964Y-84100D01*
X94021Y-84129D01*
X94050Y-84186D01*
X94050Y-84500D01*
X94050Y-84186D02*
X94078Y-84129D01*
X94135Y-84100D01*
X94221Y-84100D01*
X94278Y-84129D01*
X94307Y-84186D01*
X94307Y-84500D01*
X61235Y-80235D02*
X61235Y-79035D01*
X61635Y-79892D01*
X62035Y-79035D01*
X62035Y-80235D01*
X62607Y-80235D02*
X62607Y-79035D01*
X63178Y-80235D02*
X63178Y-79035D01*
X63864Y-80235D01*
X63864Y-79035D01*
X64435Y-79035D02*
X64435Y-80007D01*
X64492Y-80121D01*
X64550Y-80178D01*
X64664Y-80235D01*
X64892Y-80235D01*
X65007Y-80178D01*
X65064Y-80121D01*
X65121Y-80007D01*
X65121Y-79035D01*
X65521Y-79035D02*
X66207Y-79035D01*
X65864Y-80235D02*
X65864Y-79035D01*
X66607Y-79607D02*
X67007Y-79607D01*
X67178Y-80235D02*
X66607Y-80235D01*
X66607Y-79035D01*
X67178Y-79035D01*
X67635Y-80178D02*
X67807Y-80235D01*
X68092Y-80235D01*
X68207Y-80178D01*
X68264Y-80121D01*
X68321Y-80007D01*
X68321Y-79892D01*
X68264Y-79778D01*
X68207Y-79721D01*
X68092Y-79664D01*
X67864Y-79607D01*
X67750Y-79550D01*
X67692Y-79492D01*
X67635Y-79378D01*
X67635Y-79264D01*
X67692Y-79150D01*
X67750Y-79092D01*
X67864Y-79035D01*
X68150Y-79035D01*
X68321Y-79092D01*
X91828Y-80585D02*
X91828Y-79385D01*
X91828Y-79957D02*
X92514Y-79957D01*
X92514Y-80585D02*
X92514Y-79385D01*
X93314Y-79385D02*
X93542Y-79385D01*
X93657Y-79442D01*
X93771Y-79557D01*
X93828Y-79785D01*
X93828Y-80185D01*
X93771Y-80414D01*
X93657Y-80528D01*
X93542Y-80585D01*
X93314Y-80585D01*
X93200Y-80528D01*
X93085Y-80414D01*
X93028Y-80185D01*
X93028Y-79785D01*
X93085Y-79557D01*
X93200Y-79442D01*
X93314Y-79385D01*
X94342Y-79385D02*
X94342Y-80357D01*
X94400Y-80471D01*
X94457Y-80528D01*
X94571Y-80585D01*
X94800Y-80585D01*
X94914Y-80528D01*
X94971Y-80471D01*
X95028Y-80357D01*
X95028Y-79385D01*
X96285Y-80585D02*
X95885Y-80014D01*
X95600Y-80585D02*
X95600Y-79385D01*
X96057Y-79385D01*
X96171Y-79442D01*
X96228Y-79500D01*
X96285Y-79614D01*
X96285Y-79785D01*
X96228Y-79900D01*
X96171Y-79957D01*
X96057Y-80014D01*
X95600Y-80014D01*
X96742Y-80528D02*
X96914Y-80585D01*
X97200Y-80585D01*
X97314Y-80528D01*
X97371Y-80471D01*
X97428Y-80357D01*
X97428Y-80242D01*
X97371Y-80128D01*
X97314Y-80071D01*
X97200Y-80014D01*
X96971Y-79957D01*
X96857Y-79900D01*
X96800Y-79842D01*
X96742Y-79728D01*
X96742Y-79614D01*
X96800Y-79500D01*
X96857Y-79442D01*
X96971Y-79385D01*
X97257Y-79385D01*
X97428Y-79442D01*
X53074Y-89731D02*
X53359Y-89731D01*
X53017Y-89902D02*
X53217Y-89302D01*
X53417Y-89902D01*
X53559Y-89302D02*
X53702Y-89902D01*
X53817Y-89474D01*
X53931Y-89902D01*
X54074Y-89302D01*
X54302Y-89902D02*
X54302Y-89302D01*
X54645Y-89902D02*
X54388Y-89560D01*
X54645Y-89302D02*
X54302Y-89645D01*
X54902Y-89674D02*
X55359Y-89674D01*
X55959Y-89902D02*
X55617Y-89902D01*
X55788Y-89902D02*
X55788Y-89302D01*
X55731Y-89388D01*
X55674Y-89445D01*
X55617Y-89474D01*
X56331Y-89302D02*
X56388Y-89302D01*
X56445Y-89331D01*
X56474Y-89360D01*
X56502Y-89417D01*
X56531Y-89531D01*
X56531Y-89674D01*
X56502Y-89788D01*
X56474Y-89845D01*
X56445Y-89874D01*
X56388Y-89902D01*
X56331Y-89902D01*
X56274Y-89874D01*
X56245Y-89845D01*
X56217Y-89788D01*
X56188Y-89674D01*
X56188Y-89531D01*
X56217Y-89417D01*
X56245Y-89360D01*
X56274Y-89331D01*
X56331Y-89302D01*
X57074Y-89302D02*
X56788Y-89302D01*
X56760Y-89588D01*
X56788Y-89560D01*
X56845Y-89531D01*
X56988Y-89531D01*
X57045Y-89560D01*
X57074Y-89588D01*
X57102Y-89645D01*
X57102Y-89788D01*
X57074Y-89845D01*
X57045Y-89874D01*
X56988Y-89902D01*
X56845Y-89902D01*
X56788Y-89874D01*
X56760Y-89845D01*
X57360Y-89674D02*
X57817Y-89674D01*
X58217Y-89302D02*
X58274Y-89302D01*
X58331Y-89331D01*
X58360Y-89360D01*
X58388Y-89417D01*
X58417Y-89531D01*
X58417Y-89674D01*
X58388Y-89788D01*
X58360Y-89845D01*
X58331Y-89874D01*
X58274Y-89902D01*
X58217Y-89902D01*
X58160Y-89874D01*
X58131Y-89845D01*
X58102Y-89788D01*
X58074Y-89674D01*
X58074Y-89531D01*
X58102Y-89417D01*
X58131Y-89360D01*
X58160Y-89331D01*
X58217Y-89302D01*
X58788Y-89302D02*
X58845Y-89302D01*
X58902Y-89331D01*
X58931Y-89360D01*
X58960Y-89417D01*
X58988Y-89531D01*
X58988Y-89674D01*
X58960Y-89788D01*
X58931Y-89845D01*
X58902Y-89874D01*
X58845Y-89902D01*
X58788Y-89902D01*
X58731Y-89874D01*
X58702Y-89845D01*
X58674Y-89788D01*
X58645Y-89674D01*
X58645Y-89531D01*
X58674Y-89417D01*
X58702Y-89360D01*
X58731Y-89331D01*
X58788Y-89302D01*
X59531Y-89302D02*
X59245Y-89302D01*
X59217Y-89588D01*
X59245Y-89560D01*
X59302Y-89531D01*
X59445Y-89531D01*
X59502Y-89560D01*
X59531Y-89588D01*
X59560Y-89645D01*
X59560Y-89788D01*
X59531Y-89845D01*
X59502Y-89874D01*
X59445Y-89902D01*
X59302Y-89902D01*
X59245Y-89874D01*
X59217Y-89845D01*
X60617Y-89902D02*
X60417Y-89617D01*
X60274Y-89902D02*
X60274Y-89302D01*
X60502Y-89302D01*
X60560Y-89331D01*
X60588Y-89360D01*
X60617Y-89417D01*
X60617Y-89502D01*
X60588Y-89560D01*
X60560Y-89588D01*
X60502Y-89617D01*
X60274Y-89617D01*
X61102Y-89874D02*
X61045Y-89902D01*
X60931Y-89902D01*
X60874Y-89874D01*
X60845Y-89817D01*
X60845Y-89588D01*
X60874Y-89531D01*
X60931Y-89502D01*
X61045Y-89502D01*
X61102Y-89531D01*
X61131Y-89588D01*
X61131Y-89645D01*
X60845Y-89702D01*
X61331Y-89502D02*
X61474Y-89902D01*
X61617Y-89502D01*
X62502Y-89588D02*
X62588Y-89617D01*
X62617Y-89645D01*
X62645Y-89702D01*
X62645Y-89788D01*
X62617Y-89845D01*
X62588Y-89874D01*
X62531Y-89902D01*
X62302Y-89902D01*
X62302Y-89302D01*
X62502Y-89302D01*
X62560Y-89331D01*
X62588Y-89360D01*
X62617Y-89417D01*
X62617Y-89474D01*
X62588Y-89531D01*
X62560Y-89560D01*
X62502Y-89588D01*
X62302Y-89588D01*
G54D15*
X68891Y-89102D02*
X69079Y-89758D01*
X69266Y-89289D01*
X69454Y-89758D01*
X69641Y-89102D01*
X69922Y-89102D02*
X70110Y-89758D01*
X70297Y-89289D01*
X70485Y-89758D01*
X70672Y-89102D01*
X70954Y-89102D02*
X71141Y-89758D01*
X71329Y-89289D01*
X71516Y-89758D01*
X71703Y-89102D01*
X72078Y-89664D02*
X72125Y-89711D01*
X72078Y-89758D01*
X72032Y-89711D01*
X72078Y-89664D01*
X72078Y-89758D01*
X72969Y-89758D02*
X72969Y-89242D01*
X72922Y-89149D01*
X72828Y-89102D01*
X72641Y-89102D01*
X72547Y-89149D01*
X72969Y-89711D02*
X72875Y-89758D01*
X72641Y-89758D01*
X72547Y-89711D01*
X72500Y-89617D01*
X72500Y-89524D01*
X72547Y-89430D01*
X72641Y-89383D01*
X72875Y-89383D01*
X72969Y-89336D01*
X73344Y-89102D02*
X73531Y-89758D01*
X73719Y-89289D01*
X73906Y-89758D01*
X74094Y-89102D01*
X74469Y-89758D02*
X74469Y-88774D01*
X74562Y-89383D02*
X74844Y-89758D01*
X74844Y-89102D02*
X74469Y-89477D01*
X75172Y-89102D02*
X75359Y-89758D01*
X75547Y-89289D01*
X75734Y-89758D01*
X75922Y-89102D01*
X76718Y-89758D02*
X76718Y-89242D01*
X76672Y-89149D01*
X76578Y-89102D01*
X76390Y-89102D01*
X76297Y-89149D01*
X76718Y-89711D02*
X76625Y-89758D01*
X76390Y-89758D01*
X76297Y-89711D01*
X76250Y-89617D01*
X76250Y-89524D01*
X76297Y-89430D01*
X76390Y-89383D01*
X76625Y-89383D01*
X76718Y-89336D01*
X77187Y-89758D02*
X77187Y-89102D01*
X77187Y-89289D02*
X77234Y-89195D01*
X77281Y-89149D01*
X77375Y-89102D01*
X77468Y-89102D01*
X78218Y-89758D02*
X78218Y-88774D01*
X78218Y-89711D02*
X78125Y-89758D01*
X77937Y-89758D01*
X77843Y-89711D01*
X77796Y-89664D01*
X77750Y-89570D01*
X77750Y-89289D01*
X77796Y-89195D01*
X77843Y-89149D01*
X77937Y-89102D01*
X78125Y-89102D01*
X78218Y-89149D01*
X79062Y-89711D02*
X78968Y-89758D01*
X78781Y-89758D01*
X78687Y-89711D01*
X78640Y-89617D01*
X78640Y-89242D01*
X78687Y-89149D01*
X78781Y-89102D01*
X78968Y-89102D01*
X79062Y-89149D01*
X79109Y-89242D01*
X79109Y-89336D01*
X78640Y-89430D01*
X79531Y-89102D02*
X79531Y-89758D01*
X79531Y-89195D02*
X79577Y-89149D01*
X79671Y-89102D01*
X79812Y-89102D01*
X79906Y-89149D01*
X79952Y-89242D01*
X79952Y-89758D01*
X80843Y-89102D02*
X80843Y-89898D01*
X80796Y-89992D01*
X80749Y-90039D01*
X80655Y-90086D01*
X80515Y-90086D01*
X80421Y-90039D01*
X80843Y-89711D02*
X80749Y-89758D01*
X80562Y-89758D01*
X80468Y-89711D01*
X80421Y-89664D01*
X80374Y-89570D01*
X80374Y-89289D01*
X80421Y-89195D01*
X80468Y-89149D01*
X80562Y-89102D01*
X80749Y-89102D01*
X80843Y-89149D01*
X81312Y-89758D02*
X81312Y-89102D01*
X81312Y-88774D02*
X81265Y-88821D01*
X81312Y-88867D01*
X81359Y-88821D01*
X81312Y-88774D01*
X81312Y-88867D01*
X81780Y-89102D02*
X81780Y-89758D01*
X81780Y-89195D02*
X81827Y-89149D01*
X81921Y-89102D01*
X82062Y-89102D01*
X82155Y-89149D01*
X82202Y-89242D01*
X82202Y-89758D01*
X83046Y-89711D02*
X82952Y-89758D01*
X82765Y-89758D01*
X82671Y-89711D01*
X82624Y-89617D01*
X82624Y-89242D01*
X82671Y-89149D01*
X82765Y-89102D01*
X82952Y-89102D01*
X83046Y-89149D01*
X83093Y-89242D01*
X83093Y-89336D01*
X82624Y-89430D01*
X83889Y-89711D02*
X83796Y-89758D01*
X83608Y-89758D01*
X83514Y-89711D01*
X83468Y-89617D01*
X83468Y-89242D01*
X83514Y-89149D01*
X83608Y-89102D01*
X83796Y-89102D01*
X83889Y-89149D01*
X83936Y-89242D01*
X83936Y-89336D01*
X83468Y-89430D01*
X84358Y-89758D02*
X84358Y-89102D01*
X84358Y-89289D02*
X84405Y-89195D01*
X84452Y-89149D01*
X84546Y-89102D01*
X84639Y-89102D01*
X84967Y-89664D02*
X85014Y-89711D01*
X84967Y-89758D01*
X84921Y-89711D01*
X84967Y-89664D01*
X84967Y-89758D01*
X85858Y-89711D02*
X85764Y-89758D01*
X85577Y-89758D01*
X85483Y-89711D01*
X85436Y-89664D01*
X85389Y-89570D01*
X85389Y-89289D01*
X85436Y-89195D01*
X85483Y-89149D01*
X85577Y-89102D01*
X85764Y-89102D01*
X85858Y-89149D01*
X86420Y-89758D02*
X86327Y-89711D01*
X86280Y-89664D01*
X86233Y-89570D01*
X86233Y-89289D01*
X86280Y-89195D01*
X86327Y-89149D01*
X86420Y-89102D01*
X86561Y-89102D01*
X86655Y-89149D01*
X86702Y-89195D01*
X86748Y-89289D01*
X86748Y-89570D01*
X86702Y-89664D01*
X86655Y-89711D01*
X86561Y-89758D01*
X86420Y-89758D01*
X87170Y-89758D02*
X87170Y-89102D01*
X87170Y-89195D02*
X87217Y-89149D01*
X87311Y-89102D01*
X87452Y-89102D01*
X87545Y-89149D01*
X87592Y-89242D01*
X87592Y-89758D01*
X87592Y-89242D02*
X87639Y-89149D01*
X87733Y-89102D01*
X87873Y-89102D01*
X87967Y-89149D01*
X88014Y-89242D01*
X88014Y-89758D01*
G54D16*
X66750Y-85050D02*
X65250Y-83550D01*
X65250Y-83550D02*
X64750Y-83550D01*
X64750Y-83550D02*
X64250Y-84050D01*
X64250Y-84050D02*
X64250Y-85050D01*
X64250Y-85050D02*
X65250Y-86050D01*
X65250Y-86050D02*
X66250Y-86050D01*
X66250Y-86050D02*
X66750Y-85550D01*
X66750Y-85550D02*
X66750Y-85050D01*
G54D10*
X102834Y-83622D02*
X100472Y-83622D01*
X102834Y-83622D02*
X102834Y-88346D01*
X102834Y-88346D02*
X100472Y-88346D01*
X85303Y-85484D02*
X85303Y-86484D01*
G54D16*
X89350Y-89850D02*
X89350Y-88850D01*
X89350Y-88850D02*
X95350Y-88850D01*
X95350Y-88850D02*
X95350Y-89850D01*
X95350Y-89850D02*
X89350Y-89850D01*
X90350Y-89850D02*
X90350Y-88850D01*
X63730Y-84250D02*
X61750Y-84250D01*
X61750Y-84250D02*
X61750Y-83250D01*
X61750Y-83250D02*
X63750Y-83250D01*
X63750Y-83250D02*
X63750Y-84250D01*
X63750Y-84000D02*
X63500Y-84250D01*
G54D17*
X64074Y-90196D02*
X67106Y-90196D01*
X64074Y-90590D02*
X67106Y-90590D01*
X67106Y-90590D02*
X67106Y-86968D01*
X67106Y-86968D02*
X64074Y-86968D01*
X64074Y-86968D02*
X64074Y-90590D01*
G54D16*
X78074Y-73283D02*
X78074Y-72283D01*
X78074Y-72283D02*
X80074Y-72283D01*
X80074Y-72283D02*
X80074Y-73283D01*
X80074Y-73283D02*
X78074Y-73283D01*
X80074Y-70871D02*
X80074Y-71871D01*
X80074Y-71871D02*
X78074Y-71871D01*
X78074Y-71871D02*
X78074Y-70871D01*
X78074Y-70871D02*
X80074Y-70871D01*
X88248Y-71970D02*
X88248Y-70970D01*
X88248Y-70970D02*
X90248Y-70970D01*
X90248Y-70970D02*
X90248Y-71970D01*
X90248Y-71970D02*
X88248Y-71970D01*
X68396Y-72127D02*
X68396Y-71127D01*
X68396Y-71127D02*
X70396Y-71127D01*
X70396Y-71127D02*
X70396Y-72127D01*
X70396Y-72127D02*
X68396Y-72127D01*
X53397Y-76271D02*
X54397Y-76271D01*
X54397Y-76271D02*
X54397Y-78271D01*
X54397Y-78271D02*
X53397Y-78271D01*
X53397Y-78271D02*
X53397Y-76271D01*
G54D18*
X59670Y-76766D02*
G75*
G03X59670Y-76766I-62J0D01*
G74*
G01*
X59269Y-75803D02*
X59669Y-75803D01*
X59269Y-76828D02*
X59669Y-76828D01*
X59669Y-75803D02*
X59669Y-76828D01*
X59269Y-76828D02*
X59269Y-75803D01*
G54D19*
X74347Y-77327D02*
X74047Y-77127D01*
X75047Y-77327D02*
X74022Y-77327D01*
X74022Y-77327D02*
X74022Y-76727D01*
X74022Y-76727D02*
X75047Y-76727D01*
X75047Y-76727D02*
X75047Y-77327D01*
G54D20*
X89098Y-73720D02*
G75*
G03X89098Y-73720I-50J0D01*
G74*
G01*
X89048Y-73270D02*
X89048Y-73670D01*
X89048Y-73670D02*
X88448Y-73670D01*
X88448Y-73670D02*
X88448Y-73270D01*
X88448Y-72870D02*
X88448Y-72470D01*
X88448Y-72470D02*
X89048Y-72470D01*
X89048Y-72470D02*
X89048Y-72870D01*
X69146Y-73877D02*
G75*
G03X69146Y-73877I-50J0D01*
G74*
G01*
X69096Y-73427D02*
X69096Y-73827D01*
X69096Y-73827D02*
X68496Y-73827D01*
X68496Y-73827D02*
X68496Y-73427D01*
X68496Y-73027D02*
X68496Y-72627D01*
X68496Y-72627D02*
X69096Y-72627D01*
X69096Y-72627D02*
X69096Y-73027D01*
X78490Y-80216D02*
G75*
G03X78490Y-80216I-50J0D01*
G74*
G01*
X78440Y-80666D02*
X78440Y-80266D01*
X78440Y-80266D02*
X79040Y-80266D01*
X79040Y-80266D02*
X79040Y-80666D01*
X79040Y-81066D02*
X79040Y-81466D01*
X79040Y-81466D02*
X78440Y-81466D01*
X78440Y-81466D02*
X78440Y-81066D01*
X77545Y-80224D02*
G75*
G03X77545Y-80224I-50J0D01*
G74*
G01*
X77495Y-80674D02*
X77495Y-80274D01*
X77495Y-80274D02*
X78095Y-80274D01*
X78095Y-80274D02*
X78095Y-80674D01*
X78095Y-81074D02*
X78095Y-81474D01*
X78095Y-81474D02*
X77495Y-81474D01*
X77495Y-81474D02*
X77495Y-81074D01*
X60936Y-79353D02*
G75*
G03X60936Y-79353I-50J0D01*
G74*
G01*
X60436Y-79353D02*
X60836Y-79353D01*
X60836Y-79353D02*
X60836Y-79953D01*
X60836Y-79953D02*
X60436Y-79953D01*
X60036Y-79953D02*
X59636Y-79953D01*
X59636Y-79953D02*
X59636Y-79353D01*
X59636Y-79353D02*
X60036Y-79353D01*
X85320Y-80519D02*
G75*
G03X85320Y-80519I-50J0D01*
G74*
G01*
X85270Y-80969D02*
X85270Y-80569D01*
X85270Y-80569D02*
X85870Y-80569D01*
X85870Y-80569D02*
X85870Y-80969D01*
X85870Y-81369D02*
X85870Y-81769D01*
X85870Y-81769D02*
X85270Y-81769D01*
X85270Y-81769D02*
X85270Y-81369D01*
X88960Y-76650D02*
G75*
G03X88960Y-76650I-50J0D01*
G74*
G01*
X88460Y-76650D02*
X88860Y-76650D01*
X88860Y-76650D02*
X88860Y-77250D01*
X88860Y-77250D02*
X88460Y-77250D01*
X88060Y-77250D02*
X87660Y-77250D01*
X87660Y-77250D02*
X87660Y-76650D01*
X87660Y-76650D02*
X88060Y-76650D01*
X88470Y-78590D02*
G75*
G03X88470Y-78590I-50J0D01*
G74*
G01*
X88870Y-78590D02*
X88470Y-78590D01*
X88470Y-78590D02*
X88470Y-77990D01*
X88470Y-77990D02*
X88870Y-77990D01*
X89270Y-77990D02*
X89670Y-77990D01*
X89670Y-77990D02*
X89670Y-78590D01*
X89670Y-78590D02*
X89270Y-78590D01*
X87620Y-75920D02*
G75*
G03X87620Y-75920I-50J0D01*
G74*
G01*
X88020Y-75920D02*
X87620Y-75920D01*
X87620Y-75920D02*
X87620Y-75320D01*
X87620Y-75320D02*
X88020Y-75320D01*
X88420Y-75320D02*
X88820Y-75320D01*
X88820Y-75320D02*
X88820Y-75920D01*
X88820Y-75920D02*
X88420Y-75920D01*
X88450Y-74983D02*
G75*
G03X88450Y-74983I-50J0D01*
G74*
G01*
X88850Y-74983D02*
X88450Y-74983D01*
X88450Y-74983D02*
X88450Y-74383D01*
X88450Y-74383D02*
X88850Y-74383D01*
X89250Y-74383D02*
X89650Y-74383D01*
X89650Y-74383D02*
X89650Y-74983D01*
X89650Y-74983D02*
X89250Y-74983D01*
X76014Y-75369D02*
G75*
G03X76014Y-75369I-50J0D01*
G74*
G01*
X75514Y-75369D02*
X75914Y-75369D01*
X75914Y-75369D02*
X75914Y-75969D01*
X75914Y-75969D02*
X75514Y-75969D01*
X75114Y-75969D02*
X74714Y-75969D01*
X74714Y-75969D02*
X74714Y-75369D01*
X74714Y-75369D02*
X75114Y-75369D01*
X74558Y-75369D02*
G75*
G03X74558Y-75369I-50J0D01*
G74*
G01*
X74058Y-75369D02*
X74458Y-75369D01*
X74458Y-75369D02*
X74458Y-75969D01*
X74458Y-75969D02*
X74058Y-75969D01*
X73658Y-75969D02*
X73258Y-75969D01*
X73258Y-75969D02*
X73258Y-75369D01*
X73258Y-75369D02*
X73658Y-75369D01*
X72269Y-76554D02*
G75*
G03X72269Y-76554I-50J0D01*
G74*
G01*
X72219Y-77004D02*
X72219Y-76604D01*
X72219Y-76604D02*
X72819Y-76604D01*
X72819Y-76604D02*
X72819Y-77004D01*
X72819Y-77404D02*
X72819Y-77804D01*
X72819Y-77804D02*
X72219Y-77804D01*
X72219Y-77804D02*
X72219Y-77404D01*
X58240Y-77380D02*
G75*
G03X58240Y-77380I-50J0D01*
G74*
G01*
X58190Y-76930D02*
X58190Y-77330D01*
X58190Y-77330D02*
X57590Y-77330D01*
X57590Y-77330D02*
X57590Y-76930D01*
X57590Y-76530D02*
X57590Y-76130D01*
X57590Y-76130D02*
X58190Y-76130D01*
X58190Y-76130D02*
X58190Y-76530D01*
X60569Y-75653D02*
G75*
G03X60569Y-75653I-50J0D01*
G74*
G01*
X60519Y-76103D02*
X60519Y-75703D01*
X60519Y-75703D02*
X61119Y-75703D01*
X61119Y-75703D02*
X61119Y-76103D01*
X61119Y-76503D02*
X61119Y-76903D01*
X61119Y-76903D02*
X60519Y-76903D01*
X60519Y-76903D02*
X60519Y-76503D01*
X57170Y-77180D02*
G75*
G03X57170Y-77180I-50J0D01*
G74*
G01*
X56670Y-77180D02*
X57070Y-77180D01*
X57070Y-77180D02*
X57070Y-77780D01*
X57070Y-77780D02*
X56670Y-77780D01*
X56270Y-77780D02*
X55870Y-77780D01*
X55870Y-77780D02*
X55870Y-77180D01*
X55870Y-77180D02*
X56270Y-77180D01*
X90570Y-75320D02*
G75*
G03X90570Y-75320I-50J0D01*
G74*
G01*
X90070Y-75320D02*
X90470Y-75320D01*
X90470Y-75320D02*
X90470Y-75920D01*
X90470Y-75920D02*
X90070Y-75920D01*
X89670Y-75920D02*
X89270Y-75920D01*
X89270Y-75920D02*
X89270Y-75320D01*
X89270Y-75320D02*
X89670Y-75320D01*
X90570Y-76610D02*
G75*
G03X90570Y-76610I-50J0D01*
G74*
G01*
X90070Y-76610D02*
X90470Y-76610D01*
X90470Y-76610D02*
X90470Y-77210D01*
X90470Y-77210D02*
X90070Y-77210D01*
X89670Y-77210D02*
X89270Y-77210D01*
X89270Y-77210D02*
X89270Y-76610D01*
X89270Y-76610D02*
X89670Y-76610D01*
X81727Y-73720D02*
G75*
G03X81727Y-73720I-50J0D01*
G74*
G01*
X81677Y-73270D02*
X81677Y-73670D01*
X81677Y-73670D02*
X81077Y-73670D01*
X81077Y-73670D02*
X81077Y-73270D01*
X81077Y-72870D02*
X81077Y-72470D01*
X81077Y-72470D02*
X81677Y-72470D01*
X81677Y-72470D02*
X81677Y-72870D01*
X75576Y-76397D02*
G75*
G03X75576Y-76397I-50J0D01*
G74*
G01*
X75526Y-76847D02*
X75526Y-76447D01*
X75526Y-76447D02*
X76126Y-76447D01*
X76126Y-76447D02*
X76126Y-76847D01*
X76126Y-77247D02*
X76126Y-77647D01*
X76126Y-77647D02*
X75526Y-77647D01*
X75526Y-77647D02*
X75526Y-77247D01*
G54D21*
X77114Y-76275D02*
X80914Y-76275D01*
X80914Y-76275D02*
X80914Y-77775D01*
X80914Y-77775D02*
X77114Y-77775D01*
X77114Y-77775D02*
X77114Y-76275D01*
X77114Y-76775D02*
X77414Y-76775D01*
X77414Y-76775D02*
X77414Y-77175D01*
X77414Y-77175D02*
X77114Y-77175D01*
G54D18*
X55939Y-76148D02*
G75*
G03X55939Y-76148I-62J0D01*
G74*
G01*
X56840Y-75810D02*
X56840Y-76210D01*
X55815Y-75810D02*
X55815Y-76210D01*
X56840Y-76210D02*
X55815Y-76210D01*
X55815Y-75810D02*
X56840Y-75810D01*
G54D21*
X101580Y-80270D02*
X101580Y-77270D01*
X103580Y-77270D02*
X103580Y-80270D01*
X103580Y-80270D02*
X101580Y-80270D01*
X101580Y-77270D02*
X103580Y-77270D01*
G54D20*
X73135Y-76082D02*
G75*
G03X73135Y-76082I-50J0D01*
G74*
G01*
X73085Y-76532D02*
X73085Y-76132D01*
X73085Y-76132D02*
X73685Y-76132D01*
X73685Y-76132D02*
X73685Y-76532D01*
X73685Y-76932D02*
X73685Y-77332D01*
X73685Y-77332D02*
X73085Y-77332D01*
X73085Y-77332D02*
X73085Y-76932D01*
G54D10*
X54665Y-88346D02*
X57027Y-88346D01*
X54665Y-88346D02*
X54665Y-83622D01*
X54665Y-83622D02*
X57027Y-83622D01*
X72196Y-86484D02*
X72196Y-85484D01*
X80964Y-88346D02*
X83326Y-88346D01*
X80964Y-88346D02*
X80964Y-83622D01*
X80964Y-83622D02*
X83326Y-83622D01*
X98495Y-86484D02*
X98495Y-85484D01*
X76535Y-83622D02*
X74173Y-83622D01*
X76535Y-83622D02*
X76535Y-88346D01*
X76535Y-88346D02*
X74173Y-88346D01*
X59004Y-85484D02*
X59004Y-86484D01*
G54D16*
X96500Y-89850D02*
X96500Y-88850D01*
X96500Y-88850D02*
X98500Y-88850D01*
X98500Y-88850D02*
X98500Y-89850D01*
X98500Y-89850D02*
X96500Y-89850D01*
X99100Y-89850D02*
X99100Y-88850D01*
X99100Y-88850D02*
X101100Y-88850D01*
X101100Y-88850D02*
X101100Y-89850D01*
X101100Y-89850D02*
X99100Y-89850D01*
G54D12*
X66000Y-83632D02*
X66000Y-83792D01*
X66009Y-83810D01*
X66018Y-83820D01*
X66037Y-83829D01*
X66075Y-83829D01*
X66093Y-83820D01*
X66103Y-83810D01*
X66112Y-83792D01*
X66112Y-83632D01*
X66196Y-83651D02*
X66206Y-83642D01*
X66224Y-83632D01*
X66271Y-83632D01*
X66290Y-83642D01*
X66299Y-83651D01*
X66309Y-83670D01*
X66309Y-83689D01*
X66299Y-83717D01*
X66187Y-83829D01*
X66309Y-83829D01*
X66020Y-84179D02*
X66020Y-83982D01*
X66086Y-84123D01*
X66151Y-83982D01*
X66151Y-84179D01*
X66357Y-84160D02*
X66348Y-84170D01*
X66320Y-84179D01*
X66301Y-84179D01*
X66273Y-84170D01*
X66254Y-84151D01*
X66245Y-84132D01*
X66236Y-84095D01*
X66236Y-84067D01*
X66245Y-84029D01*
X66254Y-84010D01*
X66273Y-83992D01*
X66301Y-83982D01*
X66320Y-83982D01*
X66348Y-83992D01*
X66357Y-84001D01*
X66442Y-84179D02*
X66442Y-83982D01*
X66517Y-83982D01*
X66536Y-83992D01*
X66545Y-84001D01*
X66554Y-84020D01*
X66554Y-84048D01*
X66545Y-84067D01*
X66536Y-84076D01*
X66517Y-84085D01*
X66442Y-84085D01*
X66742Y-84179D02*
X66629Y-84179D01*
X66686Y-84179D02*
X66686Y-83982D01*
X66667Y-84010D01*
X66648Y-84029D01*
X66629Y-84039D01*
X66807Y-83982D02*
X66939Y-83982D01*
X66854Y-84179D01*
X67051Y-83982D02*
X67070Y-83982D01*
X67089Y-83992D01*
X67098Y-84001D01*
X67107Y-84020D01*
X67117Y-84057D01*
X67117Y-84104D01*
X67107Y-84142D01*
X67098Y-84160D01*
X67089Y-84170D01*
X67070Y-84179D01*
X67051Y-84179D01*
X67032Y-84170D01*
X67023Y-84160D01*
X67014Y-84142D01*
X67004Y-84104D01*
X67004Y-84057D01*
X67014Y-84020D01*
X67023Y-84001D01*
X67032Y-83992D01*
X67051Y-83982D01*
X67192Y-84001D02*
X67201Y-83992D01*
X67220Y-83982D01*
X67267Y-83982D01*
X67285Y-83992D01*
X67295Y-84001D01*
X67304Y-84020D01*
X67304Y-84039D01*
X67295Y-84067D01*
X67182Y-84179D01*
X67304Y-84179D01*
X67360Y-83982D02*
X67473Y-83982D01*
X67417Y-84179D02*
X67417Y-83982D01*
X67539Y-84104D02*
X67689Y-84104D01*
X67885Y-84179D02*
X67773Y-84179D01*
X67829Y-84179D02*
X67829Y-83982D01*
X67810Y-84010D01*
X67792Y-84029D01*
X67773Y-84039D01*
X68064Y-83982D02*
X67970Y-83982D01*
X67960Y-84076D01*
X67970Y-84067D01*
X67989Y-84057D01*
X68035Y-84057D01*
X68054Y-84067D01*
X68064Y-84076D01*
X68073Y-84095D01*
X68073Y-84142D01*
X68064Y-84160D01*
X68054Y-84170D01*
X68035Y-84179D01*
X67989Y-84179D01*
X67970Y-84170D01*
X67960Y-84160D01*
X68195Y-83982D02*
X68213Y-83982D01*
X68232Y-83992D01*
X68242Y-84001D01*
X68251Y-84020D01*
X68260Y-84057D01*
X68260Y-84104D01*
X68251Y-84142D01*
X68242Y-84160D01*
X68232Y-84170D01*
X68213Y-84179D01*
X68195Y-84179D01*
X68176Y-84170D01*
X68167Y-84160D01*
X68157Y-84142D01*
X68148Y-84104D01*
X68148Y-84057D01*
X68157Y-84020D01*
X68167Y-84001D01*
X68176Y-83992D01*
X68195Y-83982D01*
X68335Y-84001D02*
X68345Y-83992D01*
X68363Y-83982D01*
X68410Y-83982D01*
X68429Y-83992D01*
X68438Y-84001D01*
X68448Y-84020D01*
X68448Y-84039D01*
X68438Y-84067D01*
X68326Y-84179D01*
X68448Y-84179D01*
X68532Y-84076D02*
X68598Y-84076D01*
X68626Y-84179D02*
X68532Y-84179D01*
X68532Y-83982D01*
X68626Y-83982D01*
X68851Y-83973D02*
X68682Y-84226D01*
X68888Y-83982D02*
X69001Y-83982D01*
X68945Y-84179D02*
X68945Y-83982D01*
X69104Y-83982D02*
X69141Y-83982D01*
X69160Y-83992D01*
X69179Y-84010D01*
X69188Y-84048D01*
X69188Y-84114D01*
X69179Y-84151D01*
X69160Y-84170D01*
X69141Y-84179D01*
X69104Y-84179D01*
X69085Y-84170D01*
X69067Y-84151D01*
X69057Y-84114D01*
X69057Y-84048D01*
X69067Y-84010D01*
X69085Y-83992D01*
X69104Y-83982D01*
G54D10*
X103203Y-88309D02*
X103221Y-88253D01*
X103240Y-88234D01*
X103278Y-88215D01*
X103334Y-88215D01*
X103371Y-88234D01*
X103390Y-88253D01*
X103409Y-88290D01*
X103409Y-88440D01*
X103015Y-88440D01*
X103015Y-88309D01*
X103034Y-88271D01*
X103053Y-88253D01*
X103090Y-88234D01*
X103128Y-88234D01*
X103165Y-88253D01*
X103184Y-88271D01*
X103203Y-88309D01*
X103203Y-88440D01*
X103015Y-88103D02*
X103015Y-87878D01*
X103409Y-87990D02*
X103015Y-87990D01*
X103146Y-87578D02*
X103409Y-87578D01*
X102996Y-87671D02*
X103278Y-87765D01*
X103278Y-87521D01*
X103203Y-87081D02*
X103221Y-87024D01*
X103240Y-87006D01*
X103278Y-86987D01*
X103334Y-86987D01*
X103371Y-87006D01*
X103390Y-87024D01*
X103409Y-87062D01*
X103409Y-87212D01*
X103015Y-87212D01*
X103015Y-87081D01*
X103034Y-87043D01*
X103053Y-87024D01*
X103090Y-87006D01*
X103128Y-87006D01*
X103165Y-87024D01*
X103184Y-87043D01*
X103203Y-87081D01*
X103203Y-87212D01*
X103296Y-86837D02*
X103296Y-86649D01*
X103409Y-86874D02*
X103015Y-86743D01*
X103409Y-86612D01*
X103015Y-86537D02*
X103015Y-86312D01*
X103409Y-86424D02*
X103015Y-86424D01*
X103015Y-86237D02*
X103015Y-86012D01*
X103409Y-86124D02*
X103015Y-86124D01*
X103203Y-85881D02*
X103203Y-85749D01*
X103409Y-85693D02*
X103409Y-85881D01*
X103015Y-85881D01*
X103015Y-85693D01*
X103409Y-85299D02*
X103221Y-85431D01*
X103409Y-85524D02*
X103015Y-85524D01*
X103015Y-85374D01*
X103034Y-85337D01*
X103053Y-85318D01*
X103090Y-85299D01*
X103146Y-85299D01*
X103184Y-85318D01*
X103203Y-85337D01*
X103221Y-85374D01*
X103221Y-85524D01*
X103221Y-85056D02*
X103409Y-85056D01*
X103015Y-85187D02*
X103221Y-85056D01*
X103015Y-84925D01*
X103446Y-84887D02*
X103446Y-84587D01*
X103371Y-84268D02*
X103390Y-84287D01*
X103409Y-84343D01*
X103409Y-84381D01*
X103390Y-84437D01*
X103353Y-84475D01*
X103315Y-84493D01*
X103240Y-84512D01*
X103184Y-84512D01*
X103109Y-84493D01*
X103071Y-84475D01*
X103034Y-84437D01*
X103015Y-84381D01*
X103015Y-84343D01*
X103034Y-84287D01*
X103053Y-84268D01*
X103409Y-83912D02*
X103409Y-84100D01*
X103015Y-84100D01*
X103409Y-83781D02*
X103015Y-83781D01*
X103409Y-83593D02*
X103015Y-83593D01*
X103015Y-83443D01*
X103034Y-83406D01*
X103053Y-83387D01*
X103090Y-83368D01*
X103146Y-83368D01*
X103184Y-83387D01*
X103203Y-83406D01*
X103221Y-83443D01*
X103221Y-83593D01*
G54D22*
X89431Y-88630D02*
X89431Y-87949D01*
X89594Y-87949D01*
X89635Y-87981D01*
X89655Y-88014D01*
X89676Y-88079D01*
X89676Y-88176D01*
X89655Y-88241D01*
X89635Y-88273D01*
X89594Y-88306D01*
X89431Y-88306D01*
X90083Y-88630D02*
X89839Y-88630D01*
X89961Y-88630D02*
X89961Y-87949D01*
X89920Y-88046D01*
X89880Y-88111D01*
X89839Y-88143D01*
G54D16*
G54D23*
X93050Y-88540D02*
X93030Y-88569D01*
X92973Y-88597D01*
X92935Y-88597D01*
X92878Y-88569D01*
X92840Y-88511D01*
X92821Y-88454D01*
X92802Y-88340D01*
X92802Y-88254D01*
X92821Y-88140D01*
X92840Y-88083D01*
X92878Y-88026D01*
X92935Y-87997D01*
X92973Y-87997D01*
X93030Y-88026D01*
X93050Y-88054D01*
X93297Y-87997D02*
X93373Y-87997D01*
X93411Y-88026D01*
X93450Y-88083D01*
X93469Y-88197D01*
X93469Y-88397D01*
X93450Y-88511D01*
X93411Y-88569D01*
X93373Y-88597D01*
X93297Y-88597D01*
X93259Y-88569D01*
X93221Y-88511D01*
X93202Y-88397D01*
X93202Y-88197D01*
X93221Y-88083D01*
X93259Y-88026D01*
X93297Y-87997D01*
X93640Y-88597D02*
X93640Y-87997D01*
X93869Y-88597D01*
X93869Y-87997D01*
X94059Y-88597D02*
X94059Y-87997D01*
X94288Y-88597D01*
X94288Y-87997D01*
X94383Y-88654D02*
X94688Y-88654D01*
X94954Y-87997D02*
X94878Y-87997D01*
X94840Y-88026D01*
X94821Y-88054D01*
X94783Y-88140D01*
X94764Y-88254D01*
X94764Y-88483D01*
X94783Y-88540D01*
X94802Y-88569D01*
X94840Y-88597D01*
X94916Y-88597D01*
X94954Y-88569D01*
X94973Y-88540D01*
X94992Y-88483D01*
X94992Y-88340D01*
X94973Y-88283D01*
X94954Y-88254D01*
X94916Y-88226D01*
X94840Y-88226D01*
X94802Y-88254D01*
X94783Y-88283D01*
X94764Y-88340D01*
G54D16*
G54D10*
X60242Y-81679D02*
X60242Y-81285D01*
X60336Y-81285D01*
X60392Y-81304D01*
X60430Y-81341D01*
X60449Y-81379D01*
X60467Y-81454D01*
X60467Y-81510D01*
X60449Y-81585D01*
X60430Y-81622D01*
X60392Y-81660D01*
X60336Y-81679D01*
X60242Y-81679D01*
X60617Y-81660D02*
X60673Y-81679D01*
X60767Y-81679D01*
X60805Y-81660D01*
X60823Y-81641D01*
X60842Y-81604D01*
X60842Y-81566D01*
X60823Y-81529D01*
X60805Y-81510D01*
X60767Y-81491D01*
X60692Y-81472D01*
X60655Y-81454D01*
X60636Y-81435D01*
X60617Y-81397D01*
X60617Y-81360D01*
X60636Y-81322D01*
X60655Y-81304D01*
X60692Y-81285D01*
X60786Y-81285D01*
X60842Y-81304D01*
X60992Y-81322D02*
X61011Y-81304D01*
X61048Y-81285D01*
X61142Y-81285D01*
X61180Y-81304D01*
X61198Y-81322D01*
X61217Y-81360D01*
X61217Y-81397D01*
X61198Y-81454D01*
X60973Y-81679D01*
X61217Y-81679D01*
X63174Y-81546D02*
X63362Y-81546D01*
X63137Y-81659D02*
X63268Y-81265D01*
X63399Y-81659D01*
X63531Y-81659D02*
X63531Y-81265D01*
X63662Y-81546D01*
X63793Y-81265D01*
X63793Y-81659D01*
X63981Y-81659D02*
X63981Y-81265D01*
X64112Y-81546D01*
X64243Y-81265D01*
X64243Y-81659D01*
X64431Y-81453D02*
X64562Y-81453D01*
X64618Y-81659D02*
X64431Y-81659D01*
X64431Y-81265D01*
X64618Y-81265D01*
X64730Y-81265D02*
X64955Y-81265D01*
X64843Y-81659D02*
X64843Y-81265D01*
X65087Y-81453D02*
X65218Y-81453D01*
X65274Y-81659D02*
X65087Y-81659D01*
X65087Y-81265D01*
X65274Y-81265D01*
X65668Y-81659D02*
X65537Y-81471D01*
X65443Y-81659D02*
X65443Y-81265D01*
X65593Y-81265D01*
X65630Y-81284D01*
X65649Y-81303D01*
X65668Y-81340D01*
X65668Y-81396D01*
X65649Y-81434D01*
X65630Y-81453D01*
X65593Y-81471D01*
X65443Y-81471D01*
X92242Y-81679D02*
X92242Y-81285D01*
X92336Y-81285D01*
X92392Y-81304D01*
X92430Y-81341D01*
X92449Y-81379D01*
X92467Y-81454D01*
X92467Y-81510D01*
X92449Y-81585D01*
X92430Y-81622D01*
X92392Y-81660D01*
X92336Y-81679D01*
X92242Y-81679D01*
X92617Y-81660D02*
X92673Y-81679D01*
X92767Y-81679D01*
X92805Y-81660D01*
X92823Y-81641D01*
X92842Y-81604D01*
X92842Y-81566D01*
X92823Y-81529D01*
X92805Y-81510D01*
X92767Y-81491D01*
X92692Y-81472D01*
X92655Y-81454D01*
X92636Y-81435D01*
X92617Y-81397D01*
X92617Y-81360D01*
X92636Y-81322D01*
X92655Y-81304D01*
X92692Y-81285D01*
X92786Y-81285D01*
X92842Y-81304D01*
X93217Y-81679D02*
X92992Y-81679D01*
X93105Y-81679D02*
X93105Y-81285D01*
X93067Y-81341D01*
X93030Y-81379D01*
X92992Y-81397D01*
X95174Y-81546D02*
X95362Y-81546D01*
X95137Y-81659D02*
X95268Y-81265D01*
X95399Y-81659D01*
X95531Y-81659D02*
X95531Y-81265D01*
X95662Y-81546D01*
X95793Y-81265D01*
X95793Y-81659D01*
X95981Y-81659D02*
X95981Y-81265D01*
X96112Y-81546D01*
X96243Y-81265D01*
X96243Y-81659D01*
X96431Y-81453D02*
X96562Y-81453D01*
X96618Y-81659D02*
X96431Y-81659D01*
X96431Y-81265D01*
X96618Y-81265D01*
X96730Y-81265D02*
X96955Y-81265D01*
X96843Y-81659D02*
X96843Y-81265D01*
X97087Y-81453D02*
X97218Y-81453D01*
X97274Y-81659D02*
X97087Y-81659D01*
X97087Y-81265D01*
X97274Y-81265D01*
X97668Y-81659D02*
X97537Y-81471D01*
X97443Y-81659D02*
X97443Y-81265D01*
X97593Y-81265D01*
X97630Y-81284D01*
X97649Y-81303D01*
X97668Y-81340D01*
X97668Y-81396D01*
X97649Y-81434D01*
X97630Y-81453D01*
X97593Y-81471D01*
X97443Y-81471D01*
X76981Y-78815D02*
X77243Y-79209D01*
X77243Y-78815D02*
X76981Y-79209D01*
X77599Y-79209D02*
X77374Y-79209D01*
X77487Y-79209D02*
X77487Y-78815D01*
X77449Y-78871D01*
X77412Y-78909D01*
X77374Y-78928D01*
X72084Y-79671D02*
X72065Y-79690D01*
X72009Y-79709D01*
X71972Y-79709D01*
X71915Y-79690D01*
X71878Y-79653D01*
X71859Y-79615D01*
X71840Y-79540D01*
X71840Y-79484D01*
X71859Y-79409D01*
X71878Y-79371D01*
X71915Y-79334D01*
X71972Y-79315D01*
X72009Y-79315D01*
X72065Y-79334D01*
X72084Y-79353D01*
X72478Y-79709D02*
X72347Y-79521D01*
X72253Y-79709D02*
X72253Y-79315D01*
X72403Y-79315D01*
X72440Y-79334D01*
X72459Y-79353D01*
X72478Y-79390D01*
X72478Y-79446D01*
X72459Y-79484D01*
X72440Y-79503D01*
X72403Y-79521D01*
X72253Y-79521D01*
X72722Y-79521D02*
X72722Y-79709D01*
X72590Y-79315D02*
X72722Y-79521D01*
X72853Y-79315D01*
X72965Y-79690D02*
X73022Y-79709D01*
X73115Y-79709D01*
X73153Y-79690D01*
X73172Y-79671D01*
X73190Y-79634D01*
X73190Y-79596D01*
X73172Y-79559D01*
X73153Y-79540D01*
X73115Y-79521D01*
X73040Y-79503D01*
X73003Y-79484D01*
X72984Y-79465D01*
X72965Y-79428D01*
X72965Y-79390D01*
X72984Y-79353D01*
X73003Y-79334D01*
X73040Y-79315D01*
X73134Y-79315D01*
X73190Y-79334D01*
X73303Y-79315D02*
X73528Y-79315D01*
X73415Y-79709D02*
X73415Y-79315D01*
X73640Y-79596D02*
X73828Y-79596D01*
X73603Y-79709D02*
X73734Y-79315D01*
X73865Y-79709D01*
X74184Y-79709D02*
X73996Y-79709D01*
X73996Y-79315D01*
X74578Y-79315D02*
X74821Y-79315D01*
X74690Y-79465D01*
X74746Y-79465D01*
X74784Y-79484D01*
X74803Y-79503D01*
X74821Y-79540D01*
X74821Y-79634D01*
X74803Y-79671D01*
X74784Y-79690D01*
X74746Y-79709D01*
X74634Y-79709D01*
X74596Y-79690D01*
X74578Y-79671D01*
X74971Y-79353D02*
X74990Y-79334D01*
X75028Y-79315D01*
X75121Y-79315D01*
X75159Y-79334D01*
X75178Y-79353D01*
X75196Y-79390D01*
X75196Y-79428D01*
X75178Y-79484D01*
X74953Y-79709D01*
X75196Y-79709D01*
X75365Y-79671D02*
X75384Y-79690D01*
X75365Y-79709D01*
X75346Y-79690D01*
X75365Y-79671D01*
X75365Y-79709D01*
X75515Y-79315D02*
X75777Y-79315D01*
X75609Y-79709D01*
X76096Y-79315D02*
X76021Y-79315D01*
X75984Y-79334D01*
X75965Y-79353D01*
X75927Y-79409D01*
X75909Y-79484D01*
X75909Y-79634D01*
X75927Y-79671D01*
X75946Y-79690D01*
X75984Y-79709D01*
X76059Y-79709D01*
X76096Y-79690D01*
X76115Y-79671D01*
X76134Y-79634D01*
X76134Y-79540D01*
X76115Y-79503D01*
X76096Y-79484D01*
X76059Y-79465D01*
X75984Y-79465D01*
X75946Y-79484D01*
X75927Y-79503D01*
X75909Y-79540D01*
X76359Y-79484D02*
X76321Y-79465D01*
X76302Y-79446D01*
X76284Y-79409D01*
X76284Y-79390D01*
X76302Y-79353D01*
X76321Y-79334D01*
X76359Y-79315D01*
X76434Y-79315D01*
X76471Y-79334D01*
X76490Y-79353D01*
X76509Y-79390D01*
X76509Y-79409D01*
X76490Y-79446D01*
X76471Y-79465D01*
X76434Y-79484D01*
X76359Y-79484D01*
X76321Y-79503D01*
X76302Y-79521D01*
X76284Y-79559D01*
X76284Y-79634D01*
X76302Y-79671D01*
X76321Y-79690D01*
X76359Y-79709D01*
X76434Y-79709D01*
X76471Y-79690D01*
X76490Y-79671D01*
X76509Y-79634D01*
X76509Y-79559D01*
X76490Y-79521D01*
X76471Y-79503D01*
X76434Y-79484D01*
X76677Y-79709D02*
X76677Y-79315D01*
X76715Y-79559D02*
X76827Y-79709D01*
X76827Y-79446D02*
X76677Y-79596D01*
X76996Y-79709D02*
X76996Y-79315D01*
X76996Y-79503D02*
X77221Y-79503D01*
X77221Y-79709D02*
X77221Y-79315D01*
X77371Y-79446D02*
X77577Y-79446D01*
X77371Y-79709D01*
X77577Y-79709D01*
G54D21*
X61523Y-83816D02*
X61542Y-83835D01*
X61561Y-83892D01*
X61561Y-83930D01*
X61542Y-83988D01*
X61504Y-84026D01*
X61466Y-84045D01*
X61390Y-84064D01*
X61333Y-84064D01*
X61257Y-84045D01*
X61219Y-84026D01*
X61180Y-83988D01*
X61161Y-83930D01*
X61161Y-83892D01*
X61180Y-83835D01*
X61200Y-83816D01*
X61161Y-83683D02*
X61161Y-83416D01*
X61561Y-83588D01*
X62011Y-82961D02*
X61783Y-82961D01*
X61897Y-82961D02*
X61897Y-82561D01*
X61859Y-82619D01*
X61821Y-82657D01*
X61783Y-82676D01*
X62354Y-82695D02*
X62354Y-82961D01*
X62183Y-82695D02*
X62183Y-82904D01*
X62202Y-82942D01*
X62240Y-82961D01*
X62297Y-82961D01*
X62335Y-82942D01*
X62354Y-82923D01*
X62678Y-82752D02*
X62545Y-82752D01*
X62545Y-82961D02*
X62545Y-82561D01*
X62735Y-82561D01*
X63073Y-88035D02*
X63092Y-88054D01*
X63111Y-88111D01*
X63111Y-88150D01*
X63092Y-88207D01*
X63054Y-88245D01*
X63016Y-88264D01*
X62940Y-88283D01*
X62883Y-88283D01*
X62807Y-88264D01*
X62769Y-88245D01*
X62730Y-88207D01*
X62711Y-88150D01*
X62711Y-88111D01*
X62730Y-88054D01*
X62750Y-88035D01*
X62711Y-87788D02*
X62711Y-87711D01*
X62730Y-87673D01*
X62769Y-87635D01*
X62845Y-87616D01*
X62978Y-87616D01*
X63054Y-87635D01*
X63092Y-87673D01*
X63111Y-87711D01*
X63111Y-87788D01*
X63092Y-87826D01*
X63054Y-87864D01*
X62978Y-87883D01*
X62845Y-87883D01*
X62769Y-87864D01*
X62730Y-87826D01*
X62711Y-87788D01*
X63111Y-87445D02*
X62711Y-87445D01*
X63111Y-87216D01*
X62711Y-87216D01*
X62750Y-87045D02*
X62730Y-87026D01*
X62711Y-86988D01*
X62711Y-86892D01*
X62730Y-86854D01*
X62750Y-86835D01*
X62788Y-86816D01*
X62826Y-86816D01*
X62883Y-86835D01*
X63111Y-87064D01*
X63111Y-86816D01*
X68116Y-87661D02*
X68116Y-87985D01*
X68135Y-88023D01*
X68154Y-88042D01*
X68192Y-88061D01*
X68269Y-88061D01*
X68307Y-88042D01*
X68326Y-88023D01*
X68345Y-87985D01*
X68345Y-87661D01*
X68516Y-88042D02*
X68573Y-88061D01*
X68669Y-88061D01*
X68707Y-88042D01*
X68726Y-88023D01*
X68745Y-87985D01*
X68745Y-87947D01*
X68726Y-87909D01*
X68707Y-87890D01*
X68669Y-87871D01*
X68592Y-87852D01*
X68554Y-87833D01*
X68535Y-87814D01*
X68516Y-87776D01*
X68516Y-87738D01*
X68535Y-87700D01*
X68554Y-87680D01*
X68592Y-87661D01*
X68688Y-87661D01*
X68745Y-87680D01*
X69049Y-87852D02*
X69107Y-87871D01*
X69126Y-87890D01*
X69145Y-87928D01*
X69145Y-87985D01*
X69126Y-88023D01*
X69107Y-88042D01*
X69069Y-88061D01*
X68916Y-88061D01*
X68916Y-87661D01*
X69049Y-87661D01*
X69088Y-87680D01*
X69107Y-87700D01*
X69126Y-87738D01*
X69126Y-87776D01*
X69107Y-87814D01*
X69088Y-87833D01*
X69049Y-87852D01*
X68916Y-87852D01*
X69316Y-87909D02*
X69621Y-87909D01*
X69811Y-88061D02*
X69811Y-87661D01*
X69945Y-87947D01*
X70078Y-87661D01*
X70078Y-88061D01*
X70269Y-88061D02*
X70269Y-87661D01*
X70688Y-88023D02*
X70669Y-88042D01*
X70611Y-88061D01*
X70573Y-88061D01*
X70516Y-88042D01*
X70478Y-88004D01*
X70459Y-87966D01*
X70440Y-87890D01*
X70440Y-87833D01*
X70459Y-87757D01*
X70478Y-87719D01*
X70516Y-87680D01*
X70573Y-87661D01*
X70611Y-87661D01*
X70669Y-87680D01*
X70688Y-87700D01*
X71088Y-88061D02*
X70954Y-87871D01*
X70859Y-88061D02*
X70859Y-87661D01*
X71011Y-87661D01*
X71050Y-87680D01*
X71069Y-87700D01*
X71088Y-87738D01*
X71088Y-87795D01*
X71069Y-87833D01*
X71050Y-87852D01*
X71011Y-87871D01*
X70859Y-87871D01*
X71335Y-87661D02*
X71411Y-87661D01*
X71450Y-87680D01*
X71488Y-87719D01*
X71507Y-87795D01*
X71507Y-87928D01*
X71488Y-88004D01*
X71450Y-88042D01*
X71411Y-88061D01*
X71335Y-88061D01*
X71297Y-88042D01*
X71259Y-88004D01*
X71240Y-87928D01*
X71240Y-87795D01*
X71259Y-87719D01*
X71297Y-87680D01*
X71335Y-87661D01*
X71678Y-87909D02*
X71983Y-87909D01*
X72307Y-87852D02*
X72364Y-87871D01*
X72383Y-87890D01*
X72402Y-87928D01*
X72402Y-87985D01*
X72383Y-88023D01*
X72364Y-88042D01*
X72326Y-88061D01*
X72173Y-88061D01*
X72173Y-87661D01*
X72307Y-87661D01*
X72345Y-87680D01*
X72364Y-87700D01*
X72383Y-87738D01*
X72383Y-87776D01*
X72364Y-87814D01*
X72345Y-87833D01*
X72307Y-87852D01*
X72173Y-87852D01*
G54D22*
X77758Y-74159D02*
X77758Y-73478D01*
X77860Y-73478D01*
X77921Y-73510D01*
X77962Y-73575D01*
X77983Y-73640D01*
X78003Y-73769D01*
X78003Y-73867D01*
X77983Y-73996D01*
X77962Y-74061D01*
X77921Y-74126D01*
X77860Y-74159D01*
X77758Y-74159D01*
X78411Y-74159D02*
X78166Y-74159D01*
X78288Y-74159D02*
X78288Y-73478D01*
X78248Y-73575D01*
X78207Y-73640D01*
X78166Y-73672D01*
G54D16*
G54D23*
X79084Y-74126D02*
X79084Y-73526D01*
X79179Y-73526D01*
X79236Y-73554D01*
X79274Y-73612D01*
X79293Y-73669D01*
X79312Y-73783D01*
X79312Y-73869D01*
X79293Y-73983D01*
X79274Y-74040D01*
X79236Y-74097D01*
X79179Y-74126D01*
X79084Y-74126D01*
X79484Y-74126D02*
X79484Y-73526D01*
X79750Y-73526D02*
X79827Y-73526D01*
X79865Y-73554D01*
X79903Y-73612D01*
X79922Y-73726D01*
X79922Y-73926D01*
X79903Y-74040D01*
X79865Y-74097D01*
X79827Y-74126D01*
X79750Y-74126D01*
X79712Y-74097D01*
X79674Y-74040D01*
X79655Y-73926D01*
X79655Y-73726D01*
X79674Y-73612D01*
X79712Y-73554D01*
X79750Y-73526D01*
X80093Y-74126D02*
X80093Y-73526D01*
X80189Y-73526D01*
X80246Y-73554D01*
X80284Y-73612D01*
X80303Y-73669D01*
X80322Y-73783D01*
X80322Y-73869D01*
X80303Y-73983D01*
X80284Y-74040D01*
X80246Y-74097D01*
X80189Y-74126D01*
X80093Y-74126D01*
X80493Y-73812D02*
X80627Y-73812D01*
X80684Y-74126D02*
X80493Y-74126D01*
X80493Y-73526D01*
X80684Y-73526D01*
G54D16*
G54D22*
X76609Y-71643D02*
X76671Y-71675D01*
X76772Y-71675D01*
X76813Y-71643D01*
X76834Y-71610D01*
X76854Y-71545D01*
X76854Y-71481D01*
X76834Y-71416D01*
X76813Y-71383D01*
X76772Y-71351D01*
X76691Y-71318D01*
X76650Y-71286D01*
X76630Y-71254D01*
X76609Y-71189D01*
X76609Y-71124D01*
X76630Y-71059D01*
X76650Y-71027D01*
X76691Y-70994D01*
X76793Y-70994D01*
X76854Y-71027D01*
X77037Y-71675D02*
X77037Y-70994D01*
X77200Y-70994D01*
X77241Y-71027D01*
X77262Y-71059D01*
X77282Y-71124D01*
X77282Y-71221D01*
X77262Y-71286D01*
X77241Y-71318D01*
X77200Y-71351D01*
X77037Y-71351D01*
X77690Y-71675D02*
X77445Y-71675D01*
X77567Y-71675D02*
X77567Y-70994D01*
X77527Y-71091D01*
X77486Y-71156D01*
X77445Y-71189D01*
G54D16*
G54D23*
X80452Y-71614D02*
X80509Y-71642D01*
X80604Y-71642D01*
X80642Y-71614D01*
X80661Y-71585D01*
X80680Y-71528D01*
X80680Y-71471D01*
X80661Y-71414D01*
X80642Y-71385D01*
X80604Y-71357D01*
X80528Y-71328D01*
X80490Y-71300D01*
X80471Y-71271D01*
X80452Y-71214D01*
X80452Y-71157D01*
X80471Y-71100D01*
X80490Y-71071D01*
X80528Y-71042D01*
X80623Y-71042D01*
X80680Y-71071D01*
X80852Y-71642D02*
X80852Y-71042D01*
X81004Y-71042D01*
X81042Y-71071D01*
X81061Y-71100D01*
X81080Y-71157D01*
X81080Y-71242D01*
X81061Y-71300D01*
X81042Y-71328D01*
X81004Y-71357D01*
X80852Y-71357D01*
X81252Y-71328D02*
X81385Y-71328D01*
X81442Y-71642D02*
X81252Y-71642D01*
X81252Y-71042D01*
X81442Y-71042D01*
X81595Y-71471D02*
X81785Y-71471D01*
X81557Y-71642D02*
X81690Y-71042D01*
X81823Y-71642D01*
X81957Y-71642D02*
X81957Y-71042D01*
X82185Y-71642D02*
X82014Y-71300D01*
X82185Y-71042D02*
X81957Y-71385D01*
X82357Y-71328D02*
X82490Y-71328D01*
X82547Y-71642D02*
X82357Y-71642D01*
X82357Y-71042D01*
X82547Y-71042D01*
X82947Y-71642D02*
X82814Y-71357D01*
X82719Y-71642D02*
X82719Y-71042D01*
X82871Y-71042D01*
X82909Y-71071D01*
X82928Y-71100D01*
X82947Y-71157D01*
X82947Y-71242D01*
X82928Y-71300D01*
X82909Y-71328D01*
X82871Y-71357D01*
X82719Y-71357D01*
G54D16*
G54D22*
X90584Y-71775D02*
X90584Y-71094D01*
X90686Y-71094D01*
X90747Y-71127D01*
X90787Y-71191D01*
X90808Y-71256D01*
X90828Y-71386D01*
X90828Y-71483D01*
X90808Y-71613D01*
X90787Y-71678D01*
X90747Y-71743D01*
X90686Y-71775D01*
X90584Y-71775D01*
X90971Y-71094D02*
X91236Y-71094D01*
X91093Y-71354D01*
X91154Y-71354D01*
X91195Y-71386D01*
X91215Y-71418D01*
X91236Y-71483D01*
X91236Y-71645D01*
X91215Y-71710D01*
X91195Y-71743D01*
X91154Y-71775D01*
X91032Y-71775D01*
X90991Y-71743D01*
X90971Y-71710D01*
G54D16*
G54D23*
X87192Y-71742D02*
X87002Y-71742D01*
X87002Y-71142D01*
X87326Y-71428D02*
X87459Y-71428D01*
X87516Y-71742D02*
X87326Y-71742D01*
X87326Y-71142D01*
X87516Y-71142D01*
X87688Y-71742D02*
X87688Y-71142D01*
X87783Y-71142D01*
X87840Y-71171D01*
X87878Y-71228D01*
X87897Y-71285D01*
X87916Y-71400D01*
X87916Y-71485D01*
X87897Y-71600D01*
X87878Y-71657D01*
X87840Y-71714D01*
X87783Y-71742D01*
X87688Y-71742D01*
G54D16*
G54D22*
X70734Y-71875D02*
X70734Y-71194D01*
X70836Y-71194D01*
X70897Y-71227D01*
X70937Y-71291D01*
X70958Y-71356D01*
X70978Y-71486D01*
X70978Y-71583D01*
X70958Y-71713D01*
X70937Y-71778D01*
X70897Y-71843D01*
X70836Y-71875D01*
X70734Y-71875D01*
X71141Y-71259D02*
X71162Y-71227D01*
X71202Y-71194D01*
X71304Y-71194D01*
X71345Y-71227D01*
X71365Y-71259D01*
X71386Y-71324D01*
X71386Y-71389D01*
X71365Y-71486D01*
X71121Y-71875D01*
X71386Y-71875D01*
G54D16*
G54D23*
X67292Y-71842D02*
X67102Y-71842D01*
X67102Y-71242D01*
X67426Y-71528D02*
X67559Y-71528D01*
X67616Y-71842D02*
X67426Y-71842D01*
X67426Y-71242D01*
X67616Y-71242D01*
X67788Y-71842D02*
X67788Y-71242D01*
X67883Y-71242D01*
X67940Y-71271D01*
X67978Y-71328D01*
X67997Y-71385D01*
X68016Y-71500D01*
X68016Y-71585D01*
X67997Y-71700D01*
X67978Y-71757D01*
X67940Y-71814D01*
X67883Y-71842D01*
X67788Y-71842D01*
G54D16*
G54D22*
X54193Y-79720D02*
X54225Y-79659D01*
X54225Y-79557D01*
X54193Y-79516D01*
X54160Y-79496D01*
X54095Y-79476D01*
X54031Y-79476D01*
X53966Y-79496D01*
X53933Y-79516D01*
X53901Y-79557D01*
X53868Y-79639D01*
X53836Y-79679D01*
X53804Y-79700D01*
X53739Y-79720D01*
X53674Y-79720D01*
X53609Y-79700D01*
X53577Y-79679D01*
X53544Y-79639D01*
X53544Y-79537D01*
X53577Y-79476D01*
X53544Y-79333D02*
X54225Y-79231D01*
X53739Y-79150D01*
X54225Y-79068D01*
X53544Y-78966D01*
X54225Y-78579D02*
X54225Y-78823D01*
X54225Y-78701D02*
X53544Y-78701D01*
X53641Y-78742D01*
X53706Y-78783D01*
X53739Y-78823D01*
G54D16*
G54D23*
X54114Y-75957D02*
X54142Y-75899D01*
X54142Y-75804D01*
X54114Y-75766D01*
X54085Y-75747D01*
X54028Y-75728D01*
X53971Y-75728D01*
X53914Y-75747D01*
X53885Y-75766D01*
X53857Y-75804D01*
X53828Y-75880D01*
X53800Y-75919D01*
X53771Y-75938D01*
X53714Y-75957D01*
X53657Y-75957D01*
X53600Y-75938D01*
X53571Y-75919D01*
X53542Y-75880D01*
X53542Y-75785D01*
X53571Y-75728D01*
X54142Y-75557D02*
X53542Y-75557D01*
X53542Y-75404D01*
X53571Y-75366D01*
X53600Y-75347D01*
X53657Y-75328D01*
X53742Y-75328D01*
X53800Y-75347D01*
X53828Y-75366D01*
X53857Y-75404D01*
X53857Y-75557D01*
X54114Y-75176D02*
X54142Y-75119D01*
X54142Y-75023D01*
X54114Y-74985D01*
X54085Y-74966D01*
X54028Y-74947D01*
X53971Y-74947D01*
X53914Y-74966D01*
X53885Y-74985D01*
X53857Y-75023D01*
X53828Y-75099D01*
X53800Y-75138D01*
X53771Y-75157D01*
X53714Y-75176D01*
X53657Y-75176D01*
X53600Y-75157D01*
X53571Y-75138D01*
X53542Y-75099D01*
X53542Y-75004D01*
X53571Y-74947D01*
X53542Y-74833D02*
X53542Y-74604D01*
X54142Y-74719D02*
X53542Y-74719D01*
G54D16*
G54D24*
X59171Y-75900D02*
X59142Y-75885D01*
X59114Y-75857D01*
X59071Y-75814D01*
X59042Y-75800D01*
X59014Y-75800D01*
X59028Y-75871D02*
X59000Y-75857D01*
X58971Y-75828D01*
X58957Y-75771D01*
X58957Y-75671D01*
X58971Y-75614D01*
X59000Y-75585D01*
X59028Y-75571D01*
X59085Y-75571D01*
X59114Y-75585D01*
X59142Y-75614D01*
X59157Y-75671D01*
X59157Y-75771D01*
X59142Y-75828D01*
X59114Y-75857D01*
X59085Y-75871D01*
X59028Y-75871D01*
X59271Y-75600D02*
X59285Y-75585D01*
X59314Y-75571D01*
X59385Y-75571D01*
X59414Y-75585D01*
X59428Y-75600D01*
X59442Y-75628D01*
X59442Y-75657D01*
X59428Y-75700D01*
X59257Y-75871D01*
X59442Y-75871D01*
G54D20*
X59690Y-75526D02*
X59624Y-75526D01*
X59624Y-75629D02*
X59624Y-75432D01*
X59718Y-75432D01*
X59793Y-75526D02*
X59859Y-75526D01*
X59887Y-75629D02*
X59793Y-75629D01*
X59793Y-75432D01*
X59887Y-75432D01*
X59943Y-75432D02*
X60056Y-75432D01*
X60000Y-75629D02*
X60000Y-75432D01*
X60075Y-75648D02*
X60225Y-75648D01*
X60272Y-75629D02*
X60272Y-75432D01*
X60347Y-75432D01*
X60365Y-75442D01*
X60375Y-75451D01*
X60384Y-75470D01*
X60384Y-75498D01*
X60375Y-75517D01*
X60365Y-75526D01*
X60347Y-75535D01*
X60272Y-75535D01*
G54D25*
X74050Y-77882D02*
X74050Y-78042D01*
X74059Y-78060D01*
X74068Y-78070D01*
X74087Y-78079D01*
X74125Y-78079D01*
X74143Y-78070D01*
X74153Y-78060D01*
X74162Y-78042D01*
X74162Y-77882D01*
X74359Y-78079D02*
X74246Y-78079D01*
X74303Y-78079D02*
X74303Y-77882D01*
X74284Y-77910D01*
X74265Y-77929D01*
X74246Y-77939D01*
X74562Y-78079D02*
X74562Y-77882D01*
X74627Y-78023D01*
X74693Y-77882D01*
X74693Y-78079D01*
X74899Y-78060D02*
X74890Y-78070D01*
X74862Y-78079D01*
X74843Y-78079D01*
X74815Y-78070D01*
X74796Y-78051D01*
X74787Y-78032D01*
X74777Y-77995D01*
X74777Y-77967D01*
X74787Y-77929D01*
X74796Y-77910D01*
X74815Y-77892D01*
X74843Y-77882D01*
X74862Y-77882D01*
X74890Y-77892D01*
X74899Y-77901D01*
X74984Y-78079D02*
X74984Y-77882D01*
X75059Y-77882D01*
X75078Y-77892D01*
X75087Y-77901D01*
X75096Y-77920D01*
X75096Y-77948D01*
X75087Y-77967D01*
X75078Y-77976D01*
X75059Y-77985D01*
X74984Y-77985D01*
X75284Y-78079D02*
X75171Y-78079D01*
X75228Y-78079D02*
X75228Y-77882D01*
X75209Y-77910D01*
X75190Y-77929D01*
X75171Y-77939D01*
X75453Y-77882D02*
X75415Y-77882D01*
X75397Y-77892D01*
X75387Y-77901D01*
X75368Y-77929D01*
X75359Y-77967D01*
X75359Y-78042D01*
X75368Y-78060D01*
X75378Y-78070D01*
X75397Y-78079D01*
X75434Y-78079D01*
X75453Y-78070D01*
X75462Y-78060D01*
X75472Y-78042D01*
X75472Y-77995D01*
X75462Y-77976D01*
X75453Y-77967D01*
X75434Y-77957D01*
X75397Y-77957D01*
X75378Y-77967D01*
X75368Y-77976D01*
X75359Y-77995D01*
X75547Y-77901D02*
X75556Y-77892D01*
X75575Y-77882D01*
X75622Y-77882D01*
X75640Y-77892D01*
X75650Y-77901D01*
X75659Y-77920D01*
X75659Y-77939D01*
X75650Y-77967D01*
X75537Y-78079D01*
X75659Y-78079D01*
X75828Y-77948D02*
X75828Y-78079D01*
X75781Y-77873D02*
X75734Y-78014D01*
X75856Y-78014D01*
G54D26*
X88299Y-73506D02*
X88205Y-73572D01*
X88299Y-73619D02*
X88102Y-73619D01*
X88102Y-73544D01*
X88112Y-73525D01*
X88121Y-73516D01*
X88140Y-73506D01*
X88168Y-73506D01*
X88187Y-73516D01*
X88196Y-73525D01*
X88205Y-73544D01*
X88205Y-73619D01*
X88299Y-73319D02*
X88299Y-73431D01*
X88299Y-73375D02*
X88102Y-73375D01*
X88130Y-73394D01*
X88149Y-73412D01*
X88159Y-73431D01*
X88102Y-73140D02*
X88102Y-73234D01*
X88196Y-73243D01*
X88187Y-73234D01*
X88177Y-73215D01*
X88177Y-73168D01*
X88187Y-73150D01*
X88196Y-73140D01*
X88215Y-73131D01*
X88262Y-73131D01*
X88280Y-73140D01*
X88290Y-73150D01*
X88299Y-73168D01*
X88299Y-73215D01*
X88290Y-73234D01*
X88280Y-73243D01*
X88111Y-72963D02*
X88102Y-72954D01*
X88092Y-72935D01*
X88092Y-72888D01*
X88102Y-72870D01*
X88111Y-72860D01*
X88130Y-72851D01*
X88149Y-72851D01*
X88177Y-72860D01*
X88289Y-72973D01*
X88289Y-72851D01*
X88111Y-72776D02*
X88102Y-72766D01*
X88092Y-72748D01*
X88092Y-72701D01*
X88102Y-72682D01*
X88111Y-72673D01*
X88130Y-72663D01*
X88149Y-72663D01*
X88177Y-72673D01*
X88289Y-72785D01*
X88289Y-72663D01*
X88092Y-72541D02*
X88092Y-72523D01*
X88102Y-72504D01*
X88111Y-72494D01*
X88130Y-72485D01*
X88167Y-72476D01*
X88214Y-72476D01*
X88252Y-72485D01*
X88270Y-72494D01*
X88280Y-72504D01*
X88289Y-72523D01*
X88289Y-72541D01*
X88280Y-72560D01*
X88270Y-72569D01*
X88252Y-72579D01*
X88214Y-72588D01*
X88167Y-72588D01*
X88130Y-72579D01*
X88111Y-72569D01*
X88102Y-72560D01*
X88092Y-72541D01*
X68329Y-73726D02*
X68235Y-73792D01*
X68329Y-73839D02*
X68132Y-73839D01*
X68132Y-73764D01*
X68142Y-73745D01*
X68151Y-73736D01*
X68170Y-73726D01*
X68198Y-73726D01*
X68217Y-73736D01*
X68226Y-73745D01*
X68235Y-73764D01*
X68235Y-73839D01*
X68329Y-73539D02*
X68329Y-73651D01*
X68329Y-73595D02*
X68132Y-73595D01*
X68160Y-73614D01*
X68179Y-73632D01*
X68189Y-73651D01*
X68198Y-73370D02*
X68329Y-73370D01*
X68123Y-73417D02*
X68264Y-73463D01*
X68264Y-73342D01*
X68151Y-73143D02*
X68142Y-73134D01*
X68132Y-73115D01*
X68132Y-73068D01*
X68142Y-73050D01*
X68151Y-73040D01*
X68170Y-73031D01*
X68189Y-73031D01*
X68217Y-73040D01*
X68329Y-73153D01*
X68329Y-73031D01*
X68151Y-72956D02*
X68142Y-72946D01*
X68132Y-72928D01*
X68132Y-72881D01*
X68142Y-72862D01*
X68151Y-72853D01*
X68170Y-72843D01*
X68189Y-72843D01*
X68217Y-72853D01*
X68329Y-72965D01*
X68329Y-72843D01*
X68132Y-72721D02*
X68132Y-72703D01*
X68142Y-72684D01*
X68151Y-72674D01*
X68170Y-72665D01*
X68207Y-72656D01*
X68254Y-72656D01*
X68292Y-72665D01*
X68310Y-72674D01*
X68320Y-72684D01*
X68329Y-72703D01*
X68329Y-72721D01*
X68320Y-72740D01*
X68310Y-72749D01*
X68292Y-72759D01*
X68254Y-72768D01*
X68207Y-72768D01*
X68170Y-72759D01*
X68151Y-72749D01*
X68142Y-72740D01*
X68132Y-72721D01*
X79360Y-81332D02*
X79370Y-81342D01*
X79379Y-81370D01*
X79379Y-81389D01*
X79370Y-81417D01*
X79351Y-81436D01*
X79332Y-81445D01*
X79295Y-81454D01*
X79267Y-81454D01*
X79229Y-81445D01*
X79210Y-81436D01*
X79192Y-81417D01*
X79182Y-81389D01*
X79182Y-81370D01*
X79192Y-81342D01*
X79201Y-81332D01*
X79201Y-81257D02*
X79192Y-81248D01*
X79182Y-81229D01*
X79182Y-81182D01*
X79192Y-81163D01*
X79201Y-81154D01*
X79220Y-81145D01*
X79239Y-81145D01*
X79267Y-81154D01*
X79379Y-81267D01*
X79379Y-81145D01*
X79379Y-80851D02*
X79379Y-80964D01*
X79379Y-80908D02*
X79182Y-80908D01*
X79210Y-80926D01*
X79229Y-80945D01*
X79239Y-80964D01*
X79201Y-80776D02*
X79192Y-80767D01*
X79182Y-80748D01*
X79182Y-80701D01*
X79192Y-80682D01*
X79201Y-80673D01*
X79220Y-80664D01*
X79239Y-80664D01*
X79267Y-80673D01*
X79379Y-80786D01*
X79379Y-80664D01*
X79360Y-80579D02*
X79370Y-80570D01*
X79379Y-80579D01*
X79370Y-80589D01*
X79360Y-80579D01*
X79379Y-80579D01*
X79182Y-80392D02*
X79182Y-80485D01*
X79276Y-80495D01*
X79267Y-80485D01*
X79257Y-80467D01*
X79257Y-80420D01*
X79267Y-80401D01*
X79276Y-80392D01*
X79295Y-80382D01*
X79342Y-80382D01*
X79360Y-80392D01*
X79370Y-80401D01*
X79379Y-80420D01*
X79379Y-80467D01*
X79370Y-80485D01*
X79360Y-80495D01*
X79248Y-80298D02*
X79445Y-80298D01*
X79257Y-80298D02*
X79248Y-80279D01*
X79248Y-80242D01*
X79257Y-80223D01*
X79267Y-80213D01*
X79285Y-80204D01*
X79342Y-80204D01*
X79360Y-80213D01*
X79370Y-80223D01*
X79379Y-80242D01*
X79379Y-80279D01*
X79370Y-80298D01*
X79276Y-80054D02*
X79276Y-80120D01*
X79379Y-80120D02*
X79182Y-80120D01*
X79182Y-80026D01*
X77310Y-81382D02*
X77320Y-81392D01*
X77329Y-81420D01*
X77329Y-81439D01*
X77320Y-81467D01*
X77301Y-81486D01*
X77282Y-81495D01*
X77245Y-81504D01*
X77217Y-81504D01*
X77179Y-81495D01*
X77160Y-81486D01*
X77142Y-81467D01*
X77132Y-81439D01*
X77132Y-81420D01*
X77142Y-81392D01*
X77151Y-81382D01*
X77198Y-81213D02*
X77329Y-81213D01*
X77123Y-81260D02*
X77264Y-81307D01*
X77264Y-81185D01*
X77329Y-80851D02*
X77329Y-80964D01*
X77329Y-80908D02*
X77132Y-80908D01*
X77160Y-80926D01*
X77179Y-80945D01*
X77189Y-80964D01*
X77151Y-80776D02*
X77142Y-80767D01*
X77132Y-80748D01*
X77132Y-80701D01*
X77142Y-80682D01*
X77151Y-80673D01*
X77170Y-80664D01*
X77189Y-80664D01*
X77217Y-80673D01*
X77329Y-80786D01*
X77329Y-80664D01*
X77310Y-80579D02*
X77320Y-80570D01*
X77329Y-80579D01*
X77320Y-80589D01*
X77310Y-80579D01*
X77329Y-80579D01*
X77132Y-80392D02*
X77132Y-80485D01*
X77226Y-80495D01*
X77217Y-80485D01*
X77207Y-80467D01*
X77207Y-80420D01*
X77217Y-80401D01*
X77226Y-80392D01*
X77245Y-80382D01*
X77292Y-80382D01*
X77310Y-80392D01*
X77320Y-80401D01*
X77329Y-80420D01*
X77329Y-80467D01*
X77320Y-80485D01*
X77310Y-80495D01*
X77198Y-80298D02*
X77395Y-80298D01*
X77207Y-80298D02*
X77198Y-80279D01*
X77198Y-80242D01*
X77207Y-80223D01*
X77217Y-80213D01*
X77235Y-80204D01*
X77292Y-80204D01*
X77310Y-80213D01*
X77320Y-80223D01*
X77329Y-80242D01*
X77329Y-80279D01*
X77320Y-80298D01*
X77226Y-80054D02*
X77226Y-80120D01*
X77329Y-80120D02*
X77132Y-80120D01*
X77132Y-80026D01*
X59767Y-79229D02*
X59701Y-79135D01*
X59654Y-79229D02*
X59654Y-79032D01*
X59729Y-79032D01*
X59748Y-79042D01*
X59757Y-79051D01*
X59767Y-79070D01*
X59767Y-79098D01*
X59757Y-79117D01*
X59748Y-79126D01*
X59729Y-79135D01*
X59654Y-79135D01*
X59879Y-79117D02*
X59860Y-79107D01*
X59851Y-79098D01*
X59842Y-79079D01*
X59842Y-79070D01*
X59851Y-79051D01*
X59860Y-79042D01*
X59879Y-79032D01*
X59917Y-79032D01*
X59936Y-79042D01*
X59945Y-79051D01*
X59954Y-79070D01*
X59954Y-79079D01*
X59945Y-79098D01*
X59936Y-79107D01*
X59917Y-79117D01*
X59879Y-79117D01*
X59860Y-79126D01*
X59851Y-79135D01*
X59842Y-79154D01*
X59842Y-79192D01*
X59851Y-79210D01*
X59860Y-79220D01*
X59879Y-79229D01*
X59917Y-79229D01*
X59936Y-79220D01*
X59945Y-79210D01*
X59954Y-79192D01*
X59954Y-79154D01*
X59945Y-79135D01*
X59936Y-79126D01*
X59917Y-79117D01*
X60392Y-79032D02*
X60513Y-79032D01*
X60448Y-79107D01*
X60476Y-79107D01*
X60495Y-79117D01*
X60504Y-79126D01*
X60513Y-79145D01*
X60513Y-79192D01*
X60504Y-79210D01*
X60495Y-79220D01*
X60476Y-79229D01*
X60420Y-79229D01*
X60401Y-79220D01*
X60392Y-79210D01*
X60682Y-79032D02*
X60645Y-79032D01*
X60626Y-79042D01*
X60617Y-79051D01*
X60598Y-79079D01*
X60589Y-79117D01*
X60589Y-79192D01*
X60598Y-79210D01*
X60607Y-79220D01*
X60626Y-79229D01*
X60664Y-79229D01*
X60682Y-79220D01*
X60692Y-79210D01*
X60701Y-79192D01*
X60701Y-79145D01*
X60692Y-79126D01*
X60682Y-79117D01*
X60664Y-79107D01*
X60626Y-79107D01*
X60607Y-79117D01*
X60598Y-79126D01*
X60589Y-79145D01*
X60786Y-79229D02*
X60786Y-79032D01*
X60898Y-79229D02*
X60814Y-79117D01*
X60898Y-79032D02*
X60786Y-79145D01*
X85129Y-81632D02*
X85035Y-81698D01*
X85129Y-81745D02*
X84932Y-81745D01*
X84932Y-81670D01*
X84942Y-81651D01*
X84951Y-81642D01*
X84970Y-81632D01*
X84998Y-81632D01*
X85017Y-81642D01*
X85026Y-81651D01*
X85035Y-81670D01*
X85035Y-81745D01*
X84932Y-81567D02*
X84932Y-81435D01*
X85129Y-81520D01*
X84932Y-81107D02*
X84932Y-80986D01*
X85007Y-81051D01*
X85007Y-81023D01*
X85017Y-81004D01*
X85026Y-80995D01*
X85045Y-80986D01*
X85092Y-80986D01*
X85110Y-80995D01*
X85120Y-81004D01*
X85129Y-81023D01*
X85129Y-81079D01*
X85120Y-81098D01*
X85110Y-81107D01*
X84932Y-80817D02*
X84932Y-80854D01*
X84942Y-80873D01*
X84951Y-80882D01*
X84979Y-80901D01*
X85017Y-80910D01*
X85092Y-80910D01*
X85110Y-80901D01*
X85120Y-80892D01*
X85129Y-80873D01*
X85129Y-80835D01*
X85120Y-80817D01*
X85110Y-80807D01*
X85092Y-80798D01*
X85045Y-80798D01*
X85026Y-80807D01*
X85017Y-80817D01*
X85007Y-80835D01*
X85007Y-80873D01*
X85017Y-80892D01*
X85026Y-80901D01*
X85045Y-80910D01*
X85129Y-80713D02*
X84932Y-80713D01*
X85129Y-80601D02*
X85017Y-80685D01*
X84932Y-80601D02*
X85045Y-80713D01*
X87723Y-77529D02*
X87657Y-77435D01*
X87610Y-77529D02*
X87610Y-77332D01*
X87685Y-77332D01*
X87704Y-77342D01*
X87713Y-77351D01*
X87723Y-77370D01*
X87723Y-77398D01*
X87713Y-77417D01*
X87704Y-77426D01*
X87685Y-77435D01*
X87610Y-77435D01*
X87910Y-77529D02*
X87798Y-77529D01*
X87854Y-77529D02*
X87854Y-77332D01*
X87835Y-77360D01*
X87817Y-77379D01*
X87798Y-77389D01*
X87986Y-77351D02*
X87995Y-77342D01*
X88014Y-77332D01*
X88061Y-77332D01*
X88079Y-77342D01*
X88089Y-77351D01*
X88098Y-77370D01*
X88098Y-77389D01*
X88089Y-77417D01*
X87976Y-77529D01*
X88098Y-77529D01*
X88513Y-77529D02*
X88401Y-77529D01*
X88457Y-77529D02*
X88457Y-77332D01*
X88438Y-77360D01*
X88420Y-77379D01*
X88401Y-77389D01*
X88635Y-77332D02*
X88654Y-77332D01*
X88673Y-77342D01*
X88682Y-77351D01*
X88692Y-77370D01*
X88701Y-77407D01*
X88701Y-77454D01*
X88692Y-77492D01*
X88682Y-77510D01*
X88673Y-77520D01*
X88654Y-77529D01*
X88635Y-77529D01*
X88617Y-77520D01*
X88607Y-77510D01*
X88598Y-77492D01*
X88589Y-77454D01*
X88589Y-77407D01*
X88598Y-77370D01*
X88607Y-77351D01*
X88617Y-77342D01*
X88635Y-77332D01*
X88786Y-77529D02*
X88786Y-77332D01*
X88898Y-77529D02*
X88814Y-77417D01*
X88898Y-77332D02*
X88786Y-77445D01*
X88567Y-78860D02*
X88557Y-78870D01*
X88529Y-78879D01*
X88510Y-78879D01*
X88482Y-78870D01*
X88463Y-78851D01*
X88454Y-78832D01*
X88445Y-78795D01*
X88445Y-78767D01*
X88454Y-78729D01*
X88463Y-78710D01*
X88482Y-78692D01*
X88510Y-78682D01*
X88529Y-78682D01*
X88557Y-78692D01*
X88567Y-78701D01*
X88736Y-78682D02*
X88698Y-78682D01*
X88679Y-78692D01*
X88670Y-78701D01*
X88651Y-78729D01*
X88642Y-78767D01*
X88642Y-78842D01*
X88651Y-78860D01*
X88660Y-78870D01*
X88679Y-78879D01*
X88717Y-78879D01*
X88736Y-78870D01*
X88745Y-78860D01*
X88754Y-78842D01*
X88754Y-78795D01*
X88745Y-78776D01*
X88736Y-78767D01*
X88717Y-78757D01*
X88679Y-78757D01*
X88660Y-78767D01*
X88651Y-78776D01*
X88642Y-78795D01*
X89038Y-78860D02*
X89048Y-78870D01*
X89038Y-78879D01*
X89029Y-78870D01*
X89038Y-78860D01*
X89038Y-78879D01*
X89170Y-78682D02*
X89188Y-78682D01*
X89207Y-78692D01*
X89217Y-78701D01*
X89226Y-78720D01*
X89235Y-78757D01*
X89235Y-78804D01*
X89226Y-78842D01*
X89217Y-78860D01*
X89207Y-78870D01*
X89188Y-78879D01*
X89170Y-78879D01*
X89151Y-78870D01*
X89142Y-78860D01*
X89132Y-78842D01*
X89123Y-78804D01*
X89123Y-78757D01*
X89132Y-78720D01*
X89142Y-78701D01*
X89151Y-78692D01*
X89170Y-78682D01*
X89423Y-78879D02*
X89310Y-78879D01*
X89367Y-78879D02*
X89367Y-78682D01*
X89348Y-78710D01*
X89329Y-78729D01*
X89310Y-78739D01*
X89592Y-78748D02*
X89592Y-78879D01*
X89507Y-78748D02*
X89507Y-78851D01*
X89517Y-78870D01*
X89536Y-78879D01*
X89564Y-78879D01*
X89582Y-78870D01*
X89592Y-78860D01*
X89751Y-78776D02*
X89686Y-78776D01*
X89686Y-78879D02*
X89686Y-78682D01*
X89779Y-78682D01*
X87767Y-76179D02*
X87701Y-76085D01*
X87654Y-76179D02*
X87654Y-75982D01*
X87729Y-75982D01*
X87748Y-75992D01*
X87757Y-76001D01*
X87767Y-76020D01*
X87767Y-76048D01*
X87757Y-76067D01*
X87748Y-76076D01*
X87729Y-76085D01*
X87654Y-76085D01*
X87860Y-76179D02*
X87898Y-76179D01*
X87917Y-76170D01*
X87926Y-76160D01*
X87945Y-76132D01*
X87954Y-76095D01*
X87954Y-76020D01*
X87945Y-76001D01*
X87936Y-75992D01*
X87917Y-75982D01*
X87879Y-75982D01*
X87860Y-75992D01*
X87851Y-76001D01*
X87842Y-76020D01*
X87842Y-76067D01*
X87851Y-76085D01*
X87860Y-76095D01*
X87879Y-76104D01*
X87917Y-76104D01*
X87936Y-76095D01*
X87945Y-76085D01*
X87954Y-76067D01*
X88413Y-76179D02*
X88301Y-76179D01*
X88357Y-76179D02*
X88357Y-75982D01*
X88338Y-76010D01*
X88320Y-76029D01*
X88301Y-76039D01*
X88535Y-75982D02*
X88554Y-75982D01*
X88573Y-75992D01*
X88582Y-76001D01*
X88592Y-76020D01*
X88601Y-76057D01*
X88601Y-76104D01*
X88592Y-76142D01*
X88582Y-76160D01*
X88573Y-76170D01*
X88554Y-76179D01*
X88535Y-76179D01*
X88517Y-76170D01*
X88507Y-76160D01*
X88498Y-76142D01*
X88489Y-76104D01*
X88489Y-76057D01*
X88498Y-76020D01*
X88507Y-76001D01*
X88517Y-75992D01*
X88535Y-75982D01*
X88686Y-76179D02*
X88686Y-75982D01*
X88798Y-76179D02*
X88714Y-76067D01*
X88798Y-75982D02*
X88686Y-76095D01*
X88617Y-74260D02*
X88607Y-74270D01*
X88579Y-74279D01*
X88560Y-74279D01*
X88532Y-74270D01*
X88513Y-74251D01*
X88504Y-74232D01*
X88495Y-74195D01*
X88495Y-74167D01*
X88504Y-74129D01*
X88513Y-74110D01*
X88532Y-74092D01*
X88560Y-74082D01*
X88579Y-74082D01*
X88607Y-74092D01*
X88617Y-74101D01*
X88795Y-74082D02*
X88701Y-74082D01*
X88692Y-74176D01*
X88701Y-74167D01*
X88720Y-74157D01*
X88767Y-74157D01*
X88786Y-74167D01*
X88795Y-74176D01*
X88804Y-74195D01*
X88804Y-74242D01*
X88795Y-74260D01*
X88786Y-74270D01*
X88767Y-74279D01*
X88720Y-74279D01*
X88701Y-74270D01*
X88692Y-74260D01*
X89038Y-74260D02*
X89048Y-74270D01*
X89038Y-74279D01*
X89029Y-74270D01*
X89038Y-74260D01*
X89038Y-74279D01*
X89170Y-74082D02*
X89188Y-74082D01*
X89207Y-74092D01*
X89217Y-74101D01*
X89226Y-74120D01*
X89235Y-74157D01*
X89235Y-74204D01*
X89226Y-74242D01*
X89217Y-74260D01*
X89207Y-74270D01*
X89188Y-74279D01*
X89170Y-74279D01*
X89151Y-74270D01*
X89142Y-74260D01*
X89132Y-74242D01*
X89123Y-74204D01*
X89123Y-74157D01*
X89132Y-74120D01*
X89142Y-74101D01*
X89151Y-74092D01*
X89170Y-74082D01*
X89423Y-74279D02*
X89310Y-74279D01*
X89367Y-74279D02*
X89367Y-74082D01*
X89348Y-74110D01*
X89329Y-74129D01*
X89310Y-74139D01*
X89592Y-74148D02*
X89592Y-74279D01*
X89507Y-74148D02*
X89507Y-74251D01*
X89517Y-74270D01*
X89536Y-74279D01*
X89564Y-74279D01*
X89582Y-74270D01*
X89592Y-74260D01*
X89751Y-74176D02*
X89686Y-74176D01*
X89686Y-74279D02*
X89686Y-74082D01*
X89779Y-74082D01*
X74917Y-75229D02*
X74851Y-75135D01*
X74804Y-75229D02*
X74804Y-75032D01*
X74879Y-75032D01*
X74898Y-75042D01*
X74907Y-75051D01*
X74917Y-75070D01*
X74917Y-75098D01*
X74907Y-75117D01*
X74898Y-75126D01*
X74879Y-75135D01*
X74804Y-75135D01*
X75095Y-75032D02*
X75001Y-75032D01*
X74992Y-75126D01*
X75001Y-75117D01*
X75020Y-75107D01*
X75067Y-75107D01*
X75086Y-75117D01*
X75095Y-75126D01*
X75104Y-75145D01*
X75104Y-75192D01*
X75095Y-75210D01*
X75086Y-75220D01*
X75067Y-75229D01*
X75020Y-75229D01*
X75001Y-75220D01*
X74992Y-75210D01*
X75420Y-75229D02*
X75307Y-75229D01*
X75363Y-75229D02*
X75363Y-75032D01*
X75345Y-75060D01*
X75326Y-75079D01*
X75307Y-75089D01*
X75485Y-75032D02*
X75607Y-75032D01*
X75542Y-75107D01*
X75570Y-75107D01*
X75589Y-75117D01*
X75598Y-75126D01*
X75607Y-75145D01*
X75607Y-75192D01*
X75598Y-75210D01*
X75589Y-75220D01*
X75570Y-75229D01*
X75513Y-75229D01*
X75495Y-75220D01*
X75485Y-75210D01*
X75729Y-75032D02*
X75748Y-75032D01*
X75767Y-75042D01*
X75776Y-75051D01*
X75786Y-75070D01*
X75795Y-75107D01*
X75795Y-75154D01*
X75786Y-75192D01*
X75776Y-75210D01*
X75767Y-75220D01*
X75748Y-75229D01*
X75729Y-75229D01*
X75710Y-75220D01*
X75701Y-75210D01*
X75692Y-75192D01*
X75682Y-75154D01*
X75682Y-75107D01*
X75692Y-75070D01*
X75701Y-75051D01*
X75710Y-75042D01*
X75729Y-75032D01*
X75879Y-75229D02*
X75879Y-75032D01*
X75992Y-75229D02*
X75907Y-75117D01*
X75992Y-75032D02*
X75879Y-75145D01*
X73417Y-75229D02*
X73351Y-75135D01*
X73304Y-75229D02*
X73304Y-75032D01*
X73379Y-75032D01*
X73398Y-75042D01*
X73407Y-75051D01*
X73417Y-75070D01*
X73417Y-75098D01*
X73407Y-75117D01*
X73398Y-75126D01*
X73379Y-75135D01*
X73304Y-75135D01*
X73586Y-75032D02*
X73548Y-75032D01*
X73529Y-75042D01*
X73520Y-75051D01*
X73501Y-75079D01*
X73492Y-75117D01*
X73492Y-75192D01*
X73501Y-75210D01*
X73510Y-75220D01*
X73529Y-75229D01*
X73567Y-75229D01*
X73586Y-75220D01*
X73595Y-75210D01*
X73604Y-75192D01*
X73604Y-75145D01*
X73595Y-75126D01*
X73586Y-75117D01*
X73567Y-75107D01*
X73529Y-75107D01*
X73510Y-75117D01*
X73501Y-75126D01*
X73492Y-75145D01*
X73857Y-75051D02*
X73866Y-75042D01*
X73885Y-75032D01*
X73932Y-75032D01*
X73951Y-75042D01*
X73960Y-75051D01*
X73970Y-75070D01*
X73970Y-75089D01*
X73960Y-75117D01*
X73848Y-75229D01*
X73970Y-75229D01*
X74092Y-75032D02*
X74110Y-75032D01*
X74129Y-75042D01*
X74139Y-75051D01*
X74148Y-75070D01*
X74157Y-75107D01*
X74157Y-75154D01*
X74148Y-75192D01*
X74139Y-75210D01*
X74129Y-75220D01*
X74110Y-75229D01*
X74092Y-75229D01*
X74073Y-75220D01*
X74063Y-75210D01*
X74054Y-75192D01*
X74045Y-75154D01*
X74045Y-75107D01*
X74054Y-75070D01*
X74063Y-75051D01*
X74073Y-75042D01*
X74092Y-75032D01*
X74279Y-75032D02*
X74298Y-75032D01*
X74317Y-75042D01*
X74326Y-75051D01*
X74336Y-75070D01*
X74345Y-75107D01*
X74345Y-75154D01*
X74336Y-75192D01*
X74326Y-75210D01*
X74317Y-75220D01*
X74298Y-75229D01*
X74279Y-75229D01*
X74260Y-75220D01*
X74251Y-75210D01*
X74242Y-75192D01*
X74232Y-75154D01*
X74232Y-75107D01*
X74242Y-75070D01*
X74251Y-75051D01*
X74260Y-75042D01*
X74279Y-75032D01*
X74429Y-75229D02*
X74429Y-75032D01*
X74542Y-75229D02*
X74457Y-75117D01*
X74542Y-75032D02*
X74429Y-75145D01*
X72129Y-77682D02*
X72129Y-77776D01*
X71932Y-77776D01*
X72129Y-77513D02*
X72129Y-77626D01*
X72129Y-77570D02*
X71932Y-77570D01*
X71960Y-77589D01*
X71979Y-77607D01*
X71989Y-77626D01*
X71998Y-77295D02*
X72129Y-77295D01*
X71923Y-77342D02*
X72064Y-77389D01*
X72064Y-77267D01*
X72110Y-77192D02*
X72120Y-77182D01*
X72129Y-77192D01*
X72120Y-77201D01*
X72110Y-77192D01*
X72129Y-77192D01*
X71932Y-77117D02*
X71932Y-76985D01*
X72129Y-77070D01*
X71998Y-76826D02*
X72129Y-76826D01*
X71998Y-76910D02*
X72101Y-76910D01*
X72120Y-76901D01*
X72129Y-76882D01*
X72129Y-76854D01*
X72120Y-76835D01*
X72110Y-76826D01*
X72129Y-76732D02*
X71932Y-76732D01*
X72026Y-76732D02*
X72026Y-76620D01*
X72129Y-76620D02*
X71932Y-76620D01*
X58479Y-77182D02*
X58385Y-77248D01*
X58479Y-77295D02*
X58282Y-77295D01*
X58282Y-77220D01*
X58292Y-77201D01*
X58301Y-77192D01*
X58320Y-77182D01*
X58348Y-77182D01*
X58367Y-77192D01*
X58376Y-77201D01*
X58385Y-77220D01*
X58385Y-77295D01*
X58479Y-76995D02*
X58479Y-77107D01*
X58479Y-77051D02*
X58282Y-77051D01*
X58310Y-77070D01*
X58329Y-77089D01*
X58339Y-77107D01*
X58479Y-76629D02*
X58479Y-76742D01*
X58479Y-76686D02*
X58282Y-76686D01*
X58310Y-76704D01*
X58329Y-76723D01*
X58339Y-76742D01*
X58282Y-76507D02*
X58282Y-76489D01*
X58292Y-76470D01*
X58301Y-76460D01*
X58320Y-76451D01*
X58357Y-76442D01*
X58404Y-76442D01*
X58442Y-76451D01*
X58460Y-76460D01*
X58470Y-76470D01*
X58479Y-76489D01*
X58479Y-76507D01*
X58470Y-76526D01*
X58460Y-76536D01*
X58442Y-76545D01*
X58404Y-76554D01*
X58357Y-76554D01*
X58320Y-76545D01*
X58301Y-76536D01*
X58292Y-76526D01*
X58282Y-76507D01*
X58282Y-76320D02*
X58282Y-76301D01*
X58292Y-76282D01*
X58301Y-76273D01*
X58320Y-76263D01*
X58357Y-76254D01*
X58404Y-76254D01*
X58442Y-76263D01*
X58460Y-76273D01*
X58470Y-76282D01*
X58479Y-76301D01*
X58479Y-76320D01*
X58470Y-76339D01*
X58460Y-76348D01*
X58442Y-76357D01*
X58404Y-76367D01*
X58357Y-76367D01*
X58320Y-76357D01*
X58301Y-76348D01*
X58292Y-76339D01*
X58282Y-76320D01*
X58479Y-76170D02*
X58282Y-76170D01*
X58479Y-76057D02*
X58367Y-76142D01*
X58282Y-76057D02*
X58395Y-76170D01*
X61429Y-76782D02*
X61335Y-76848D01*
X61429Y-76895D02*
X61232Y-76895D01*
X61232Y-76820D01*
X61242Y-76801D01*
X61251Y-76792D01*
X61270Y-76782D01*
X61298Y-76782D01*
X61317Y-76792D01*
X61326Y-76801D01*
X61335Y-76820D01*
X61335Y-76895D01*
X61232Y-76717D02*
X61232Y-76595D01*
X61307Y-76660D01*
X61307Y-76632D01*
X61317Y-76613D01*
X61326Y-76604D01*
X61345Y-76595D01*
X61392Y-76595D01*
X61410Y-76604D01*
X61420Y-76613D01*
X61429Y-76632D01*
X61429Y-76689D01*
X61420Y-76707D01*
X61410Y-76717D01*
X61429Y-76179D02*
X61429Y-76292D01*
X61429Y-76236D02*
X61232Y-76236D01*
X61260Y-76254D01*
X61279Y-76273D01*
X61289Y-76292D01*
X61232Y-76057D02*
X61232Y-76039D01*
X61242Y-76020D01*
X61251Y-76010D01*
X61270Y-76001D01*
X61307Y-75992D01*
X61354Y-75992D01*
X61392Y-76001D01*
X61410Y-76010D01*
X61420Y-76020D01*
X61429Y-76039D01*
X61429Y-76057D01*
X61420Y-76076D01*
X61410Y-76086D01*
X61392Y-76095D01*
X61354Y-76104D01*
X61307Y-76104D01*
X61270Y-76095D01*
X61251Y-76086D01*
X61242Y-76076D01*
X61232Y-76057D01*
X61232Y-75870D02*
X61232Y-75851D01*
X61242Y-75832D01*
X61251Y-75823D01*
X61270Y-75813D01*
X61307Y-75804D01*
X61354Y-75804D01*
X61392Y-75813D01*
X61410Y-75823D01*
X61420Y-75832D01*
X61429Y-75851D01*
X61429Y-75870D01*
X61420Y-75889D01*
X61410Y-75898D01*
X61392Y-75907D01*
X61354Y-75917D01*
X61307Y-75917D01*
X61270Y-75907D01*
X61251Y-75898D01*
X61242Y-75889D01*
X61232Y-75870D01*
X61429Y-75720D02*
X61232Y-75720D01*
X61429Y-75607D02*
X61317Y-75692D01*
X61232Y-75607D02*
X61345Y-75720D01*
X55967Y-78079D02*
X55901Y-77985D01*
X55854Y-78079D02*
X55854Y-77882D01*
X55929Y-77882D01*
X55948Y-77892D01*
X55957Y-77901D01*
X55967Y-77920D01*
X55967Y-77948D01*
X55957Y-77967D01*
X55948Y-77976D01*
X55929Y-77985D01*
X55854Y-77985D01*
X56136Y-77948D02*
X56136Y-78079D01*
X56089Y-77873D02*
X56042Y-78014D01*
X56164Y-78014D01*
X56620Y-78079D02*
X56507Y-78079D01*
X56563Y-78079D02*
X56563Y-77882D01*
X56545Y-77910D01*
X56526Y-77929D01*
X56507Y-77939D01*
X56742Y-77882D02*
X56760Y-77882D01*
X56779Y-77892D01*
X56789Y-77901D01*
X56798Y-77920D01*
X56807Y-77957D01*
X56807Y-78004D01*
X56798Y-78042D01*
X56789Y-78060D01*
X56779Y-78070D01*
X56760Y-78079D01*
X56742Y-78079D01*
X56723Y-78070D01*
X56713Y-78060D01*
X56704Y-78042D01*
X56695Y-78004D01*
X56695Y-77957D01*
X56704Y-77920D01*
X56713Y-77901D01*
X56723Y-77892D01*
X56742Y-77882D01*
X56929Y-77882D02*
X56948Y-77882D01*
X56967Y-77892D01*
X56976Y-77901D01*
X56986Y-77920D01*
X56995Y-77957D01*
X56995Y-78004D01*
X56986Y-78042D01*
X56976Y-78060D01*
X56967Y-78070D01*
X56948Y-78079D01*
X56929Y-78079D01*
X56910Y-78070D01*
X56901Y-78060D01*
X56892Y-78042D01*
X56882Y-78004D01*
X56882Y-77957D01*
X56892Y-77920D01*
X56901Y-77901D01*
X56910Y-77892D01*
X56929Y-77882D01*
X57079Y-78079D02*
X57079Y-77882D01*
X57192Y-78079D02*
X57107Y-77967D01*
X57192Y-77882D02*
X57079Y-77995D01*
X89423Y-76179D02*
X89357Y-76085D01*
X89310Y-76179D02*
X89310Y-75982D01*
X89385Y-75982D01*
X89404Y-75992D01*
X89413Y-76001D01*
X89423Y-76020D01*
X89423Y-76048D01*
X89413Y-76067D01*
X89404Y-76076D01*
X89385Y-76085D01*
X89310Y-76085D01*
X89610Y-76179D02*
X89498Y-76179D01*
X89554Y-76179D02*
X89554Y-75982D01*
X89535Y-76010D01*
X89517Y-76029D01*
X89498Y-76039D01*
X89732Y-75982D02*
X89751Y-75982D01*
X89770Y-75992D01*
X89779Y-76001D01*
X89789Y-76020D01*
X89798Y-76057D01*
X89798Y-76104D01*
X89789Y-76142D01*
X89779Y-76160D01*
X89770Y-76170D01*
X89751Y-76179D01*
X89732Y-76179D01*
X89714Y-76170D01*
X89704Y-76160D01*
X89695Y-76142D01*
X89686Y-76104D01*
X89686Y-76057D01*
X89695Y-76020D01*
X89704Y-76001D01*
X89714Y-75992D01*
X89732Y-75982D01*
X90104Y-75982D02*
X90010Y-75982D01*
X90001Y-76076D01*
X90010Y-76067D01*
X90029Y-76057D01*
X90076Y-76057D01*
X90095Y-76067D01*
X90104Y-76076D01*
X90113Y-76095D01*
X90113Y-76142D01*
X90104Y-76160D01*
X90095Y-76170D01*
X90076Y-76179D01*
X90029Y-76179D01*
X90010Y-76170D01*
X90001Y-76160D01*
X90235Y-75982D02*
X90254Y-75982D01*
X90273Y-75992D01*
X90282Y-76001D01*
X90292Y-76020D01*
X90301Y-76057D01*
X90301Y-76104D01*
X90292Y-76142D01*
X90282Y-76160D01*
X90273Y-76170D01*
X90254Y-76179D01*
X90235Y-76179D01*
X90217Y-76170D01*
X90207Y-76160D01*
X90198Y-76142D01*
X90189Y-76104D01*
X90189Y-76057D01*
X90198Y-76020D01*
X90207Y-76001D01*
X90217Y-75992D01*
X90235Y-75982D01*
X90386Y-76179D02*
X90386Y-75982D01*
X90498Y-76179D02*
X90414Y-76067D01*
X90498Y-75982D02*
X90386Y-76095D01*
X89373Y-77529D02*
X89307Y-77435D01*
X89260Y-77529D02*
X89260Y-77332D01*
X89335Y-77332D01*
X89354Y-77342D01*
X89363Y-77351D01*
X89373Y-77370D01*
X89373Y-77398D01*
X89363Y-77417D01*
X89354Y-77426D01*
X89335Y-77435D01*
X89260Y-77435D01*
X89560Y-77529D02*
X89448Y-77529D01*
X89504Y-77529D02*
X89504Y-77332D01*
X89485Y-77360D01*
X89467Y-77379D01*
X89448Y-77389D01*
X89748Y-77529D02*
X89636Y-77529D01*
X89692Y-77529D02*
X89692Y-77332D01*
X89673Y-77360D01*
X89654Y-77379D01*
X89636Y-77389D01*
X90104Y-77332D02*
X90010Y-77332D01*
X90001Y-77426D01*
X90010Y-77417D01*
X90029Y-77407D01*
X90076Y-77407D01*
X90095Y-77417D01*
X90104Y-77426D01*
X90113Y-77445D01*
X90113Y-77492D01*
X90104Y-77510D01*
X90095Y-77520D01*
X90076Y-77529D01*
X90029Y-77529D01*
X90010Y-77520D01*
X90001Y-77510D01*
X90235Y-77332D02*
X90254Y-77332D01*
X90273Y-77342D01*
X90282Y-77351D01*
X90292Y-77370D01*
X90301Y-77407D01*
X90301Y-77454D01*
X90292Y-77492D01*
X90282Y-77510D01*
X90273Y-77520D01*
X90254Y-77529D01*
X90235Y-77529D01*
X90217Y-77520D01*
X90207Y-77510D01*
X90198Y-77492D01*
X90189Y-77454D01*
X90189Y-77407D01*
X90198Y-77370D01*
X90207Y-77351D01*
X90217Y-77342D01*
X90235Y-77332D01*
X90386Y-77529D02*
X90386Y-77332D01*
X90498Y-77529D02*
X90414Y-77417D01*
X90498Y-77332D02*
X90386Y-77445D01*
X81979Y-73526D02*
X81885Y-73592D01*
X81979Y-73639D02*
X81782Y-73639D01*
X81782Y-73564D01*
X81792Y-73545D01*
X81801Y-73536D01*
X81820Y-73526D01*
X81848Y-73526D01*
X81867Y-73536D01*
X81876Y-73545D01*
X81885Y-73564D01*
X81885Y-73639D01*
X81979Y-73339D02*
X81979Y-73451D01*
X81979Y-73395D02*
X81782Y-73395D01*
X81810Y-73414D01*
X81829Y-73432D01*
X81839Y-73451D01*
X81782Y-73273D02*
X81782Y-73151D01*
X81857Y-73217D01*
X81857Y-73188D01*
X81867Y-73170D01*
X81876Y-73160D01*
X81895Y-73151D01*
X81942Y-73151D01*
X81960Y-73160D01*
X81970Y-73170D01*
X81979Y-73188D01*
X81979Y-73245D01*
X81970Y-73263D01*
X81960Y-73273D01*
X81801Y-72943D02*
X81792Y-72934D01*
X81782Y-72915D01*
X81782Y-72868D01*
X81792Y-72850D01*
X81801Y-72840D01*
X81820Y-72831D01*
X81839Y-72831D01*
X81867Y-72840D01*
X81979Y-72953D01*
X81979Y-72831D01*
X81801Y-72756D02*
X81792Y-72746D01*
X81782Y-72728D01*
X81782Y-72681D01*
X81792Y-72662D01*
X81801Y-72653D01*
X81820Y-72643D01*
X81839Y-72643D01*
X81867Y-72653D01*
X81979Y-72765D01*
X81979Y-72643D01*
X81782Y-72521D02*
X81782Y-72503D01*
X81792Y-72484D01*
X81801Y-72474D01*
X81820Y-72465D01*
X81857Y-72456D01*
X81904Y-72456D01*
X81942Y-72465D01*
X81960Y-72474D01*
X81970Y-72484D01*
X81979Y-72503D01*
X81979Y-72521D01*
X81970Y-72540D01*
X81960Y-72549D01*
X81942Y-72559D01*
X81904Y-72568D01*
X81857Y-72568D01*
X81820Y-72559D01*
X81801Y-72549D01*
X81792Y-72540D01*
X81782Y-72521D01*
X76410Y-77532D02*
X76420Y-77542D01*
X76429Y-77570D01*
X76429Y-77589D01*
X76420Y-77617D01*
X76401Y-77636D01*
X76382Y-77645D01*
X76345Y-77654D01*
X76317Y-77654D01*
X76279Y-77645D01*
X76260Y-77636D01*
X76242Y-77617D01*
X76232Y-77589D01*
X76232Y-77570D01*
X76242Y-77542D01*
X76251Y-77532D01*
X76232Y-77467D02*
X76232Y-77345D01*
X76307Y-77410D01*
X76307Y-77382D01*
X76317Y-77363D01*
X76326Y-77354D01*
X76345Y-77345D01*
X76392Y-77345D01*
X76410Y-77354D01*
X76420Y-77363D01*
X76429Y-77382D01*
X76429Y-77439D01*
X76420Y-77457D01*
X76410Y-77467D01*
X76429Y-77011D02*
X76429Y-77123D01*
X76429Y-77067D02*
X76232Y-77067D01*
X76260Y-77086D01*
X76279Y-77104D01*
X76289Y-77123D01*
X76232Y-76889D02*
X76232Y-76870D01*
X76242Y-76851D01*
X76251Y-76842D01*
X76270Y-76832D01*
X76307Y-76823D01*
X76354Y-76823D01*
X76392Y-76832D01*
X76410Y-76842D01*
X76420Y-76851D01*
X76429Y-76870D01*
X76429Y-76889D01*
X76420Y-76907D01*
X76410Y-76917D01*
X76392Y-76926D01*
X76354Y-76936D01*
X76307Y-76936D01*
X76270Y-76926D01*
X76251Y-76917D01*
X76242Y-76907D01*
X76232Y-76889D01*
X76298Y-76654D02*
X76429Y-76654D01*
X76298Y-76739D02*
X76401Y-76739D01*
X76420Y-76729D01*
X76429Y-76710D01*
X76429Y-76682D01*
X76420Y-76663D01*
X76410Y-76654D01*
X76326Y-76495D02*
X76326Y-76560D01*
X76429Y-76560D02*
X76232Y-76560D01*
X76232Y-76466D01*
G54D19*
X78575Y-76837D02*
X78575Y-76437D01*
X79047Y-76799D02*
X79025Y-76818D01*
X78961Y-76837D01*
X78918Y-76837D01*
X78854Y-76818D01*
X78811Y-76780D01*
X78789Y-76742D01*
X78768Y-76666D01*
X78768Y-76608D01*
X78789Y-76532D01*
X78811Y-76494D01*
X78854Y-76456D01*
X78918Y-76437D01*
X78961Y-76437D01*
X79025Y-76456D01*
X79047Y-76475D01*
X79475Y-76837D02*
X79218Y-76837D01*
X79347Y-76837D02*
X79347Y-76437D01*
X79304Y-76494D01*
X79261Y-76532D01*
X79218Y-76551D01*
X76957Y-77423D02*
X77148Y-77423D01*
X76919Y-77537D02*
X77053Y-77137D01*
X77186Y-77537D01*
X77262Y-77137D02*
X77491Y-77137D01*
X77376Y-77537D02*
X77376Y-77137D01*
X77567Y-77137D02*
X77795Y-77137D01*
X77681Y-77537D02*
X77681Y-77137D01*
X77929Y-77537D02*
X77929Y-77137D01*
X78119Y-77537D02*
X78119Y-77137D01*
X78348Y-77537D01*
X78348Y-77137D01*
X78614Y-77347D02*
X78614Y-77537D01*
X78481Y-77137D02*
X78614Y-77347D01*
X78748Y-77137D01*
X78938Y-77308D02*
X78900Y-77289D01*
X78881Y-77270D01*
X78862Y-77232D01*
X78862Y-77213D01*
X78881Y-77175D01*
X78900Y-77156D01*
X78938Y-77137D01*
X79014Y-77137D01*
X79053Y-77156D01*
X79072Y-77175D01*
X79091Y-77213D01*
X79091Y-77232D01*
X79072Y-77270D01*
X79053Y-77289D01*
X79014Y-77308D01*
X78938Y-77308D01*
X78900Y-77327D01*
X78881Y-77347D01*
X78862Y-77385D01*
X78862Y-77461D01*
X78881Y-77499D01*
X78900Y-77518D01*
X78938Y-77537D01*
X79014Y-77537D01*
X79053Y-77518D01*
X79072Y-77499D01*
X79091Y-77461D01*
X79091Y-77385D01*
X79072Y-77347D01*
X79053Y-77327D01*
X79014Y-77308D01*
X79434Y-77270D02*
X79434Y-77537D01*
X79338Y-77118D02*
X79243Y-77404D01*
X79491Y-77404D01*
X79624Y-77423D02*
X79814Y-77423D01*
X79586Y-77537D02*
X79719Y-77137D01*
X79853Y-77537D01*
X79986Y-77385D02*
X80291Y-77385D01*
X80462Y-77518D02*
X80519Y-77537D01*
X80614Y-77537D01*
X80653Y-77518D01*
X80672Y-77499D01*
X80691Y-77461D01*
X80691Y-77423D01*
X80672Y-77385D01*
X80653Y-77366D01*
X80614Y-77347D01*
X80538Y-77327D01*
X80500Y-77308D01*
X80481Y-77289D01*
X80462Y-77251D01*
X80462Y-77213D01*
X80481Y-77175D01*
X80500Y-77156D01*
X80538Y-77137D01*
X80634Y-77137D01*
X80691Y-77156D01*
X80843Y-77518D02*
X80900Y-77537D01*
X80995Y-77537D01*
X81034Y-77518D01*
X81053Y-77499D01*
X81072Y-77461D01*
X81072Y-77423D01*
X81053Y-77385D01*
X81034Y-77366D01*
X80995Y-77347D01*
X80919Y-77327D01*
X80881Y-77308D01*
X80862Y-77289D01*
X80843Y-77251D01*
X80843Y-77213D01*
X80862Y-77175D01*
X80881Y-77156D01*
X80919Y-77137D01*
X81014Y-77137D01*
X81072Y-77156D01*
G54D24*
X55771Y-75750D02*
X55742Y-75735D01*
X55714Y-75707D01*
X55671Y-75664D01*
X55642Y-75650D01*
X55614Y-75650D01*
X55628Y-75721D02*
X55600Y-75707D01*
X55571Y-75678D01*
X55557Y-75621D01*
X55557Y-75521D01*
X55571Y-75464D01*
X55600Y-75435D01*
X55628Y-75421D01*
X55685Y-75421D01*
X55714Y-75435D01*
X55742Y-75464D01*
X55757Y-75521D01*
X55757Y-75621D01*
X55742Y-75678D01*
X55714Y-75707D01*
X55685Y-75721D01*
X55628Y-75721D01*
X56042Y-75721D02*
X55871Y-75721D01*
X55957Y-75721D02*
X55957Y-75421D01*
X55928Y-75464D01*
X55900Y-75492D01*
X55871Y-75507D01*
G54D20*
X55335Y-75926D02*
X55270Y-75926D01*
X55270Y-76029D02*
X55270Y-75832D01*
X55363Y-75832D01*
X55438Y-75926D02*
X55504Y-75926D01*
X55532Y-76029D02*
X55438Y-76029D01*
X55438Y-75832D01*
X55532Y-75832D01*
X55589Y-75832D02*
X55701Y-75832D01*
X55645Y-76029D02*
X55645Y-75832D01*
X55720Y-76048D02*
X55870Y-76048D01*
X55917Y-76029D02*
X55917Y-75832D01*
X56029Y-76029D01*
X56029Y-75832D01*
G54D21*
X104203Y-79255D02*
X104222Y-79274D01*
X104241Y-79331D01*
X104241Y-79370D01*
X104222Y-79427D01*
X104184Y-79465D01*
X104146Y-79484D01*
X104070Y-79503D01*
X104013Y-79503D01*
X103937Y-79484D01*
X103899Y-79465D01*
X103860Y-79427D01*
X103841Y-79370D01*
X103841Y-79331D01*
X103860Y-79274D01*
X103880Y-79255D01*
X103841Y-79008D02*
X103841Y-78931D01*
X103860Y-78893D01*
X103899Y-78855D01*
X103975Y-78836D01*
X104108Y-78836D01*
X104184Y-78855D01*
X104222Y-78893D01*
X104241Y-78931D01*
X104241Y-79008D01*
X104222Y-79046D01*
X104184Y-79084D01*
X104108Y-79103D01*
X103975Y-79103D01*
X103899Y-79084D01*
X103860Y-79046D01*
X103841Y-79008D01*
X104241Y-78665D02*
X103841Y-78665D01*
X104241Y-78436D01*
X103841Y-78436D01*
X104241Y-78036D02*
X104241Y-78265D01*
X104241Y-78150D02*
X103841Y-78150D01*
X103899Y-78189D01*
X103937Y-78227D01*
X103956Y-78265D01*
X101127Y-80408D02*
X101127Y-80217D01*
X101241Y-80446D02*
X100841Y-80312D01*
X101241Y-80179D01*
X100841Y-80103D02*
X101241Y-79970D01*
X100841Y-79836D01*
X101241Y-79474D02*
X101051Y-79608D01*
X101241Y-79703D02*
X100841Y-79703D01*
X100841Y-79550D01*
X100860Y-79512D01*
X100880Y-79493D01*
X100918Y-79474D01*
X100975Y-79474D01*
X101013Y-79493D01*
X101032Y-79512D01*
X101051Y-79550D01*
X101051Y-79703D01*
X101089Y-79303D02*
X101089Y-78998D01*
X101241Y-78808D02*
X100841Y-78808D01*
X101222Y-78636D02*
X101241Y-78579D01*
X101241Y-78484D01*
X101222Y-78446D01*
X101203Y-78427D01*
X101165Y-78408D01*
X101127Y-78408D01*
X101089Y-78427D01*
X101070Y-78446D01*
X101051Y-78484D01*
X101032Y-78560D01*
X101013Y-78598D01*
X100994Y-78617D01*
X100956Y-78636D01*
X100918Y-78636D01*
X100880Y-78617D01*
X100860Y-78598D01*
X100841Y-78560D01*
X100841Y-78465D01*
X100860Y-78408D01*
X101241Y-78236D02*
X100841Y-78236D01*
X100841Y-78084D01*
X100860Y-78046D01*
X100880Y-78027D01*
X100918Y-78008D01*
X100975Y-78008D01*
X101013Y-78027D01*
X101032Y-78046D01*
X101051Y-78084D01*
X101051Y-78236D01*
X101089Y-77836D02*
X101089Y-77531D01*
X100841Y-77170D02*
X100841Y-77246D01*
X100860Y-77284D01*
X100880Y-77303D01*
X100937Y-77341D01*
X101013Y-77360D01*
X101165Y-77360D01*
X101203Y-77341D01*
X101222Y-77322D01*
X101241Y-77284D01*
X101241Y-77208D01*
X101222Y-77170D01*
X101203Y-77150D01*
X101165Y-77131D01*
X101070Y-77131D01*
X101032Y-77150D01*
X101013Y-77170D01*
X100994Y-77208D01*
X100994Y-77284D01*
X101013Y-77322D01*
X101032Y-77341D01*
X101070Y-77360D01*
G54D26*
X73167Y-77610D02*
X73157Y-77620D01*
X73129Y-77629D01*
X73110Y-77629D01*
X73082Y-77620D01*
X73063Y-77601D01*
X73054Y-77582D01*
X73045Y-77545D01*
X73045Y-77517D01*
X73054Y-77479D01*
X73063Y-77460D01*
X73082Y-77442D01*
X73110Y-77432D01*
X73129Y-77432D01*
X73157Y-77442D01*
X73167Y-77451D01*
X73354Y-77629D02*
X73242Y-77629D01*
X73298Y-77629D02*
X73298Y-77432D01*
X73279Y-77460D01*
X73260Y-77479D01*
X73242Y-77489D01*
X73138Y-77929D02*
X73026Y-77929D01*
X73082Y-77929D02*
X73082Y-77732D01*
X73063Y-77760D01*
X73045Y-77779D01*
X73026Y-77789D01*
X73260Y-77732D02*
X73279Y-77732D01*
X73298Y-77742D01*
X73307Y-77751D01*
X73317Y-77770D01*
X73326Y-77807D01*
X73326Y-77854D01*
X73317Y-77892D01*
X73307Y-77910D01*
X73298Y-77920D01*
X73279Y-77929D01*
X73260Y-77929D01*
X73242Y-77920D01*
X73232Y-77910D01*
X73223Y-77892D01*
X73213Y-77854D01*
X73213Y-77807D01*
X73223Y-77770D01*
X73232Y-77751D01*
X73242Y-77742D01*
X73260Y-77732D01*
X73495Y-77798D02*
X73495Y-77929D01*
X73410Y-77798D02*
X73410Y-77901D01*
X73420Y-77920D01*
X73439Y-77929D01*
X73467Y-77929D01*
X73486Y-77920D01*
X73495Y-77910D01*
X73654Y-77826D02*
X73589Y-77826D01*
X73589Y-77929D02*
X73589Y-77732D01*
X73683Y-77732D01*
G54D10*
X54203Y-84109D02*
X54221Y-84053D01*
X54240Y-84034D01*
X54278Y-84015D01*
X54334Y-84015D01*
X54371Y-84034D01*
X54390Y-84053D01*
X54409Y-84090D01*
X54409Y-84240D01*
X54015Y-84240D01*
X54015Y-84109D01*
X54034Y-84071D01*
X54053Y-84053D01*
X54090Y-84034D01*
X54128Y-84034D01*
X54165Y-84053D01*
X54184Y-84071D01*
X54203Y-84109D01*
X54203Y-84240D01*
X54015Y-83903D02*
X54015Y-83678D01*
X54409Y-83790D02*
X54015Y-83790D01*
X54409Y-83340D02*
X54409Y-83565D01*
X54409Y-83453D02*
X54015Y-83453D01*
X54071Y-83490D01*
X54109Y-83528D01*
X54128Y-83565D01*
X54203Y-88431D02*
X54221Y-88374D01*
X54240Y-88356D01*
X54278Y-88337D01*
X54334Y-88337D01*
X54371Y-88356D01*
X54390Y-88374D01*
X54409Y-88412D01*
X54409Y-88562D01*
X54015Y-88562D01*
X54015Y-88431D01*
X54034Y-88393D01*
X54053Y-88374D01*
X54090Y-88356D01*
X54128Y-88356D01*
X54165Y-88374D01*
X54184Y-88393D01*
X54203Y-88431D01*
X54203Y-88562D01*
X54296Y-88187D02*
X54296Y-87999D01*
X54409Y-88224D02*
X54015Y-88093D01*
X54409Y-87962D01*
X54015Y-87887D02*
X54015Y-87662D01*
X54409Y-87774D02*
X54015Y-87774D01*
X54015Y-87587D02*
X54015Y-87362D01*
X54409Y-87474D02*
X54015Y-87474D01*
X54203Y-87231D02*
X54203Y-87099D01*
X54409Y-87043D02*
X54409Y-87231D01*
X54015Y-87231D01*
X54015Y-87043D01*
X54409Y-86649D02*
X54221Y-86781D01*
X54409Y-86874D02*
X54015Y-86874D01*
X54015Y-86724D01*
X54034Y-86687D01*
X54053Y-86668D01*
X54090Y-86649D01*
X54146Y-86649D01*
X54184Y-86668D01*
X54203Y-86687D01*
X54221Y-86724D01*
X54221Y-86874D01*
X54221Y-86406D02*
X54409Y-86406D01*
X54015Y-86537D02*
X54221Y-86406D01*
X54015Y-86275D01*
X54446Y-86237D02*
X54446Y-85937D01*
X54371Y-85618D02*
X54390Y-85637D01*
X54409Y-85693D01*
X54409Y-85731D01*
X54390Y-85787D01*
X54353Y-85825D01*
X54315Y-85843D01*
X54240Y-85862D01*
X54184Y-85862D01*
X54109Y-85843D01*
X54071Y-85825D01*
X54034Y-85787D01*
X54015Y-85731D01*
X54015Y-85693D01*
X54034Y-85637D01*
X54053Y-85618D01*
X54409Y-85262D02*
X54409Y-85450D01*
X54015Y-85450D01*
X54409Y-85131D02*
X54015Y-85131D01*
X54409Y-84943D02*
X54015Y-84943D01*
X54015Y-84793D01*
X54034Y-84756D01*
X54053Y-84737D01*
X54090Y-84718D01*
X54146Y-84718D01*
X54184Y-84737D01*
X54203Y-84756D01*
X54221Y-84793D01*
X54221Y-84943D01*
X80503Y-84259D02*
X80521Y-84203D01*
X80540Y-84184D01*
X80578Y-84165D01*
X80634Y-84165D01*
X80671Y-84184D01*
X80690Y-84203D01*
X80709Y-84240D01*
X80709Y-84390D01*
X80315Y-84390D01*
X80315Y-84259D01*
X80334Y-84221D01*
X80353Y-84203D01*
X80390Y-84184D01*
X80428Y-84184D01*
X80465Y-84203D01*
X80484Y-84221D01*
X80503Y-84259D01*
X80503Y-84390D01*
X80315Y-84053D02*
X80315Y-83828D01*
X80709Y-83940D02*
X80315Y-83940D01*
X80315Y-83734D02*
X80315Y-83490D01*
X80465Y-83621D01*
X80465Y-83565D01*
X80484Y-83528D01*
X80503Y-83509D01*
X80540Y-83490D01*
X80634Y-83490D01*
X80671Y-83509D01*
X80690Y-83528D01*
X80709Y-83565D01*
X80709Y-83678D01*
X80690Y-83715D01*
X80671Y-83734D01*
X80503Y-88481D02*
X80521Y-88424D01*
X80540Y-88406D01*
X80578Y-88387D01*
X80634Y-88387D01*
X80671Y-88406D01*
X80690Y-88424D01*
X80709Y-88462D01*
X80709Y-88612D01*
X80315Y-88612D01*
X80315Y-88481D01*
X80334Y-88443D01*
X80353Y-88424D01*
X80390Y-88406D01*
X80428Y-88406D01*
X80465Y-88424D01*
X80484Y-88443D01*
X80503Y-88481D01*
X80503Y-88612D01*
X80596Y-88237D02*
X80596Y-88049D01*
X80709Y-88274D02*
X80315Y-88143D01*
X80709Y-88012D01*
X80315Y-87937D02*
X80315Y-87712D01*
X80709Y-87824D02*
X80315Y-87824D01*
X80315Y-87637D02*
X80315Y-87412D01*
X80709Y-87524D02*
X80315Y-87524D01*
X80503Y-87281D02*
X80503Y-87149D01*
X80709Y-87093D02*
X80709Y-87281D01*
X80315Y-87281D01*
X80315Y-87093D01*
X80709Y-86699D02*
X80521Y-86831D01*
X80709Y-86924D02*
X80315Y-86924D01*
X80315Y-86774D01*
X80334Y-86737D01*
X80353Y-86718D01*
X80390Y-86699D01*
X80446Y-86699D01*
X80484Y-86718D01*
X80503Y-86737D01*
X80521Y-86774D01*
X80521Y-86924D01*
X80521Y-86456D02*
X80709Y-86456D01*
X80315Y-86587D02*
X80521Y-86456D01*
X80315Y-86325D01*
X80746Y-86287D02*
X80746Y-85987D01*
X80671Y-85668D02*
X80690Y-85687D01*
X80709Y-85743D01*
X80709Y-85781D01*
X80690Y-85837D01*
X80653Y-85875D01*
X80615Y-85893D01*
X80540Y-85912D01*
X80484Y-85912D01*
X80409Y-85893D01*
X80371Y-85875D01*
X80334Y-85837D01*
X80315Y-85781D01*
X80315Y-85743D01*
X80334Y-85687D01*
X80353Y-85668D01*
X80709Y-85312D02*
X80709Y-85500D01*
X80315Y-85500D01*
X80709Y-85181D02*
X80315Y-85181D01*
X80709Y-84993D02*
X80315Y-84993D01*
X80315Y-84843D01*
X80334Y-84806D01*
X80353Y-84787D01*
X80390Y-84768D01*
X80446Y-84768D01*
X80484Y-84787D01*
X80503Y-84806D01*
X80521Y-84843D01*
X80521Y-84993D01*
X77003Y-88459D02*
X77021Y-88403D01*
X77040Y-88384D01*
X77078Y-88365D01*
X77134Y-88365D01*
X77171Y-88384D01*
X77190Y-88403D01*
X77209Y-88440D01*
X77209Y-88590D01*
X76815Y-88590D01*
X76815Y-88459D01*
X76834Y-88421D01*
X76853Y-88403D01*
X76890Y-88384D01*
X76928Y-88384D01*
X76965Y-88403D01*
X76984Y-88421D01*
X77003Y-88459D01*
X77003Y-88590D01*
X76815Y-88253D02*
X76815Y-88028D01*
X77209Y-88140D02*
X76815Y-88140D01*
X76853Y-87915D02*
X76834Y-87896D01*
X76815Y-87859D01*
X76815Y-87765D01*
X76834Y-87728D01*
X76853Y-87709D01*
X76890Y-87690D01*
X76928Y-87690D01*
X76984Y-87709D01*
X77209Y-87934D01*
X77209Y-87690D01*
X77003Y-87181D02*
X77021Y-87124D01*
X77040Y-87106D01*
X77078Y-87087D01*
X77134Y-87087D01*
X77171Y-87106D01*
X77190Y-87124D01*
X77209Y-87162D01*
X77209Y-87312D01*
X76815Y-87312D01*
X76815Y-87181D01*
X76834Y-87143D01*
X76853Y-87124D01*
X76890Y-87106D01*
X76928Y-87106D01*
X76965Y-87124D01*
X76984Y-87143D01*
X77003Y-87181D01*
X77003Y-87312D01*
X77096Y-86937D02*
X77096Y-86749D01*
X77209Y-86974D02*
X76815Y-86843D01*
X77209Y-86712D01*
X76815Y-86637D02*
X76815Y-86412D01*
X77209Y-86524D02*
X76815Y-86524D01*
X76815Y-86337D02*
X76815Y-86112D01*
X77209Y-86224D02*
X76815Y-86224D01*
X77003Y-85981D02*
X77003Y-85849D01*
X77209Y-85793D02*
X77209Y-85981D01*
X76815Y-85981D01*
X76815Y-85793D01*
X77209Y-85399D02*
X77021Y-85531D01*
X77209Y-85624D02*
X76815Y-85624D01*
X76815Y-85474D01*
X76834Y-85437D01*
X76853Y-85418D01*
X76890Y-85399D01*
X76946Y-85399D01*
X76984Y-85418D01*
X77003Y-85437D01*
X77021Y-85474D01*
X77021Y-85624D01*
X77021Y-85156D02*
X77209Y-85156D01*
X76815Y-85287D02*
X77021Y-85156D01*
X76815Y-85025D01*
X77246Y-84987D02*
X77246Y-84687D01*
X77171Y-84368D02*
X77190Y-84387D01*
X77209Y-84443D01*
X77209Y-84481D01*
X77190Y-84537D01*
X77153Y-84575D01*
X77115Y-84593D01*
X77040Y-84612D01*
X76984Y-84612D01*
X76909Y-84593D01*
X76871Y-84575D01*
X76834Y-84537D01*
X76815Y-84481D01*
X76815Y-84443D01*
X76834Y-84387D01*
X76853Y-84368D01*
X77209Y-84012D02*
X77209Y-84200D01*
X76815Y-84200D01*
X77209Y-83881D02*
X76815Y-83881D01*
X77209Y-83693D02*
X76815Y-83693D01*
X76815Y-83543D01*
X76834Y-83506D01*
X76853Y-83487D01*
X76890Y-83468D01*
X76946Y-83468D01*
X76984Y-83487D01*
X77003Y-83506D01*
X77021Y-83543D01*
X77021Y-83693D01*
G54D22*
X96534Y-88425D02*
X96534Y-87744D01*
X96697Y-87744D01*
X96737Y-87777D01*
X96758Y-87809D01*
X96778Y-87874D01*
X96778Y-87971D01*
X96758Y-88036D01*
X96737Y-88068D01*
X96697Y-88101D01*
X96534Y-88101D01*
X96941Y-87809D02*
X96962Y-87777D01*
X97002Y-87744D01*
X97104Y-87744D01*
X97145Y-87777D01*
X97165Y-87809D01*
X97186Y-87874D01*
X97186Y-87939D01*
X97165Y-88036D01*
X96921Y-88425D01*
X97186Y-88425D01*
G54D16*
G54D23*
G54D22*
X101334Y-89675D02*
X101334Y-88994D01*
X101497Y-88994D01*
X101537Y-89027D01*
X101558Y-89059D01*
X101578Y-89124D01*
X101578Y-89221D01*
X101558Y-89286D01*
X101537Y-89318D01*
X101497Y-89351D01*
X101334Y-89351D01*
X101721Y-88994D02*
X101986Y-88994D01*
X101843Y-89254D01*
X101904Y-89254D01*
X101945Y-89286D01*
X101965Y-89318D01*
X101986Y-89383D01*
X101986Y-89545D01*
X101965Y-89610D01*
X101945Y-89643D01*
X101904Y-89675D01*
X101782Y-89675D01*
X101741Y-89643D01*
X101721Y-89610D01*
G54D16*
G54D23*
%LPC*%
G54D27*
X66250Y-85050D03*
G54D28*
X65250Y-85050D03*
X65250Y-84050D03*
G54D29*
X98503Y-85984D03*
G54D30*
X101503Y-85984D03*
G54D27*
X89850Y-89350D03*
G54D28*
X90850Y-89350D03*
X91850Y-89350D03*
X92850Y-89350D03*
X93850Y-89350D03*
X94850Y-89350D03*
G54D31*
X57650Y-81500D03*
X67886Y-81500D03*
X89650Y-81500D03*
X99886Y-81500D03*
G54D32*
X77933Y-79370D03*
X78523Y-79370D03*
G54D28*
X63250Y-83750D03*
X62250Y-83750D03*
G54D33*
X64960Y-87421D03*
X65275Y-87421D03*
X65590Y-87421D03*
X65905Y-87421D03*
X66220Y-87421D03*
G54D34*
X63838Y-87460D03*
X63838Y-89625D03*
X67342Y-87460D03*
X67342Y-89625D03*
G54D35*
X64724Y-88444D03*
X66456Y-88444D03*
G54D36*
X100265Y-72537D03*
X101250Y-72517D03*
X102234Y-72517D03*
G54D37*
X103651Y-73501D03*
X98848Y-73501D03*
G54D36*
X54773Y-72202D03*
X55757Y-72202D03*
X56742Y-72202D03*
X57726Y-72202D03*
G54D37*
X58651Y-73501D03*
X53848Y-73501D03*
G54D27*
X78574Y-72783D03*
G54D28*
X79574Y-72783D03*
G54D27*
X79574Y-71371D03*
G54D28*
X78574Y-71371D03*
G54D27*
X88748Y-71470D03*
G54D28*
X89748Y-71470D03*
G54D27*
X68896Y-71627D03*
G54D28*
X69896Y-71627D03*
G54D27*
X53897Y-76771D03*
G54D28*
X53897Y-77771D03*
G54D38*
X59036Y-76303D03*
X59902Y-75928D03*
X59902Y-76678D03*
G54D39*
X74172Y-76527D03*
X74547Y-76527D03*
X74922Y-76527D03*
X74922Y-77527D03*
X74547Y-77527D03*
X74172Y-77527D03*
G54D40*
X88748Y-73445D03*
X88748Y-72695D03*
X68796Y-73602D03*
X68796Y-72852D03*
X78740Y-80491D03*
X78740Y-81241D03*
X77795Y-80499D03*
X77795Y-81249D03*
G54D41*
X60611Y-79653D03*
X59861Y-79653D03*
G54D40*
X85570Y-80794D03*
X85570Y-81544D03*
G54D41*
X88635Y-76950D03*
X87885Y-76950D03*
X88695Y-78290D03*
X89445Y-78290D03*
X87845Y-75620D03*
X88595Y-75620D03*
X88675Y-74683D03*
X89425Y-74683D03*
X75689Y-75669D03*
X74939Y-75669D03*
X74233Y-75669D03*
X73483Y-75669D03*
G54D40*
X72519Y-76829D03*
X72519Y-77579D03*
X57890Y-77105D03*
X57890Y-76355D03*
X60819Y-75928D03*
X60819Y-76678D03*
G54D41*
X56845Y-77480D03*
X56095Y-77480D03*
X90245Y-75620D03*
X89495Y-75620D03*
X90245Y-76910D03*
X89495Y-76910D03*
G54D40*
X81377Y-73445D03*
X81377Y-72695D03*
X75826Y-76672D03*
X75826Y-77422D03*
G54D42*
X77514Y-78075D03*
X78014Y-78075D03*
X78514Y-78075D03*
X79014Y-78075D03*
X79514Y-78075D03*
X80014Y-78075D03*
X80514Y-78075D03*
X80514Y-75975D03*
X80014Y-75975D03*
X79514Y-75975D03*
X79014Y-75975D03*
X78514Y-75975D03*
X78014Y-75975D03*
X77514Y-75975D03*
G54D43*
X56340Y-75577D03*
X56715Y-76443D03*
X55965Y-76443D03*
G54D44*
X102080Y-77770D03*
G54D45*
X103080Y-77770D03*
X102080Y-78770D03*
X103080Y-78770D03*
X102080Y-79770D03*
X103080Y-79770D03*
G54D40*
X73385Y-76357D03*
X73385Y-77107D03*
G54D29*
X58996Y-85984D03*
G54D30*
X55996Y-85984D03*
G54D29*
X85295Y-85984D03*
G54D30*
X82295Y-85984D03*
G54D29*
X72204Y-85984D03*
G54D30*
X75204Y-85984D03*
G54D27*
X97000Y-89350D03*
G54D28*
X98000Y-89350D03*
G54D27*
X99600Y-89350D03*
G54D28*
X100600Y-89350D03*
M02*
