G04 (created by PCBNEW (2013-07-07 BZR 4022)-stable) date 4/19/2015 11:38:55 PM*
%MOIN*%
G04 Gerber Fmt 3.4, Leading zero omitted, Abs format*
%FSLAX34Y34*%
G01*
G70*
G90*
G04 APERTURE LIST*
%ADD10C,0.00590551*%
%ADD11R,0.055X0.055*%
%ADD12C,0.055*%
%ADD13O,0.228346X0.110236*%
%ADD14O,0.216535X0.110236*%
%ADD15C,0.19685*%
%ADD16C,0.0354*%
%ADD17C,0.0787402*%
%ADD18O,0.11811X0.15748*%
G04 APERTURE END LIST*
G54D10*
G54D11*
X66250Y-85050D03*
G54D12*
X65250Y-85050D03*
X65250Y-84050D03*
G54D13*
X98503Y-85984D03*
G54D14*
X101503Y-85984D03*
G54D15*
X57650Y-81500D03*
X67886Y-81500D03*
X89650Y-81500D03*
X99886Y-81500D03*
G54D12*
X63250Y-83750D03*
X62250Y-83750D03*
G54D16*
X64724Y-88444D03*
X66456Y-88444D03*
G54D17*
X100265Y-72537D03*
X101250Y-72517D03*
X102234Y-72517D03*
G54D18*
X103651Y-73501D03*
X98848Y-73501D03*
G54D17*
X54773Y-72202D03*
X55757Y-72202D03*
X56742Y-72202D03*
X57726Y-72202D03*
G54D18*
X58651Y-73501D03*
X53848Y-73501D03*
G54D11*
X78574Y-72783D03*
G54D12*
X79574Y-72783D03*
G54D11*
X79574Y-71371D03*
G54D12*
X78574Y-71371D03*
G54D11*
X88748Y-71470D03*
G54D12*
X89748Y-71470D03*
G54D11*
X68896Y-71627D03*
G54D12*
X69896Y-71627D03*
G54D11*
X53897Y-76771D03*
G54D12*
X53897Y-77771D03*
G54D13*
X58996Y-85984D03*
G54D14*
X55996Y-85984D03*
G54D13*
X85295Y-85984D03*
G54D14*
X82295Y-85984D03*
G54D13*
X72204Y-85984D03*
G54D14*
X75204Y-85984D03*
G54D11*
X97000Y-89350D03*
G54D12*
X98000Y-89350D03*
G54D11*
X99600Y-89350D03*
G54D12*
X100600Y-89350D03*
M02*
