<?xml version="1.0" standalone="no"?>
 <!DOCTYPE svg PUBLIC "-//W3C//DTD SVG 1.1//EN" 
 "http://www.w3.org/Graphics/SVG/1.1/DTD/svg11.dtd"> 
<svg xmlns="http://www.w3.org/2000/svg" version="1.1" 
    width="27.94cm" height="21.59cm" viewBox="0 0 110000 85000 ">
<title>SVG Picture created as clock-Edge_Cuts.svg date 2015/06/06 13:24:57 </title>
  <desc>Picture generated by PCBNEW </desc>
<g style="fill:#000000; fill-opacity:1;stroke:#000000; stroke-opacity:1;
stroke-linecap:round; stroke-linejoin:round; "
 transform="translate(0 0) scale(1 1)">
</g>
<g style="fill:#000000; fill-opacity:0.0; 
stroke:#000000; stroke-width:39.3701; stroke-opacity:1; 
stroke-linecap:round; stroke-linejoin:round;">
<circle cx="33260" cy="28160" r="0.655906" /> 
<path d="M33259 28160
L33260 28160
" />
<path d="M33260 28159
L33260 28160
" />
<circle cx="33460" cy="29660" r="0.655906" /> 
<path d="M33459 29660
L33460 29660
" />
<path d="M33460 29659
L33460 29660
" />
<circle cx="33100" cy="30500" r="0.655906" /> 
<path d="M33099 30500
L33100 30500
" />
<path d="M33100 30499
L33100 30500
" />
<circle cx="33460" cy="30960" r="0.655906" /> 
<path d="M33459 30960
L33460 30960
" />
<path d="M33460 30959
L33460 30960
" />
<path d="M22800 48801
L22800 28801
" />
<path d="M75300 48801
L75300 28801
" />
<path d="M22800 48801
L75300 48801
" />
<path d="M22800 28800
L75300 28800
" />
</g> 
</svg>
